<?xml version="1.0" encoding="utf-8"?>
<!-- Generator: Adobe Illustrator 24.0.0, SVG Export Plug-In . SVG Version: 6.00 Build 0)  -->
<svg version="1.1" id="Layer_1" xmlns="http://www.w3.org/2000/svg" xmlns:xlink="http://www.w3.org/1999/xlink" x="0px" y="0px"
	 viewBox="0 0 408.46 408.39" style="enable-background:new 0 0 408.46 408.39;" xml:space="preserve">
<style type="text/css">
	.st0{fill:#039458;}
	.st1{fill:#FDFEFD;}
	.st2{fill:#EDEA5A;}
</style>
<path class="st0" d="M408.46,204.25c-0.1,113.07-91.56,204.04-203.74,204.14C91.12,408.5-0.21,317.1,0,203.71
	C0.21,91.62,90.39,1.58,201.05,0C316.49-1.65,408.56,91.43,408.46,204.25z M34.24,209.07c0.8,0.44,1.19-0.29,1.67-0.63
	c2.78-1.98,5.67-3.84,8.27-6.04c1.81-1.54,3.02-1.26,4.72,0.09c3.09,2.47,6.38,4.7,9.73,7.13c0.25-1.12-0.19-1.79-0.41-2.47
	c-1.11-3.54-2.23-7.07-3.46-10.57c-0.38-1.09-0.24-1.69,0.74-2.36c2.93-2.02,5.78-4.17,8.65-6.28c0.73-0.53,1.6-0.93,2.19-2.01
	c-4.43,0-8.58-0.11-12.73,0.05c-1.84,0.07-2.61-0.55-3.11-2.27c-1.17-4.06-2.54-8.06-4.02-12.68c-1.54,4.71-2.93,8.77-4.17,12.88
	c-0.46,1.52-1.13,2.11-2.79,2.06c-4.26-0.13-8.52-0.04-12.78-0.04c3.34,2.96,6.76,5.53,10.28,7.97c1.24,0.86,1.54,1.65,1.05,3.11
	c-1.36,4-2.54,8.05-3.79,12.09c-0.05,0.05-0.1,0.1-0.13,0.16c-0.01,0.02,0.05,0.07,0.08,0.1C34.24,209.26,34.24,209.16,34.24,209.07
	z M124.93,341.21c-0.08-0.08-0.16-0.16-0.24-0.24c-0.05-0.81-0.07-1.62-0.16-2.43c-0.38-3.45-2.69-5.11-5.91-3.93
	c-1.64,0.6-2,0.43-2.39-1.3c-1.28-5.65-6.41-7.69-11.35-4.67c-2.53,1.55-4.13,3.85-4.9,6.66c-1.28,4.67,1.94,9.96,6.49,10.83
	c1.72,0.33,3.35,0.15,4.33-1.48c1.11-1.86,1.63-3.89,0.39-5.9c-0.75-1.22-2-1.76-3.45-1.66c-1.47,0.11-2.44,0.91-3.06,2.25
	c-0.23,0.5-0.03,1.18-0.65,1.55c-1.43-1.28-1.98-2.82-1.33-4.62c0.73-2.03,2.17-3.35,4.36-3.69c4.49-0.68,7.68,2.42,7.83,7.45
	c0.02,0.87-0.84,2.17,0.39,2.58c1.34,0.44,1.24-1.15,1.71-1.86c1.51-2.24,3.78-2.27,5.16,0.06c1.09,1.84,0.92,3.66-0.27,5.44
	c-2.67,4.02-5.15,8.18-8,12.06c-1.75,2.38-1.96,4.57-0.75,7.13c0.74-0.31,0.94-1.01,1.29-1.53c5.51-8.38,11.02-16.75,16.44-25.18
	c0.92-1.42,1.58-1.75,3.03-0.66c1.53,1.16,3.13,2.31,4.93,3.04c0.12-3.33-1.47-5.38-4.26-6.71c-1.06-0.51-2.04-1.23-2.98-1.95
	c-8.25-6.25-18.25-10.04-25.17-18.17c-1.93-2.27-2.21-2.63-0.76-5.38c0.42-0.8,1.32-1.5,0.57-2.72c-2.78,2.42-4.74,5.53-7.35,8.51
	c0.89-6.39,0.51-7.96-3.42-10.86c-1.93-1.43-1.6-2.52-0.3-3.94c0.93-1.01,1.47-2.12,0.89-3.76c-3.84,3.27-7.56,6.43-11.27,9.59
	c0.83-3.28,1.72-6.21,2.42-9.21c0.46-1.96-0.06-3.39-1.85-4.53c-2.37-1.51-4.91-1.94-7.91-1.64c1.75-3.24,2.49-6.51,0.3-9.26
	c-3.04-3.8-4.71-8.18-6.28-12.61c-3.58-10.1-9.5-19.38-10.57-30.36c-0.22-2.29,1.5-4.21,3.75-3.57c5.27,1.48,8.86,4.61,9.9,10.25
	c0.65,3.54,0.38,6.95-0.95,10.27c-0.94,2.35-1.98,4.67-2.98,7.02c0.98,0.29,1.52-0.25,1.98-0.99c2.83-4.53,4.88-9.34,5.29-14.73
	c0.56-7.47-2.45-12.79-8.77-15.48c-4.38-1.87-6.42-1.23-8.24,2.27c-0.12,0.24-0.38,0.41-0.81,0.87c-0.61-2.73-1.16-5.2-1.74-7.84
	c-2.03,2.03-3.19,4.06-2.09,6.71c0.67,1.61-0.06,1.95-1.51,2.26c-8.35,1.77-16.65,3.8-25.02,5.41c-2.89,0.55-4.43,1.97-5.32,4.53
	c0.51,0.27,1,0.04,1.5-0.07c9.79-2.15,19.58-4.28,29.36-6.47c1.6-0.36,2.46-0.11,2.67,1.7c0.49,4.25,1.31,8.41,3.25,12.3
	c1.09,2.19,1.85,4.53,2.81,6.78c3.53,8.26,5.8,17.11,11.46,24.38c0.99,1.27,0.76,2.8,0.21,4.26c-0.33,0.88-0.69,1.33-1.78,0.76
	c-1.78-0.92-3.77-0.79-5.69-0.59c-2.61,0.27-4.67,2.42-4.77,4.81c-0.09,2.12,1.51,4.06,4.3,4.25c2.41,0.16,2.56,0.94,2.15,3.02
	c-0.47,2.36,1.27,4.72,3.28,5.17c2.01,0.45,4.37-0.99,5.28-3.21c0.55-1.33,0.58-2.75,0.65-4.16c0.1-1.97,0.59-2.3,2.43-1.59
	c1.47,0.57,2.43,1.61,2.31,3.19c-0.26,3.49-1.14,6.69-4.28,8.89c-4.44,3.11-8.69,6.51-13.22,9.47c-2.47,1.62-3.18,3.64-2.96,6.52
	c0.88-0.62,1.65-1.15,2.41-1.72c7.88-5.84,15.77-11.65,23.61-17.54c1.1-0.82,1.68-0.85,2.43,0.33c0.83,1.31,1.83,2.53,2.78,3.76
	c0.18,0.23,0.45,0.9,0.73,0.46c1.03-1.65,1.13,0.08,1.3,0.4c1.26,2.35,0.69,5.27-1.45,7.56c-5.12,5.49-10.17,11.04-15.45,16.37
	c-1.91,1.93-1.83,3.89-1.31,6.3c0.39-0.17,0.5-0.56,0.75-0.83c7.12-7.58,14.3-15.1,21.34-22.76c1.43-1.55,2.14-1.33,3.62-0.1
	c2.1,1.74,3.29,4.25,5.72,5.75c6.07,3.73,11.94,7.8,17.94,11.64c1.17,0.75,1.36,1.33,0.51,2.41
	C127.09,338.04,126.29,339.83,124.93,341.21z M105.45,77.82c-3.81-0.96-7.61-1.95-11.53-2.37c-3.6-0.39-4.5,0.19-6.12,3.4
	c-1.58,3.12-1.56,6.37-0.85,9.78c-6.24-2.23-9.09-1.67-13.84,2.55c-2.01,1.79-3.65,3.64-4.86,6.26c-1.87,4.07-4.81,7.64-7.29,11.44
	c-4.87,7.45-9.73,14.91-14.79,22.66c2.2-0.37,1.81,0.56,1.28,1.71c-0.96,2.08-4.54,2.65-6.08,0.73c-3.94-4.9-5.87-10.32-3.51-16.58
	c2.29-6.06,6.56-10.33,12.16-13.39c2.03-1.11,4.02-2.31,6.26-3.6c-2.06-0.55-2.08-0.59-3.1-0.2c-6.76,2.61-12.78,6.29-17.37,12.05
	c-6.17,7.75-6.45,15.96-0.8,23.75c2.16,2.97,4.29,3.6,7.7,2.37c0.8-0.29,1.55-0.86,2.73-0.64c-1.33,3.12-2.62,6.16-3.97,9.33
	c3.77-0.63,6.54-1.97,7.28-5.8c0.33-1.7,1.26-1.66,2.72-1.01c10.24,4.55,20.6,8.83,30.74,13.58c3.39,1.59,5.85,0.66,8.79-1.12
	c-5.88-2.55-11.52-5-17.16-7.46c-6.94-3.02-13.88-6.04-20.8-9.1c-0.7-0.31-1.94-0.42-1.28-1.78c1.8-3.73,2.93-7.78,5.2-11.29
	c5.05-7.79,10.14-15.55,15.22-23.33c1.75-2.67,3.43-5.37,6.05-7.36c1.97-1.5,4.02-1.72,6.3-1.06c1.04,0.3,1.32,0.72,0.94,1.91
	c-0.91,2.84-0.66,5.74,0.3,8.53c0.93,2.69,3.93,4.57,6.64,4.29c2.3-0.24,4.03-2.12,4.55-5.09c0.17-0.94,0.26-1.96,0.07-2.87
	c-0.27-1.29,0.06-1.62,1.29-1.28c0.5,0.14,1.02,0.21,1.54,0.25c2.97,0.2,6.07-1.93,6.64-4.55c0.58-2.66-1.4-5.59-4.43-6.61
	c-1.08-0.36-2.19-0.39-3.3-0.39c-1.11,0-2.23,0.04-3.34,0.14c-1.03,0.1-1.52-0.31-1.63-1.32c-0.21-2.09,1.34-4.66,3.39-4.89
	c4.32-0.47,8.56-0.04,11.73,3.39c5.15,5.56,10.35,11.09,15.17,16.92c2.35,2.84,5.01,2.23,8.32,2.38
	c-4.81-5.22-9.23-10.02-13.65-14.82c-4.98-5.41-9.97-10.82-14.94-16.24c-0.5-0.55-1.45-1.14-0.26-1.92
	c5.4-3.57,10.47-2.56,13.62,2.44c4.78,7.61,9.86,15.03,14.43,22.76c1.95,3.29,4.39,4.94,8.04,5.14c0.12-0.55-0.31-0.91-0.57-1.32
	c-2.99-4.7-5.98-9.4-8.99-14.09c-4.45-6.94-8.91-13.88-13.34-20.83c-0.42-0.65-1.36-1.32-0.03-2.16c2.94-1.86,5.68-4.23,8.72-5.69
	c7.68-3.69,15.7-6.69,23.59-9.95c0.43-0.18,0.86-0.47,1.32,0.19c0.77,1.11,2.83,7.12,2.77,8.55c-6.96-5.26-10.91-2.54-11.66,4.13
	c-1.11-0.43-2.19-0.92-3.3-1.27c-4.24-1.3-8.57,0.09-10.69,3.38c-2.8,4.37-1.9,11.22,2.08,15.74c3.29,3.74,8.79,4.66,13.69,2.25
	c2.35-1.15,4.15-2.94,4.06-5.64c-0.09-2.76-1.98-4.57-4.39-5.72c-2.03-0.97-4.34-0.29-5.75,1.53c-1.33,1.71-1.23,3.92,0.21,5.74
	c0.34,0.43,1.06,0.61,0.96,1.36c-3.56,0.58-5.85-0.64-6.9-3.67c-1.28-3.67,0.52-7.83,4.07-9.55c4.19-2.04,7.61-0.42,10.88,2.14
	c0.5,0.39,0.89,1.32,1.83,0.51c0.87-0.75,0.23-1.28-0.11-1.89c-0.29-0.52-0.61-1.02-0.83-1.57c-1.1-2.76,0.28-4.91,3.27-5.12
	c2.69-0.19,4.95,1.37,6.14,4.23c2.5,6.03,5.24,11.98,7.42,18.12c1.22,3.42,3.75,4.09,6.87,4.99c-0.38-0.98-0.62-1.66-0.9-2.33
	c-5.01-12.07-10-24.14-15.08-36.18c-0.66-1.57-0.56-2.31,1.13-2.91c2.51-0.9,4.94-2.04,7.84-3.25c-1.86-0.76-3.17-1.27-4.46-1.84
	c-0.87-0.39-1.64-0.36-2.54,0.01c-14.04,5.86-28.09,11.68-42.14,17.52c-0.32,0.13-0.61,0.33-0.9,0.49c0.27,0.71,1.33,0.42,1.42,1.13
	c-1.34,1.83-2.81,1.53-4.29,0.41c-0.88-0.67-1.77-1.37-2.5-2.19c-0.7-0.79-1.42-0.97-2.59-0.61c2.55,3.71,5.05,7.35,7.75,11.27
	c-1.56-0.09-2.22-0.87-3.04-1.3c-3.06-1.63-6.61-1.36-9.23,0.97c-1.62,1.45-3.12,1.13-4.58-0.07c-1.48-1.22-3.09-1.52-5.33-0.99
	c4.88,4.61,9.54,9.02,14.2,13.42C105.66,77.56,105.55,77.69,105.45,77.82z M241.26,385.72l0.06,0.07l-0.03-0.06
	c-1.56-10.79-3.12-21.59-4.68-32.38c-0.09-0.6-0.59-1.6,0.41-1.62c3.25-0.07,6.51-2.43,9.78,0.14c1.12,0.88,2.64,0.81,4.08,0.68
	c1.62-0.14,3.26-0.28,4.89-0.22c2.37,0.09,4.2,1.28,5.57,3.21c0.71,1.01,1.11,1.76-0.64,2.08c-1.17,0.21-2.21,0.86-3.15,1.6
	c-2.66,2.07-3.09,5-1.19,7.88c1.66,2.52,4.55,3.1,7.41,1.49c1.49-0.84,2.42-2.16,3.13-3.66c0.25-0.52,0.36-1.2,1.2-1.02
	c3.75,0.83,7.39,1.77,9.9,5.13c0.91,1.22,1.57,3.03,3.76,3.23c-0.24-0.7-0.39-1.18-0.57-1.65c-3.67-9.31-7.28-18.65-11.08-27.91
	c-0.79-1.93-0.29-2.56,1.44-3.14c1.89-0.64,3.97-1.16,5.5-2.34c5.57-4.33,11.58-8.01,17.27-12.15c0.76-0.55,1.23-0.53,1.79,0.3
	c2.75,4.14,5.55,8.24,8.33,12.36c-0.13,0.13-0.26,0.25-0.38,0.38c-0.62-0.24-1.24-0.47-1.85-0.73c-3.11-1.33-6.27-2.46-9.71-1.65
	c-3.45,0.81-5.85,2.87-6.7,6.41c-0.79,3.27,0.57,5.83,3.04,7.84c2.52,2.04,6.79,0.99,8.74-2.05c1.36-2.12,0.28-4.66-2.63-6.35
	c-0.67-0.39-1.55-0.45-2.07-1.3c2.4-2.02,5.11-1.97,7.8-1.11c5.95,1.91,10.88,5.37,14.72,10.33c0.59,0.76,1.08,1.6,2.25,1.51
	c0.07-0.7-0.46-1.08-0.77-1.53c-5.08-7.41-10.18-14.81-15.26-22.22c-1.08-1.58-3.17-3.19-2.88-4.77c0.29-1.61,2.89-2.27,4.4-3.46
	c0.58-0.46,1.68-0.63,1.55-1.6c-0.19-1.38,0.92-1.78,1.66-2.22c0.78-0.46,1.22,0.6,1.68,1.09c5.96,6.23,11.99,12.39,17.75,18.8
	c1.89,2.1,3.84,2.26,6.28,1.94c-0.19-1.02-0.94-1.45-1.48-2.02c-6.73-7.13-13.49-14.24-20.22-21.37c-0.4-0.43-1.44-0.92-0.8-1.56
	c1.65-1.66,3-4.2,5.38-4.43c3.18-0.31,5.02-1.96,6.94-4.15c3.04-3.46,8.62-2.14,10.05,2.22c0.39,1.19,0.77,2.4,1.03,3.63
	c0.67,3.1-0.2,4.02-3.29,3.57c-0.29-0.04-0.59-0.1-0.87-0.2c-1-0.37-1.33-0.06-1.25,1.01c0.09,1.15,0.55,1.77,1.75,1.81
	c1.26,0.04,2.52,0.19,3.78,0.21c4.85,0.08,6.79-2.44,5.5-7.1c-0.75-2.72-1.97-5.3-2.35-8.13c-0.21-1.55-0.14-3.06,1.49-3.84
	c1.75-0.84,3.51-1.66,5.41-0.2c3.12,2.39,6.43,4.56,9.42,7.11c2.21,1.89,4.47,1.9,7.32,1.31c-1.02-0.81-1.81-1.47-2.63-2.08
	c-7.86-5.86-15.71-11.74-23.6-17.55c-1.06-0.78-1.08-1.32-0.29-2.28c1.29-1.58,2.45-3.25,3.76-5.02c-2.86-0.28-4.97,0.38-6.45,2.58
	c-1.05,1.57-2.07,3.17-3.27,4.63c-6.68,8.1-11.4,17.81-20.14,24.21c-1.77,1.3-4.36,0.87-4.94-1.26c-1.27-4.68-1.03-9.15,2.57-12.89
	c2.81-2.92,6.18-4.84,10.21-5.5c2.68-0.44,5.37-0.8,8.25-1.23c-0.71-0.7-1.29-0.98-1.96-1c-6.99-0.21-13.61,0.91-19.33,5.34
	c-4.36,3.37-5.97,7.81-5.22,13.17c0.68,4.9,1.57,5.67,6.57,5.97c0.18,0.01,0.34,0.15,0.74,0.34c-2.99,2.45-5.23,5.44-8.34,7.53
	c-3.33,2.24-6.54,4.65-9.93,6.79c-5.44,3.44-10.21,7.9-16.43,10.14c-6.28,2.26-12.42,4.91-18.66,7.29c-3.18,1.21-6.2,2.99-9.58,3.53
	c-7.62,1.23-15.28,2.23-22.93,3.31c-3.23,0.46-6.49,1.35-9.7,1.2c-8.08-0.37-16.14-1.24-24.21-1.88c-3.51-0.28-7.03-0.5-10.8-0.76
	c0.94,2,2.65,3.02,3.33,4.78c0.72,1.85,2.15,2.96,3.98,3.64c1.39,0.51,2.81,1,4.13,1.66c2.43,1.22,3.81,3.22,4.16,5.94
	c0.15,1.16-0.13,1.69-1.39,1.37c-1.25-0.32-2.5-0.27-3.75,0.01c-3.08,0.71-4.88,3.17-4.51,6.18c0.39,3.13,2.52,4.96,5.73,4.98
	c1.74,0.01,3.24-0.67,4.46-1.78c1.12-1.02,1.86-0.63,2.83,0.14c3.2,2.55,5.45,5.64,6.02,9.8c0.14,1.05,0.2,2.23,1.62,2.93
	c0.2-2.59,0.39-5,0.58-7.41c0.64-8.22,1.28-16.44,1.95-24.66c0.05-0.64-0.27-1.78,0.85-1.73c2.95,0.13,5.99-0.12,8.77,0.99
	c1.83,0.73,3.59,1.34,5.57,1.29c1.72-0.05,3.4,0.23,5.03,0.83c1.29,0.47,1.68,0.96,0.51,2.12c-1.53,1.51-2.93,3.16-4.32,4.81
	c-3.32,3.92-3.32,3.94,0.43,7.42c0.77,0.72,1.34,1.73,2.75,1.56c6.95-0.84,11.68,2.88,15.73,7.88
	C239.01,383.48,239.62,385.08,241.26,385.72z M245.14,88.17c4.54-13.6,9.03-26.96,13.43-40.36c0.5-1.53,0.98-1.83,2.63-1.39
	c9.23,2.49,17.24,7.55,25.64,11.81c0.66,0.33,1.93,0.34,1.32,1.78c-0.51,1.21-1.15,1.61-2.55,1.37c-8.49-1.5-17.02-1.21-25.54-0.24
	c-1.01,0.11-1.42,0.35-1.19,1.51c0.44,2.18,0.75,4.39,0.99,6.61c0.12,1.08,0.59,1.74,1.47,2.31c3.11,2.04,5.38,4.85,7.25,8.03
	c2.26,3.84,3.06,7.98,2.95,12.39c-0.06,2.44-0.25,4.94,0.79,7.65c0.56-0.96,0.95-1.57,1.29-2.22c5.95-11.39,11.88-22.78,17.85-34.16
	c0.36-0.69,0.54-2.19,1.56-1.7c1.48,0.71,3.96,0.73,4.02,2.9c0.07,2.51,1.16,4.2,2.88,5.74c0.77,0.69,1.52,1.43,2.19,2.22
	c2.62,3.13,1.68,10.26-1.69,11.44c-2.85,1-5.85,1.73-8.93,1.77c-2.17,0.02-3.03-0.87-2.77-3.01c0.17-1.38,0.61-2.73,0.97-4.25
	c-1.27,0.38-3.1-1.06-3.73,1.07c-0.76,2.56-1.16,5.24-1.01,7.93c0.21,3.76,3.27,6.24,6.96,5.64c2.12-0.35,4.2-0.96,6.3-1.42
	c1.89-0.41,3.77-0.88,5.68-1.1c2.06-0.23,4.12-0.04,5.05,2.28c0.96,2.39,1.66,4.74-0.41,7.06c-3.37,3.77-6.4,7.85-9.97,11.41
	c-2.68,2.68-2.36,5.56-2.05,9.07c8.45-9.87,16.65-19.47,24.88-29.03c1.19-1.39,2.37-3.98,3.75-3.75c1.99,0.33,3.59,2.42,4.97,4.19
	c0.27,0.35,0.53,0.72,0.78,1.09c6.72,9.62,13.59,19.15,20.1,28.91c3.7,5.55,3.2,11.51-3.8,14.67c-8.59,3.88-17.08,7.99-25.74,11.7
	c-3.16,1.36-3.76,3.87-4.75,6.79c0.81-0.34,1.29-0.54,1.75-0.75c12.35-5.67,24.71-11.29,37.01-17.05c1.8-0.84,2.39-0.39,3.04,1.25
	c0.97,2.45,2.18,4.8,3.35,7.32c2.52-4.63,2.55-4.9,0.86-8.61c-1.45-3.19-1.34-3.65,1.38-6c0.45-0.39,0.93-0.74,1.41-1.09
	c0.78-0.57,1.23-1.25,0.88-2.34c-4.56,1.76-8.54,4.58-12.98,6.51c1.6-1.27,2.05-3.45,4.07-4.38c1.09-0.5,0.76-5.45-0.09-6.68
	c-6.76-9.68-13.41-19.45-20.33-29.01c-2.79-3.84-5.19-7.79-9.3-10.91c-10.34-7.85-19.89-16.73-29.78-25.17
	c-0.43-0.37-1.17-1.22-1.36-0.92c-1.15,1.77-2.06,0.13-2.78-0.24c-9.39-4.8-18.72-9.71-28.08-14.56c-0.61-0.31-1.39-1.31-2.01-0.46
	c-0.92,1.27-1.71,0.27-2.36-0.01c-1.06-0.45-0.06-1.12,0.15-1.61c2.27-5.3,0.92-9.62-4.03-12.6c-1.66-1-3.46-1.72-5.32-2.26
	c-4.13-1.21-8.3-2.28-12.37-3.65c-4.78-1.61-5.59-5.11-2.07-8.68c0.84-0.85-0.03-1.15-0.19-1.66c-0.14-0.46-0.46-0.58-1.01-0.23
	c-5.09,3.26-5.52,9.43-0.91,13.49c2.74,2.41,6.08,3.66,9.47,4.81c3.51,1.19,7.05,2.32,10.5,3.66c1.48,0.58,2.62,1.76,2.56,3.58
	c-0.04,1.33-0.47,2.7-1.74,3.13c-1.47,0.49-3.23-0.15-4.05-1.19c-1.37-1.74-3.11-1.83-4.92-2.08c-2.67-0.36-3.72-1.22-4.05-3.84
	c-0.2-1.55-0.92-2.48-2.38-3.19c-1.09,7.39-1.47,14.62-1.78,21.9c-0.35-0.72-0.6-1.47-0.79-2.23c-0.75-2.9-1.82-5.65-3.55-8.12
	c-7.46-10.65-21.54-8.8-28.49,1.41c-0.84,1.24-0.64,2.53,0.12,3.78c0.81,1.31,1.98,1.73,3.44,1.44c1.09-0.22,2.16-0.53,3.26-0.72
	c2.16-0.36,3.4,0.68,3.55,2.88c0.15,2.18-0.68,3.88-2.41,5.21c-0.9,0.69-2,1.19-2.67,2.32c1.22,0.66,2.4,1.16,3.42,1.88
	c1.58,1.11,2.77,0.92,4.29-0.32c4.27-3.46,8.7-6.72,13.08-10.04c0.6-0.46,1.28-1.39,2-0.25c1.7,2.72,3.39,5.5,2.85,8.9
	c-0.94,5.94-1.72,11.92-3.05,17.78c-0.86,3.79,1.34,5.66,3.33,8.04c0.23-0.33,0.36-0.43,0.37-0.55c1.84-13.32,3.68-26.63,5.5-39.95
	c0.3-2.22,2.06-3.2,3.73-1.7c1.55,1.4,3.34,1.89,5.14,2.35c2.06,0.53,2.2,1.42,1.57,3.26c-3.57,10.47-6.8,21.05-10.61,31.42
	C241.92,82.05,242.7,84.96,245.14,88.17z M203.9,90.88c-61.87-0.22-112.74,50.63-112.99,112.93
	c-0.25,62.2,50.23,113.26,112.2,113.75c62.84,0.5,113.51-50.12,114.47-111.52C318.57,142.48,266.81,90.52,203.9,90.88z
	 M98.62,120.39c0,0.19,0.01,0.38,0.01,0.57c-4.92,0.92-8.05,4.08-10.46,8.08c-0.88,1.46-1.62,3-2.4,4.52
	c-0.88,1.73-1.88,3.37-3.29,4.73c-2.7,2.62-5.56,3.18-8.97,1.58c-2.95-1.39-5.52-3.34-7-6.29c-0.9-1.8-2.17-1.51-3.26-0.81
	c-1.22,0.79-0.21,2.07,0.37,2.59c2.44,2.16,4.48,4.76,7.21,6.59c7.89,5.29,14.63,4,19.69-4.04c1.97-3.13,3.39-6.59,5.16-9.85
	c2.54-4.68,4.96-5.72,10.07-4.35c1.64,0.44,3.03,0.24,4.5-0.81c-0.36-0.31-0.61-0.58-0.9-0.77c-9.32-6.1-18.62-12.23-27.97-18.28
	c-4.89-3.17-10.84-0.98-12.28,4.69c-1.61,6.31-0.63,12.47,2.74,18.02c1.85,3.05,4.92,4.84,8.63,4.56c3.1-0.23,4.72-2.57,5.86-5.19
	c0.88-2.02,0.32-3.76-1.36-5.16c-2.78-2.32-5.25-1.78-7.87,1.91c-3.02-4.37-3.51-9.06-2.54-14.03c0.05-0.28,0.26-0.53,0.4-0.79
	c0.69-1.27,1.69-1.63,2.96-0.91c1.22,0.7,2.4,1.47,3.58,2.24C87.2,112.93,92.91,116.66,98.62,120.39z M325.63,92.86
	c-0.97,1.27-1.84,2.36-2.66,3.49c-4.38,6.08-9.01,12.01-11.41,19.26c-2.9,8.73-0.5,17.3,6.34,21.56c6.11,3.81,12.5,3.51,18.58-0.05
	c5.8-3.39,7.2-9.46,8.48-15.45c0.26-1.21-0.39-1.63-1.73-1.45c-2.9,0.39-5.78-0.05-8.59-0.82c-1.18-0.32-2.39-0.7-3.16-2.04
	c0.9-0.1,1.63-0.11,2.34-0.26c2.1-0.46,3.75-1.52,4.22-3.76c0.59-2.81-0.7-4.94-2.82-6.58c-1.94-1.51-4.12-1.58-6.3-0.53
	c-4.33,2.08-6.16,6.96-4.03,11.53c2.43,5.22,6.25,8.75,12.38,9.17c2.6,0.18,2.77,0.81,1.26,2.94c-5.57,7.85-16.47,4.19-19.64-1.82
	c-2.25-4.27-2.88-8.69-2.01-13.37c1.24-6.67,4.5-12.38,8.57-17.66C326.51,95.64,326.86,94.49,325.63,92.86z M341.58,185.61
	c-0.04,0.16-0.08,0.32-0.12,0.49c3.23,2.35,6.39,4.82,9.73,7.01c1.9,1.24,2.24,2.4,1.41,4.53c-1.44,3.73-2.51,7.61-3.73,11.42
	c3.73-2.22,7.13-4.59,10.41-7.12c1.43-1.1,2.44-1.28,3.98-0.03c3.27,2.62,6.77,4.96,10.63,7.75c-1.43-4.47-2.59-8.43-3.99-12.31
	c-0.66-1.82-0.47-2.88,1.24-4.02c3.43-2.27,6.67-4.82,9.99-7.26c-4.41-0.42-8.68-0.49-12.94-0.39c-1.51,0.04-2.23-0.39-2.68-1.89
	c-1.24-4.14-2.67-8.23-4.23-12.97c-1.57,4.82-2.97,9.01-4.27,13.23c-0.36,1.16-0.84,1.64-2.16,1.61
	C350.44,185.54,346.01,185.61,341.58,185.61z M391.97,235.83c-8.08,0.55-13.6,5.84-19.42,11.06c-0.46-1.75-0.86-3.23-1.24-4.71
	c-0.9-3.58-2.85-6.28-6.62-7.05c-3.79-0.77-7.04,0.48-9.57,3.43c-0.77,0.9-1.41,1.91-2.05,2.91c-0.66,1.03-1.76,1.42-2.68,1.04
	c-0.78-0.32-0.05-1.29,0.12-1.96c1.31-5.08,2.62-10.16,3.99-15.45c-2.66,0.99-4.49,2.16-4.97,5.16c-0.58,3.58-1.77,7.05-2.7,10.57
	c-1.57,6-3.15,12.01-4.77,18.23c2.74-1,4.64-2.28,5-5.23c0.22-1.83,0.95-3.59,1.33-5.4c0.27-1.29,1.05-2.07,2.1-2.72
	c0.99-0.61,1.43-0.4,1.56,0.78c0.21,1.92,0.48,3.84,1.39,5.59c1.02,1.98,3.41,3.09,5.22,2.45c1.77-0.63,2.91-2.8,2.5-4.96
	c-0.42-2.21-1.54-4.02-3.45-5.25c-0.66-0.43-1.17-0.76-1.04-1.71c0.31-2.25,2.47-4.65,4.57-4.93c2.24-0.29,3.96,0.93,4.91,3.63
	c1.34,3.8,1.23,7.56-0.42,11.28c-0.96,2.18-2.44,4-4.37,6.22c3.34-0.43,6.1-0.78,8.87-1.14c0.7-0.09,0.91-0.69,1.2-1.21
	C376.25,247.57,383.37,241.03,391.97,235.83z M37.23,286.27c0.39-0.07,0.61-0.07,0.8-0.15c8.25-3.35,16.45-6.81,24.75-10.02
	c3.12-1.2,5.11-5.87,2.61-9.19c-3.59-4.76-8.63-7.27-14.61-6.89c-5.33,0.33-7.71,5.27-4.91,9.43c1.17,1.73,2.89,2.15,4.87,1.17
	c1.96-0.98,2.63-2.31,1.86-4.3c-0.5-1.29,0.01-1.44,1.04-1.31c3.21,0.42,5.93,1.94,8.23,4.1c1.72,1.61,1.36,2.95-0.83,3.88
	c-3.62,1.54-7.27,3.01-10.93,4.46c-1.97,0.78-3.86,1.8-6.45,2.36c1.45-3.72,1.03-7.1-0.5-10.36c-0.97-2.08-2.2-4.05-3.02-6.19
	c-1.57-4.1-0.19-7.1,3.82-8.87c1.86-0.82,3.82-1.33,5.85-1.08c1.27,0.16,1.88-0.36,1.96-1.48c0.1-1.42-1.1-0.91-1.74-0.89
	c-2.61,0.09-5.19,0.56-7.62,1.5c-5.55,2.16-8.02,5.94-7.2,10.85c0.36,2.14,1.22,4.12,2.26,6.02c1.07,1.95,2.22,3.87,3.12,5.9
	c1.56,3.48,1.16,5.24-1.69,7.66C37.9,283.74,37.27,284.69,37.23,286.27z M201.33,75.7c-5.97-0.36-8.33-4.05-9.9-8.4
	c-4.07-11.24,1.37-28.61,15.02-31.41c-3.74-4.57-6.06-4.89-10.78-1.44c-3.09,2.25-5.12,5.33-6.83,8.67
	c-5.13,10.01-3.8,23.54,3.08,31.52c2.24,2.6,5.02,4.14,8.45,4.42c4.83,0.4,8.88-3.34,8.51-7.83c-0.25-3-2.68-5.13-5.52-4.82
	c-3.6,0.39-5.19,2.26-4.79,5.58C198.76,73.51,199.71,74.51,201.33,75.7z M346.05,278.8c4.21-0.02,7.98-3.43,7.92-7.19
	c-0.06-3.93-3.97-7.64-8.08-7.68c-4.35-0.03-7.63,3-7.58,7.02C338.36,275.36,341.77,278.81,346.05,278.8z M380.33,273.05
	c-1.43-1.2-2.69-1.3-4.17-0.91c-5.52,1.43-11.04,2.87-16.4,4.82c-2.5,0.91-5.06,1.74-7.58,3.28c2.1,1,3.91,1.85,5.69,2.74
	c0.83,0.41,1.51,0.28,2.28-0.18C366.55,279.05,373.22,275.84,380.33,273.05z M139.67,373.43c-0.05-0.41-0.06-0.93-0.19-1.43
	c-0.52-2.01-3.13-3.73-5.38-3.46c-2.02,0.24-2.93,1.74-3.13,3.52c-0.27,2.39,1.33,3.45,3.43,3.85c1.61,0.3,1.45,1.22,0.86,2.25
	c-0.64,1.11-1.62,1.9-2.78,2.47c-1.14,0.55-2.34,0.93-3.59,1.1c-0.63,0.08-0.94,0.38-0.85,1.02c0.07,0.45,0.41,0.51,0.81,0.56
	C133.48,383.93,139.69,378.34,139.67,373.43z M265.54,85.15c0-2.5-1.85-4.53-4.18-4.58c-2.43-0.05-4.39,1.89-4.36,4.33
	c0.02,2.47,1.95,4.6,4.17,4.62C263.53,89.55,265.54,87.53,265.54,85.15z M227.37,385.81c1.85-0.03,3.3-1.54,3.31-3.45
	c0-2.01-1.66-3.6-3.74-3.59c-1.9,0.01-3.4,1.48-3.44,3.36C223.46,384.24,225.14,385.84,227.37,385.81z"/>
<path class="st1" d="M245.14,88.17c-2.44-3.21-3.22-6.11-1.79-10.02c3.82-10.37,7.05-20.96,10.61-31.42
	c0.63-1.84,0.49-2.73-1.57-3.26c-1.8-0.46-3.6-0.96-5.14-2.35c-1.67-1.51-3.42-0.53-3.73,1.7c-1.82,13.32-3.66,26.63-5.5,39.95
	c-0.02,0.11-0.14,0.21-0.37,0.55c-1.99-2.38-4.2-4.25-3.33-8.04c1.33-5.85,2.11-11.84,3.05-17.78c0.54-3.41-1.15-6.19-2.85-8.9
	c-0.71-1.14-1.4-0.21-2,0.25c-4.38,3.32-8.81,6.58-13.08,10.04c-1.53,1.24-2.71,1.43-4.29,0.32c-1.02-0.72-2.2-1.22-3.42-1.88
	c0.67-1.14,1.77-1.63,2.67-2.32c1.73-1.33,2.56-3.02,2.41-5.21c-0.15-2.2-1.39-3.24-3.55-2.88c-1.1,0.19-2.17,0.5-3.26,0.72
	c-1.46,0.3-2.63-0.12-3.44-1.44c-0.76-1.24-0.96-2.54-0.12-3.78c6.95-10.21,21.02-12.05,28.49-1.41c1.73,2.47,2.8,5.22,3.55,8.12
	c0.2,0.76,0.44,1.51,0.79,2.23c0.31-7.28,0.69-14.52,1.78-21.9c1.45,0.72,2.18,1.65,2.38,3.19c0.33,2.63,1.38,3.48,4.05,3.84
	c1.8,0.25,3.55,0.34,4.92,2.08c0.82,1.05,2.58,1.68,4.05,1.19c1.28-0.43,1.7-1.79,1.74-3.13c0.06-1.82-1.08-3-2.56-3.58
	c-3.45-1.34-6.99-2.48-10.5-3.66c-3.39-1.15-6.73-2.39-9.47-4.81c-4.61-4.06-4.18-10.24,0.91-13.49c0.54-0.35,0.86-0.23,1.01,0.23
	c0.16,0.51,1.02,0.81,0.19,1.66c-3.52,3.57-2.72,7.07,2.07,8.68c4.07,1.37,8.25,2.44,12.37,3.65c1.86,0.55,3.66,1.26,5.32,2.26
	c4.94,2.98,6.3,7.3,4.03,12.6c-0.21,0.49-1.22,1.16-0.15,1.61c0.65,0.28,1.44,1.28,2.36,0.01c0.62-0.85,1.4,0.15,2.01,0.46
	c9.36,4.85,18.69,9.76,28.08,14.56c0.72,0.37,1.63,2.01,2.78,0.24c0.19-0.29,0.93,0.56,1.36,0.92c9.89,8.45,19.44,17.32,29.78,25.17
	c4.11,3.12,6.52,7.07,9.3,10.91c6.93,9.56,13.58,19.32,20.33,29.01c0.85,1.22,1.18,6.18,0.09,6.68c-2.02,0.93-2.47,3.11-4.07,4.38
	c4.44-1.93,8.43-4.75,12.98-6.51c0.35,1.09-0.1,1.77-0.88,2.34c-0.48,0.35-0.96,0.7-1.41,1.09c-2.72,2.36-2.82,2.82-1.38,6
	c1.68,3.71,1.66,3.98-0.86,8.61c-1.17-2.53-2.38-4.88-3.35-7.32c-0.65-1.64-1.24-2.09-3.04-1.25c-12.3,5.76-24.67,11.39-37.01,17.05
	c-0.47,0.22-0.95,0.41-1.75,0.75c1-2.92,1.59-5.44,4.75-6.79c8.66-3.72,17.15-7.82,25.74-11.7c7-3.16,7.51-9.12,3.8-14.67
	c-6.51-9.76-13.38-19.28-20.1-28.91c-0.26-0.37-0.51-0.73-0.78-1.09c-1.37-1.78-2.98-3.87-4.97-4.19c-1.38-0.23-2.55,2.37-3.75,3.75
	c-8.23,9.56-16.43,19.16-24.88,29.03c-0.31-3.5-0.63-6.39,2.05-9.07c3.57-3.56,6.6-7.64,9.97-11.41c2.07-2.32,1.36-4.68,0.41-7.06
	c-0.93-2.32-2.99-2.51-5.05-2.28c-1.91,0.21-3.79,0.69-5.68,1.1c-2.1,0.45-4.18,1.07-6.3,1.42c-3.69,0.6-6.75-1.88-6.96-5.64
	c-0.15-2.69,0.25-5.37,1.01-7.93c0.63-2.13,2.47-0.69,3.73-1.07c-0.36,1.51-0.8,2.86-0.97,4.25c-0.26,2.14,0.6,3.03,2.77,3.01
	c3.08-0.03,6.08-0.77,8.93-1.77c3.37-1.18,4.3-8.31,1.69-11.44c-0.66-0.8-1.41-1.53-2.19-2.22c-1.72-1.54-2.81-3.23-2.88-5.74
	c-0.06-2.17-2.54-2.19-4.02-2.9c-1.03-0.49-1.2,1.02-1.56,1.7c-5.97,11.37-11.9,22.77-17.85,34.16c-0.34,0.64-0.73,1.25-1.29,2.22
	c-1.04-2.71-0.85-5.21-0.79-7.65c0.11-4.41-0.7-8.55-2.95-12.39c-1.87-3.18-4.14-5.99-7.25-8.03c-0.87-0.57-1.35-1.23-1.47-2.31
	c-0.24-2.21-0.54-4.43-0.99-6.61c-0.24-1.16,0.18-1.4,1.19-1.51c8.53-0.97,17.05-1.26,25.54,0.24c1.4,0.25,2.04-0.16,2.55-1.37
	c0.61-1.44-0.66-1.45-1.32-1.78c-8.4-4.25-16.41-9.32-25.64-11.81c-1.65-0.44-2.13-0.14-2.63,1.39
	C254.16,61.21,249.68,74.57,245.14,88.17z M265.66,67.45c4.95,5.93,7.63,12.47,8.19,19.92c3.46-6.61,6.91-13.23,10.38-19.87
	C280.7,66.28,272.24,66.25,265.66,67.45z M304.31,83.19c0.47,0.25,0.65,0.4,0.86,0.44c0.51,0.1,1.03,0.16,1.54,0.21
	c4.39,0.39,5.34,1.38,5.46,5.82c0.05,1.8,0.01,3.61,0.01,5.86c3.11-3.62,5.86-6.91,8.72-10.1c0.97-1.08,0.46-1.62-0.35-2.31
	c-3-2.54-5.97-5.12-8.99-7.65c-1.32-1.11-2.48-2.44-4.29-3.33C307.49,76.22,308.04,80.19,304.31,83.19z M219.86,50.94
	c3.41-2.56,6.48-4.99,9.68-7.22c1.42-1,0.94-1.66,0.06-2.56c-3.18-3.2-9.68-3.34-13.29-0.26c-0.58,0.49-1.27,0.95-1.46,1.84
	C218.76,44.02,219.9,46.93,219.86,50.94z"/>
<path class="st1" d="M304.42,337.74c-2.78-4.12-5.58-8.22-8.33-12.36c-0.56-0.84-1.03-0.86-1.79-0.3
	c-5.69,4.14-11.7,7.83-17.27,12.15c-1.52,1.18-3.61,1.7-5.5,2.34c-1.72,0.58-2.23,1.21-1.44,3.14c3.8,9.26,7.41,18.6,11.08,27.91
	c0.18,0.47,0.33,0.95,0.57,1.65c-2.19-0.2-2.85-2.01-3.76-3.23c-2.51-3.36-6.15-4.31-9.9-5.13c-0.83-0.18-0.95,0.49-1.2,1.02
	c-0.71,1.51-1.64,2.82-3.13,3.66c-2.86,1.61-5.75,1.03-7.41-1.49c-1.9-2.88-1.47-5.81,1.19-7.88c0.94-0.74,1.99-1.39,3.15-1.6
	c1.75-0.31,1.35-1.06,0.64-2.08c-1.37-1.94-3.2-3.12-5.57-3.21c-1.62-0.06-3.26,0.08-4.89,0.22c-1.44,0.13-2.97,0.2-4.08-0.68
	c-3.27-2.58-6.53-0.21-9.78-0.14c-1,0.02-0.5,1.02-0.41,1.62c1.56,10.79,3.12,21.59,4.68,32.38l-0.02-0.01
	c-1.64-0.64-2.24-2.24-3.24-3.47c-4.05-5-8.77-8.72-15.73-7.88c-1.41,0.17-1.98-0.84-2.75-1.56c-3.74-3.48-3.75-3.5-0.43-7.42
	c1.39-1.64,2.79-3.29,4.32-4.81c1.17-1.15,0.77-1.65-0.51-2.12c-1.63-0.6-3.3-0.88-5.03-0.83c-1.98,0.06-3.74-0.55-5.57-1.29
	c-2.78-1.11-5.82-0.87-8.77-0.99c-1.11-0.05-0.79,1.09-0.85,1.73c-0.67,8.22-1.31,16.44-1.95,24.66c-0.19,2.41-0.38,4.82-0.58,7.41
	c-1.42-0.7-1.47-1.88-1.62-2.93c-0.57-4.16-2.81-7.25-6.02-9.8c-0.97-0.77-1.71-1.16-2.83-0.14c-1.21,1.11-2.72,1.79-4.46,1.78
	c-3.21-0.02-5.35-1.85-5.73-4.98c-0.37-3.01,1.43-5.47,4.51-6.18c1.25-0.29,2.51-0.33,3.75-0.01c1.26,0.32,1.54-0.21,1.39-1.37
	c-0.35-2.72-1.74-4.72-4.16-5.94c-1.32-0.66-2.74-1.15-4.13-1.66c-1.83-0.68-3.26-1.79-3.98-3.64c-0.68-1.76-2.39-2.78-3.33-4.78
	c3.77,0.26,7.29,0.48,10.8,0.76c8.07,0.64,16.13,1.5,24.21,1.88c3.21,0.15,6.47-0.75,9.7-1.2c7.65-1.08,15.31-2.08,22.93-3.31
	c3.38-0.54,6.4-2.32,9.58-3.53c6.24-2.38,12.38-5.03,18.66-7.29c6.22-2.24,10.99-6.7,16.43-10.14c3.39-2.14,6.6-4.56,9.93-6.79
	c3.1-2.09,5.35-5.08,8.34-7.53c-0.4-0.19-0.57-0.33-0.74-0.34c-4.99-0.3-5.89-1.07-6.57-5.97c-0.74-5.36,0.86-9.79,5.22-13.17
	c5.73-4.43,12.34-5.55,19.33-5.34c0.67,0.02,1.25,0.3,1.96,1c-2.89,0.43-5.58,0.79-8.25,1.23c-4.03,0.66-7.4,2.58-10.21,5.5
	c-3.59,3.73-3.84,8.21-2.57,12.89c0.58,2.13,3.17,2.56,4.94,1.26c8.74-6.4,13.46-16.12,20.14-24.21c1.2-1.45,2.21-3.06,3.27-4.63
	c1.48-2.2,3.59-2.86,6.45-2.58c-1.31,1.77-2.47,3.45-3.76,5.02c-0.78,0.96-0.76,1.5,0.29,2.28c7.89,5.81,15.74,11.69,23.6,17.55
	c0.82,0.61,1.61,1.27,2.63,2.08c-2.85,0.58-5.11,0.57-7.32-1.31c-2.99-2.55-6.3-4.72-9.42-7.11c-1.9-1.46-3.66-0.64-5.41,0.2
	c-1.64,0.79-1.7,2.3-1.49,3.84c0.38,2.82,1.59,5.41,2.35,8.13c1.29,4.66-0.65,7.18-5.5,7.1c-1.26-0.02-2.52-0.18-3.78-0.21
	c-1.21-0.04-1.66-0.66-1.75-1.81c-0.09-1.07,0.25-1.37,1.25-1.01c0.28,0.1,0.57,0.16,0.87,0.2c3.09,0.44,3.96-0.47,3.29-3.57
	c-0.26-1.23-0.64-2.44-1.03-3.63c-1.43-4.36-7-5.68-10.05-2.22c-1.93,2.19-3.76,3.85-6.94,4.15c-2.38,0.23-3.73,2.76-5.38,4.43
	c-0.63,0.64,0.4,1.13,0.8,1.56c6.73,7.13,13.48,14.24,20.22,21.37c0.54,0.57,1.29,1,1.48,2.02c-2.44,0.31-4.39,0.16-6.28-1.94
	c-5.76-6.41-11.79-12.57-17.75-18.8c-0.46-0.49-0.9-1.55-1.68-1.09c-0.74,0.44-1.86,0.84-1.66,2.22c0.14,0.98-0.97,1.14-1.55,1.6
	c-1.5,1.19-4.1,1.85-4.4,3.46c-0.29,1.59,1.8,3.2,2.88,4.77c5.08,7.41,10.18,14.81,15.26,22.22c0.31,0.45,0.84,0.83,0.77,1.53
	c-1.17,0.09-1.66-0.75-2.25-1.51c-3.84-4.95-8.77-8.42-14.72-10.33c-2.68-0.86-5.4-0.91-7.8,1.11c0.51,0.85,1.4,0.91,2.07,1.3
	c2.91,1.69,3.98,4.23,2.63,6.35c-1.95,3.04-6.22,4.09-8.74,2.05c-2.48-2.01-3.83-4.57-3.04-7.84c0.85-3.54,3.25-5.59,6.7-6.41
	c3.44-0.81,6.6,0.32,9.71,1.65c0.61,0.26,1.23,0.49,1.85,0.73c0.16,0.28,0.47,0.48,0.69,0.25
	C305,338.09,304.59,337.92,304.42,337.74z M220.99,354.06c2.94,1.66,4.97,3.38,7.12,4.96c1.53,1.12,2.04,2.03,0.49,3.61
	c-1.39,1.42-2.54,3.1-3.69,4.73c-1.67,2.38-1.62,2.38,1.07,3.2c1.06,0.32,2.07,0.8,3.1,1.23c2.84,1.18,4.95,3.38,7.53,5.7
	c-1.21-8.39-2.36-16.3-3.5-24.22c-0.11-0.73-0.45-1.01-1.21-0.89C228.46,352.93,225.02,353.44,220.99,354.06z M274.1,363.12
	c0.15-0.12,0.3-0.23,0.45-0.35c-2.65-6.71-5.31-13.42-7.96-20.13c-0.35-0.88-0.97-0.7-1.64-0.43c-2.05,0.84-4.11,1.66-6.17,2.48
	c-2.16,0.86-4.32,1.71-7,2.78c1.84,0.63,3,1.12,4.22,1.44c4.34,1.12,7.83,3.52,9.58,7.62C267.29,360.56,271.19,361.04,274.1,363.12z
	 M184.86,353.81c-0.1,0.23-0.21,0.45-0.31,0.68c1.03,0.94,2.04,1.9,3.09,2.82c3.2,2.8,5.09,6.38,4.86,10.55
	c-0.26,4.56,3.27,6.69,5.1,9.93c0.79-7.18,1.34-14.26,1.88-21.34c0.05-0.71,0.27-1.47-0.93-1.56
	C193.98,354.57,189.42,354.18,184.86,353.81z M321.63,298.85c2.81-0.01,5.31-0.79,7.37,0.73c1.64,1.21,1.96,0.94,1.95-0.98
	c-0.02-3.11,0.69-3.86,3.82-4.26c1.49-0.19,3.01-0.21,5.07-0.33c-3.18-2.36-5.91-4.36-8.61-6.4c-0.61-0.46-1-0.42-1.45,0.2
	C327.17,291.37,324.53,294.92,321.63,298.85z"/>
<path class="st1" d="M105.76,77.43c-4.66-4.41-9.32-8.81-14.2-13.42c2.25-0.54,3.85-0.24,5.33,0.99c1.46,1.2,2.96,1.51,4.58,0.07
	c2.62-2.33,6.16-2.6,9.23-0.97c0.81,0.43,1.48,1.21,3.04,1.3c-2.7-3.92-5.2-7.56-7.75-11.27c1.17-0.36,1.89-0.18,2.59,0.61
	c0.73,0.83,1.62,1.52,2.5,2.19c1.47,1.11,2.95,1.42,4.29-0.41c-0.1-0.71-1.15-0.42-1.42-1.13c0.29-0.16,0.58-0.36,0.9-0.49
	c14.05-5.84,28.1-11.66,42.14-17.52c0.9-0.38,1.67-0.4,2.54-0.01c1.28,0.57,2.6,1.08,4.46,1.84c-2.9,1.22-5.32,2.35-7.84,3.25
	c-1.69,0.6-1.79,1.34-1.13,2.91c5.08,12.04,10.07,24.11,15.08,36.18c0.28,0.66,0.52,1.34,0.9,2.33c-3.12-0.9-5.66-1.57-6.87-4.99
	c-2.18-6.14-4.92-12.09-7.42-18.12c-1.19-2.86-3.45-4.42-6.14-4.23c-2.99,0.22-4.37,2.37-3.27,5.12c0.22,0.55,0.54,1.05,0.83,1.57
	c0.34,0.61,0.98,1.14,0.11,1.89c-0.94,0.81-1.33-0.11-1.83-0.51c-3.27-2.56-6.69-4.18-10.88-2.14c-3.55,1.73-5.35,5.89-4.07,9.55
	c1.06,3.02,3.35,4.24,6.9,3.67c0.1-0.74-0.62-0.93-0.96-1.36c-1.44-1.83-1.54-4.03-0.21-5.74c1.41-1.82,3.72-2.5,5.75-1.53
	c2.4,1.15,4.3,2.96,4.39,5.72c0.08,2.7-1.71,4.49-4.06,5.64c-4.89,2.4-10.4,1.48-13.69-2.25c-3.98-4.52-4.88-11.37-2.08-15.74
	c2.11-3.29,6.45-4.68,10.69-3.38c1.12,0.34,2.19,0.83,3.3,1.27c0.75-6.67,4.7-9.39,11.66-4.13c0.06-1.42-2-7.44-2.77-8.55
	c-0.46-0.66-0.89-0.37-1.32-0.19c-7.89,3.26-15.9,6.26-23.59,9.95c-3.05,1.46-5.78,3.83-8.72,5.69c-1.33,0.84-0.38,1.5,0.03,2.16
	c4.43,6.95,8.89,13.89,13.34,20.83c3,4.69,6,9.39,8.99,14.09c0.26,0.41,0.69,0.77,0.57,1.32c-3.66-0.21-6.1-1.85-8.04-5.14
	c-4.57-7.73-9.65-15.16-14.43-22.76c-3.14-5-8.21-6.01-13.62-2.44c-1.19,0.78-0.24,1.37,0.26,1.92c4.97,5.42,9.96,10.83,14.94,16.24
	c4.42,4.8,8.84,9.6,13.65,14.82c-3.31-0.15-5.97,0.46-8.32-2.38c-4.82-5.84-10.02-11.37-15.17-16.92
	c-3.17-3.42-7.41-3.86-11.73-3.39c-2.05,0.22-3.6,2.79-3.39,4.89c0.1,1.01,0.6,1.42,1.63,1.32c1.11-0.1,2.23-0.14,3.34-0.14
	c1.11,0,2.22,0.03,3.3,0.39c3.03,1.02,5.01,3.95,4.43,6.61c-0.57,2.62-3.67,4.75-6.64,4.55c-0.52-0.03-1.04-0.11-1.54-0.25
	c-1.23-0.34-1.55-0.01-1.29,1.28c0.19,0.92,0.09,1.93-0.07,2.87c-0.53,2.98-2.25,4.86-4.55,5.09c-2.71,0.28-5.71-1.6-6.64-4.29
	c-0.96-2.8-1.21-5.7-0.3-8.53c0.38-1.19,0.09-1.61-0.94-1.91c-2.28-0.66-4.33-0.44-6.3,1.06c-2.62,1.99-4.3,4.69-6.05,7.36
	c-5.08,7.77-10.17,15.54-15.22,23.33c-2.27,3.51-3.41,7.56-5.2,11.29c-0.66,1.36,0.58,1.47,1.28,1.78c6.92,3.06,13.86,6.08,20.8,9.1
	c5.64,2.46,11.28,4.9,17.16,7.46c-2.94,1.78-5.39,2.71-8.79,1.12c-10.15-4.74-20.51-9.03-30.74-13.58c-1.46-0.65-2.39-0.7-2.72,1.01
	c-0.75,3.83-3.52,5.17-7.28,5.8c1.35-3.17,2.64-6.21,3.97-9.33c-1.18-0.21-1.93,0.36-2.73,0.64c-3.41,1.23-5.54,0.6-7.7-2.37
	c-5.66-7.79-5.37-16,0.8-23.75c4.58-5.76,10.6-9.44,17.37-12.05c1.02-0.39,1.04-0.35,3.1,0.2c-2.23,1.29-4.22,2.48-6.26,3.6
	c-5.6,3.07-9.88,7.34-12.16,13.39c-2.36,6.26-0.43,11.68,3.51,16.58c1.55,1.92,5.13,1.35,6.08-0.73c0.53-1.15,0.92-2.08-1.28-1.71
	c5.06-7.75,9.92-15.21,14.79-22.66c2.48-3.79,5.42-7.37,7.29-11.44c1.21-2.62,2.85-4.47,4.86-6.26c4.74-4.23,7.59-4.79,13.84-2.55
	c-0.71-3.41-0.73-6.66,0.85-9.78c1.62-3.2,2.52-3.78,6.12-3.4c3.92,0.42,7.73,1.4,11.53,2.37c0.23,0.13,0.47,0.28,0.66-0.02
	C106.13,77.76,105.88,77.56,105.76,77.43z"/>
<path class="st1" d="M203.9,90.88c62.91-0.36,114.67,51.6,113.68,115.16c-0.96,61.4-51.62,112.02-114.47,111.52
	c-61.97-0.49-112.45-51.55-112.2-113.75C91.16,141.51,142.03,90.67,203.9,90.88z M204.63,93.51C143.6,93.06,94.03,143,93.5,203.01
	c-0.55,62.04,49.51,110.6,108.01,111.92c62.84,1.43,113.53-49.59,113.45-110.85C314.87,143.68,265.71,93.57,204.63,93.51z"/>
<path class="st1" d="M124.93,341.21c1.36-1.38,2.16-3.17,3.33-4.68c0.84-1.09,0.65-1.67-0.51-2.41c-6-3.85-11.87-7.91-17.94-11.64
	c-2.43-1.49-3.62-4-5.72-5.75c-1.48-1.23-2.19-1.45-3.62,0.1c-7.04,7.66-14.22,15.18-21.34,22.76c-0.25,0.26-0.36,0.65-0.75,0.83
	c-0.52-2.41-0.6-4.37,1.31-6.3c5.28-5.33,10.33-10.88,15.45-16.37c2.14-2.29,2.7-5.2,1.45-7.56c-0.17-0.32-0.27-2.05-1.3-0.4
	c-0.28,0.44-0.55-0.23-0.73-0.46c-0.96-1.23-1.95-2.45-2.78-3.76c-0.75-1.18-1.34-1.16-2.43-0.33
	c-7.84,5.89-15.73,11.71-23.61,17.54c-0.76,0.56-1.54,1.09-2.41,1.72c-0.21-2.89,0.49-4.91,2.96-6.52
	c4.53-2.96,8.78-6.36,13.22-9.47c3.14-2.19,4.02-5.39,4.28-8.89c0.12-1.58-0.84-2.63-2.31-3.19c-1.84-0.71-2.33-0.38-2.43,1.59
	c-0.07,1.41-0.1,2.83-0.65,4.16c-0.91,2.23-3.27,3.66-5.28,3.21c-2.01-0.45-3.75-2.81-3.28-5.17c0.41-2.08,0.26-2.86-2.15-3.02
	c-2.79-0.18-4.39-2.12-4.3-4.25c0.1-2.39,2.16-4.54,4.77-4.81c1.92-0.2,3.91-0.33,5.69,0.59c1.09,0.57,1.45,0.12,1.78-0.76
	c0.55-1.46,0.78-2.99-0.21-4.26c-5.66-7.27-7.93-16.12-11.46-24.38c-0.96-2.25-1.72-4.6-2.81-6.78c-1.94-3.89-2.76-8.05-3.25-12.3
	c-0.21-1.81-1.07-2.06-2.67-1.7c-9.78,2.19-19.57,4.32-29.36,6.47c-0.5,0.11-0.99,0.34-1.5,0.07c0.89-2.56,2.44-3.97,5.32-4.53
	c8.38-1.61,16.68-3.63,25.02-5.41c1.45-0.31,2.17-0.66,1.51-2.26c-1.1-2.65,0.06-4.69,2.09-6.71c0.59,2.63,1.14,5.11,1.74,7.84
	c0.43-0.45,0.68-0.63,0.81-0.87c1.82-3.5,3.87-4.14,8.24-2.27c6.32,2.7,9.33,8.01,8.77,15.48c-0.4,5.39-2.46,10.2-5.29,14.73
	c-0.46,0.74-1,1.28-1.98,0.99c1-2.35,2.04-4.66,2.98-7.02c1.33-3.32,1.6-6.73,0.95-10.27c-1.04-5.65-4.62-8.78-9.9-10.25
	c-2.25-0.63-3.98,1.29-3.75,3.57c1.07,10.99,6.99,20.27,10.57,30.36c1.57,4.43,3.25,8.81,6.28,12.61c2.2,2.75,1.45,6.02-0.3,9.26
	c3.01-0.3,5.55,0.14,7.91,1.64c1.79,1.14,2.31,2.57,1.85,4.53c-0.7,3-1.6,5.94-2.42,9.21c3.71-3.16,7.43-6.32,11.27-9.59
	c0.58,1.64,0.04,2.75-0.89,3.76c-1.31,1.42-1.64,2.51,0.3,3.94c3.93,2.9,4.31,4.48,3.42,10.86c2.61-2.98,4.56-6.09,7.35-8.51
	c0.75,1.22-0.15,1.92-0.57,2.72c-1.46,2.75-1.18,3.11,0.76,5.38c6.92,8.13,16.93,11.92,25.17,18.17c0.94,0.72,1.92,1.44,2.98,1.95
	c2.79,1.33,4.38,3.38,4.26,6.71c-1.8-0.73-3.4-1.88-4.93-3.04c-1.44-1.1-2.11-0.77-3.03,0.66c-5.42,8.43-10.94,16.8-16.44,25.18
	c-0.35,0.53-0.54,1.22-1.29,1.53c-1.22-2.56-1-4.75,0.75-7.13c2.86-3.88,5.33-8.04,8-12.06c1.19-1.79,1.36-3.6,0.27-5.44
	c-1.38-2.33-3.65-2.3-5.16-0.06c-0.48,0.71-0.38,2.3-1.71,1.86c-1.24-0.41-0.37-1.71-0.39-2.58c-0.14-5.03-3.34-8.13-7.83-7.45
	c-2.2,0.33-3.63,1.66-4.36,3.69c-0.65,1.8-0.09,3.34,1.33,4.62c0.62-0.38,0.42-1.06,0.65-1.55c0.62-1.34,1.59-2.14,3.06-2.25
	c1.45-0.11,2.7,0.44,3.45,1.66c1.23,2.01,0.72,4.04-0.39,5.9c-0.98,1.63-2.61,1.81-4.33,1.48c-4.55-0.87-7.77-6.17-6.49-10.83
	c0.77-2.81,2.36-5.11,4.9-6.66c4.94-3.02,10.08-0.98,11.35,4.67c0.39,1.73,0.75,1.89,2.39,1.3c3.22-1.17,5.53,0.48,5.91,3.93
	c0.09,0.81,0.11,1.62,0.17,2.43c-0.03,0.16-0.07,0.32-0.1,0.48C124.7,341.37,124.81,341.29,124.93,341.21z"/>
<path class="st1" d="M98.62,120.39c-5.71-3.73-11.42-7.46-17.13-11.18c-1.18-0.77-2.36-1.54-3.58-2.24
	c-1.26-0.73-2.27-0.37-2.96,0.91c-0.14,0.26-0.35,0.51-0.4,0.79c-0.96,4.97-0.48,9.66,2.54,14.03c2.62-3.69,5.09-4.23,7.87-1.91
	c1.68,1.41,2.25,3.14,1.36,5.16c-1.14,2.62-2.77,4.96-5.86,5.19c-3.72,0.28-6.78-1.51-8.63-4.56c-3.36-5.55-4.34-11.71-2.74-18.02
	c1.44-5.67,7.39-7.85,12.28-4.69c9.35,6.05,18.65,12.18,27.97,18.28c0.29,0.19,0.54,0.45,0.9,0.77c-1.47,1.05-2.86,1.25-4.5,0.81
	c-5.11-1.37-7.53-0.33-10.07,4.35c-1.77,3.26-3.2,6.72-5.16,9.85c-5.06,8.04-11.8,9.34-19.69,4.04c-2.73-1.83-4.77-4.43-7.21-6.59
	c-0.58-0.51-1.59-1.8-0.37-2.59c1.09-0.7,2.36-0.99,3.26,0.81c1.48,2.96,4.06,4.9,7,6.29c3.4,1.6,6.26,1.04,8.97-1.58
	c1.41-1.37,2.4-3.01,3.29-4.73c0.78-1.52,1.52-3.06,2.4-4.52c2.42-4,5.54-7.16,10.46-8.08C98.63,120.77,98.63,120.58,98.62,120.39z"
	/>
<path class="st1" d="M325.63,92.86c1.23,1.63,0.88,2.79-0.18,4.16c-4.07,5.28-7.33,10.99-8.57,17.66
	c-0.87,4.69-0.24,9.11,2.01,13.37c3.17,6.01,14.07,9.67,19.64,1.82c1.51-2.13,1.34-2.76-1.26-2.94c-6.13-0.43-9.95-3.95-12.38-9.17
	c-2.13-4.58-0.31-9.45,4.03-11.53c2.18-1.05,4.37-0.98,6.3,0.53c2.11,1.64,3.41,3.77,2.82,6.58c-0.47,2.24-2.12,3.3-4.22,3.76
	c-0.7,0.15-1.43,0.16-2.34,0.26c0.77,1.35,1.98,1.72,3.16,2.04c2.81,0.77,5.69,1.21,8.59,0.82c1.33-0.18,1.98,0.24,1.73,1.45
	c-1.28,5.99-2.68,12.06-8.48,15.45c-6.08,3.56-12.47,3.86-18.58,0.05c-6.85-4.26-9.24-12.83-6.34-21.56
	c2.41-7.25,7.03-13.18,11.41-19.26C323.78,95.22,324.66,94.12,325.63,92.86z"/>
<path class="st1" d="M341.58,185.61c4.43,0,8.86-0.06,13.28,0.04c1.32,0.03,1.8-0.44,2.16-1.61c1.31-4.22,2.71-8.41,4.27-13.23
	c1.56,4.74,2.99,8.83,4.23,12.97c0.45,1.5,1.17,1.93,2.68,1.89c4.27-0.1,8.54-0.04,12.94,0.39c-3.32,2.44-6.56,4.99-9.99,7.26
	c-1.71,1.13-1.9,2.2-1.24,4.02c1.4,3.88,2.56,7.84,3.99,12.31c-3.86-2.79-7.36-5.12-10.63-7.75c-1.55-1.24-2.55-1.07-3.98,0.03
	c-3.28,2.52-6.67,4.9-10.41,7.12c1.22-3.81,2.29-7.69,3.73-11.42c0.82-2.12,0.49-3.28-1.41-4.53c-3.34-2.19-6.5-4.66-9.73-7.01
	C341.5,185.93,341.54,185.77,341.58,185.61z"/>
<path class="st1" d="M34.29,209.09c1.25-4.03,2.43-8.09,3.79-12.08c0.5-1.46,0.2-2.25-1.05-3.11c-3.52-2.44-6.94-5.01-10.28-7.97
	c4.26,0,8.53-0.09,12.78,0.04c1.66,0.05,2.34-0.54,2.79-2.06c1.23-4.11,2.63-8.16,4.17-12.88c1.48,4.62,2.85,8.62,4.02,12.68
	c0.5,1.71,1.26,2.34,3.11,2.27c4.14-0.16,8.29-0.05,12.73-0.05c-0.59,1.07-1.46,1.47-2.19,2.01c-2.87,2.11-5.72,4.26-8.65,6.28
	c-0.98,0.68-1.13,1.27-0.74,2.36c1.22,3.5,2.34,7.04,3.46,10.57c0.21,0.68,0.65,1.34,0.41,2.47c-3.35-2.44-6.64-4.67-9.73-7.13
	c-1.7-1.35-2.91-1.63-4.72-0.09c-2.59,2.2-5.48,4.06-8.27,6.04c-0.48,0.34-0.87,1.07-1.67,0.63L34.29,209.09z"/>
<path class="st1" d="M391.97,235.83c-8.6,5.2-15.72,11.75-20.55,20.63c-0.28,0.52-0.49,1.11-1.2,1.21
	c-2.76,0.36-5.52,0.71-8.87,1.14c1.93-2.22,3.41-4.04,4.37-6.22c1.64-3.72,1.76-7.48,0.42-11.28c-0.95-2.7-2.67-3.93-4.91-3.63
	c-2.1,0.27-4.26,2.68-4.57,4.93c-0.13,0.96,0.39,1.28,1.04,1.71c1.91,1.24,3.03,3.04,3.45,5.25c0.41,2.16-0.73,4.33-2.5,4.96
	c-1.8,0.64-4.19-0.46-5.22-2.45c-0.9-1.75-1.18-3.67-1.39-5.59c-0.13-1.18-0.57-1.38-1.56-0.78c-1.06,0.65-1.83,1.43-2.1,2.72
	c-0.39,1.81-1.11,3.58-1.33,5.4c-0.36,2.95-2.26,4.23-5,5.23c1.63-6.22,3.2-12.22,4.77-18.23c0.92-3.52,2.12-6.99,2.7-10.57
	c0.48-3,2.31-4.17,4.97-5.16c-1.37,5.29-2.69,10.37-3.99,15.45c-0.17,0.67-0.9,1.64-0.12,1.96c0.92,0.38,2.02-0.01,2.68-1.04
	c0.64-1,1.28-2.01,2.05-2.91c2.53-2.94,5.78-4.19,9.57-3.43c3.77,0.76,5.72,3.47,6.62,7.05c0.38,1.48,0.78,2.96,1.24,4.71
	C378.38,241.67,383.9,236.38,391.97,235.83z"/>
<path class="st1" d="M37.23,286.27c0.04-1.58,0.67-2.53,1.7-3.41c2.85-2.42,3.25-4.18,1.69-7.66c-0.91-2.03-2.06-3.95-3.12-5.9
	c-1.04-1.9-1.9-3.87-2.26-6.02c-0.82-4.91,1.65-8.69,7.2-10.85c2.43-0.95,5.01-1.41,7.62-1.5c0.64-0.02,1.84-0.53,1.74,0.89
	c-0.08,1.12-0.69,1.64-1.96,1.48c-2.03-0.25-3.98,0.25-5.85,1.08c-4.01,1.77-5.39,4.77-3.82,8.87c0.82,2.14,2.04,4.11,3.02,6.19
	c1.53,3.26,1.95,6.64,0.5,10.36c2.59-0.55,4.48-1.58,6.45-2.36c3.66-1.44,7.31-2.92,10.93-4.46c2.19-0.93,2.55-2.27,0.83-3.88
	c-2.3-2.15-5.02-3.68-8.23-4.1c-1.03-0.14-1.53,0.02-1.04,1.31c0.77,1.99,0.1,3.33-1.86,4.3c-1.97,0.98-3.7,0.57-4.87-1.17
	c-2.8-4.16-0.42-9.1,4.91-9.43c5.98-0.37,11.02,2.13,14.61,6.89c2.5,3.32,0.51,7.99-2.61,9.19c-8.3,3.21-16.51,6.67-24.75,10.02
	C37.84,286.2,37.62,286.2,37.23,286.27z"/>
<path class="st1" d="M201.33,75.7c-1.63-1.2-2.57-2.2-2.76-3.71c-0.41-3.32,1.19-5.19,4.79-5.58c2.84-0.31,5.27,1.82,5.52,4.82
	c0.37,4.49-3.68,8.23-8.51,7.83c-3.44-0.28-6.22-1.82-8.45-4.42c-6.88-7.98-8.21-21.51-3.08-31.52c1.71-3.34,3.74-6.42,6.83-8.67
	c4.73-3.45,7.04-3.13,10.78,1.44c-13.66,2.8-19.09,20.17-15.02,31.41C193,71.65,195.36,75.34,201.33,75.7z"/>
<path class="st1" d="M346.05,278.8c-4.28,0.02-7.69-3.44-7.74-7.84c-0.04-4.02,3.23-7.05,7.58-7.02c4.11,0.03,8.02,3.75,8.08,7.68
	C354.03,275.37,350.26,278.78,346.05,278.8z M349.48,272.59c-0.12-0.62-0.25-1.89-0.62-3.07c-0.53-1.7-3.4-3.38-4.78-2.75
	c-1.95,0.89-1.85,2.72-1.51,4.41c0.34,1.69,1.24,3.16,2.7,4.18c0.94,0.65,1.99,1.18,3.1,0.59
	C349.39,275.39,349.48,274.29,349.48,272.59z"/>
<path class="st1" d="M380.33,273.05c-7.11,2.79-13.78,6-20.17,9.75c-0.78,0.45-1.46,0.59-2.28,0.18c-1.79-0.89-3.6-1.73-5.69-2.74
	c2.52-1.54,5.08-2.37,7.58-3.28c5.36-1.96,10.88-3.39,16.4-4.82C377.64,271.75,378.9,271.85,380.33,273.05z"/>
<path class="st1" d="M139.67,373.43c0.02,4.91-6.19,10.5-10.84,9.88c-0.4-0.05-0.74-0.11-0.81-0.56c-0.09-0.64,0.22-0.94,0.85-1.02
	c1.26-0.16,2.45-0.54,3.59-1.1c1.16-0.56,2.14-1.35,2.78-2.47c0.59-1.03,0.75-1.95-0.86-2.25c-2.1-0.4-3.69-1.46-3.43-3.85
	c0.2-1.78,1.11-3.28,3.13-3.52c2.26-0.27,4.86,1.45,5.38,3.46C139.61,372.5,139.62,373.02,139.67,373.43z"/>
<path class="st1" d="M265.54,85.15c0,2.38-2.02,4.39-4.37,4.37c-2.22-0.02-4.15-2.15-4.17-4.62c-0.02-2.43,1.94-4.38,4.36-4.33
	C263.69,80.63,265.55,82.66,265.54,85.15z"/>
<path class="st1" d="M227.37,385.81c-2.23,0.03-3.91-1.57-3.88-3.68c0.03-1.87,1.54-3.35,3.44-3.36c2.08-0.01,3.74,1.58,3.74,3.59
	C230.68,384.26,229.22,385.78,227.37,385.81z"/>
<path class="st1" d="M34.24,209.07c0,0.1,0,0.19,0,0.29c-0.03-0.03-0.08-0.09-0.08-0.1c0.03-0.06,0.08-0.11,0.13-0.16
	C34.29,209.09,34.24,209.07,34.24,209.07z"/>
<polygon class="st1" points="241.28,385.73 241.32,385.79 241.26,385.72 "/>
<path class="st0" d="M265.66,67.45c6.58-1.2,15.03-1.17,18.58,0.06c-3.47,6.64-6.93,13.25-10.38,19.87
	C273.3,79.92,270.61,73.38,265.66,67.45z"/>
<path class="st0" d="M304.31,83.19c3.73-3,3.18-6.96,2.96-11.06c1.81,0.89,2.97,2.22,4.29,3.33c3.01,2.53,5.99,5.11,8.99,7.65
	c0.81,0.69,1.32,1.23,0.35,2.31c-2.86,3.19-5.61,6.48-8.72,10.1c0-2.25,0.04-4.06-0.01-5.86c-0.12-4.43-1.07-5.42-5.46-5.82
	c-0.52-0.05-1.03-0.11-1.54-0.21C304.96,83.59,304.78,83.43,304.31,83.19z"/>
<path class="st0" d="M219.86,50.94c0.03-4.01-1.1-6.91-5.02-8.2c0.2-0.88,0.89-1.34,1.46-1.84c3.61-3.08,10.1-2.93,13.29,0.26
	c0.89,0.89,1.37,1.56-0.06,2.56C226.34,45.95,223.27,48.37,219.86,50.94z"/>
<path class="st0" d="M220.99,354.06c4.03-0.62,7.46-1.13,10.9-1.67c0.75-0.12,1.1,0.15,1.21,0.89c1.14,7.91,2.29,15.83,3.5,24.22
	c-2.58-2.33-4.69-4.52-7.53-5.7c-1.03-0.43-2.04-0.9-3.1-1.23c-2.69-0.82-2.74-0.82-1.07-3.2c1.15-1.64,2.3-3.31,3.69-4.73
	c1.55-1.58,1.04-2.49-0.49-3.61C225.96,357.44,223.93,355.71,220.99,354.06z"/>
<path class="st0" d="M274.1,363.12c-2.91-2.08-6.81-2.56-8.53-6.59c-1.75-4.1-5.24-6.5-9.58-7.62c-1.21-0.31-2.38-0.8-4.22-1.44
	c2.68-1.06,4.85-1.92,7-2.78c2.06-0.82,4.12-1.65,6.17-2.48c0.67-0.27,1.29-0.45,1.64,0.43c2.66,6.71,5.31,13.42,7.96,20.13
	C274.4,362.89,274.25,363,274.1,363.12z"/>
<path class="st0" d="M184.86,353.81c4.56,0.37,9.12,0.76,13.69,1.08c1.21,0.08,0.99,0.85,0.93,1.56
	c-0.54,7.08-1.09,14.16-1.88,21.34c-1.83-3.24-5.36-5.38-5.1-9.93c0.24-4.17-1.66-7.75-4.86-10.55c-1.05-0.92-2.06-1.88-3.09-2.82
	C184.65,354.26,184.75,354.04,184.86,353.81z"/>
<path class="st0" d="M321.63,298.85c2.9-3.94,5.54-7.49,8.15-11.05c0.45-0.62,0.84-0.66,1.45-0.2c2.7,2.04,5.43,4.05,8.61,6.4
	c-2.05,0.13-3.57,0.14-5.07,0.33c-3.12,0.4-3.84,1.14-3.82,4.26c0.01,1.93-0.31,2.2-1.95,0.98
	C326.94,298.06,324.44,298.84,321.63,298.85z"/>
<path class="st0" d="M304.42,337.74c0.17,0.19,0.58,0.35,0.3,0.64c-0.22,0.23-0.52,0.02-0.69-0.25
	C304.16,337.99,304.29,337.87,304.42,337.74z"/>
<path class="st0" d="M105.76,77.43c0.12,0.13,0.37,0.33,0.34,0.37c-0.19,0.3-0.43,0.15-0.66,0.02
	C105.55,77.69,105.66,77.56,105.76,77.43z"/>
<path class="st2" d="M204.63,93.51c61.08,0.07,110.24,50.18,110.33,110.57c0.08,61.26-50.61,112.27-113.45,110.85
	c-58.5-1.33-108.56-49.88-108.01-111.92C94.03,143,143.6,93.06,204.63,93.51z M204.2,306.81c0-0.01,0-0.01,0-0.02
	c4.9,0,9.81-0.05,14.71,0.03c1.71,0.03,1.86-0.44,1.2-1.91c-1.08-2.37-1.75-4.87-1.71-7.54c0.02-1.21,0.4-1.61,1.62-1.81
	c2.85-0.47,5.69-1.07,8.47-1.84c10-2.79,19.35-7.01,27.92-12.92c2.79-1.92,2.82-1.85,4.91,0.69c1.24,1.51,2.29,3.13,2.82,5.01
	c0.46,1.65,1.06,1.93,2.35,0.63c6.85-6.91,13.73-13.79,20.64-20.64c1.16-1.15,1.08-1.85-0.47-2.3c-2.34-0.67-4.23-2.11-6.09-3.59
	c-1.03-0.82-1.62-1.69-0.53-2.96c0.71-0.84,1.25-1.83,1.86-2.76c6.92-10.65,11.47-22.25,13.69-34.74c0.22-1.26,0.72-1.72,2.02-1.76
	c2.7-0.1,5.12,0.76,7.5,1.82c1.15,0.51,1.75,0.45,1.74-1.08c-0.04-9.96-0.03-19.92,0-29.87c0.01-1.56-0.57-1.47-1.74-0.99
	c-2.26,0.93-4.54,1.78-7.08,1.75c-1.52-0.02-2.27-0.35-2.54-1.99c-0.43-2.7-1.06-5.38-1.76-8.03c-2.75-10.42-7.31-20.01-13.52-28.8
	c-1.05-1.48-1.06-2.42,0.41-3.48c1.93-1.39,3.8-2.89,6.1-3.61c1.62-0.5,1.41-1.21,0.42-2.16c-0.86-0.82-1.69-1.67-2.53-2.51
	c-6.04-6.04-12.1-12.06-18.11-18.13c-1.22-1.23-1.92-1.22-2.36,0.55c-0.58,2.3-2.1,4.06-3.45,5.92c-1.01,1.4-1.94,1.56-3.46,0.45
	c-4.87-3.55-10.09-6.49-15.65-8.85c-6.71-2.85-13.54-5.29-20.78-6.34c-1.75-0.25-2.59-0.94-2.41-2.89c0.21-2.32,0.68-4.56,1.67-6.64
	c0.67-1.42,0.6-1.93-1.15-1.92c-9.81,0.05-19.62,0.03-29.43,0.01c-1.38,0-1.95,0.24-1.19,1.76c1,1.99,1.43,4.17,1.73,6.4
	c0.29,2.19-0.59,3.02-2.65,3.37c-13.3,2.29-25.41,7.48-36.43,15.23c-1.08,0.76-2.03,0.81-2.92-0.26c-1.57-1.89-3.13-3.79-3.75-6.24
	c-0.47-1.86-1.24-1.69-2.38-0.54c-6.87,6.89-13.75,13.78-20.64,20.64c-1.21,1.2-0.86,1.86,0.6,2.3c1.73,0.52,3.26,1.43,4.68,2.52
	c2.99,2.3,2.99,2.32,0.89,5.43c-7.39,10.97-12.27,22.96-14.56,35.99c-0.25,1.42-0.82,1.81-2.19,1.82c-2.59,0.02-5.01-0.58-7.29-1.71
	c-1.35-0.67-1.8-0.44-1.8,1.12c0.04,9.88,0.03,19.77,0,29.65c0,1.36,0.31,1.71,1.66,1.13c2.38-1.02,4.78-1.98,7.49-1.81
	c1.23,0.08,1.91,0.29,2.1,1.65c0.27,1.9,0.74,3.77,1.18,5.65c2.64,11.49,7.48,21.97,14.21,31.59c1.02,1.46,0.77,2.47-0.45,3.42
	c-1.75,1.37-3.55,2.68-5.74,3.34c-1.92,0.58-2.04,1.09-0.63,2.51c6.82,6.84,13.67,13.65,20.47,20.5c1.09,1.1,1.84,1.2,2.34-0.4
	c0.71-2.24,2.07-4.07,3.41-5.94c1.05-1.47,2.04-1.64,3.49-0.54c3.07,2.35,6.43,4.26,9.84,6.05c8.59,4.53,17.67,7.66,27.24,9.31
	c1.44,0.25,1.83,0.86,1.81,2.2c-0.03,2.43-0.57,4.71-1.64,6.87c-0.88,1.77-0.37,2.27,1.53,2.23
	C194.69,306.74,199.45,306.81,204.2,306.81z"/>
<path class="st0" d="M124.93,341.21c-0.11,0.08-0.23,0.16-0.34,0.24c0.03-0.16,0.07-0.32,0.1-0.48
	C124.77,341.05,124.85,341.13,124.93,341.21z"/>
<path class="st0" d="M349.48,272.59c0.01,1.69-0.09,2.8-1.11,3.35c-1.1,0.59-2.16,0.06-3.1-0.59c-1.46-1.02-2.36-2.49-2.7-4.18
	c-0.34-1.69-0.44-3.52,1.51-4.41c1.38-0.63,4.25,1.05,4.78,2.75C349.22,270.71,349.36,271.97,349.48,272.59z"/>
<path class="st1" d="M204.2,306.81c-4.76,0-9.51-0.07-14.27,0.03c-1.9,0.04-2.41-0.46-1.53-2.23c1.06-2.15,1.61-4.44,1.64-6.87
	c0.02-1.34-0.37-1.95-1.81-2.2c-9.57-1.65-18.66-4.79-27.24-9.31c-3.41-1.8-6.77-3.7-9.84-6.05c-1.44-1.11-2.43-0.93-3.49,0.54
	c-1.34,1.87-2.71,3.71-3.41,5.94c-0.51,1.6-1.25,1.5-2.34,0.4c-6.8-6.85-13.65-13.67-20.47-20.5c-1.41-1.42-1.29-1.93,0.63-2.51
	c2.19-0.66,3.98-1.97,5.74-3.34c1.22-0.95,1.47-1.97,0.45-3.42c-6.74-9.62-11.58-20.11-14.21-31.59c-0.43-1.88-0.91-3.75-1.18-5.65
	c-0.19-1.36-0.88-1.57-2.1-1.65c-2.72-0.17-5.11,0.79-7.49,1.81c-1.35,0.58-1.67,0.23-1.66-1.13c0.03-9.88,0.04-19.77,0-29.65
	c-0.01-1.57,0.45-1.79,1.8-1.12c2.28,1.13,4.7,1.73,7.29,1.71c1.36-0.01,1.94-0.4,2.19-1.82c2.29-13.03,7.18-25.02,14.56-35.99
	c2.09-3.11,2.1-3.13-0.89-5.43c-1.42-1.09-2.95-1.99-4.68-2.52c-1.45-0.44-1.81-1.1-0.6-2.3c6.9-6.86,13.78-13.75,20.64-20.64
	c1.14-1.15,1.91-1.32,2.38,0.54c0.61,2.44,2.18,4.35,3.75,6.24c0.89,1.07,1.84,1.02,2.92,0.26c11.02-7.76,23.13-12.94,36.43-15.23
	c2.05-0.35,2.94-1.18,2.65-3.37c-0.3-2.23-0.73-4.4-1.73-6.4c-0.76-1.52-0.2-1.76,1.19-1.76c9.81,0.02,19.62,0.04,29.43-0.01
	c1.75-0.01,1.82,0.51,1.15,1.92c-0.99,2.08-1.45,4.32-1.67,6.64c-0.18,1.96,0.65,2.64,2.41,2.89c7.25,1.05,14.07,3.49,20.78,6.34
	c5.56,2.36,10.79,5.31,15.65,8.85c1.53,1.11,2.45,0.95,3.46-0.45c1.35-1.86,2.87-3.62,3.45-5.92c0.44-1.77,1.14-1.78,2.36-0.55
	c6.01,6.07,12.07,12.09,18.11,18.13c0.84,0.84,1.67,1.69,2.53,2.51c0.99,0.95,1.2,1.66-0.42,2.16c-2.3,0.72-4.17,2.21-6.1,3.61
	c-1.47,1.06-1.46,2-0.41,3.48c6.21,8.79,10.77,18.38,13.52,28.8c0.7,2.65,1.32,5.33,1.76,8.03c0.26,1.64,1.02,1.97,2.54,1.99
	c2.54,0.03,4.82-0.82,7.08-1.75c1.17-0.48,1.74-0.58,1.74,0.99c-0.04,9.96-0.04,19.92,0,29.87c0.01,1.53-0.59,1.59-1.74,1.08
	c-2.39-1.06-4.8-1.92-7.5-1.82c-1.31,0.05-1.8,0.5-2.02,1.76c-2.22,12.5-6.77,24.09-13.69,34.74c-0.6,0.93-1.14,1.92-1.86,2.76
	c-1.08,1.27-0.5,2.14,0.53,2.96c1.86,1.48,3.74,2.92,6.09,3.59c1.55,0.45,1.63,1.15,0.47,2.3c-6.91,6.85-13.79,13.73-20.64,20.64
	c-1.28,1.29-1.89,1.02-2.35-0.63c-0.53-1.88-1.58-3.5-2.82-5.01c-2.09-2.54-2.12-2.62-4.91-0.69c-8.57,5.91-17.92,10.14-27.92,12.92
	c-2.78,0.77-5.62,1.37-8.47,1.84c-1.22,0.2-1.6,0.6-1.62,1.81c-0.04,2.67,0.63,5.16,1.71,7.54c0.67,1.47,0.52,1.93-1.2,1.91
	c-4.9-0.08-9.81-0.03-14.71-0.03C204.2,306.8,204.2,306.8,204.2,306.81z M204.23,128.88c-42.05,0.53-74.13,32.97-75.19,72.95
	c-1.17,44.2,33.14,76.82,73.57,77.57c43.24,0.8,76.31-33.1,76.83-74.16C279.98,162.8,246.39,129.31,204.23,128.88z"/>
<path class="st2" d="M204.23,128.88c42.16,0.43,75.76,33.92,75.22,76.36c-0.52,41.06-33.59,74.96-76.83,74.16
	c-40.44-0.75-74.74-33.37-73.57-77.57C130.1,161.85,162.18,129.42,204.23,128.88z M223.73,224.97c6.86-0.88,10.97,1.62,15.11,3.95
	c1.17,0.66,2.22,1.77,1.98,3.24c-0.25,1.49-1.82,1.34-2.9,1.57c-5.08,1.06-10.22,1.7-15.38,2.19c-1.37,0.13-2.72,0.38-3.32,1.81
	c-1.06,2.53-2,5.11-3.05,7.64c-0.45,1.09-0.41,2.12,0.39,2.9c4.12,4.01,8.81,6.42,14.84,5.41c6.87-1.15,13.75-2.19,20.47-4.05
	c4.49-1.25,9.05-2.38,13.02-5c3.36-2.22,3.38-4.61,0.02-6.94c-4.16-2.89-9.02-3.64-13.85-4.43c-1.31-0.21-2.72-0.14-3.82-0.98
	c-4.49-3.4-8.98-6.78-13.4-10.27c-7.21-5.7-14.7-11.02-22.13-16.42c-1.98-1.44-2.02-1.79,0.08-3.15c4.78-3.11,9.55-6.24,14.3-9.41
	c7.46-4.98,14.89-9.99,22.34-14.98c4-2.68,8.01-5.35,12-8.05c0.89-0.61,1.55-1.43,1.27-2.63c-0.22-0.94-0.83-1.59-1.77-1.81
	c-1.13-0.26-2.01,0.43-2.87,0.99c-3.52,2.31-7.02,4.66-10.52,7c-13.23,8.87-26.48,17.7-39.65,26.66c-1.25,0.85-1.93,0.59-2.88-0.11
	c-4.83-3.56-9.65-7.14-14.5-10.67c-10.6-7.71-21.23-15.38-31.81-23.13c-0.96-0.7-1.64-0.67-2.59-0.15
	c-4.1,2.24-8.21,4.46-12.36,6.61c-1.61,0.83-1.27,1.42-0.01,2.22c9.25,5.89,18.49,11.8,27.73,17.71c7.55,4.83,15.08,9.7,22.66,14.49
	c1.55,0.98,1.32,1.53-0.07,2.44c-5.63,3.68-11.21,7.45-16.8,11.19c-8.19,5.48-16.36,10.98-24.58,16.41
	c-1.35,0.89-1.53,1.51-0.29,2.67c3.46,3.23,6.84,6.56,10.24,9.85c5.01,4.85,10.02,9.71,15.03,14.56c0.67,0.65,1.25,1.59,2.39,0.59
	c4.35-3.81,8.72-7.59,13.1-11.36c1.1-0.95,1.14-1.57-0.11-2.59c-7.36-5.98-14.6-12.11-21.96-18.09c-1.43-1.16-0.84-1.75,0.22-2.46
	c9.04-6.08,18.1-12.13,27.13-18.23c1.22-0.82,2.18-0.82,3.42,0.01c4.56,3.03,9.18,5.98,13.8,8.92
	C217.95,223.15,221.18,225.57,223.73,224.97z M201.01,180.95c0.49-0.86,0.66-1.09,0.77-1.36c1.09-2.68,2.23-5.34,3.25-8.04
	c1.8-4.77,2.06-4.95,7.24-4.16c0.15,0.02,0.29,0.09,0.43,0.1c2.75,0.16,5.5,0.31,8.28,0.46c-0.06-0.99-0.62-1.3-1.06-1.66
	c-2.68-2.22-5.32-4.5-8.09-6.6c-1.25-0.94-1.47-1.8-0.89-3.18c1.43-3.41,2.77-6.87,4.14-10.31c0.16-0.4,0.42-0.82-0.21-1.24
	c-3.28,1.45-6.03,3.89-9.18,5.67c-3.07,1.74-3.02,1.65-5.63-0.64c-2.69-2.36-5.52-4.55-8.29-6.81c0.66,4.25,1.61,8.26,2.73,12.23
	c0.43,1.53,0.15,2.44-1.24,3.26c-2.93,1.73-5.78,3.61-8.65,5.45c-0.52,0.33-1.24,0.56-1.09,1.7c3.54-0.23,7.02,0.53,10.57,0.54
	c3.2,0.01,3.54,0.42,4.25,3.53C199.13,173.38,200.02,176.87,201.01,180.95z"/>
<path class="st1" d="M223.73,224.97c-2.55,0.6-5.78-1.81-9.1-3.93c-4.62-2.94-9.24-5.89-13.8-8.92c-1.24-0.83-2.21-0.83-3.42-0.01
	c-9.03,6.1-18.09,12.16-27.13,18.23c-1.06,0.71-1.65,1.3-0.22,2.46c7.36,5.98,14.6,12.11,21.96,18.09c1.25,1.02,1.21,1.64,0.11,2.59
	c-4.38,3.77-8.75,7.56-13.1,11.36c-1.14,1-1.72,0.06-2.39-0.59c-5.01-4.85-10.02-9.71-15.03-14.56c-3.4-3.3-6.78-6.62-10.24-9.85
	c-1.24-1.16-1.05-1.78,0.29-2.67c8.22-5.43,16.39-10.93,24.58-16.41c5.59-3.74,11.17-7.51,16.8-11.19c1.39-0.91,1.62-1.46,0.07-2.44
	c-7.58-4.8-15.11-9.66-22.66-14.49c-9.24-5.91-18.48-11.82-27.73-17.71c-1.26-0.8-1.6-1.38,0.01-2.22
	c4.15-2.15,8.26-4.37,12.36-6.61c0.95-0.52,1.63-0.55,2.59,0.15c10.58,7.75,21.21,15.42,31.81,23.13c4.85,3.53,9.67,7.11,14.5,10.67
	c0.95,0.7,1.63,0.96,2.88,0.11c13.17-8.95,26.42-17.79,39.65-26.66c3.5-2.34,6.99-4.69,10.52-7c0.86-0.56,1.74-1.24,2.87-0.99
	c0.94,0.21,1.55,0.87,1.77,1.81c0.28,1.2-0.38,2.03-1.27,2.63c-3.99,2.7-8,5.37-12,8.05c-7.45,4.99-14.88,10.01-22.34,14.98
	c-4.75,3.17-9.51,6.3-14.3,9.41c-2.1,1.37-2.07,1.71-0.08,3.15c7.43,5.4,14.92,10.72,22.13,16.42c4.41,3.49,8.91,6.88,13.4,10.27
	c1.11,0.84,2.51,0.77,3.82,0.98c4.83,0.79,9.69,1.54,13.85,4.43c3.36,2.34,3.34,4.72-0.02,6.94c-3.97,2.62-8.53,3.75-13.02,5
	c-6.72,1.86-13.6,2.91-20.47,4.05c-6.03,1.01-10.72-1.39-14.84-5.41c-0.8-0.78-0.84-1.81-0.39-2.9c1.05-2.53,1.99-5.11,3.05-7.64
	c0.6-1.43,1.95-1.68,3.32-1.81c5.16-0.49,10.3-1.13,15.38-2.19c1.08-0.23,2.65-0.07,2.9-1.57c0.24-1.47-0.81-2.58-1.98-3.24
	C234.7,226.58,230.59,224.09,223.73,224.97z"/>
<path class="st1" d="M201.01,180.95c-0.99-4.08-1.88-7.57-2.68-11.07c-0.71-3.11-1.05-3.52-4.25-3.53
	c-3.55-0.01-7.03-0.77-10.57-0.54c-0.15-1.15,0.57-1.37,1.09-1.7c2.87-1.84,5.72-3.71,8.65-5.45c1.39-0.82,1.67-1.73,1.24-3.26
	c-1.11-3.96-2.07-7.97-2.73-12.23c2.77,2.26,5.61,4.46,8.29,6.81c2.61,2.29,2.56,2.39,5.63,0.64c3.14-1.78,5.89-4.22,9.18-5.67
	c0.63,0.42,0.37,0.84,0.21,1.24c-1.37,3.44-2.71,6.89-4.14,10.31c-0.58,1.38-0.35,2.24,0.89,3.18c2.78,2.09,5.42,4.37,8.09,6.6
	c0.44,0.36,1,0.67,1.06,1.66c-2.78-0.15-5.53-0.3-8.28-0.46c-0.15-0.01-0.29-0.08-0.43-0.1c-5.17-0.79-5.43-0.61-7.24,4.16
	c-1.02,2.7-2.16,5.36-3.25,8.04C201.67,179.85,201.5,180.09,201.01,180.95z"/>
</svg>
