<?xml version="1.0" encoding="utf-8"?>
<!-- Generator: Adobe Illustrator 24.0.0, SVG Export Plug-In . SVG Version: 6.00 Build 0)  -->
<svg version="1.1" id="Layer_1" xmlns="http://www.w3.org/2000/svg" xmlns:xlink="http://www.w3.org/1999/xlink" x="0px" y="0px"
	 viewBox="0 0 1920 1080" style="enable-background:new 0 0 1920 1080;" xml:space="preserve">
<style type="text/css">
	.st0{clip-path:url(#SVGID_2_);}
	.st1{fill:none;stroke:#D1D1D1;stroke-width:2;stroke-miterlimit:10;}
</style>
<g>
	<defs>
		<rect id="SVGID_1_" width="1920" height="1080"/>
	</defs>
	<clipPath id="SVGID_2_">
		<use xlink:href="#SVGID_1_"  style="overflow:visible;"/>
	</clipPath>
	<g class="st0">
		<g>
			<polygon class="st1" points="-229.04,-44.49 -276.92,-44.49 -300.86,-3.03 -276.92,38.44 -229.04,38.44 -205.1,-3.03 			"/>
			<polygon class="st1" points="-229.04,38.44 -276.92,38.44 -300.86,79.9 -276.92,121.37 -229.04,121.37 -205.1,79.9 			"/>
			<polygon class="st1" points="-229.04,121.37 -276.92,121.37 -300.86,162.83 -276.92,204.29 -229.04,204.29 -205.1,162.83 			"/>
			<polygon class="st1" points="-229.04,204.29 -276.92,204.29 -300.86,245.76 -276.92,287.22 -229.04,287.22 -205.1,245.76 			"/>
			<polygon class="st1" points="-229.04,287.22 -276.92,287.22 -300.86,328.69 -276.92,370.15 -229.04,370.15 -205.1,328.69 			"/>
			<polygon class="st1" points="-229.04,370.15 -276.92,370.15 -300.86,411.62 -276.92,453.08 -229.04,453.08 -205.1,411.62 			"/>
			<polygon class="st1" points="-229.04,453.08 -276.92,453.08 -300.86,494.55 -276.92,536.01 -229.04,536.01 -205.1,494.55 			"/>
			<polygon class="st1" points="-229.04,536.01 -276.92,536.01 -300.86,577.48 -276.92,618.94 -229.04,618.94 -205.1,577.48 			"/>
			<polygon class="st1" points="-133.28,-44.49 -181.16,-44.49 -205.1,-3.03 -181.16,38.44 -133.28,38.44 -109.34,-3.03 			"/>
			<polygon class="st1" points="-133.28,38.44 -181.16,38.44 -205.1,79.9 -181.16,121.37 -133.28,121.37 -109.34,79.9 			"/>
			<polygon class="st1" points="-133.28,121.37 -181.16,121.37 -205.1,162.83 -181.16,204.29 -133.28,204.29 -109.34,162.83 			"/>
			<polygon class="st1" points="-133.28,204.29 -181.16,204.29 -205.1,245.76 -181.16,287.22 -133.28,287.22 -109.34,245.76 			"/>
			<polygon class="st1" points="-133.28,287.22 -181.16,287.22 -205.1,328.69 -181.16,370.15 -133.28,370.15 -109.34,328.69 			"/>
			<polygon class="st1" points="-133.28,370.15 -181.16,370.15 -205.1,411.62 -181.16,453.08 -133.28,453.08 -109.34,411.62 			"/>
			<polygon class="st1" points="-133.28,453.08 -181.16,453.08 -205.1,494.55 -181.16,536.01 -133.28,536.01 -109.34,494.55 			"/>
			<polygon class="st1" points="-133.28,536.01 -181.16,536.01 -205.1,577.48 -181.16,618.94 -133.28,618.94 -109.34,577.48 			"/>
			<polygon class="st1" points="-37.52,-44.49 -85.4,-44.49 -109.34,-3.03 -85.4,38.44 -37.52,38.44 -13.58,-3.03 			"/>
			<polygon class="st1" points="-37.52,38.44 -85.4,38.44 -109.34,79.9 -85.4,121.37 -37.52,121.37 -13.58,79.9 			"/>
			<polygon class="st1" points="-37.52,121.37 -85.4,121.37 -109.34,162.83 -85.4,204.29 -37.52,204.29 -13.58,162.83 			"/>
			<polygon class="st1" points="-37.52,204.29 -85.4,204.29 -109.34,245.76 -85.4,287.22 -37.52,287.22 -13.58,245.76 			"/>
			<polygon class="st1" points="-37.52,287.22 -85.4,287.22 -109.34,328.69 -85.4,370.15 -37.52,370.15 -13.58,328.69 			"/>
			<polygon class="st1" points="-37.52,370.15 -85.4,370.15 -109.34,411.62 -85.4,453.08 -37.52,453.08 -13.58,411.62 			"/>
			<polygon class="st1" points="-37.52,453.08 -85.4,453.08 -109.34,494.55 -85.4,536.01 -37.52,536.01 -13.58,494.55 			"/>
			<polygon class="st1" points="-37.52,536.01 -85.4,536.01 -109.34,577.48 -85.4,618.94 -37.52,618.94 -13.58,577.48 			"/>
			<polygon class="st1" points="58.24,-44.49 10.36,-44.49 -13.58,-3.03 10.36,38.44 58.24,38.44 82.18,-3.03 			"/>
			<polygon class="st1" points="58.24,38.44 10.36,38.44 -13.58,79.9 10.36,121.37 58.24,121.37 82.18,79.9 			"/>
			<polygon class="st1" points="58.24,121.37 10.36,121.37 -13.58,162.83 10.36,204.29 58.24,204.29 82.18,162.83 			"/>
			<polygon class="st1" points="58.24,204.29 10.36,204.29 -13.58,245.76 10.36,287.22 58.24,287.22 82.18,245.76 			"/>
			<polygon class="st1" points="58.24,287.22 10.36,287.22 -13.58,328.69 10.36,370.15 58.24,370.15 82.18,328.69 			"/>
			<polygon class="st1" points="58.24,370.15 10.36,370.15 -13.58,411.62 10.36,453.08 58.24,453.08 82.18,411.62 			"/>
			<polygon class="st1" points="58.24,453.08 10.36,453.08 -13.58,494.55 10.36,536.01 58.24,536.01 82.18,494.55 			"/>
			<polygon class="st1" points="58.24,536.01 10.36,536.01 -13.58,577.48 10.36,618.94 58.24,618.94 82.18,577.48 			"/>
			<polygon class="st1" points="154,-44.49 106.12,-44.49 82.18,-3.03 106.12,38.44 154,38.44 177.94,-3.03 			"/>
			<polygon class="st1" points="154,38.44 106.12,38.44 82.18,79.9 106.12,121.37 154,121.37 177.94,79.9 			"/>
			<polygon class="st1" points="154,121.37 106.12,121.37 82.18,162.83 106.12,204.29 154,204.29 177.94,162.83 			"/>
			<polygon class="st1" points="154,204.29 106.12,204.29 82.18,245.76 106.12,287.22 154,287.22 177.94,245.76 			"/>
			<polygon class="st1" points="154,287.22 106.12,287.22 82.18,328.69 106.12,370.15 154,370.15 177.94,328.69 			"/>
			<polygon class="st1" points="154,370.15 106.12,370.15 82.18,411.62 106.12,453.08 154,453.08 177.94,411.62 			"/>
			<polygon class="st1" points="154,453.08 106.12,453.08 82.18,494.55 106.12,536.01 154,536.01 177.94,494.55 			"/>
			<polygon class="st1" points="154,536.01 106.12,536.01 82.18,577.48 106.12,618.94 154,618.94 177.94,577.48 			"/>
			<polygon class="st1" points="249.76,-44.49 201.88,-44.49 177.94,-3.03 201.88,38.44 249.76,38.44 273.7,-3.03 			"/>
			<polygon class="st1" points="249.76,38.44 201.88,38.44 177.94,79.9 201.88,121.37 249.76,121.37 273.7,79.9 			"/>
			<polygon class="st1" points="249.76,121.37 201.88,121.37 177.94,162.83 201.88,204.29 249.76,204.29 273.7,162.83 			"/>
			<polygon class="st1" points="249.76,204.29 201.88,204.29 177.94,245.76 201.88,287.22 249.76,287.22 273.7,245.76 			"/>
			<polygon class="st1" points="249.76,287.22 201.88,287.22 177.94,328.69 201.88,370.15 249.76,370.15 273.7,328.69 			"/>
			<polygon class="st1" points="249.76,370.15 201.88,370.15 177.94,411.62 201.88,453.08 249.76,453.08 273.7,411.62 			"/>
			<polygon class="st1" points="249.76,453.08 201.88,453.08 177.94,494.55 201.88,536.01 249.76,536.01 273.7,494.55 			"/>
			<polygon class="st1" points="249.76,536.01 201.88,536.01 177.94,577.48 201.88,618.94 249.76,618.94 273.7,577.48 			"/>
			<g>
				<polygon class="st1" points="-204.86,-85.96 -252.74,-85.96 -276.68,-44.49 -252.74,-3.03 -204.86,-3.03 -180.92,-44.49 				"/>
				<polygon class="st1" points="-204.86,-3.03 -252.74,-3.03 -276.68,38.44 -252.74,79.9 -204.86,79.9 -180.92,38.44 				"/>
				<polygon class="st1" points="-204.86,79.9 -252.74,79.9 -276.68,121.37 -252.74,162.83 -204.86,162.83 -180.92,121.37 				"/>
				<polygon class="st1" points="-204.86,162.83 -252.74,162.83 -276.68,204.29 -252.74,245.76 -204.86,245.76 -180.92,204.29 				
					"/>
				<polygon class="st1" points="-204.86,245.76 -252.74,245.76 -276.68,287.22 -252.74,328.69 -204.86,328.69 -180.92,287.22 				
					"/>
				<polygon class="st1" points="-204.86,328.69 -252.74,328.69 -276.68,370.15 -252.74,411.62 -204.86,411.62 -180.92,370.15 				
					"/>
				<polygon class="st1" points="-204.86,411.62 -252.74,411.62 -276.68,453.08 -252.74,494.55 -204.86,494.55 -180.92,453.08 				
					"/>
				<polygon class="st1" points="-204.86,494.55 -252.74,494.55 -276.68,536.01 -252.74,577.48 -204.86,577.48 -180.92,536.01 				
					"/>
			</g>
			<g>
				<polygon class="st1" points="-109.11,-85.96 -156.98,-85.96 -180.92,-44.49 -156.98,-3.03 -109.11,-3.03 -85.17,-44.49 				"/>
				<polygon class="st1" points="-109.11,-3.03 -156.98,-3.03 -180.92,38.44 -156.98,79.9 -109.11,79.9 -85.17,38.44 				"/>
				<polygon class="st1" points="-109.11,79.9 -156.98,79.9 -180.92,121.37 -156.98,162.83 -109.11,162.83 -85.17,121.37 				"/>
				<polygon class="st1" points="-109.11,162.83 -156.98,162.83 -180.92,204.29 -156.98,245.76 -109.11,245.76 -85.17,204.29 				
					"/>
				<polygon class="st1" points="-109.11,245.76 -156.98,245.76 -180.92,287.22 -156.98,328.69 -109.11,328.69 -85.17,287.22 				
					"/>
				<polygon class="st1" points="-109.11,328.69 -156.98,328.69 -180.92,370.15 -156.98,411.62 -109.11,411.62 -85.17,370.15 				
					"/>
				<polygon class="st1" points="-109.11,411.62 -156.98,411.62 -180.92,453.08 -156.98,494.55 -109.11,494.55 -85.17,453.08 				
					"/>
				<polygon class="st1" points="-109.11,494.55 -156.98,494.55 -180.92,536.01 -156.98,577.48 -109.11,577.48 -85.17,536.01 				
					"/>
			</g>
			<g>
				<polygon class="st1" points="-13.35,-85.96 -61.23,-85.96 -85.17,-44.49 -61.23,-3.03 -13.35,-3.03 10.59,-44.49 				"/>
				<polygon class="st1" points="-13.35,-3.03 -61.23,-3.03 -85.17,38.44 -61.23,79.9 -13.35,79.9 10.59,38.44 				"/>
				<polygon class="st1" points="-13.35,79.9 -61.23,79.9 -85.17,121.37 -61.23,162.83 -13.35,162.83 10.59,121.37 				"/>
				<polygon class="st1" points="-13.35,162.83 -61.23,162.83 -85.17,204.29 -61.23,245.76 -13.35,245.76 10.59,204.29 				"/>
				<polygon class="st1" points="-13.35,245.76 -61.23,245.76 -85.17,287.22 -61.23,328.69 -13.35,328.69 10.59,287.22 				"/>
				<polygon class="st1" points="-13.35,328.69 -61.23,328.69 -85.17,370.15 -61.23,411.62 -13.35,411.62 10.59,370.15 				"/>
				<polygon class="st1" points="-13.35,411.62 -61.23,411.62 -85.17,453.08 -61.23,494.55 -13.35,494.55 10.59,453.08 				"/>
				<polygon class="st1" points="-13.35,494.55 -61.23,494.55 -85.17,536.01 -61.23,577.48 -13.35,577.48 10.59,536.01 				"/>
			</g>
			<g>
				<polygon class="st1" points="82.41,-85.96 34.53,-85.96 10.59,-44.49 34.53,-3.03 82.41,-3.03 106.35,-44.49 				"/>
				<polygon class="st1" points="82.41,-3.03 34.53,-3.03 10.59,38.44 34.53,79.9 82.41,79.9 106.35,38.44 				"/>
				<polygon class="st1" points="82.41,79.9 34.53,79.9 10.59,121.37 34.53,162.83 82.41,162.83 106.35,121.37 				"/>
				<polygon class="st1" points="82.41,162.83 34.53,162.83 10.59,204.29 34.53,245.76 82.41,245.76 106.35,204.29 				"/>
				<polygon class="st1" points="82.41,245.76 34.53,245.76 10.59,287.22 34.53,328.69 82.41,328.69 106.35,287.22 				"/>
				<polygon class="st1" points="82.41,328.69 34.53,328.69 10.59,370.15 34.53,411.62 82.41,411.62 106.35,370.15 				"/>
				<polygon class="st1" points="82.41,411.62 34.53,411.62 10.59,453.08 34.53,494.55 82.41,494.55 106.35,453.08 				"/>
				<polygon class="st1" points="82.41,494.55 34.53,494.55 10.59,536.01 34.53,577.48 82.41,577.48 106.35,536.01 				"/>
			</g>
			<g>
				<polygon class="st1" points="178.17,-85.96 130.29,-85.96 106.35,-44.49 130.29,-3.03 178.17,-3.03 202.11,-44.49 				"/>
				<polygon class="st1" points="178.17,-3.03 130.29,-3.03 106.35,38.44 130.29,79.9 178.17,79.9 202.11,38.44 				"/>
				<polygon class="st1" points="178.17,79.9 130.29,79.9 106.35,121.37 130.29,162.83 178.17,162.83 202.11,121.37 				"/>
				<polygon class="st1" points="178.17,162.83 130.29,162.83 106.35,204.29 130.29,245.76 178.17,245.76 202.11,204.29 				"/>
				<polygon class="st1" points="178.17,245.76 130.29,245.76 106.35,287.22 130.29,328.69 178.17,328.69 202.11,287.22 				"/>
				<polygon class="st1" points="178.17,328.69 130.29,328.69 106.35,370.15 130.29,411.62 178.17,411.62 202.11,370.15 				"/>
				<polygon class="st1" points="178.17,411.62 130.29,411.62 106.35,453.08 130.29,494.55 178.17,494.55 202.11,453.08 				"/>
				<polygon class="st1" points="178.17,494.55 130.29,494.55 106.35,536.01 130.29,577.48 178.17,577.48 202.11,536.01 				"/>
			</g>
			<g>
				<polygon class="st1" points="273.93,-85.96 226.05,-85.96 202.11,-44.49 226.05,-3.03 273.93,-3.03 297.87,-44.49 				"/>
				<polygon class="st1" points="273.93,-3.03 226.05,-3.03 202.11,38.44 226.05,79.9 273.93,79.9 297.87,38.44 				"/>
				<polygon class="st1" points="273.93,79.9 226.05,79.9 202.11,121.37 226.05,162.83 273.93,162.83 297.87,121.37 				"/>
				<polygon class="st1" points="273.93,162.83 226.05,162.83 202.11,204.29 226.05,245.76 273.93,245.76 297.87,204.29 				"/>
				<polygon class="st1" points="273.93,245.76 226.05,245.76 202.11,287.22 226.05,328.69 273.93,328.69 297.87,287.22 				"/>
				<polygon class="st1" points="273.93,328.69 226.05,328.69 202.11,370.15 226.05,411.62 273.93,411.62 297.87,370.15 				"/>
				<polygon class="st1" points="273.93,411.62 226.05,411.62 202.11,453.08 226.05,494.55 273.93,494.55 297.87,453.08 				"/>
				<polygon class="st1" points="273.93,494.55 226.05,494.55 202.11,536.01 226.05,577.48 273.93,577.48 297.87,536.01 				"/>
			</g>
		</g>
		<g>
			<polygon class="st1" points="-229.04,618.94 -276.92,618.94 -300.86,660.41 -276.92,701.87 -229.04,701.87 -205.1,660.41 			"/>
			<polygon class="st1" points="-229.04,701.87 -276.92,701.87 -300.86,743.34 -276.92,784.8 -229.04,784.8 -205.1,743.34 			"/>
			<polygon class="st1" points="-229.04,784.8 -276.92,784.8 -300.86,826.27 -276.92,867.73 -229.04,867.73 -205.1,826.27 			"/>
			<polygon class="st1" points="-229.04,867.73 -276.92,867.73 -300.86,909.19 -276.92,950.66 -229.04,950.66 -205.1,909.19 			"/>
			<polygon class="st1" points="-229.04,950.66 -276.92,950.66 -300.86,992.12 -276.92,1033.59 -229.04,1033.59 -205.1,992.12 			
				"/>
			<polygon class="st1" points="-229.04,1033.59 -276.92,1033.59 -300.86,1075.05 -276.92,1116.52 -229.04,1116.52 -205.1,1075.05 
							"/>
			<polygon class="st1" points="-229.04,1116.52 -276.92,1116.52 -300.86,1157.98 -276.92,1199.45 -229.04,1199.45 -205.1,1157.98 
							"/>
			<polygon class="st1" points="-229.04,1199.45 -276.92,1199.45 -300.86,1240.91 -276.92,1282.38 -229.04,1282.38 -205.1,1240.91 
							"/>
			<polygon class="st1" points="-133.28,618.94 -181.16,618.94 -205.1,660.41 -181.16,701.87 -133.28,701.87 -109.34,660.41 			"/>
			<polygon class="st1" points="-133.28,701.87 -181.16,701.87 -205.1,743.34 -181.16,784.8 -133.28,784.8 -109.34,743.34 			"/>
			<polygon class="st1" points="-133.28,784.8 -181.16,784.8 -205.1,826.27 -181.16,867.73 -133.28,867.73 -109.34,826.27 			"/>
			<polygon class="st1" points="-133.28,867.73 -181.16,867.73 -205.1,909.19 -181.16,950.66 -133.28,950.66 -109.34,909.19 			"/>
			<polygon class="st1" points="-133.28,950.66 -181.16,950.66 -205.1,992.12 -181.16,1033.59 -133.28,1033.59 -109.34,992.12 			
				"/>
			<polygon class="st1" points="-133.28,1033.59 -181.16,1033.59 -205.1,1075.05 -181.16,1116.52 -133.28,1116.52 -109.34,1075.05 
							"/>
			<polygon class="st1" points="-133.28,1116.52 -181.16,1116.52 -205.1,1157.98 -181.16,1199.45 -133.28,1199.45 -109.34,1157.98 
							"/>
			<polygon class="st1" points="-133.28,1199.45 -181.16,1199.45 -205.1,1240.91 -181.16,1282.38 -133.28,1282.38 -109.34,1240.91 
							"/>
			<polygon class="st1" points="-37.52,618.94 -85.4,618.94 -109.34,660.41 -85.4,701.87 -37.52,701.87 -13.58,660.41 			"/>
			<polygon class="st1" points="-37.52,701.87 -85.4,701.87 -109.34,743.34 -85.4,784.8 -37.52,784.8 -13.58,743.34 			"/>
			<polygon class="st1" points="-37.52,784.8 -85.4,784.8 -109.34,826.27 -85.4,867.73 -37.52,867.73 -13.58,826.27 			"/>
			<polygon class="st1" points="-37.52,867.73 -85.4,867.73 -109.34,909.19 -85.4,950.66 -37.52,950.66 -13.58,909.19 			"/>
			<polygon class="st1" points="-37.52,950.66 -85.4,950.66 -109.34,992.12 -85.4,1033.59 -37.52,1033.59 -13.58,992.12 			"/>
			<polygon class="st1" points="-37.52,1033.59 -85.4,1033.59 -109.34,1075.05 -85.4,1116.52 -37.52,1116.52 -13.58,1075.05 			"/>
			<polygon class="st1" points="-37.52,1116.52 -85.4,1116.52 -109.34,1157.98 -85.4,1199.45 -37.52,1199.45 -13.58,1157.98 			"/>
			<polygon class="st1" points="-37.52,1199.45 -85.4,1199.45 -109.34,1240.91 -85.4,1282.38 -37.52,1282.38 -13.58,1240.91 			"/>
			<polygon class="st1" points="58.24,618.94 10.36,618.94 -13.58,660.41 10.36,701.87 58.24,701.87 82.18,660.41 			"/>
			<polygon class="st1" points="58.24,701.87 10.36,701.87 -13.58,743.34 10.36,784.8 58.24,784.8 82.18,743.34 			"/>
			<polygon class="st1" points="58.24,784.8 10.36,784.8 -13.58,826.27 10.36,867.73 58.24,867.73 82.18,826.27 			"/>
			<polygon class="st1" points="58.24,867.73 10.36,867.73 -13.58,909.19 10.36,950.66 58.24,950.66 82.18,909.19 			"/>
			<polygon class="st1" points="58.24,950.66 10.36,950.66 -13.58,992.12 10.36,1033.59 58.24,1033.59 82.18,992.12 			"/>
			<polygon class="st1" points="58.24,1033.59 10.36,1033.59 -13.58,1075.05 10.36,1116.52 58.24,1116.52 82.18,1075.05 			"/>
			<polygon class="st1" points="58.24,1116.52 10.36,1116.52 -13.58,1157.98 10.36,1199.45 58.24,1199.45 82.18,1157.98 			"/>
			<polygon class="st1" points="58.24,1199.45 10.36,1199.45 -13.58,1240.91 10.36,1282.38 58.24,1282.38 82.18,1240.91 			"/>
			<polygon class="st1" points="154,618.94 106.12,618.94 82.18,660.41 106.12,701.87 154,701.87 177.94,660.41 			"/>
			<polygon class="st1" points="154,701.87 106.12,701.87 82.18,743.34 106.12,784.8 154,784.8 177.94,743.34 			"/>
			<polygon class="st1" points="154,784.8 106.12,784.8 82.18,826.27 106.12,867.73 154,867.73 177.94,826.27 			"/>
			<polygon class="st1" points="154,867.73 106.12,867.73 82.18,909.19 106.12,950.66 154,950.66 177.94,909.19 			"/>
			<polygon class="st1" points="154,950.66 106.12,950.66 82.18,992.12 106.12,1033.59 154,1033.59 177.94,992.12 			"/>
			<polygon class="st1" points="154,1033.59 106.12,1033.59 82.18,1075.05 106.12,1116.52 154,1116.52 177.94,1075.05 			"/>
			<polygon class="st1" points="154,1116.52 106.12,1116.52 82.18,1157.98 106.12,1199.45 154,1199.45 177.94,1157.98 			"/>
			<polygon class="st1" points="154,1199.45 106.12,1199.45 82.18,1240.91 106.12,1282.38 154,1282.38 177.94,1240.91 			"/>
			<polygon class="st1" points="249.76,618.94 201.88,618.94 177.94,660.41 201.88,701.87 249.76,701.87 273.7,660.41 			"/>
			<polygon class="st1" points="249.76,701.87 201.88,701.87 177.94,743.34 201.88,784.8 249.76,784.8 273.7,743.34 			"/>
			<polygon class="st1" points="249.76,784.8 201.88,784.8 177.94,826.27 201.88,867.73 249.76,867.73 273.7,826.27 			"/>
			<polygon class="st1" points="249.76,867.73 201.88,867.73 177.94,909.19 201.88,950.66 249.76,950.66 273.7,909.19 			"/>
			<polygon class="st1" points="249.76,950.66 201.88,950.66 177.94,992.12 201.88,1033.59 249.76,1033.59 273.7,992.12 			"/>
			<polygon class="st1" points="249.76,1033.59 201.88,1033.59 177.94,1075.05 201.88,1116.52 249.76,1116.52 273.7,1075.05 			"/>
			<polygon class="st1" points="249.76,1116.52 201.88,1116.52 177.94,1157.98 201.88,1199.45 249.76,1199.45 273.7,1157.98 			"/>
			<polygon class="st1" points="249.76,1199.45 201.88,1199.45 177.94,1240.91 201.88,1282.38 249.76,1282.38 273.7,1240.91 			"/>
			<g>
				<polygon class="st1" points="-204.86,577.48 -252.74,577.48 -276.68,618.94 -252.74,660.41 -204.86,660.41 -180.92,618.94 				
					"/>
				<polygon class="st1" points="-204.86,660.41 -252.74,660.41 -276.68,701.87 -252.74,743.34 -204.86,743.34 -180.92,701.87 				
					"/>
				<polygon class="st1" points="-204.86,743.34 -252.74,743.34 -276.68,784.8 -252.74,826.27 -204.86,826.27 -180.92,784.8 				"/>
				<polygon class="st1" points="-204.86,826.27 -252.74,826.27 -276.68,867.73 -252.74,909.19 -204.86,909.19 -180.92,867.73 				
					"/>
				<polygon class="st1" points="-204.86,909.19 -252.74,909.19 -276.68,950.66 -252.74,992.12 -204.86,992.12 -180.92,950.66 				
					"/>
				<polygon class="st1" points="-204.86,992.12 -252.74,992.12 -276.68,1033.59 -252.74,1075.05 -204.86,1075.05 -180.92,1033.59 
									"/>
				<polygon class="st1" points="-204.86,1075.05 -252.74,1075.05 -276.68,1116.52 -252.74,1157.98 -204.86,1157.98 
					-180.92,1116.52 				"/>
				<polygon class="st1" points="-204.86,1157.98 -252.74,1157.98 -276.68,1199.45 -252.74,1240.91 -204.86,1240.91 
					-180.92,1199.45 				"/>
			</g>
			<g>
				<polygon class="st1" points="-109.11,577.48 -156.98,577.48 -180.92,618.94 -156.98,660.41 -109.11,660.41 -85.17,618.94 				
					"/>
				<polygon class="st1" points="-109.11,660.41 -156.98,660.41 -180.92,701.87 -156.98,743.34 -109.11,743.34 -85.17,701.87 				
					"/>
				<polygon class="st1" points="-109.11,743.34 -156.98,743.34 -180.92,784.8 -156.98,826.27 -109.11,826.27 -85.17,784.8 				"/>
				<polygon class="st1" points="-109.11,826.27 -156.98,826.27 -180.92,867.73 -156.98,909.19 -109.11,909.19 -85.17,867.73 				
					"/>
				<polygon class="st1" points="-109.11,909.19 -156.98,909.19 -180.92,950.66 -156.98,992.12 -109.11,992.12 -85.17,950.66 				
					"/>
				<polygon class="st1" points="-109.11,992.12 -156.98,992.12 -180.92,1033.59 -156.98,1075.05 -109.11,1075.05 -85.17,1033.59 
									"/>
				<polygon class="st1" points="-109.11,1075.05 -156.98,1075.05 -180.92,1116.52 -156.98,1157.98 -109.11,1157.98 -85.17,1116.52 
									"/>
				<polygon class="st1" points="-109.11,1157.98 -156.98,1157.98 -180.92,1199.45 -156.98,1240.91 -109.11,1240.91 -85.17,1199.45 
									"/>
			</g>
			<g>
				<polygon class="st1" points="-13.35,577.48 -61.23,577.48 -85.17,618.94 -61.23,660.41 -13.35,660.41 10.59,618.94 				"/>
				<polygon class="st1" points="-13.35,660.41 -61.23,660.41 -85.17,701.87 -61.23,743.34 -13.35,743.34 10.59,701.87 				"/>
				<polygon class="st1" points="-13.35,743.34 -61.23,743.34 -85.17,784.8 -61.23,826.27 -13.35,826.27 10.59,784.8 				"/>
				<polygon class="st1" points="-13.35,826.27 -61.23,826.27 -85.17,867.73 -61.23,909.19 -13.35,909.19 10.59,867.73 				"/>
				<polygon class="st1" points="-13.35,909.19 -61.23,909.19 -85.17,950.66 -61.23,992.12 -13.35,992.12 10.59,950.66 				"/>
				<polygon class="st1" points="-13.35,992.12 -61.23,992.12 -85.17,1033.59 -61.23,1075.05 -13.35,1075.05 10.59,1033.59 				"/>
				<polygon class="st1" points="-13.35,1075.05 -61.23,1075.05 -85.17,1116.52 -61.23,1157.98 -13.35,1157.98 10.59,1116.52 				
					"/>
				<polygon class="st1" points="-13.35,1157.98 -61.23,1157.98 -85.17,1199.45 -61.23,1240.91 -13.35,1240.91 10.59,1199.45 				
					"/>
			</g>
			<g>
				<polygon class="st1" points="82.41,577.48 34.53,577.48 10.59,618.94 34.53,660.41 82.41,660.41 106.35,618.94 				"/>
				<polygon class="st1" points="82.41,660.41 34.53,660.41 10.59,701.87 34.53,743.34 82.41,743.34 106.35,701.87 				"/>
				<polygon class="st1" points="82.41,743.34 34.53,743.34 10.59,784.8 34.53,826.27 82.41,826.27 106.35,784.8 				"/>
				<polygon class="st1" points="82.41,826.27 34.53,826.27 10.59,867.73 34.53,909.19 82.41,909.19 106.35,867.73 				"/>
				<polygon class="st1" points="82.41,909.19 34.53,909.19 10.59,950.66 34.53,992.12 82.41,992.12 106.35,950.66 				"/>
				<polygon class="st1" points="82.41,992.12 34.53,992.12 10.59,1033.59 34.53,1075.05 82.41,1075.05 106.35,1033.59 				"/>
				<polygon class="st1" points="82.41,1075.05 34.53,1075.05 10.59,1116.52 34.53,1157.98 82.41,1157.98 106.35,1116.52 				"/>
				<polygon class="st1" points="82.41,1157.98 34.53,1157.98 10.59,1199.45 34.53,1240.91 82.41,1240.91 106.35,1199.45 				"/>
			</g>
			<g>
				<polygon class="st1" points="178.17,577.48 130.29,577.48 106.35,618.94 130.29,660.41 178.17,660.41 202.11,618.94 				"/>
				<polygon class="st1" points="178.17,660.41 130.29,660.41 106.35,701.87 130.29,743.34 178.17,743.34 202.11,701.87 				"/>
				<polygon class="st1" points="178.17,743.34 130.29,743.34 106.35,784.8 130.29,826.27 178.17,826.27 202.11,784.8 				"/>
				<polygon class="st1" points="178.17,826.27 130.29,826.27 106.35,867.73 130.29,909.19 178.17,909.19 202.11,867.73 				"/>
				<polygon class="st1" points="178.17,909.19 130.29,909.19 106.35,950.66 130.29,992.12 178.17,992.12 202.11,950.66 				"/>
				<polygon class="st1" points="178.17,992.12 130.29,992.12 106.35,1033.59 130.29,1075.05 178.17,1075.05 202.11,1033.59 				"/>
				<polygon class="st1" points="178.17,1075.05 130.29,1075.05 106.35,1116.52 130.29,1157.98 178.17,1157.98 202.11,1116.52 				
					"/>
				<polygon class="st1" points="178.17,1157.98 130.29,1157.98 106.35,1199.45 130.29,1240.91 178.17,1240.91 202.11,1199.45 				
					"/>
			</g>
			<g>
				<polygon class="st1" points="273.93,577.48 226.05,577.48 202.11,618.94 226.05,660.41 273.93,660.41 297.87,618.94 				"/>
				<polygon class="st1" points="273.93,660.41 226.05,660.41 202.11,701.87 226.05,743.34 273.93,743.34 297.87,701.87 				"/>
				<polygon class="st1" points="273.93,743.34 226.05,743.34 202.11,784.8 226.05,826.27 273.93,826.27 297.87,784.8 				"/>
				<polygon class="st1" points="273.93,826.27 226.05,826.27 202.11,867.73 226.05,909.19 273.93,909.19 297.87,867.73 				"/>
				<polygon class="st1" points="273.93,909.19 226.05,909.19 202.11,950.66 226.05,992.12 273.93,992.12 297.87,950.66 				"/>
				<polygon class="st1" points="273.93,992.12 226.05,992.12 202.11,1033.59 226.05,1075.05 273.93,1075.05 297.87,1033.59 				"/>
				<polygon class="st1" points="273.93,1075.05 226.05,1075.05 202.11,1116.52 226.05,1157.98 273.93,1157.98 297.87,1116.52 				
					"/>
				<polygon class="st1" points="273.93,1157.98 226.05,1157.98 202.11,1199.45 226.05,1240.91 273.93,1240.91 297.87,1199.45 				
					"/>
			</g>
		</g>
		<g>
			<polygon class="st1" points="345.51,-44.49 297.63,-44.49 273.7,-3.03 297.63,38.44 345.51,38.44 369.45,-3.03 			"/>
			<polygon class="st1" points="345.51,38.44 297.63,38.44 273.7,79.9 297.63,121.37 345.51,121.37 369.45,79.9 			"/>
			<polygon class="st1" points="345.51,121.37 297.63,121.37 273.7,162.83 297.63,204.29 345.51,204.29 369.45,162.83 			"/>
			<polygon class="st1" points="345.51,204.29 297.63,204.29 273.7,245.76 297.63,287.22 345.51,287.22 369.45,245.76 			"/>
			<polygon class="st1" points="345.51,287.22 297.63,287.22 273.7,328.69 297.63,370.15 345.51,370.15 369.45,328.69 			"/>
			<polygon class="st1" points="345.51,370.15 297.63,370.15 273.7,411.62 297.63,453.08 345.51,453.08 369.45,411.62 			"/>
			<polygon class="st1" points="345.51,453.08 297.63,453.08 273.7,494.55 297.63,536.01 345.51,536.01 369.45,494.55 			"/>
			<polygon class="st1" points="345.51,536.01 297.63,536.01 273.7,577.48 297.63,618.94 345.51,618.94 369.45,577.48 			"/>
			<polygon class="st1" points="441.27,-44.49 393.39,-44.49 369.45,-3.03 393.39,38.44 441.27,38.44 465.21,-3.03 			"/>
			<polygon class="st1" points="441.27,38.44 393.39,38.44 369.45,79.9 393.39,121.37 441.27,121.37 465.21,79.9 			"/>
			<polygon class="st1" points="441.27,121.37 393.39,121.37 369.45,162.83 393.39,204.29 441.27,204.29 465.21,162.83 			"/>
			<polygon class="st1" points="441.27,204.29 393.39,204.29 369.45,245.76 393.39,287.22 441.27,287.22 465.21,245.76 			"/>
			<polygon class="st1" points="441.27,287.22 393.39,287.22 369.45,328.69 393.39,370.15 441.27,370.15 465.21,328.69 			"/>
			<polygon class="st1" points="441.27,370.15 393.39,370.15 369.45,411.62 393.39,453.08 441.27,453.08 465.21,411.62 			"/>
			<polygon class="st1" points="441.27,453.08 393.39,453.08 369.45,494.55 393.39,536.01 441.27,536.01 465.21,494.55 			"/>
			<polygon class="st1" points="441.27,536.01 393.39,536.01 369.45,577.48 393.39,618.94 441.27,618.94 465.21,577.48 			"/>
			<polygon class="st1" points="537.03,-44.49 489.15,-44.49 465.21,-3.03 489.15,38.44 537.03,38.44 560.97,-3.03 			"/>
			<polygon class="st1" points="537.03,38.44 489.15,38.44 465.21,79.9 489.15,121.37 537.03,121.37 560.97,79.9 			"/>
			<polygon class="st1" points="537.03,121.37 489.15,121.37 465.21,162.83 489.15,204.29 537.03,204.29 560.97,162.83 			"/>
			<polygon class="st1" points="537.03,204.29 489.15,204.29 465.21,245.76 489.15,287.22 537.03,287.22 560.97,245.76 			"/>
			<polygon class="st1" points="537.03,287.22 489.15,287.22 465.21,328.69 489.15,370.15 537.03,370.15 560.97,328.69 			"/>
			<polygon class="st1" points="537.03,370.15 489.15,370.15 465.21,411.62 489.15,453.08 537.03,453.08 560.97,411.62 			"/>
			<polygon class="st1" points="537.03,453.08 489.15,453.08 465.21,494.55 489.15,536.01 537.03,536.01 560.97,494.55 			"/>
			<polygon class="st1" points="537.03,536.01 489.15,536.01 465.21,577.48 489.15,618.94 537.03,618.94 560.97,577.48 			"/>
			<polygon class="st1" points="632.79,-44.49 584.91,-44.49 560.97,-3.03 584.91,38.44 632.79,38.44 656.73,-3.03 			"/>
			<polygon class="st1" points="632.79,38.44 584.91,38.44 560.97,79.9 584.91,121.37 632.79,121.37 656.73,79.9 			"/>
			<polygon class="st1" points="632.79,121.37 584.91,121.37 560.97,162.83 584.91,204.29 632.79,204.29 656.73,162.83 			"/>
			<polygon class="st1" points="632.79,204.29 584.91,204.29 560.97,245.76 584.91,287.22 632.79,287.22 656.73,245.76 			"/>
			<polygon class="st1" points="632.79,287.22 584.91,287.22 560.97,328.69 584.91,370.15 632.79,370.15 656.73,328.69 			"/>
			<polygon class="st1" points="632.79,370.15 584.91,370.15 560.97,411.62 584.91,453.08 632.79,453.08 656.73,411.62 			"/>
			<polygon class="st1" points="632.79,453.08 584.91,453.08 560.97,494.55 584.91,536.01 632.79,536.01 656.73,494.55 			"/>
			<polygon class="st1" points="632.79,536.01 584.91,536.01 560.97,577.48 584.91,618.94 632.79,618.94 656.73,577.48 			"/>
			<polygon class="st1" points="728.55,-44.49 680.67,-44.49 656.73,-3.03 680.67,38.44 728.55,38.44 752.49,-3.03 			"/>
			<polygon class="st1" points="728.55,38.44 680.67,38.44 656.73,79.9 680.67,121.37 728.55,121.37 752.49,79.9 			"/>
			<polygon class="st1" points="728.55,121.37 680.67,121.37 656.73,162.83 680.67,204.29 728.55,204.29 752.49,162.83 			"/>
			<polygon class="st1" points="728.55,204.29 680.67,204.29 656.73,245.76 680.67,287.22 728.55,287.22 752.49,245.76 			"/>
			<polygon class="st1" points="728.55,287.22 680.67,287.22 656.73,328.69 680.67,370.15 728.55,370.15 752.49,328.69 			"/>
			<polygon class="st1" points="728.55,370.15 680.67,370.15 656.73,411.62 680.67,453.08 728.55,453.08 752.49,411.62 			"/>
			<polygon class="st1" points="728.55,453.08 680.67,453.08 656.73,494.55 680.67,536.01 728.55,536.01 752.49,494.55 			"/>
			<polygon class="st1" points="728.55,536.01 680.67,536.01 656.73,577.48 680.67,618.94 728.55,618.94 752.49,577.48 			"/>
			<polygon class="st1" points="824.31,-44.49 776.43,-44.49 752.49,-3.03 776.43,38.44 824.31,38.44 848.25,-3.03 			"/>
			<polygon class="st1" points="824.31,38.44 776.43,38.44 752.49,79.9 776.43,121.37 824.31,121.37 848.25,79.9 			"/>
			<polygon class="st1" points="824.31,121.37 776.43,121.37 752.49,162.83 776.43,204.29 824.31,204.29 848.25,162.83 			"/>
			<polygon class="st1" points="824.31,204.29 776.43,204.29 752.49,245.76 776.43,287.22 824.31,287.22 848.25,245.76 			"/>
			<polygon class="st1" points="824.31,287.22 776.43,287.22 752.49,328.69 776.43,370.15 824.31,370.15 848.25,328.69 			"/>
			<polygon class="st1" points="824.31,370.15 776.43,370.15 752.49,411.62 776.43,453.08 824.31,453.08 848.25,411.62 			"/>
			<polygon class="st1" points="824.31,453.08 776.43,453.08 752.49,494.55 776.43,536.01 824.31,536.01 848.25,494.55 			"/>
			<polygon class="st1" points="824.31,536.01 776.43,536.01 752.49,577.48 776.43,618.94 824.31,618.94 848.25,577.48 			"/>
			<g>
				<polygon class="st1" points="369.69,-85.96 321.81,-85.96 297.87,-44.49 321.81,-3.03 369.69,-3.03 393.63,-44.49 				"/>
				<polygon class="st1" points="369.69,-3.03 321.81,-3.03 297.87,38.44 321.81,79.9 369.69,79.9 393.63,38.44 				"/>
				<polygon class="st1" points="369.69,79.9 321.81,79.9 297.87,121.37 321.81,162.83 369.69,162.83 393.63,121.37 				"/>
				<polygon class="st1" points="369.69,162.83 321.81,162.83 297.87,204.29 321.81,245.76 369.69,245.76 393.63,204.29 				"/>
				<polygon class="st1" points="369.69,245.76 321.81,245.76 297.87,287.22 321.81,328.69 369.69,328.69 393.63,287.22 				"/>
				<polygon class="st1" points="369.69,328.69 321.81,328.69 297.87,370.15 321.81,411.62 369.69,411.62 393.63,370.15 				"/>
				<polygon class="st1" points="369.69,411.62 321.81,411.62 297.87,453.08 321.81,494.55 369.69,494.55 393.63,453.08 				"/>
				<polygon class="st1" points="369.69,494.55 321.81,494.55 297.87,536.01 321.81,577.48 369.69,577.48 393.63,536.01 				"/>
			</g>
			<g>
				<polygon class="st1" points="465.45,-85.96 417.57,-85.96 393.63,-44.49 417.57,-3.03 465.45,-3.03 489.39,-44.49 				"/>
				<polygon class="st1" points="465.45,-3.03 417.57,-3.03 393.63,38.44 417.57,79.9 465.45,79.9 489.39,38.44 				"/>
				<polygon class="st1" points="465.45,79.9 417.57,79.9 393.63,121.37 417.57,162.83 465.45,162.83 489.39,121.37 				"/>
				<polygon class="st1" points="465.45,162.83 417.57,162.83 393.63,204.29 417.57,245.76 465.45,245.76 489.39,204.29 				"/>
				<polygon class="st1" points="465.45,245.76 417.57,245.76 393.63,287.22 417.57,328.69 465.45,328.69 489.39,287.22 				"/>
				<polygon class="st1" points="465.45,328.69 417.57,328.69 393.63,370.15 417.57,411.62 465.45,411.62 489.39,370.15 				"/>
				<polygon class="st1" points="465.45,411.62 417.57,411.62 393.63,453.08 417.57,494.55 465.45,494.55 489.39,453.08 				"/>
				<polygon class="st1" points="465.45,494.55 417.57,494.55 393.63,536.01 417.57,577.48 465.45,577.48 489.39,536.01 				"/>
			</g>
			<g>
				<polygon class="st1" points="561.21,-85.96 513.33,-85.96 489.39,-44.49 513.33,-3.03 561.21,-3.03 585.14,-44.49 				"/>
				<polygon class="st1" points="561.21,-3.03 513.33,-3.03 489.39,38.44 513.33,79.9 561.21,79.9 585.14,38.44 				"/>
				<polygon class="st1" points="561.21,79.9 513.33,79.9 489.39,121.37 513.33,162.83 561.21,162.83 585.14,121.37 				"/>
				<polygon class="st1" points="561.21,162.83 513.33,162.83 489.39,204.29 513.33,245.76 561.21,245.76 585.14,204.29 				"/>
				<polygon class="st1" points="561.21,245.76 513.33,245.76 489.39,287.22 513.33,328.69 561.21,328.69 585.14,287.22 				"/>
				<polygon class="st1" points="561.21,328.69 513.33,328.69 489.39,370.15 513.33,411.62 561.21,411.62 585.14,370.15 				"/>
				<polygon class="st1" points="561.21,411.62 513.33,411.62 489.39,453.08 513.33,494.55 561.21,494.55 585.14,453.08 				"/>
				<polygon class="st1" points="561.21,494.55 513.33,494.55 489.39,536.01 513.33,577.48 561.21,577.48 585.14,536.01 				"/>
			</g>
			<g>
				<polygon class="st1" points="656.96,-85.96 609.08,-85.96 585.14,-44.49 609.08,-3.03 656.96,-3.03 680.9,-44.49 				"/>
				<polygon class="st1" points="656.96,-3.03 609.08,-3.03 585.14,38.44 609.08,79.9 656.96,79.9 680.9,38.44 				"/>
				<polygon class="st1" points="656.96,79.9 609.08,79.9 585.14,121.37 609.08,162.83 656.96,162.83 680.9,121.37 				"/>
				<polygon class="st1" points="656.96,162.83 609.08,162.83 585.14,204.29 609.08,245.76 656.96,245.76 680.9,204.29 				"/>
				<polygon class="st1" points="656.96,245.76 609.08,245.76 585.14,287.22 609.08,328.69 656.96,328.69 680.9,287.22 				"/>
				<polygon class="st1" points="656.96,328.69 609.08,328.69 585.14,370.15 609.08,411.62 656.96,411.62 680.9,370.15 				"/>
				<polygon class="st1" points="656.96,411.62 609.08,411.62 585.14,453.08 609.08,494.55 656.96,494.55 680.9,453.08 				"/>
				<polygon class="st1" points="656.96,494.55 609.08,494.55 585.14,536.01 609.08,577.48 656.96,577.48 680.9,536.01 				"/>
			</g>
			<g>
				<polygon class="st1" points="752.72,-85.96 704.84,-85.96 680.9,-44.49 704.84,-3.03 752.72,-3.03 776.66,-44.49 				"/>
				<polygon class="st1" points="752.72,-3.03 704.84,-3.03 680.9,38.44 704.84,79.9 752.72,79.9 776.66,38.44 				"/>
				<polygon class="st1" points="752.72,79.9 704.84,79.9 680.9,121.37 704.84,162.83 752.72,162.83 776.66,121.37 				"/>
				<polygon class="st1" points="752.72,162.83 704.84,162.83 680.9,204.29 704.84,245.76 752.72,245.76 776.66,204.29 				"/>
				<polygon class="st1" points="752.72,245.76 704.84,245.76 680.9,287.22 704.84,328.69 752.72,328.69 776.66,287.22 				"/>
				<polygon class="st1" points="752.72,328.69 704.84,328.69 680.9,370.15 704.84,411.62 752.72,411.62 776.66,370.15 				"/>
				<polygon class="st1" points="752.72,411.62 704.84,411.62 680.9,453.08 704.84,494.55 752.72,494.55 776.66,453.08 				"/>
				<polygon class="st1" points="752.72,494.55 704.84,494.55 680.9,536.01 704.84,577.48 752.72,577.48 776.66,536.01 				"/>
			</g>
			<g>
				<polygon class="st1" points="848.48,-85.96 800.6,-85.96 776.66,-44.49 800.6,-3.03 848.48,-3.03 872.42,-44.49 				"/>
				<polygon class="st1" points="848.48,-3.03 800.6,-3.03 776.66,38.44 800.6,79.9 848.48,79.9 872.42,38.44 				"/>
				<polygon class="st1" points="848.48,79.9 800.6,79.9 776.66,121.37 800.6,162.83 848.48,162.83 872.42,121.37 				"/>
				<polygon class="st1" points="848.48,162.83 800.6,162.83 776.66,204.29 800.6,245.76 848.48,245.76 872.42,204.29 				"/>
				<polygon class="st1" points="848.48,245.76 800.6,245.76 776.66,287.22 800.6,328.69 848.48,328.69 872.42,287.22 				"/>
				<polygon class="st1" points="848.48,328.69 800.6,328.69 776.66,370.15 800.6,411.62 848.48,411.62 872.42,370.15 				"/>
				<polygon class="st1" points="848.48,411.62 800.6,411.62 776.66,453.08 800.6,494.55 848.48,494.55 872.42,453.08 				"/>
				<polygon class="st1" points="848.48,494.55 800.6,494.55 776.66,536.01 800.6,577.48 848.48,577.48 872.42,536.01 				"/>
			</g>
		</g>
		<g>
			<polygon class="st1" points="345.51,618.94 297.63,618.94 273.7,660.41 297.63,701.87 345.51,701.87 369.45,660.41 			"/>
			<polygon class="st1" points="345.51,701.87 297.63,701.87 273.7,743.34 297.63,784.8 345.51,784.8 369.45,743.34 			"/>
			<polygon class="st1" points="345.51,784.8 297.63,784.8 273.7,826.27 297.63,867.73 345.51,867.73 369.45,826.27 			"/>
			<polygon class="st1" points="345.51,867.73 297.63,867.73 273.7,909.19 297.63,950.66 345.51,950.66 369.45,909.19 			"/>
			<polygon class="st1" points="345.51,950.66 297.63,950.66 273.7,992.12 297.63,1033.59 345.51,1033.59 369.45,992.12 			"/>
			<polygon class="st1" points="345.51,1033.59 297.63,1033.59 273.7,1075.05 297.63,1116.52 345.51,1116.52 369.45,1075.05 			"/>
			<polygon class="st1" points="345.51,1116.52 297.63,1116.52 273.7,1157.98 297.63,1199.45 345.51,1199.45 369.45,1157.98 			"/>
			<polygon class="st1" points="345.51,1199.45 297.63,1199.45 273.7,1240.91 297.63,1282.38 345.51,1282.38 369.45,1240.91 			"/>
			<polygon class="st1" points="441.27,618.94 393.39,618.94 369.45,660.41 393.39,701.87 441.27,701.87 465.21,660.41 			"/>
			<polygon class="st1" points="441.27,701.87 393.39,701.87 369.45,743.34 393.39,784.8 441.27,784.8 465.21,743.34 			"/>
			<polygon class="st1" points="441.27,784.8 393.39,784.8 369.45,826.27 393.39,867.73 441.27,867.73 465.21,826.27 			"/>
			<polygon class="st1" points="441.27,867.73 393.39,867.73 369.45,909.19 393.39,950.66 441.27,950.66 465.21,909.19 			"/>
			<polygon class="st1" points="441.27,950.66 393.39,950.66 369.45,992.12 393.39,1033.59 441.27,1033.59 465.21,992.12 			"/>
			<polygon class="st1" points="441.27,1033.59 393.39,1033.59 369.45,1075.05 393.39,1116.52 441.27,1116.52 465.21,1075.05 			"/>
			<polygon class="st1" points="441.27,1116.52 393.39,1116.52 369.45,1157.98 393.39,1199.45 441.27,1199.45 465.21,1157.98 			"/>
			<polygon class="st1" points="441.27,1199.45 393.39,1199.45 369.45,1240.91 393.39,1282.38 441.27,1282.38 465.21,1240.91 			"/>
			<polygon class="st1" points="537.03,618.94 489.15,618.94 465.21,660.41 489.15,701.87 537.03,701.87 560.97,660.41 			"/>
			<polygon class="st1" points="537.03,701.87 489.15,701.87 465.21,743.34 489.15,784.8 537.03,784.8 560.97,743.34 			"/>
			<polygon class="st1" points="537.03,784.8 489.15,784.8 465.21,826.27 489.15,867.73 537.03,867.73 560.97,826.27 			"/>
			<polygon class="st1" points="537.03,867.73 489.15,867.73 465.21,909.19 489.15,950.66 537.03,950.66 560.97,909.19 			"/>
			<polygon class="st1" points="537.03,950.66 489.15,950.66 465.21,992.12 489.15,1033.59 537.03,1033.59 560.97,992.12 			"/>
			<polygon class="st1" points="537.03,1033.59 489.15,1033.59 465.21,1075.05 489.15,1116.52 537.03,1116.52 560.97,1075.05 			"/>
			<polygon class="st1" points="537.03,1116.52 489.15,1116.52 465.21,1157.98 489.15,1199.45 537.03,1199.45 560.97,1157.98 			"/>
			<polygon class="st1" points="537.03,1199.45 489.15,1199.45 465.21,1240.91 489.15,1282.38 537.03,1282.38 560.97,1240.91 			"/>
			<polygon class="st1" points="632.79,618.94 584.91,618.94 560.97,660.41 584.91,701.87 632.79,701.87 656.73,660.41 			"/>
			<polygon class="st1" points="632.79,701.87 584.91,701.87 560.97,743.34 584.91,784.8 632.79,784.8 656.73,743.34 			"/>
			<polygon class="st1" points="632.79,784.8 584.91,784.8 560.97,826.27 584.91,867.73 632.79,867.73 656.73,826.27 			"/>
			<polygon class="st1" points="632.79,867.73 584.91,867.73 560.97,909.19 584.91,950.66 632.79,950.66 656.73,909.19 			"/>
			<polygon class="st1" points="632.79,950.66 584.91,950.66 560.97,992.12 584.91,1033.59 632.79,1033.59 656.73,992.12 			"/>
			<polygon class="st1" points="632.79,1033.59 584.91,1033.59 560.97,1075.05 584.91,1116.52 632.79,1116.52 656.73,1075.05 			"/>
			<polygon class="st1" points="632.79,1116.52 584.91,1116.52 560.97,1157.98 584.91,1199.45 632.79,1199.45 656.73,1157.98 			"/>
			<polygon class="st1" points="632.79,1199.45 584.91,1199.45 560.97,1240.91 584.91,1282.38 632.79,1282.38 656.73,1240.91 			"/>
			<polygon class="st1" points="728.55,618.94 680.67,618.94 656.73,660.41 680.67,701.87 728.55,701.87 752.49,660.41 			"/>
			<polygon class="st1" points="728.55,701.87 680.67,701.87 656.73,743.34 680.67,784.8 728.55,784.8 752.49,743.34 			"/>
			<polygon class="st1" points="728.55,784.8 680.67,784.8 656.73,826.27 680.67,867.73 728.55,867.73 752.49,826.27 			"/>
			<polygon class="st1" points="728.55,867.73 680.67,867.73 656.73,909.19 680.67,950.66 728.55,950.66 752.49,909.19 			"/>
			<polygon class="st1" points="728.55,950.66 680.67,950.66 656.73,992.12 680.67,1033.59 728.55,1033.59 752.49,992.12 			"/>
			<polygon class="st1" points="728.55,1033.59 680.67,1033.59 656.73,1075.05 680.67,1116.52 728.55,1116.52 752.49,1075.05 			"/>
			<polygon class="st1" points="728.55,1116.52 680.67,1116.52 656.73,1157.98 680.67,1199.45 728.55,1199.45 752.49,1157.98 			"/>
			<polygon class="st1" points="728.55,1199.45 680.67,1199.45 656.73,1240.91 680.67,1282.38 728.55,1282.38 752.49,1240.91 			"/>
			<polygon class="st1" points="824.31,618.94 776.43,618.94 752.49,660.41 776.43,701.87 824.31,701.87 848.25,660.41 			"/>
			<polygon class="st1" points="824.31,701.87 776.43,701.87 752.49,743.34 776.43,784.8 824.31,784.8 848.25,743.34 			"/>
			<polygon class="st1" points="824.31,784.8 776.43,784.8 752.49,826.27 776.43,867.73 824.31,867.73 848.25,826.27 			"/>
			<polygon class="st1" points="824.31,867.73 776.43,867.73 752.49,909.19 776.43,950.66 824.31,950.66 848.25,909.19 			"/>
			<polygon class="st1" points="824.31,950.66 776.43,950.66 752.49,992.12 776.43,1033.59 824.31,1033.59 848.25,992.12 			"/>
			<polygon class="st1" points="824.31,1033.59 776.43,1033.59 752.49,1075.05 776.43,1116.52 824.31,1116.52 848.25,1075.05 			"/>
			<polygon class="st1" points="824.31,1116.52 776.43,1116.52 752.49,1157.98 776.43,1199.45 824.31,1199.45 848.25,1157.98 			"/>
			<polygon class="st1" points="824.31,1199.45 776.43,1199.45 752.49,1240.91 776.43,1282.38 824.31,1282.38 848.25,1240.91 			"/>
			<g>
				<polygon class="st1" points="369.69,577.48 321.81,577.48 297.87,618.94 321.81,660.41 369.69,660.41 393.63,618.94 				"/>
				<polygon class="st1" points="369.69,660.41 321.81,660.41 297.87,701.87 321.81,743.34 369.69,743.34 393.63,701.87 				"/>
				<polygon class="st1" points="369.69,743.34 321.81,743.34 297.87,784.8 321.81,826.27 369.69,826.27 393.63,784.8 				"/>
				<polygon class="st1" points="369.69,826.27 321.81,826.27 297.87,867.73 321.81,909.19 369.69,909.19 393.63,867.73 				"/>
				<polygon class="st1" points="369.69,909.19 321.81,909.19 297.87,950.66 321.81,992.12 369.69,992.12 393.63,950.66 				"/>
				<polygon class="st1" points="369.69,992.12 321.81,992.12 297.87,1033.59 321.81,1075.05 369.69,1075.05 393.63,1033.59 				"/>
				<polygon class="st1" points="369.69,1075.05 321.81,1075.05 297.87,1116.52 321.81,1157.98 369.69,1157.98 393.63,1116.52 				
					"/>
				<polygon class="st1" points="369.69,1157.98 321.81,1157.98 297.87,1199.45 321.81,1240.91 369.69,1240.91 393.63,1199.45 				
					"/>
			</g>
			<g>
				<polygon class="st1" points="465.45,577.48 417.57,577.48 393.63,618.94 417.57,660.41 465.45,660.41 489.39,618.94 				"/>
				<polygon class="st1" points="465.45,660.41 417.57,660.41 393.63,701.87 417.57,743.34 465.45,743.34 489.39,701.87 				"/>
				<polygon class="st1" points="465.45,743.34 417.57,743.34 393.63,784.8 417.57,826.27 465.45,826.27 489.39,784.8 				"/>
				<polygon class="st1" points="465.45,826.27 417.57,826.27 393.63,867.73 417.57,909.19 465.45,909.19 489.39,867.73 				"/>
				<polygon class="st1" points="465.45,909.19 417.57,909.19 393.63,950.66 417.57,992.12 465.45,992.12 489.39,950.66 				"/>
				<polygon class="st1" points="465.45,992.12 417.57,992.12 393.63,1033.59 417.57,1075.05 465.45,1075.05 489.39,1033.59 				"/>
				<polygon class="st1" points="465.45,1075.05 417.57,1075.05 393.63,1116.52 417.57,1157.98 465.45,1157.98 489.39,1116.52 				
					"/>
				<polygon class="st1" points="465.45,1157.98 417.57,1157.98 393.63,1199.45 417.57,1240.91 465.45,1240.91 489.39,1199.45 				
					"/>
			</g>
			<g>
				<polygon class="st1" points="561.21,577.48 513.33,577.48 489.39,618.94 513.33,660.41 561.21,660.41 585.14,618.94 				"/>
				<polygon class="st1" points="561.21,660.41 513.33,660.41 489.39,701.87 513.33,743.34 561.21,743.34 585.14,701.87 				"/>
				<polygon class="st1" points="561.21,743.34 513.33,743.34 489.39,784.8 513.33,826.27 561.21,826.27 585.14,784.8 				"/>
				<polygon class="st1" points="561.21,826.27 513.33,826.27 489.39,867.73 513.33,909.19 561.21,909.19 585.14,867.73 				"/>
				<polygon class="st1" points="561.21,909.19 513.33,909.19 489.39,950.66 513.33,992.12 561.21,992.12 585.14,950.66 				"/>
				<polygon class="st1" points="561.21,992.12 513.33,992.12 489.39,1033.59 513.33,1075.05 561.21,1075.05 585.14,1033.59 				"/>
				<polygon class="st1" points="561.21,1075.05 513.33,1075.05 489.39,1116.52 513.33,1157.98 561.21,1157.98 585.14,1116.52 				
					"/>
				<polygon class="st1" points="561.21,1157.98 513.33,1157.98 489.39,1199.45 513.33,1240.91 561.21,1240.91 585.14,1199.45 				
					"/>
			</g>
			<g>
				<polygon class="st1" points="656.96,577.48 609.08,577.48 585.14,618.94 609.08,660.41 656.96,660.41 680.9,618.94 				"/>
				<polygon class="st1" points="656.96,660.41 609.08,660.41 585.14,701.87 609.08,743.34 656.96,743.34 680.9,701.87 				"/>
				<polygon class="st1" points="656.96,743.34 609.08,743.34 585.14,784.8 609.08,826.27 656.96,826.27 680.9,784.8 				"/>
				<polygon class="st1" points="656.96,826.27 609.08,826.27 585.14,867.73 609.08,909.19 656.96,909.19 680.9,867.73 				"/>
				<polygon class="st1" points="656.96,909.19 609.08,909.19 585.14,950.66 609.08,992.12 656.96,992.12 680.9,950.66 				"/>
				<polygon class="st1" points="656.96,992.12 609.08,992.12 585.14,1033.59 609.08,1075.05 656.96,1075.05 680.9,1033.59 				"/>
				<polygon class="st1" points="656.96,1075.05 609.08,1075.05 585.14,1116.52 609.08,1157.98 656.96,1157.98 680.9,1116.52 				
					"/>
				<polygon class="st1" points="656.96,1157.98 609.08,1157.98 585.14,1199.45 609.08,1240.91 656.96,1240.91 680.9,1199.45 				
					"/>
			</g>
			<g>
				<polygon class="st1" points="752.72,577.48 704.84,577.48 680.9,618.94 704.84,660.41 752.72,660.41 776.66,618.94 				"/>
				<polygon class="st1" points="752.72,660.41 704.84,660.41 680.9,701.87 704.84,743.34 752.72,743.34 776.66,701.87 				"/>
				<polygon class="st1" points="752.72,743.34 704.84,743.34 680.9,784.8 704.84,826.27 752.72,826.27 776.66,784.8 				"/>
				<polygon class="st1" points="752.72,826.27 704.84,826.27 680.9,867.73 704.84,909.19 752.72,909.19 776.66,867.73 				"/>
				<polygon class="st1" points="752.72,909.19 704.84,909.19 680.9,950.66 704.84,992.12 752.72,992.12 776.66,950.66 				"/>
				<polygon class="st1" points="752.72,992.12 704.84,992.12 680.9,1033.59 704.84,1075.05 752.72,1075.05 776.66,1033.59 				"/>
				<polygon class="st1" points="752.72,1075.05 704.84,1075.05 680.9,1116.52 704.84,1157.98 752.72,1157.98 776.66,1116.52 				
					"/>
				<polygon class="st1" points="752.72,1157.98 704.84,1157.98 680.9,1199.45 704.84,1240.91 752.72,1240.91 776.66,1199.45 				
					"/>
			</g>
			<g>
				<polygon class="st1" points="848.48,577.48 800.6,577.48 776.66,618.94 800.6,660.41 848.48,660.41 872.42,618.94 				"/>
				<polygon class="st1" points="848.48,660.41 800.6,660.41 776.66,701.87 800.6,743.34 848.48,743.34 872.42,701.87 				"/>
				<polygon class="st1" points="848.48,743.34 800.6,743.34 776.66,784.8 800.6,826.27 848.48,826.27 872.42,784.8 				"/>
				<polygon class="st1" points="848.48,826.27 800.6,826.27 776.66,867.73 800.6,909.19 848.48,909.19 872.42,867.73 				"/>
				<polygon class="st1" points="848.48,909.19 800.6,909.19 776.66,950.66 800.6,992.12 848.48,992.12 872.42,950.66 				"/>
				<polygon class="st1" points="848.48,992.12 800.6,992.12 776.66,1033.59 800.6,1075.05 848.48,1075.05 872.42,1033.59 				"/>
				<polygon class="st1" points="848.48,1075.05 800.6,1075.05 776.66,1116.52 800.6,1157.98 848.48,1157.98 872.42,1116.52 				"/>
				<polygon class="st1" points="848.48,1157.98 800.6,1157.98 776.66,1199.45 800.6,1240.91 848.48,1240.91 872.42,1199.45 				"/>
			</g>
		</g>
		<g>
			<polygon class="st1" points="920.07,-44.49 872.19,-44.49 848.25,-3.03 872.19,38.44 920.07,38.44 944.01,-3.03 			"/>
			<polygon class="st1" points="920.07,38.44 872.19,38.44 848.25,79.9 872.19,121.37 920.07,121.37 944.01,79.9 			"/>
			<polygon class="st1" points="920.07,121.37 872.19,121.37 848.25,162.83 872.19,204.29 920.07,204.29 944.01,162.83 			"/>
			<polygon class="st1" points="920.07,204.29 872.19,204.29 848.25,245.76 872.19,287.22 920.07,287.22 944.01,245.76 			"/>
			<polygon class="st1" points="920.07,287.22 872.19,287.22 848.25,328.69 872.19,370.15 920.07,370.15 944.01,328.69 			"/>
			<polygon class="st1" points="920.07,370.15 872.19,370.15 848.25,411.62 872.19,453.08 920.07,453.08 944.01,411.62 			"/>
			<polygon class="st1" points="920.07,453.08 872.19,453.08 848.25,494.55 872.19,536.01 920.07,536.01 944.01,494.55 			"/>
			<polygon class="st1" points="920.07,536.01 872.19,536.01 848.25,577.48 872.19,618.94 920.07,618.94 944.01,577.48 			"/>
			<polygon class="st1" points="1015.82,-44.49 967.94,-44.49 944.01,-3.03 967.94,38.44 1015.82,38.44 1039.76,-3.03 			"/>
			<polygon class="st1" points="1015.82,38.44 967.94,38.44 944.01,79.9 967.94,121.37 1015.82,121.37 1039.76,79.9 			"/>
			<polygon class="st1" points="1015.82,121.37 967.94,121.37 944.01,162.83 967.94,204.29 1015.82,204.29 1039.76,162.83 			"/>
			<polygon class="st1" points="1015.82,204.29 967.94,204.29 944.01,245.76 967.94,287.22 1015.82,287.22 1039.76,245.76 			"/>
			<polygon class="st1" points="1015.82,287.22 967.94,287.22 944.01,328.69 967.94,370.15 1015.82,370.15 1039.76,328.69 			"/>
			<polygon class="st1" points="1015.82,370.15 967.94,370.15 944.01,411.62 967.94,453.08 1015.82,453.08 1039.76,411.62 			"/>
			<polygon class="st1" points="1015.82,453.08 967.94,453.08 944.01,494.55 967.94,536.01 1015.82,536.01 1039.76,494.55 			"/>
			<polygon class="st1" points="1015.82,536.01 967.94,536.01 944.01,577.48 967.94,618.94 1015.82,618.94 1039.76,577.48 			"/>
			<polygon class="st1" points="1111.58,-44.49 1063.7,-44.49 1039.76,-3.03 1063.7,38.44 1111.58,38.44 1135.52,-3.03 			"/>
			<polygon class="st1" points="1111.58,38.44 1063.7,38.44 1039.76,79.9 1063.7,121.37 1111.58,121.37 1135.52,79.9 			"/>
			<polygon class="st1" points="1111.58,121.37 1063.7,121.37 1039.76,162.83 1063.7,204.29 1111.58,204.29 1135.52,162.83 			"/>
			<polygon class="st1" points="1111.58,204.29 1063.7,204.29 1039.76,245.76 1063.7,287.22 1111.58,287.22 1135.52,245.76 			"/>
			<polygon class="st1" points="1111.58,287.22 1063.7,287.22 1039.76,328.69 1063.7,370.15 1111.58,370.15 1135.52,328.69 			"/>
			<polygon class="st1" points="1111.58,370.15 1063.7,370.15 1039.76,411.62 1063.7,453.08 1111.58,453.08 1135.52,411.62 			"/>
			<polygon class="st1" points="1111.58,453.08 1063.7,453.08 1039.76,494.55 1063.7,536.01 1111.58,536.01 1135.52,494.55 			"/>
			<polygon class="st1" points="1111.58,536.01 1063.7,536.01 1039.76,577.48 1063.7,618.94 1111.58,618.94 1135.52,577.48 			"/>
			<polygon class="st1" points="1207.34,-44.49 1159.46,-44.49 1135.52,-3.03 1159.46,38.44 1207.34,38.44 1231.28,-3.03 			"/>
			<polygon class="st1" points="1207.34,38.44 1159.46,38.44 1135.52,79.9 1159.46,121.37 1207.34,121.37 1231.28,79.9 			"/>
			<polygon class="st1" points="1207.34,121.37 1159.46,121.37 1135.52,162.83 1159.46,204.29 1207.34,204.29 1231.28,162.83 			"/>
			<polygon class="st1" points="1207.34,204.29 1159.46,204.29 1135.52,245.76 1159.46,287.22 1207.34,287.22 1231.28,245.76 			"/>
			<polygon class="st1" points="1207.34,287.22 1159.46,287.22 1135.52,328.69 1159.46,370.15 1207.34,370.15 1231.28,328.69 			"/>
			<polygon class="st1" points="1207.34,370.15 1159.46,370.15 1135.52,411.62 1159.46,453.08 1207.34,453.08 1231.28,411.62 			"/>
			<polygon class="st1" points="1207.34,453.08 1159.46,453.08 1135.52,494.55 1159.46,536.01 1207.34,536.01 1231.28,494.55 			"/>
			<polygon class="st1" points="1207.34,536.01 1159.46,536.01 1135.52,577.48 1159.46,618.94 1207.34,618.94 1231.28,577.48 			"/>
			<polygon class="st1" points="1303.1,-44.49 1255.22,-44.49 1231.28,-3.03 1255.22,38.44 1303.1,38.44 1327.04,-3.03 			"/>
			<polygon class="st1" points="1303.1,38.44 1255.22,38.44 1231.28,79.9 1255.22,121.37 1303.1,121.37 1327.04,79.9 			"/>
			<polygon class="st1" points="1303.1,121.37 1255.22,121.37 1231.28,162.83 1255.22,204.29 1303.1,204.29 1327.04,162.83 			"/>
			<polygon class="st1" points="1303.1,204.29 1255.22,204.29 1231.28,245.76 1255.22,287.22 1303.1,287.22 1327.04,245.76 			"/>
			<polygon class="st1" points="1303.1,287.22 1255.22,287.22 1231.28,328.69 1255.22,370.15 1303.1,370.15 1327.04,328.69 			"/>
			<polygon class="st1" points="1303.1,370.15 1255.22,370.15 1231.28,411.62 1255.22,453.08 1303.1,453.08 1327.04,411.62 			"/>
			<polygon class="st1" points="1303.1,453.08 1255.22,453.08 1231.28,494.55 1255.22,536.01 1303.1,536.01 1327.04,494.55 			"/>
			<polygon class="st1" points="1303.1,536.01 1255.22,536.01 1231.28,577.48 1255.22,618.94 1303.1,618.94 1327.04,577.48 			"/>
			<polygon class="st1" points="1398.86,-44.49 1350.98,-44.49 1327.04,-3.03 1350.98,38.44 1398.86,38.44 1422.8,-3.03 			"/>
			<polygon class="st1" points="1398.86,38.44 1350.98,38.44 1327.04,79.9 1350.98,121.37 1398.86,121.37 1422.8,79.9 			"/>
			<polygon class="st1" points="1398.86,121.37 1350.98,121.37 1327.04,162.83 1350.98,204.29 1398.86,204.29 1422.8,162.83 			"/>
			<polygon class="st1" points="1398.86,204.29 1350.98,204.29 1327.04,245.76 1350.98,287.22 1398.86,287.22 1422.8,245.76 			"/>
			<polygon class="st1" points="1398.86,287.22 1350.98,287.22 1327.04,328.69 1350.98,370.15 1398.86,370.15 1422.8,328.69 			"/>
			<polygon class="st1" points="1398.86,370.15 1350.98,370.15 1327.04,411.62 1350.98,453.08 1398.86,453.08 1422.8,411.62 			"/>
			<polygon class="st1" points="1398.86,453.08 1350.98,453.08 1327.04,494.55 1350.98,536.01 1398.86,536.01 1422.8,494.55 			"/>
			<polygon class="st1" points="1398.86,536.01 1350.98,536.01 1327.04,577.48 1350.98,618.94 1398.86,618.94 1422.8,577.48 			"/>
			<g>
				<polygon class="st1" points="944.24,-85.96 896.36,-85.96 872.42,-44.49 896.36,-3.03 944.24,-3.03 968.18,-44.49 				"/>
				<polygon class="st1" points="944.24,-3.03 896.36,-3.03 872.42,38.44 896.36,79.9 944.24,79.9 968.18,38.44 				"/>
				<polygon class="st1" points="944.24,79.9 896.36,79.9 872.42,121.37 896.36,162.83 944.24,162.83 968.18,121.37 				"/>
				<polygon class="st1" points="944.24,162.83 896.36,162.83 872.42,204.29 896.36,245.76 944.24,245.76 968.18,204.29 				"/>
				<polygon class="st1" points="944.24,245.76 896.36,245.76 872.42,287.22 896.36,328.69 944.24,328.69 968.18,287.22 				"/>
				<polygon class="st1" points="944.24,328.69 896.36,328.69 872.42,370.15 896.36,411.62 944.24,411.62 968.18,370.15 				"/>
				<polygon class="st1" points="944.24,411.62 896.36,411.62 872.42,453.08 896.36,494.55 944.24,494.55 968.18,453.08 				"/>
				<polygon class="st1" points="944.24,494.55 896.36,494.55 872.42,536.01 896.36,577.48 944.24,577.48 968.18,536.01 				"/>
			</g>
			<g>
				<polygon class="st1" points="1040,-85.96 992.12,-85.96 968.18,-44.49 992.12,-3.03 1040,-3.03 1063.94,-44.49 				"/>
				<polygon class="st1" points="1040,-3.03 992.12,-3.03 968.18,38.44 992.12,79.9 1040,79.9 1063.94,38.44 				"/>
				<polygon class="st1" points="1040,79.9 992.12,79.9 968.18,121.37 992.12,162.83 1040,162.83 1063.94,121.37 				"/>
				<polygon class="st1" points="1040,162.83 992.12,162.83 968.18,204.29 992.12,245.76 1040,245.76 1063.94,204.29 				"/>
				<polygon class="st1" points="1040,245.76 992.12,245.76 968.18,287.22 992.12,328.69 1040,328.69 1063.94,287.22 				"/>
				<polygon class="st1" points="1040,328.69 992.12,328.69 968.18,370.15 992.12,411.62 1040,411.62 1063.94,370.15 				"/>
				<polygon class="st1" points="1040,411.62 992.12,411.62 968.18,453.08 992.12,494.55 1040,494.55 1063.94,453.08 				"/>
				<polygon class="st1" points="1040,494.55 992.12,494.55 968.18,536.01 992.12,577.48 1040,577.48 1063.94,536.01 				"/>
			</g>
			<g>
				<polygon class="st1" points="1135.76,-85.96 1087.88,-85.96 1063.94,-44.49 1087.88,-3.03 1135.76,-3.03 1159.7,-44.49 				"/>
				<polygon class="st1" points="1135.76,-3.03 1087.88,-3.03 1063.94,38.44 1087.88,79.9 1135.76,79.9 1159.7,38.44 				"/>
				<polygon class="st1" points="1135.76,79.9 1087.88,79.9 1063.94,121.37 1087.88,162.83 1135.76,162.83 1159.7,121.37 				"/>
				<polygon class="st1" points="1135.76,162.83 1087.88,162.83 1063.94,204.29 1087.88,245.76 1135.76,245.76 1159.7,204.29 				
					"/>
				<polygon class="st1" points="1135.76,245.76 1087.88,245.76 1063.94,287.22 1087.88,328.69 1135.76,328.69 1159.7,287.22 				
					"/>
				<polygon class="st1" points="1135.76,328.69 1087.88,328.69 1063.94,370.15 1087.88,411.62 1135.76,411.62 1159.7,370.15 				
					"/>
				<polygon class="st1" points="1135.76,411.62 1087.88,411.62 1063.94,453.08 1087.88,494.55 1135.76,494.55 1159.7,453.08 				
					"/>
				<polygon class="st1" points="1135.76,494.55 1087.88,494.55 1063.94,536.01 1087.88,577.48 1135.76,577.48 1159.7,536.01 				
					"/>
			</g>
			<g>
				<polygon class="st1" points="1231.52,-85.96 1183.64,-85.96 1159.7,-44.49 1183.64,-3.03 1231.52,-3.03 1255.45,-44.49 				"/>
				<polygon class="st1" points="1231.52,-3.03 1183.64,-3.03 1159.7,38.44 1183.64,79.9 1231.52,79.9 1255.45,38.44 				"/>
				<polygon class="st1" points="1231.52,79.9 1183.64,79.9 1159.7,121.37 1183.64,162.83 1231.52,162.83 1255.45,121.37 				"/>
				<polygon class="st1" points="1231.52,162.83 1183.64,162.83 1159.7,204.29 1183.64,245.76 1231.52,245.76 1255.45,204.29 				
					"/>
				<polygon class="st1" points="1231.52,245.76 1183.64,245.76 1159.7,287.22 1183.64,328.69 1231.52,328.69 1255.45,287.22 				
					"/>
				<polygon class="st1" points="1231.52,328.69 1183.64,328.69 1159.7,370.15 1183.64,411.62 1231.52,411.62 1255.45,370.15 				
					"/>
				<polygon class="st1" points="1231.52,411.62 1183.64,411.62 1159.7,453.08 1183.64,494.55 1231.52,494.55 1255.45,453.08 				
					"/>
				<polygon class="st1" points="1231.52,494.55 1183.64,494.55 1159.7,536.01 1183.64,577.48 1231.52,577.48 1255.45,536.01 				
					"/>
			</g>
			<g>
				<polygon class="st1" points="1327.27,-85.96 1279.39,-85.96 1255.45,-44.49 1279.39,-3.03 1327.27,-3.03 1351.21,-44.49 				"/>
				<polygon class="st1" points="1327.27,-3.03 1279.39,-3.03 1255.45,38.44 1279.39,79.9 1327.27,79.9 1351.21,38.44 				"/>
				<polygon class="st1" points="1327.27,79.9 1279.39,79.9 1255.45,121.37 1279.39,162.83 1327.27,162.83 1351.21,121.37 				"/>
				<polygon class="st1" points="1327.27,162.83 1279.39,162.83 1255.45,204.29 1279.39,245.76 1327.27,245.76 1351.21,204.29 				
					"/>
				<polygon class="st1" points="1327.27,245.76 1279.39,245.76 1255.45,287.22 1279.39,328.69 1327.27,328.69 1351.21,287.22 				
					"/>
				<polygon class="st1" points="1327.27,328.69 1279.39,328.69 1255.45,370.15 1279.39,411.62 1327.27,411.62 1351.21,370.15 				
					"/>
				<polygon class="st1" points="1327.27,411.62 1279.39,411.62 1255.45,453.08 1279.39,494.55 1327.27,494.55 1351.21,453.08 				
					"/>
				<polygon class="st1" points="1327.27,494.55 1279.39,494.55 1255.45,536.01 1279.39,577.48 1327.27,577.48 1351.21,536.01 				
					"/>
			</g>
			<g>
				<polygon class="st1" points="1423.03,-85.96 1375.15,-85.96 1351.21,-44.49 1375.15,-3.03 1423.03,-3.03 1446.97,-44.49 				"/>
				<polygon class="st1" points="1423.03,-3.03 1375.15,-3.03 1351.21,38.44 1375.15,79.9 1423.03,79.9 1446.97,38.44 				"/>
				<polygon class="st1" points="1423.03,79.9 1375.15,79.9 1351.21,121.37 1375.15,162.83 1423.03,162.83 1446.97,121.37 				"/>
				<polygon class="st1" points="1423.03,162.83 1375.15,162.83 1351.21,204.29 1375.15,245.76 1423.03,245.76 1446.97,204.29 				
					"/>
				<polygon class="st1" points="1423.03,245.76 1375.15,245.76 1351.21,287.22 1375.15,328.69 1423.03,328.69 1446.97,287.22 				
					"/>
				<polygon class="st1" points="1423.03,328.69 1375.15,328.69 1351.21,370.15 1375.15,411.62 1423.03,411.62 1446.97,370.15 				
					"/>
				<polygon class="st1" points="1423.03,411.62 1375.15,411.62 1351.21,453.08 1375.15,494.55 1423.03,494.55 1446.97,453.08 				
					"/>
				<polygon class="st1" points="1423.03,494.55 1375.15,494.55 1351.21,536.01 1375.15,577.48 1423.03,577.48 1446.97,536.01 				
					"/>
			</g>
		</g>
		<g>
			<polygon class="st1" points="920.07,618.94 872.19,618.94 848.25,660.41 872.19,701.87 920.07,701.87 944.01,660.41 			"/>
			<polygon class="st1" points="920.07,701.87 872.19,701.87 848.25,743.34 872.19,784.8 920.07,784.8 944.01,743.34 			"/>
			<polygon class="st1" points="920.07,784.8 872.19,784.8 848.25,826.27 872.19,867.73 920.07,867.73 944.01,826.27 			"/>
			<polygon class="st1" points="920.07,867.73 872.19,867.73 848.25,909.19 872.19,950.66 920.07,950.66 944.01,909.19 			"/>
			<polygon class="st1" points="920.07,950.66 872.19,950.66 848.25,992.12 872.19,1033.59 920.07,1033.59 944.01,992.12 			"/>
			<polygon class="st1" points="920.07,1033.59 872.19,1033.59 848.25,1075.05 872.19,1116.52 920.07,1116.52 944.01,1075.05 			"/>
			<polygon class="st1" points="920.07,1116.52 872.19,1116.52 848.25,1157.98 872.19,1199.45 920.07,1199.45 944.01,1157.98 			"/>
			<polygon class="st1" points="920.07,1199.45 872.19,1199.45 848.25,1240.91 872.19,1282.38 920.07,1282.38 944.01,1240.91 			"/>
			<polygon class="st1" points="1015.82,618.94 967.94,618.94 944.01,660.41 967.94,701.87 1015.82,701.87 1039.76,660.41 			"/>
			<polygon class="st1" points="1015.82,701.87 967.94,701.87 944.01,743.34 967.94,784.8 1015.82,784.8 1039.76,743.34 			"/>
			<polygon class="st1" points="1015.82,784.8 967.94,784.8 944.01,826.27 967.94,867.73 1015.82,867.73 1039.76,826.27 			"/>
			<polygon class="st1" points="1015.82,867.73 967.94,867.73 944.01,909.19 967.94,950.66 1015.82,950.66 1039.76,909.19 			"/>
			<polygon class="st1" points="1015.82,950.66 967.94,950.66 944.01,992.12 967.94,1033.59 1015.82,1033.59 1039.76,992.12 			"/>
			<polygon class="st1" points="1015.82,1033.59 967.94,1033.59 944.01,1075.05 967.94,1116.52 1015.82,1116.52 1039.76,1075.05 			
				"/>
			<polygon class="st1" points="1015.82,1116.52 967.94,1116.52 944.01,1157.98 967.94,1199.45 1015.82,1199.45 1039.76,1157.98 			
				"/>
			<polygon class="st1" points="1015.82,1199.45 967.94,1199.45 944.01,1240.91 967.94,1282.38 1015.82,1282.38 1039.76,1240.91 			
				"/>
			<polygon class="st1" points="1111.58,618.94 1063.7,618.94 1039.76,660.41 1063.7,701.87 1111.58,701.87 1135.52,660.41 			"/>
			<polygon class="st1" points="1111.58,701.87 1063.7,701.87 1039.76,743.34 1063.7,784.8 1111.58,784.8 1135.52,743.34 			"/>
			<polygon class="st1" points="1111.58,784.8 1063.7,784.8 1039.76,826.27 1063.7,867.73 1111.58,867.73 1135.52,826.27 			"/>
			<polygon class="st1" points="1111.58,867.73 1063.7,867.73 1039.76,909.19 1063.7,950.66 1111.58,950.66 1135.52,909.19 			"/>
			<polygon class="st1" points="1111.58,950.66 1063.7,950.66 1039.76,992.12 1063.7,1033.59 1111.58,1033.59 1135.52,992.12 			"/>
			<polygon class="st1" points="1111.58,1033.59 1063.7,1033.59 1039.76,1075.05 1063.7,1116.52 1111.58,1116.52 1135.52,1075.05 
							"/>
			<polygon class="st1" points="1111.58,1116.52 1063.7,1116.52 1039.76,1157.98 1063.7,1199.45 1111.58,1199.45 1135.52,1157.98 
							"/>
			<polygon class="st1" points="1111.58,1199.45 1063.7,1199.45 1039.76,1240.91 1063.7,1282.38 1111.58,1282.38 1135.52,1240.91 
							"/>
			<polygon class="st1" points="1207.34,618.94 1159.46,618.94 1135.52,660.41 1159.46,701.87 1207.34,701.87 1231.28,660.41 			"/>
			<polygon class="st1" points="1207.34,701.87 1159.46,701.87 1135.52,743.34 1159.46,784.8 1207.34,784.8 1231.28,743.34 			"/>
			<polygon class="st1" points="1207.34,784.8 1159.46,784.8 1135.52,826.27 1159.46,867.73 1207.34,867.73 1231.28,826.27 			"/>
			<polygon class="st1" points="1207.34,867.73 1159.46,867.73 1135.52,909.19 1159.46,950.66 1207.34,950.66 1231.28,909.19 			"/>
			<polygon class="st1" points="1207.34,950.66 1159.46,950.66 1135.52,992.12 1159.46,1033.59 1207.34,1033.59 1231.28,992.12 			
				"/>
			<polygon class="st1" points="1207.34,1033.59 1159.46,1033.59 1135.52,1075.05 1159.46,1116.52 1207.34,1116.52 1231.28,1075.05 
							"/>
			<polygon class="st1" points="1207.34,1116.52 1159.46,1116.52 1135.52,1157.98 1159.46,1199.45 1207.34,1199.45 1231.28,1157.98 
							"/>
			<polygon class="st1" points="1207.34,1199.45 1159.46,1199.45 1135.52,1240.91 1159.46,1282.38 1207.34,1282.38 1231.28,1240.91 
							"/>
			<polygon class="st1" points="1303.1,618.94 1255.22,618.94 1231.28,660.41 1255.22,701.87 1303.1,701.87 1327.04,660.41 			"/>
			<polygon class="st1" points="1303.1,701.87 1255.22,701.87 1231.28,743.34 1255.22,784.8 1303.1,784.8 1327.04,743.34 			"/>
			<polygon class="st1" points="1303.1,784.8 1255.22,784.8 1231.28,826.27 1255.22,867.73 1303.1,867.73 1327.04,826.27 			"/>
			<polygon class="st1" points="1303.1,867.73 1255.22,867.73 1231.28,909.19 1255.22,950.66 1303.1,950.66 1327.04,909.19 			"/>
			<polygon class="st1" points="1303.1,950.66 1255.22,950.66 1231.28,992.12 1255.22,1033.59 1303.1,1033.59 1327.04,992.12 			"/>
			<polygon class="st1" points="1303.1,1033.59 1255.22,1033.59 1231.28,1075.05 1255.22,1116.52 1303.1,1116.52 1327.04,1075.05 
							"/>
			<polygon class="st1" points="1303.1,1116.52 1255.22,1116.52 1231.28,1157.98 1255.22,1199.45 1303.1,1199.45 1327.04,1157.98 
							"/>
			<polygon class="st1" points="1303.1,1199.45 1255.22,1199.45 1231.28,1240.91 1255.22,1282.38 1303.1,1282.38 1327.04,1240.91 
							"/>
			<polygon class="st1" points="1398.86,618.94 1350.98,618.94 1327.04,660.41 1350.98,701.87 1398.86,701.87 1422.8,660.41 			"/>
			<polygon class="st1" points="1398.86,701.87 1350.98,701.87 1327.04,743.34 1350.98,784.8 1398.86,784.8 1422.8,743.34 			"/>
			<polygon class="st1" points="1398.86,784.8 1350.98,784.8 1327.04,826.27 1350.98,867.73 1398.86,867.73 1422.8,826.27 			"/>
			<polygon class="st1" points="1398.86,867.73 1350.98,867.73 1327.04,909.19 1350.98,950.66 1398.86,950.66 1422.8,909.19 			"/>
			<polygon class="st1" points="1398.86,950.66 1350.98,950.66 1327.04,992.12 1350.98,1033.59 1398.86,1033.59 1422.8,992.12 			
				"/>
			<polygon class="st1" points="1398.86,1033.59 1350.98,1033.59 1327.04,1075.05 1350.98,1116.52 1398.86,1116.52 1422.8,1075.05 
							"/>
			<polygon class="st1" points="1398.86,1116.52 1350.98,1116.52 1327.04,1157.98 1350.98,1199.45 1398.86,1199.45 1422.8,1157.98 
							"/>
			<polygon class="st1" points="1398.86,1199.45 1350.98,1199.45 1327.04,1240.91 1350.98,1282.38 1398.86,1282.38 1422.8,1240.91 
							"/>
			<g>
				<polygon class="st1" points="944.24,577.48 896.36,577.48 872.42,618.94 896.36,660.41 944.24,660.41 968.18,618.94 				"/>
				<polygon class="st1" points="944.24,660.41 896.36,660.41 872.42,701.87 896.36,743.34 944.24,743.34 968.18,701.87 				"/>
				<polygon class="st1" points="944.24,743.34 896.36,743.34 872.42,784.8 896.36,826.27 944.24,826.27 968.18,784.8 				"/>
				<polygon class="st1" points="944.24,826.27 896.36,826.27 872.42,867.73 896.36,909.19 944.24,909.19 968.18,867.73 				"/>
				<polygon class="st1" points="944.24,909.19 896.36,909.19 872.42,950.66 896.36,992.12 944.24,992.12 968.18,950.66 				"/>
				<polygon class="st1" points="944.24,992.12 896.36,992.12 872.42,1033.59 896.36,1075.05 944.24,1075.05 968.18,1033.59 				"/>
				<polygon class="st1" points="944.24,1075.05 896.36,1075.05 872.42,1116.52 896.36,1157.98 944.24,1157.98 968.18,1116.52 				
					"/>
				<polygon class="st1" points="944.24,1157.98 896.36,1157.98 872.42,1199.45 896.36,1240.91 944.24,1240.91 968.18,1199.45 				
					"/>
			</g>
			<g>
				<polygon class="st1" points="1040,577.48 992.12,577.48 968.18,618.94 992.12,660.41 1040,660.41 1063.94,618.94 				"/>
				<polygon class="st1" points="1040,660.41 992.12,660.41 968.18,701.87 992.12,743.34 1040,743.34 1063.94,701.87 				"/>
				<polygon class="st1" points="1040,743.34 992.12,743.34 968.18,784.8 992.12,826.27 1040,826.27 1063.94,784.8 				"/>
				<polygon class="st1" points="1040,826.27 992.12,826.27 968.18,867.73 992.12,909.19 1040,909.19 1063.94,867.73 				"/>
				<polygon class="st1" points="1040,909.19 992.12,909.19 968.18,950.66 992.12,992.12 1040,992.12 1063.94,950.66 				"/>
				<polygon class="st1" points="1040,992.12 992.12,992.12 968.18,1033.59 992.12,1075.05 1040,1075.05 1063.94,1033.59 				"/>
				<polygon class="st1" points="1040,1075.05 992.12,1075.05 968.18,1116.52 992.12,1157.98 1040,1157.98 1063.94,1116.52 				"/>
				<polygon class="st1" points="1040,1157.98 992.12,1157.98 968.18,1199.45 992.12,1240.91 1040,1240.91 1063.94,1199.45 				"/>
			</g>
			<g>
				<polygon class="st1" points="1135.76,577.48 1087.88,577.48 1063.94,618.94 1087.88,660.41 1135.76,660.41 1159.7,618.94 				
					"/>
				<polygon class="st1" points="1135.76,660.41 1087.88,660.41 1063.94,701.87 1087.88,743.34 1135.76,743.34 1159.7,701.87 				
					"/>
				<polygon class="st1" points="1135.76,743.34 1087.88,743.34 1063.94,784.8 1087.88,826.27 1135.76,826.27 1159.7,784.8 				"/>
				<polygon class="st1" points="1135.76,826.27 1087.88,826.27 1063.94,867.73 1087.88,909.19 1135.76,909.19 1159.7,867.73 				
					"/>
				<polygon class="st1" points="1135.76,909.19 1087.88,909.19 1063.94,950.66 1087.88,992.12 1135.76,992.12 1159.7,950.66 				
					"/>
				<polygon class="st1" points="1135.76,992.12 1087.88,992.12 1063.94,1033.59 1087.88,1075.05 1135.76,1075.05 1159.7,1033.59 
									"/>
				<polygon class="st1" points="1135.76,1075.05 1087.88,1075.05 1063.94,1116.52 1087.88,1157.98 1135.76,1157.98 1159.7,1116.52 
									"/>
				<polygon class="st1" points="1135.76,1157.98 1087.88,1157.98 1063.94,1199.45 1087.88,1240.91 1135.76,1240.91 1159.7,1199.45 
									"/>
			</g>
			<g>
				<polygon class="st1" points="1231.52,577.48 1183.64,577.48 1159.7,618.94 1183.64,660.41 1231.52,660.41 1255.45,618.94 				
					"/>
				<polygon class="st1" points="1231.52,660.41 1183.64,660.41 1159.7,701.87 1183.64,743.34 1231.52,743.34 1255.45,701.87 				
					"/>
				<polygon class="st1" points="1231.52,743.34 1183.64,743.34 1159.7,784.8 1183.64,826.27 1231.52,826.27 1255.45,784.8 				"/>
				<polygon class="st1" points="1231.52,826.27 1183.64,826.27 1159.7,867.73 1183.64,909.19 1231.52,909.19 1255.45,867.73 				
					"/>
				<polygon class="st1" points="1231.52,909.19 1183.64,909.19 1159.7,950.66 1183.64,992.12 1231.52,992.12 1255.45,950.66 				
					"/>
				<polygon class="st1" points="1231.52,992.12 1183.64,992.12 1159.7,1033.59 1183.64,1075.05 1231.52,1075.05 1255.45,1033.59 
									"/>
				<polygon class="st1" points="1231.52,1075.05 1183.64,1075.05 1159.7,1116.52 1183.64,1157.98 1231.52,1157.98 1255.45,1116.52 
									"/>
				<polygon class="st1" points="1231.52,1157.98 1183.64,1157.98 1159.7,1199.45 1183.64,1240.91 1231.52,1240.91 1255.45,1199.45 
									"/>
			</g>
			<g>
				<polygon class="st1" points="1327.27,577.48 1279.39,577.48 1255.45,618.94 1279.39,660.41 1327.27,660.41 1351.21,618.94 				
					"/>
				<polygon class="st1" points="1327.27,660.41 1279.39,660.41 1255.45,701.87 1279.39,743.34 1327.27,743.34 1351.21,701.87 				
					"/>
				<polygon class="st1" points="1327.27,743.34 1279.39,743.34 1255.45,784.8 1279.39,826.27 1327.27,826.27 1351.21,784.8 				"/>
				<polygon class="st1" points="1327.27,826.27 1279.39,826.27 1255.45,867.73 1279.39,909.19 1327.27,909.19 1351.21,867.73 				
					"/>
				<polygon class="st1" points="1327.27,909.19 1279.39,909.19 1255.45,950.66 1279.39,992.12 1327.27,992.12 1351.21,950.66 				
					"/>
				<polygon class="st1" points="1327.27,992.12 1279.39,992.12 1255.45,1033.59 1279.39,1075.05 1327.27,1075.05 1351.21,1033.59 
									"/>
				<polygon class="st1" points="1327.27,1075.05 1279.39,1075.05 1255.45,1116.52 1279.39,1157.98 1327.27,1157.98 
					1351.21,1116.52 				"/>
				<polygon class="st1" points="1327.27,1157.98 1279.39,1157.98 1255.45,1199.45 1279.39,1240.91 1327.27,1240.91 
					1351.21,1199.45 				"/>
			</g>
			<g>
				<polygon class="st1" points="1423.03,577.48 1375.15,577.48 1351.21,618.94 1375.15,660.41 1423.03,660.41 1446.97,618.94 				
					"/>
				<polygon class="st1" points="1423.03,660.41 1375.15,660.41 1351.21,701.87 1375.15,743.34 1423.03,743.34 1446.97,701.87 				
					"/>
				<polygon class="st1" points="1423.03,743.34 1375.15,743.34 1351.21,784.8 1375.15,826.27 1423.03,826.27 1446.97,784.8 				"/>
				<polygon class="st1" points="1423.03,826.27 1375.15,826.27 1351.21,867.73 1375.15,909.19 1423.03,909.19 1446.97,867.73 				
					"/>
				<polygon class="st1" points="1423.03,909.19 1375.15,909.19 1351.21,950.66 1375.15,992.12 1423.03,992.12 1446.97,950.66 				
					"/>
				<polygon class="st1" points="1423.03,992.12 1375.15,992.12 1351.21,1033.59 1375.15,1075.05 1423.03,1075.05 1446.97,1033.59 
									"/>
				<polygon class="st1" points="1423.03,1075.05 1375.15,1075.05 1351.21,1116.52 1375.15,1157.98 1423.03,1157.98 
					1446.97,1116.52 				"/>
				<polygon class="st1" points="1423.03,1157.98 1375.15,1157.98 1351.21,1199.45 1375.15,1240.91 1423.03,1240.91 
					1446.97,1199.45 				"/>
			</g>
		</g>
		<g>
			<polygon class="st1" points="1494.62,-44.49 1446.74,-44.49 1422.8,-3.03 1446.74,38.44 1494.62,38.44 1518.56,-3.03 			"/>
			<polygon class="st1" points="1494.62,38.44 1446.74,38.44 1422.8,79.9 1446.74,121.37 1494.62,121.37 1518.56,79.9 			"/>
			<polygon class="st1" points="1494.62,121.37 1446.74,121.37 1422.8,162.83 1446.74,204.29 1494.62,204.29 1518.56,162.83 			"/>
			<polygon class="st1" points="1494.62,204.29 1446.74,204.29 1422.8,245.76 1446.74,287.22 1494.62,287.22 1518.56,245.76 			"/>
			<polygon class="st1" points="1494.62,287.22 1446.74,287.22 1422.8,328.69 1446.74,370.15 1494.62,370.15 1518.56,328.69 			"/>
			<polygon class="st1" points="1494.62,370.15 1446.74,370.15 1422.8,411.62 1446.74,453.08 1494.62,453.08 1518.56,411.62 			"/>
			<polygon class="st1" points="1494.62,453.08 1446.74,453.08 1422.8,494.55 1446.74,536.01 1494.62,536.01 1518.56,494.55 			"/>
			<polygon class="st1" points="1494.62,536.01 1446.74,536.01 1422.8,577.48 1446.74,618.94 1494.62,618.94 1518.56,577.48 			"/>
			<polygon class="st1" points="1590.38,-44.49 1542.5,-44.49 1518.56,-3.03 1542.5,38.44 1590.38,38.44 1614.32,-3.03 			"/>
			<polygon class="st1" points="1590.38,38.44 1542.5,38.44 1518.56,79.9 1542.5,121.37 1590.38,121.37 1614.32,79.9 			"/>
			<polygon class="st1" points="1590.38,121.37 1542.5,121.37 1518.56,162.83 1542.5,204.29 1590.38,204.29 1614.32,162.83 			"/>
			<polygon class="st1" points="1590.38,204.29 1542.5,204.29 1518.56,245.76 1542.5,287.22 1590.38,287.22 1614.32,245.76 			"/>
			<polygon class="st1" points="1590.38,287.22 1542.5,287.22 1518.56,328.69 1542.5,370.15 1590.38,370.15 1614.32,328.69 			"/>
			<polygon class="st1" points="1590.38,370.15 1542.5,370.15 1518.56,411.62 1542.5,453.08 1590.38,453.08 1614.32,411.62 			"/>
			<polygon class="st1" points="1590.38,453.08 1542.5,453.08 1518.56,494.55 1542.5,536.01 1590.38,536.01 1614.32,494.55 			"/>
			<polygon class="st1" points="1590.38,536.01 1542.5,536.01 1518.56,577.48 1542.5,618.94 1590.38,618.94 1614.32,577.48 			"/>
			<polygon class="st1" points="1686.13,-44.49 1638.26,-44.49 1614.32,-3.03 1638.26,38.44 1686.13,38.44 1710.07,-3.03 			"/>
			<polygon class="st1" points="1686.13,38.44 1638.26,38.44 1614.32,79.9 1638.26,121.37 1686.13,121.37 1710.07,79.9 			"/>
			<polygon class="st1" points="1686.13,121.37 1638.26,121.37 1614.32,162.83 1638.26,204.29 1686.13,204.29 1710.07,162.83 			"/>
			<polygon class="st1" points="1686.13,204.29 1638.26,204.29 1614.32,245.76 1638.26,287.22 1686.13,287.22 1710.07,245.76 			"/>
			<polygon class="st1" points="1686.13,287.22 1638.26,287.22 1614.32,328.69 1638.26,370.15 1686.13,370.15 1710.07,328.69 			"/>
			<polygon class="st1" points="1686.13,370.15 1638.26,370.15 1614.32,411.62 1638.26,453.08 1686.13,453.08 1710.07,411.62 			"/>
			<polygon class="st1" points="1686.13,453.08 1638.26,453.08 1614.32,494.55 1638.26,536.01 1686.13,536.01 1710.07,494.55 			"/>
			<polygon class="st1" points="1686.13,536.01 1638.26,536.01 1614.32,577.48 1638.26,618.94 1686.13,618.94 1710.07,577.48 			"/>
			<polygon class="st1" points="1781.89,-44.49 1734.01,-44.49 1710.07,-3.03 1734.01,38.44 1781.89,38.44 1805.83,-3.03 			"/>
			<polygon class="st1" points="1781.89,38.44 1734.01,38.44 1710.07,79.9 1734.01,121.37 1781.89,121.37 1805.83,79.9 			"/>
			<polygon class="st1" points="1781.89,121.37 1734.01,121.37 1710.07,162.83 1734.01,204.29 1781.89,204.29 1805.83,162.83 			"/>
			<polygon class="st1" points="1781.89,204.29 1734.01,204.29 1710.07,245.76 1734.01,287.22 1781.89,287.22 1805.83,245.76 			"/>
			<polygon class="st1" points="1781.89,287.22 1734.01,287.22 1710.07,328.69 1734.01,370.15 1781.89,370.15 1805.83,328.69 			"/>
			<polygon class="st1" points="1781.89,370.15 1734.01,370.15 1710.07,411.62 1734.01,453.08 1781.89,453.08 1805.83,411.62 			"/>
			<polygon class="st1" points="1781.89,453.08 1734.01,453.08 1710.07,494.55 1734.01,536.01 1781.89,536.01 1805.83,494.55 			"/>
			<polygon class="st1" points="1781.89,536.01 1734.01,536.01 1710.07,577.48 1734.01,618.94 1781.89,618.94 1805.83,577.48 			"/>
			<polygon class="st1" points="1877.65,-44.49 1829.77,-44.49 1805.83,-3.03 1829.77,38.44 1877.65,38.44 1901.59,-3.03 			"/>
			<polygon class="st1" points="1877.65,38.44 1829.77,38.44 1805.83,79.9 1829.77,121.37 1877.65,121.37 1901.59,79.9 			"/>
			<polygon class="st1" points="1877.65,121.37 1829.77,121.37 1805.83,162.83 1829.77,204.29 1877.65,204.29 1901.59,162.83 			"/>
			<polygon class="st1" points="1877.65,204.29 1829.77,204.29 1805.83,245.76 1829.77,287.22 1877.65,287.22 1901.59,245.76 			"/>
			<polygon class="st1" points="1877.65,287.22 1829.77,287.22 1805.83,328.69 1829.77,370.15 1877.65,370.15 1901.59,328.69 			"/>
			<polygon class="st1" points="1877.65,370.15 1829.77,370.15 1805.83,411.62 1829.77,453.08 1877.65,453.08 1901.59,411.62 			"/>
			<polygon class="st1" points="1877.65,453.08 1829.77,453.08 1805.83,494.55 1829.77,536.01 1877.65,536.01 1901.59,494.55 			"/>
			<polygon class="st1" points="1877.65,536.01 1829.77,536.01 1805.83,577.48 1829.77,618.94 1877.65,618.94 1901.59,577.48 			"/>
			<polygon class="st1" points="1973.41,-44.49 1925.53,-44.49 1901.59,-3.03 1925.53,38.44 1973.41,38.44 1997.35,-3.03 			"/>
			<polygon class="st1" points="1973.41,38.44 1925.53,38.44 1901.59,79.9 1925.53,121.37 1973.41,121.37 1997.35,79.9 			"/>
			<polygon class="st1" points="1973.41,121.37 1925.53,121.37 1901.59,162.83 1925.53,204.29 1973.41,204.29 1997.35,162.83 			"/>
			<polygon class="st1" points="1973.41,204.29 1925.53,204.29 1901.59,245.76 1925.53,287.22 1973.41,287.22 1997.35,245.76 			"/>
			<polygon class="st1" points="1973.41,287.22 1925.53,287.22 1901.59,328.69 1925.53,370.15 1973.41,370.15 1997.35,328.69 			"/>
			<polygon class="st1" points="1973.41,370.15 1925.53,370.15 1901.59,411.62 1925.53,453.08 1973.41,453.08 1997.35,411.62 			"/>
			<polygon class="st1" points="1973.41,453.08 1925.53,453.08 1901.59,494.55 1925.53,536.01 1973.41,536.01 1997.35,494.55 			"/>
			<polygon class="st1" points="1973.41,536.01 1925.53,536.01 1901.59,577.48 1925.53,618.94 1973.41,618.94 1997.35,577.48 			"/>
			<g>
				<polygon class="st1" points="1518.79,-85.96 1470.91,-85.96 1446.97,-44.49 1470.91,-3.03 1518.79,-3.03 1542.73,-44.49 				"/>
				<polygon class="st1" points="1518.79,-3.03 1470.91,-3.03 1446.97,38.44 1470.91,79.9 1518.79,79.9 1542.73,38.44 				"/>
				<polygon class="st1" points="1518.79,79.9 1470.91,79.9 1446.97,121.37 1470.91,162.83 1518.79,162.83 1542.73,121.37 				"/>
				<polygon class="st1" points="1518.79,162.83 1470.91,162.83 1446.97,204.29 1470.91,245.76 1518.79,245.76 1542.73,204.29 				
					"/>
				<polygon class="st1" points="1518.79,245.76 1470.91,245.76 1446.97,287.22 1470.91,328.69 1518.79,328.69 1542.73,287.22 				
					"/>
				<polygon class="st1" points="1518.79,328.69 1470.91,328.69 1446.97,370.15 1470.91,411.62 1518.79,411.62 1542.73,370.15 				
					"/>
				<polygon class="st1" points="1518.79,411.62 1470.91,411.62 1446.97,453.08 1470.91,494.55 1518.79,494.55 1542.73,453.08 				
					"/>
				<polygon class="st1" points="1518.79,494.55 1470.91,494.55 1446.97,536.01 1470.91,577.48 1518.79,577.48 1542.73,536.01 				
					"/>
			</g>
			<g>
				<polygon class="st1" points="1614.55,-85.96 1566.67,-85.96 1542.73,-44.49 1566.67,-3.03 1614.55,-3.03 1638.49,-44.49 				"/>
				<polygon class="st1" points="1614.55,-3.03 1566.67,-3.03 1542.73,38.44 1566.67,79.9 1614.55,79.9 1638.49,38.44 				"/>
				<polygon class="st1" points="1614.55,79.9 1566.67,79.9 1542.73,121.37 1566.67,162.83 1614.55,162.83 1638.49,121.37 				"/>
				<polygon class="st1" points="1614.55,162.83 1566.67,162.83 1542.73,204.29 1566.67,245.76 1614.55,245.76 1638.49,204.29 				
					"/>
				<polygon class="st1" points="1614.55,245.76 1566.67,245.76 1542.73,287.22 1566.67,328.69 1614.55,328.69 1638.49,287.22 				
					"/>
				<polygon class="st1" points="1614.55,328.69 1566.67,328.69 1542.73,370.15 1566.67,411.62 1614.55,411.62 1638.49,370.15 				
					"/>
				<polygon class="st1" points="1614.55,411.62 1566.67,411.62 1542.73,453.08 1566.67,494.55 1614.55,494.55 1638.49,453.08 				
					"/>
				<polygon class="st1" points="1614.55,494.55 1566.67,494.55 1542.73,536.01 1566.67,577.48 1614.55,577.48 1638.49,536.01 				
					"/>
			</g>
			<g>
				<polygon class="st1" points="1710.31,-85.96 1662.43,-85.96 1638.49,-44.49 1662.43,-3.03 1710.31,-3.03 1734.25,-44.49 				"/>
				<polygon class="st1" points="1710.31,-3.03 1662.43,-3.03 1638.49,38.44 1662.43,79.9 1710.31,79.9 1734.25,38.44 				"/>
				<polygon class="st1" points="1710.31,79.9 1662.43,79.9 1638.49,121.37 1662.43,162.83 1710.31,162.83 1734.25,121.37 				"/>
				<polygon class="st1" points="1710.31,162.83 1662.43,162.83 1638.49,204.29 1662.43,245.76 1710.31,245.76 1734.25,204.29 				
					"/>
				<polygon class="st1" points="1710.31,245.76 1662.43,245.76 1638.49,287.22 1662.43,328.69 1710.31,328.69 1734.25,287.22 				
					"/>
				<polygon class="st1" points="1710.31,328.69 1662.43,328.69 1638.49,370.15 1662.43,411.62 1710.31,411.62 1734.25,370.15 				
					"/>
				<polygon class="st1" points="1710.31,411.62 1662.43,411.62 1638.49,453.08 1662.43,494.55 1710.31,494.55 1734.25,453.08 				
					"/>
				<polygon class="st1" points="1710.31,494.55 1662.43,494.55 1638.49,536.01 1662.43,577.48 1710.31,577.48 1734.25,536.01 				
					"/>
			</g>
			<g>
				<polygon class="st1" points="1806.07,-85.96 1758.19,-85.96 1734.25,-44.49 1758.19,-3.03 1806.07,-3.03 1830.01,-44.49 				"/>
				<polygon class="st1" points="1806.07,-3.03 1758.19,-3.03 1734.25,38.44 1758.19,79.9 1806.07,79.9 1830.01,38.44 				"/>
				<polygon class="st1" points="1806.07,79.9 1758.19,79.9 1734.25,121.37 1758.19,162.83 1806.07,162.83 1830.01,121.37 				"/>
				<polygon class="st1" points="1806.07,162.83 1758.19,162.83 1734.25,204.29 1758.19,245.76 1806.07,245.76 1830.01,204.29 				
					"/>
				<polygon class="st1" points="1806.07,245.76 1758.19,245.76 1734.25,287.22 1758.19,328.69 1806.07,328.69 1830.01,287.22 				
					"/>
				<polygon class="st1" points="1806.07,328.69 1758.19,328.69 1734.25,370.15 1758.19,411.62 1806.07,411.62 1830.01,370.15 				
					"/>
				<polygon class="st1" points="1806.07,411.62 1758.19,411.62 1734.25,453.08 1758.19,494.55 1806.07,494.55 1830.01,453.08 				
					"/>
				<polygon class="st1" points="1806.07,494.55 1758.19,494.55 1734.25,536.01 1758.19,577.48 1806.07,577.48 1830.01,536.01 				
					"/>
			</g>
			<g>
				<polygon class="st1" points="1901.83,-85.96 1853.95,-85.96 1830.01,-44.49 1853.95,-3.03 1901.83,-3.03 1925.77,-44.49 				"/>
				<polygon class="st1" points="1901.83,-3.03 1853.95,-3.03 1830.01,38.44 1853.95,79.9 1901.83,79.9 1925.77,38.44 				"/>
				<polygon class="st1" points="1901.83,79.9 1853.95,79.9 1830.01,121.37 1853.95,162.83 1901.83,162.83 1925.77,121.37 				"/>
				<polygon class="st1" points="1901.83,162.83 1853.95,162.83 1830.01,204.29 1853.95,245.76 1901.83,245.76 1925.77,204.29 				
					"/>
				<polygon class="st1" points="1901.83,245.76 1853.95,245.76 1830.01,287.22 1853.95,328.69 1901.83,328.69 1925.77,287.22 				
					"/>
				<polygon class="st1" points="1901.83,328.69 1853.95,328.69 1830.01,370.15 1853.95,411.62 1901.83,411.62 1925.77,370.15 				
					"/>
				<polygon class="st1" points="1901.83,411.62 1853.95,411.62 1830.01,453.08 1853.95,494.55 1901.83,494.55 1925.77,453.08 				
					"/>
				<polygon class="st1" points="1901.83,494.55 1853.95,494.55 1830.01,536.01 1853.95,577.48 1901.83,577.48 1925.77,536.01 				
					"/>
			</g>
			<g>
				<polygon class="st1" points="1997.58,-85.96 1949.7,-85.96 1925.77,-44.49 1949.7,-3.03 1997.58,-3.03 2021.52,-44.49 				"/>
				<polygon class="st1" points="1997.58,-3.03 1949.7,-3.03 1925.77,38.44 1949.7,79.9 1997.58,79.9 2021.52,38.44 				"/>
				<polygon class="st1" points="1997.58,79.9 1949.7,79.9 1925.77,121.37 1949.7,162.83 1997.58,162.83 2021.52,121.37 				"/>
				<polygon class="st1" points="1997.58,162.83 1949.7,162.83 1925.77,204.29 1949.7,245.76 1997.58,245.76 2021.52,204.29 				"/>
				<polygon class="st1" points="1997.58,245.76 1949.7,245.76 1925.77,287.22 1949.7,328.69 1997.58,328.69 2021.52,287.22 				"/>
				<polygon class="st1" points="1997.58,328.69 1949.7,328.69 1925.77,370.15 1949.7,411.62 1997.58,411.62 2021.52,370.15 				"/>
				<polygon class="st1" points="1997.58,411.62 1949.7,411.62 1925.77,453.08 1949.7,494.55 1997.58,494.55 2021.52,453.08 				"/>
				<polygon class="st1" points="1997.58,494.55 1949.7,494.55 1925.77,536.01 1949.7,577.48 1997.58,577.48 2021.52,536.01 				"/>
			</g>
		</g>
		<g>
			<polygon class="st1" points="1494.62,618.94 1446.74,618.94 1422.8,660.41 1446.74,701.87 1494.62,701.87 1518.56,660.41 			"/>
			<polygon class="st1" points="1494.62,701.87 1446.74,701.87 1422.8,743.34 1446.74,784.8 1494.62,784.8 1518.56,743.34 			"/>
			<polygon class="st1" points="1494.62,784.8 1446.74,784.8 1422.8,826.27 1446.74,867.73 1494.62,867.73 1518.56,826.27 			"/>
			<polygon class="st1" points="1494.62,867.73 1446.74,867.73 1422.8,909.19 1446.74,950.66 1494.62,950.66 1518.56,909.19 			"/>
			<polygon class="st1" points="1494.62,950.66 1446.74,950.66 1422.8,992.12 1446.74,1033.59 1494.62,1033.59 1518.56,992.12 			
				"/>
			<polygon class="st1" points="1494.62,1033.59 1446.74,1033.59 1422.8,1075.05 1446.74,1116.52 1494.62,1116.52 1518.56,1075.05 
							"/>
			<polygon class="st1" points="1494.62,1116.52 1446.74,1116.52 1422.8,1157.98 1446.74,1199.45 1494.62,1199.45 1518.56,1157.98 
							"/>
			<polygon class="st1" points="1494.62,1199.45 1446.74,1199.45 1422.8,1240.91 1446.74,1282.38 1494.62,1282.38 1518.56,1240.91 
							"/>
			<polygon class="st1" points="1590.38,618.94 1542.5,618.94 1518.56,660.41 1542.5,701.87 1590.38,701.87 1614.32,660.41 			"/>
			<polygon class="st1" points="1590.38,701.87 1542.5,701.87 1518.56,743.34 1542.5,784.8 1590.38,784.8 1614.32,743.34 			"/>
			<polygon class="st1" points="1590.38,784.8 1542.5,784.8 1518.56,826.27 1542.5,867.73 1590.38,867.73 1614.32,826.27 			"/>
			<polygon class="st1" points="1590.38,867.73 1542.5,867.73 1518.56,909.19 1542.5,950.66 1590.38,950.66 1614.32,909.19 			"/>
			<polygon class="st1" points="1590.38,950.66 1542.5,950.66 1518.56,992.12 1542.5,1033.59 1590.38,1033.59 1614.32,992.12 			"/>
			<polygon class="st1" points="1590.38,1033.59 1542.5,1033.59 1518.56,1075.05 1542.5,1116.52 1590.38,1116.52 1614.32,1075.05 
							"/>
			<polygon class="st1" points="1590.38,1116.52 1542.5,1116.52 1518.56,1157.98 1542.5,1199.45 1590.38,1199.45 1614.32,1157.98 
							"/>
			<polygon class="st1" points="1590.38,1199.45 1542.5,1199.45 1518.56,1240.91 1542.5,1282.38 1590.38,1282.38 1614.32,1240.91 
							"/>
			<polygon class="st1" points="1686.13,618.94 1638.26,618.94 1614.32,660.41 1638.26,701.87 1686.13,701.87 1710.07,660.41 			"/>
			<polygon class="st1" points="1686.13,701.87 1638.26,701.87 1614.32,743.34 1638.26,784.8 1686.13,784.8 1710.07,743.34 			"/>
			<polygon class="st1" points="1686.13,784.8 1638.26,784.8 1614.32,826.27 1638.26,867.73 1686.13,867.73 1710.07,826.27 			"/>
			<polygon class="st1" points="1686.13,867.73 1638.26,867.73 1614.32,909.19 1638.26,950.66 1686.13,950.66 1710.07,909.19 			"/>
			<polygon class="st1" points="1686.13,950.66 1638.26,950.66 1614.32,992.12 1638.26,1033.59 1686.13,1033.59 1710.07,992.12 			
				"/>
			<polygon class="st1" points="1686.13,1033.59 1638.26,1033.59 1614.32,1075.05 1638.26,1116.52 1686.13,1116.52 1710.07,1075.05 
							"/>
			<polygon class="st1" points="1686.13,1116.52 1638.26,1116.52 1614.32,1157.98 1638.26,1199.45 1686.13,1199.45 1710.07,1157.98 
							"/>
			<polygon class="st1" points="1686.13,1199.45 1638.26,1199.45 1614.32,1240.91 1638.26,1282.38 1686.13,1282.38 1710.07,1240.91 
							"/>
			<polygon class="st1" points="1781.89,618.94 1734.01,618.94 1710.07,660.41 1734.01,701.87 1781.89,701.87 1805.83,660.41 			"/>
			<polygon class="st1" points="1781.89,701.87 1734.01,701.87 1710.07,743.34 1734.01,784.8 1781.89,784.8 1805.83,743.34 			"/>
			<polygon class="st1" points="1781.89,784.8 1734.01,784.8 1710.07,826.27 1734.01,867.73 1781.89,867.73 1805.83,826.27 			"/>
			<polygon class="st1" points="1781.89,867.73 1734.01,867.73 1710.07,909.19 1734.01,950.66 1781.89,950.66 1805.83,909.19 			"/>
			<polygon class="st1" points="1781.89,950.66 1734.01,950.66 1710.07,992.12 1734.01,1033.59 1781.89,1033.59 1805.83,992.12 			
				"/>
			<polygon class="st1" points="1781.89,1033.59 1734.01,1033.59 1710.07,1075.05 1734.01,1116.52 1781.89,1116.52 1805.83,1075.05 
							"/>
			<polygon class="st1" points="1781.89,1116.52 1734.01,1116.52 1710.07,1157.98 1734.01,1199.45 1781.89,1199.45 1805.83,1157.98 
							"/>
			<polygon class="st1" points="1781.89,1199.45 1734.01,1199.45 1710.07,1240.91 1734.01,1282.38 1781.89,1282.38 1805.83,1240.91 
							"/>
			<polygon class="st1" points="1877.65,618.94 1829.77,618.94 1805.83,660.41 1829.77,701.87 1877.65,701.87 1901.59,660.41 			"/>
			<polygon class="st1" points="1877.65,701.87 1829.77,701.87 1805.83,743.34 1829.77,784.8 1877.65,784.8 1901.59,743.34 			"/>
			<polygon class="st1" points="1877.65,784.8 1829.77,784.8 1805.83,826.27 1829.77,867.73 1877.65,867.73 1901.59,826.27 			"/>
			<polygon class="st1" points="1877.65,867.73 1829.77,867.73 1805.83,909.19 1829.77,950.66 1877.65,950.66 1901.59,909.19 			"/>
			<polygon class="st1" points="1877.65,950.66 1829.77,950.66 1805.83,992.12 1829.77,1033.59 1877.65,1033.59 1901.59,992.12 			
				"/>
			<polygon class="st1" points="1877.65,1033.59 1829.77,1033.59 1805.83,1075.05 1829.77,1116.52 1877.65,1116.52 1901.59,1075.05 
							"/>
			<polygon class="st1" points="1877.65,1116.52 1829.77,1116.52 1805.83,1157.98 1829.77,1199.45 1877.65,1199.45 1901.59,1157.98 
							"/>
			<polygon class="st1" points="1877.65,1199.45 1829.77,1199.45 1805.83,1240.91 1829.77,1282.38 1877.65,1282.38 1901.59,1240.91 
							"/>
			<polygon class="st1" points="1973.41,618.94 1925.53,618.94 1901.59,660.41 1925.53,701.87 1973.41,701.87 1997.35,660.41 			"/>
			<polygon class="st1" points="1973.41,701.87 1925.53,701.87 1901.59,743.34 1925.53,784.8 1973.41,784.8 1997.35,743.34 			"/>
			<polygon class="st1" points="1973.41,784.8 1925.53,784.8 1901.59,826.27 1925.53,867.73 1973.41,867.73 1997.35,826.27 			"/>
			<polygon class="st1" points="1973.41,867.73 1925.53,867.73 1901.59,909.19 1925.53,950.66 1973.41,950.66 1997.35,909.19 			"/>
			<polygon class="st1" points="1973.41,950.66 1925.53,950.66 1901.59,992.12 1925.53,1033.59 1973.41,1033.59 1997.35,992.12 			
				"/>
			<polygon class="st1" points="1973.41,1033.59 1925.53,1033.59 1901.59,1075.05 1925.53,1116.52 1973.41,1116.52 1997.35,1075.05 
							"/>
			<polygon class="st1" points="1973.41,1116.52 1925.53,1116.52 1901.59,1157.98 1925.53,1199.45 1973.41,1199.45 1997.35,1157.98 
							"/>
			<polygon class="st1" points="1973.41,1199.45 1925.53,1199.45 1901.59,1240.91 1925.53,1282.38 1973.41,1282.38 1997.35,1240.91 
							"/>
			<g>
				<polygon class="st1" points="1518.79,577.48 1470.91,577.48 1446.97,618.94 1470.91,660.41 1518.79,660.41 1542.73,618.94 				
					"/>
				<polygon class="st1" points="1518.79,660.41 1470.91,660.41 1446.97,701.87 1470.91,743.34 1518.79,743.34 1542.73,701.87 				
					"/>
				<polygon class="st1" points="1518.79,743.34 1470.91,743.34 1446.97,784.8 1470.91,826.27 1518.79,826.27 1542.73,784.8 				"/>
				<polygon class="st1" points="1518.79,826.27 1470.91,826.27 1446.97,867.73 1470.91,909.19 1518.79,909.19 1542.73,867.73 				
					"/>
				<polygon class="st1" points="1518.79,909.19 1470.91,909.19 1446.97,950.66 1470.91,992.12 1518.79,992.12 1542.73,950.66 				
					"/>
				<polygon class="st1" points="1518.79,992.12 1470.91,992.12 1446.97,1033.59 1470.91,1075.05 1518.79,1075.05 1542.73,1033.59 
									"/>
				<polygon class="st1" points="1518.79,1075.05 1470.91,1075.05 1446.97,1116.52 1470.91,1157.98 1518.79,1157.98 
					1542.73,1116.52 				"/>
				<polygon class="st1" points="1518.79,1157.98 1470.91,1157.98 1446.97,1199.45 1470.91,1240.91 1518.79,1240.91 
					1542.73,1199.45 				"/>
			</g>
			<g>
				<polygon class="st1" points="1614.55,577.48 1566.67,577.48 1542.73,618.94 1566.67,660.41 1614.55,660.41 1638.49,618.94 				
					"/>
				<polygon class="st1" points="1614.55,660.41 1566.67,660.41 1542.73,701.87 1566.67,743.34 1614.55,743.34 1638.49,701.87 				
					"/>
				<polygon class="st1" points="1614.55,743.34 1566.67,743.34 1542.73,784.8 1566.67,826.27 1614.55,826.27 1638.49,784.8 				"/>
				<polygon class="st1" points="1614.55,826.27 1566.67,826.27 1542.73,867.73 1566.67,909.19 1614.55,909.19 1638.49,867.73 				
					"/>
				<polygon class="st1" points="1614.55,909.19 1566.67,909.19 1542.73,950.66 1566.67,992.12 1614.55,992.12 1638.49,950.66 				
					"/>
				<polygon class="st1" points="1614.55,992.12 1566.67,992.12 1542.73,1033.59 1566.67,1075.05 1614.55,1075.05 1638.49,1033.59 
									"/>
				<polygon class="st1" points="1614.55,1075.05 1566.67,1075.05 1542.73,1116.52 1566.67,1157.98 1614.55,1157.98 
					1638.49,1116.52 				"/>
				<polygon class="st1" points="1614.55,1157.98 1566.67,1157.98 1542.73,1199.45 1566.67,1240.91 1614.55,1240.91 
					1638.49,1199.45 				"/>
			</g>
			<g>
				<polygon class="st1" points="1710.31,577.48 1662.43,577.48 1638.49,618.94 1662.43,660.41 1710.31,660.41 1734.25,618.94 				
					"/>
				<polygon class="st1" points="1710.31,660.41 1662.43,660.41 1638.49,701.87 1662.43,743.34 1710.31,743.34 1734.25,701.87 				
					"/>
				<polygon class="st1" points="1710.31,743.34 1662.43,743.34 1638.49,784.8 1662.43,826.27 1710.31,826.27 1734.25,784.8 				"/>
				<polygon class="st1" points="1710.31,826.27 1662.43,826.27 1638.49,867.73 1662.43,909.19 1710.31,909.19 1734.25,867.73 				
					"/>
				<polygon class="st1" points="1710.31,909.19 1662.43,909.19 1638.49,950.66 1662.43,992.12 1710.31,992.12 1734.25,950.66 				
					"/>
				<polygon class="st1" points="1710.31,992.12 1662.43,992.12 1638.49,1033.59 1662.43,1075.05 1710.31,1075.05 1734.25,1033.59 
									"/>
				<polygon class="st1" points="1710.31,1075.05 1662.43,1075.05 1638.49,1116.52 1662.43,1157.98 1710.31,1157.98 
					1734.25,1116.52 				"/>
				<polygon class="st1" points="1710.31,1157.98 1662.43,1157.98 1638.49,1199.45 1662.43,1240.91 1710.31,1240.91 
					1734.25,1199.45 				"/>
			</g>
			<g>
				<polygon class="st1" points="1806.07,577.48 1758.19,577.48 1734.25,618.94 1758.19,660.41 1806.07,660.41 1830.01,618.94 				
					"/>
				<polygon class="st1" points="1806.07,660.41 1758.19,660.41 1734.25,701.87 1758.19,743.34 1806.07,743.34 1830.01,701.87 				
					"/>
				<polygon class="st1" points="1806.07,743.34 1758.19,743.34 1734.25,784.8 1758.19,826.27 1806.07,826.27 1830.01,784.8 				"/>
				<polygon class="st1" points="1806.07,826.27 1758.19,826.27 1734.25,867.73 1758.19,909.19 1806.07,909.19 1830.01,867.73 				
					"/>
				<polygon class="st1" points="1806.07,909.19 1758.19,909.19 1734.25,950.66 1758.19,992.12 1806.07,992.12 1830.01,950.66 				
					"/>
				<polygon class="st1" points="1806.07,992.12 1758.19,992.12 1734.25,1033.59 1758.19,1075.05 1806.07,1075.05 1830.01,1033.59 
									"/>
				<polygon class="st1" points="1806.07,1075.05 1758.19,1075.05 1734.25,1116.52 1758.19,1157.98 1806.07,1157.98 
					1830.01,1116.52 				"/>
				<polygon class="st1" points="1806.07,1157.98 1758.19,1157.98 1734.25,1199.45 1758.19,1240.91 1806.07,1240.91 
					1830.01,1199.45 				"/>
			</g>
			<g>
				<polygon class="st1" points="1901.83,577.48 1853.95,577.48 1830.01,618.94 1853.95,660.41 1901.83,660.41 1925.77,618.94 				
					"/>
				<polygon class="st1" points="1901.83,660.41 1853.95,660.41 1830.01,701.87 1853.95,743.34 1901.83,743.34 1925.77,701.87 				
					"/>
				<polygon class="st1" points="1901.83,743.34 1853.95,743.34 1830.01,784.8 1853.95,826.27 1901.83,826.27 1925.77,784.8 				"/>
				<polygon class="st1" points="1901.83,826.27 1853.95,826.27 1830.01,867.73 1853.95,909.19 1901.83,909.19 1925.77,867.73 				
					"/>
				<polygon class="st1" points="1901.83,909.19 1853.95,909.19 1830.01,950.66 1853.95,992.12 1901.83,992.12 1925.77,950.66 				
					"/>
				<polygon class="st1" points="1901.83,992.12 1853.95,992.12 1830.01,1033.59 1853.95,1075.05 1901.83,1075.05 1925.77,1033.59 
									"/>
				<polygon class="st1" points="1901.83,1075.05 1853.95,1075.05 1830.01,1116.52 1853.95,1157.98 1901.83,1157.98 
					1925.77,1116.52 				"/>
				<polygon class="st1" points="1901.83,1157.98 1853.95,1157.98 1830.01,1199.45 1853.95,1240.91 1901.83,1240.91 
					1925.77,1199.45 				"/>
			</g>
			<g>
				<polygon class="st1" points="1997.58,577.48 1949.7,577.48 1925.77,618.94 1949.7,660.41 1997.58,660.41 2021.52,618.94 				"/>
				<polygon class="st1" points="1997.58,660.41 1949.7,660.41 1925.77,701.87 1949.7,743.34 1997.58,743.34 2021.52,701.87 				"/>
				<polygon class="st1" points="1997.58,743.34 1949.7,743.34 1925.77,784.8 1949.7,826.27 1997.58,826.27 2021.52,784.8 				"/>
				<polygon class="st1" points="1997.58,826.27 1949.7,826.27 1925.77,867.73 1949.7,909.19 1997.58,909.19 2021.52,867.73 				"/>
				<polygon class="st1" points="1997.58,909.19 1949.7,909.19 1925.77,950.66 1949.7,992.12 1997.58,992.12 2021.52,950.66 				"/>
				<polygon class="st1" points="1997.58,992.12 1949.7,992.12 1925.77,1033.59 1949.7,1075.05 1997.58,1075.05 2021.52,1033.59 
									"/>
				<polygon class="st1" points="1997.58,1075.05 1949.7,1075.05 1925.77,1116.52 1949.7,1157.98 1997.58,1157.98 2021.52,1116.52 
									"/>
				<polygon class="st1" points="1997.58,1157.98 1949.7,1157.98 1925.77,1199.45 1949.7,1240.91 1997.58,1240.91 2021.52,1199.45 
									"/>
			</g>
		</g>
	</g>
</g>
</svg>
