<?xml version="1.0" encoding="utf-8"?>
<!-- Generator: Adobe Illustrator 24.0.0, SVG Export Plug-In . SVG Version: 6.00 Build 0)  -->
<svg version="1.1" id="Layer_1" xmlns="http://www.w3.org/2000/svg" xmlns:xlink="http://www.w3.org/1999/xlink" x="0px" y="0px"
	 viewBox="0 0 392.4 73.9" style="enable-background:new 0 0 392.4 73.9;" xml:space="preserve">
<style type="text/css">
	.st0{fill:#15879F;}
	.st1{fill:#A11F5F;}
	.st2{fill:#E5322D;}
	.st3{fill:#E55C25;}
	.st4{fill:#F2AF1C;}
	.st5{fill:#039047;}
	.st6{fill:#E5E319;}
	.st7{fill:#E28425;}
	.st8{fill:#D34B27;}
	.st9{fill:#CA2034;}
	.st10{fill:#D11D57;}
	.st11{fill:#482F7E;}
	.st12{fill:#18B1D0;}
	.st13{fill:#104C6E;}
	.st14{fill:#CB1E59;}
	.st15{fill:#F2D113;}
	.st16{fill:#69BC46;}
	.st17{fill:#F3B01B;}
	.st18{fill:#E75248;}
	.st19{fill:#6B2C85;}
	.st20{fill:#038B9A;}
	.st21{fill:#196382;}
	.st22{fill:#D43C6A;}
	.st23{fill:#EB774F;}
	.st24{fill:#D21B65;}
	.st25{fill:#221F1F;}
	.st26{fill:#1687C8;}
	.st27{fill:#0AA4DF;}
	.st28{fill:#060606;}
	.st29{fill:#4D4C4C;}
	.st30{fill:#0D0E94;}
	.st31{fill:#E9FC24;}
	.st32{fill:#FCFDFD;}
	.st33{fill:#F70804;}
</style>
<g>
	<g>
		<polygon class="st0" points="1.9,61.8 1.9,61.8 0,58 3.9,58 		"/>
		<polygon class="st1" points="5.8,54.1 5.8,54.1 7.7,58 3.9,58 		"/>
		<polygon class="st2" points="9.7,54.1 9.7,54.1 11.6,58 7.7,58 		"/>
		<polygon class="st3" points="13.5,61.8 13.5,61.8 11.6,58 15.5,58 		"/>
		<polygon class="st4" points="17.4,61.8 17.4,61.8 15.5,58 19.3,58 		"/>
		<polygon class="st5" points="21.3,54.1 21.3,54.1 23.2,58 19.3,58 		"/>
		<polygon class="st6" points="25.1,61.8 25.1,61.8 23.2,58 27.1,58 		"/>
		<polygon class="st7" points="29,54.1 29,54.1 30.9,58 27.1,58 		"/>
		<polygon class="st8" points="32.9,54.1 32.9,54.1 34.8,58 30.9,58 		"/>
		<polygon class="st9" points="36.7,54.1 36.7,54.1 38.7,58 34.8,58 		"/>
		<polygon class="st10" points="40.6,54.1 40.6,54.1 42.5,58 38.7,58 		"/>
		<polygon class="st1" points="44.5,54.1 44.5,54.1 46.4,58 42.5,58 		"/>
		<polygon class="st11" points="48.3,54.1 48.3,54.1 50.3,58 46.4,58 		"/>
		<polygon class="st12" points="52.2,61.8 52.2,61.8 50.3,58 54.1,58 		"/>
		<polygon class="st13" points="56.1,54.1 56.1,54.1 58,58 54.1,58 		"/>
		<polygon class="st1" points="59.9,54.1 59.9,54.1 61.8,58 58,58 		"/>
		<polygon class="st14" points="63.8,61.8 63.8,61.8 61.8,58 65.7,58 		"/>
		<polygon class="st2" points="63.8,54.1 63.8,54.1 65.7,58 61.8,58 		"/>
		<polygon class="st15" points="67.6,54.1 67.6,54.1 69.6,58 65.7,58 		"/>
		<polygon class="st4" points="71.5,61.8 71.5,61.8 69.6,58 73.4,58 		"/>
		<polygon class="st1" points="65.7,50.2 65.7,50.2 63.8,54.1 67.6,54.1 		"/>
		<polygon class="st14" points="61.8,58 61.8,58 63.8,54.1 59.9,54.1 		"/>
		<polygon class="st2" points="61.8,50.2 61.8,50.2 59.9,54.1 63.8,54.1 		"/>
		<polygon class="st2" points="58,58 58,58 59.9,54.1 56.1,54.1 		"/>
		<polygon class="st3" points="58,50.2 58,50.2 56.1,54.1 59.9,54.1 		"/>
		<polygon class="st4" points="54.1,58 54.1,58 56.1,54.1 52.2,54.1 		"/>
		<polygon class="st4" points="54.1,50.2 54.1,50.2 52.2,54.1 56.1,54.1 		"/>
		<polygon class="st13" points="50.3,58 50.3,58 52.2,54.1 48.3,54.1 		"/>
		<polygon class="st16" points="50.3,50.2 50.3,50.2 48.3,54.1 52.2,54.1 		"/>
		<polygon class="st6" points="46.4,58 46.4,58 48.3,54.1 44.5,54.1 		"/>
		<polygon class="st17" points="46.4,50.2 46.4,50.2 44.5,54.1 48.3,54.1 		"/>
		<polygon class="st3" points="42.5,58 42.5,58 44.5,54.1 40.6,54.1 		"/>
		<polygon class="st4" points="42.5,50.2 42.5,50.2 40.6,54.1 44.5,54.1 		"/>
		<polygon class="st2" points="38.7,58 38.7,58 40.6,54.1 36.7,54.1 		"/>
		<polygon class="st1" points="38.7,50.2 38.7,50.2 36.7,54.1 40.6,54.1 		"/>
		<polygon class="st18" points="34.8,58 34.8,58 36.7,54.1 32.9,54.1 		"/>
		<polygon class="st3" points="34.8,50.2 34.8,50.2 32.9,54.1 36.7,54.1 		"/>
		<polygon class="st1" points="30.9,58 30.9,58 32.9,54.1 29,54.1 		"/>
		<polygon class="st7" points="30.9,50.2 30.9,50.2 29,54.1 32.9,54.1 		"/>
		<polygon class="st19" points="27.1,58 27.1,58 29,54.1 25.1,54.1 		"/>
		<polygon class="st1" points="27.1,50.2 27.1,50.2 25.1,54.1 29,54.1 		"/>
		<polygon class="st13" points="23.2,58 23.2,58 25.1,54.1 21.3,54.1 		"/>
		<polygon class="st1" points="23.2,50.2 23.2,50.2 21.3,54.1 25.1,54.1 		"/>
		<polygon class="st12" points="19.3,58 19.3,58 21.3,54.1 17.4,54.1 		"/>
		<polygon class="st20" points="19.3,50.2 19.3,50.2 17.4,54.1 21.3,54.1 		"/>
		<polygon class="st20" points="15.5,58 15.5,58 17.4,54.1 13.5,54.1 		"/>
		<polygon class="st12" points="15.5,50.2 15.5,50.2 13.5,54.1 17.4,54.1 		"/>
		<polygon class="st11" points="11.6,58 11.6,58 13.5,54.1 9.7,54.1 		"/>
		<polygon class="st1" points="11.6,50.2 11.6,50.2 9.7,54.1 13.5,54.1 		"/>
		<polygon class="st2" points="7.7,50.2 7.7,50.2 5.8,54.1 9.7,54.1 		"/>
		<polygon class="st3" points="56.1,46.4 56.1,46.4 58,50.2 54.1,50.2 		"/>
		<polygon class="st15" points="56.1,54.1 56.1,54.1 54.1,50.2 58,50.2 		"/>
		<polygon class="st4" points="52.2,46.4 52.2,46.4 54.1,50.2 50.3,50.2 		"/>
		<polygon class="st6" points="52.2,54.1 52.2,54.1 50.3,50.2 54.1,50.2 		"/>
		<polygon class="st16" points="48.3,46.4 48.3,46.4 50.3,50.2 46.4,50.2 		"/>
		<polygon class="st5" points="48.3,54.1 48.3,54.1 46.4,50.2 50.3,50.2 		"/>
		<polygon class="st6" points="44.5,46.4 44.5,46.4 46.4,50.2 42.5,50.2 		"/>
		<polygon class="st12" points="44.5,54.1 44.5,54.1 42.5,50.2 46.4,50.2 		"/>
		<polygon class="st3" points="40.6,46.4 40.6,46.4 42.5,50.2 38.7,50.2 		"/>
		<polygon class="st7" points="40.6,54.1 40.6,54.1 38.7,50.2 42.5,50.2 		"/>
		<polygon class="st19" points="36.7,46.4 36.7,46.4 38.7,50.2 34.8,50.2 		"/>
		<polygon class="st8" points="36.7,54.1 36.7,54.1 34.8,50.2 38.7,50.2 		"/>
		<polygon class="st18" points="32.9,46.4 32.9,46.4 34.8,50.2 30.9,50.2 		"/>
		<polygon class="st9" points="32.9,54.1 32.9,54.1 30.9,50.2 34.8,50.2 		"/>
		<polygon class="st1" points="29,46.4 29,46.4 30.9,50.2 27.1,50.2 		"/>
		<polygon class="st10" points="29,54.1 29,54.1 27.1,50.2 30.9,50.2 		"/>
		<polygon class="st19" points="25.1,46.4 25.1,46.4 27.1,50.2 23.2,50.2 		"/>
		<polygon class="st8" points="25.1,54.1 25.1,54.1 23.2,50.2 27.1,50.2 		"/>
		<polygon class="st13" points="21.3,46.4 21.3,46.4 23.2,50.2 19.3,50.2 		"/>
		<polygon class="st11" points="21.3,54.1 21.3,54.1 19.3,50.2 23.2,50.2 		"/>
		<polygon class="st12" points="17.4,46.4 17.4,46.4 19.3,50.2 15.5,50.2 		"/>
		<polygon class="st21" points="17.4,54.1 17.4,54.1 15.5,50.2 19.3,50.2 		"/>
		<polygon class="st13" points="13.5,54.1 13.5,54.1 11.6,50.2 15.5,50.2 		"/>
		<polygon class="st3" points="15.5,50.2 15.5,50.2 13.5,46.4 17.4,46.4 		"/>
		<polygon class="st4" points="19.3,50.2 19.3,50.2 17.4,46.4 21.3,46.4 		"/>
		<polygon class="st6" points="19.3,42.5 19.3,42.5 21.3,46.4 17.4,46.4 		"/>
		<polygon class="st16" points="23.2,50.2 23.2,50.2 21.3,46.4 25.1,46.4 		"/>
		<polygon class="st5" points="23.2,42.5 23.2,42.5 25.1,46.4 21.3,46.4 		"/>
		<polygon class="st6" points="27.1,50.2 27.1,50.2 25.1,46.4 29,46.4 		"/>
		<polygon class="st7" points="27.1,42.5 27.1,42.5 29,46.4 25.1,46.4 		"/>
		<polygon class="st3" points="30.9,50.2 30.9,50.2 29,46.4 32.9,46.4 		"/>
		<polygon class="st17" points="30.9,42.5 30.9,42.5 32.9,46.4 29,46.4 		"/>
		<polygon class="st2" points="34.8,50.2 34.8,50.2 32.9,46.4 36.7,46.4 		"/>
		<polygon class="st1" points="34.8,42.5 34.8,42.5 36.7,46.4 32.9,46.4 		"/>
		<polygon class="st4" points="38.7,50.2 38.7,50.2 36.7,46.4 40.6,46.4 		"/>
		<polygon class="st3" points="38.7,42.5 38.7,42.5 40.6,46.4 36.7,46.4 		"/>
		<polygon class="st1" points="42.5,50.2 42.5,50.2 40.6,46.4 44.5,46.4 		"/>
		<polygon class="st7" points="42.5,42.5 42.5,42.5 44.5,46.4 40.6,46.4 		"/>
		<polygon class="st19" points="46.4,50.2 46.4,50.2 44.5,46.4 48.3,46.4 		"/>
		<polygon class="st3" points="46.4,42.5 46.4,42.5 48.3,46.4 44.5,46.4 		"/>
		<polygon class="st13" points="50.3,50.2 50.3,50.2 48.3,46.4 52.2,46.4 		"/>
		<polygon class="st20" points="50.3,42.5 50.3,42.5 52.2,46.4 48.3,46.4 		"/>
		<polygon class="st12" points="54.1,50.2 54.1,50.2 52.2,46.4 56.1,46.4 		"/>
		<polygon class="st21" points="54.1,42.5 54.1,42.5 56.1,46.4 52.2,46.4 		"/>
		<polygon class="st20" points="58,50.2 58,50.2 56.1,46.4 59.9,46.4 		"/>
		<polygon class="st6" points="25.1,38.6 25.1,38.6 23.2,42.5 27.1,42.5 		"/>
		<polygon class="st17" points="25.1,46.4 25.1,46.4 27.1,42.5 23.2,42.5 		"/>
		<polygon class="st3" points="29,38.6 29,38.6 27.1,42.5 30.9,42.5 		"/>
		<polygon class="st2" points="29,46.4 29,46.4 30.9,42.5 27.1,42.5 		"/>
		<polygon class="st2" points="32.9,38.6 32.9,38.6 30.9,42.5 34.8,42.5 		"/>
		<polygon class="st8" points="32.9,46.4 32.9,46.4 34.8,42.5 30.9,42.5 		"/>
		<polygon class="st18" points="36.7,38.6 36.7,38.6 34.8,42.5 38.7,42.5 		"/>
		<polygon class="st9" points="36.7,46.4 36.7,46.4 38.7,42.5 34.8,42.5 		"/>
		<polygon class="st1" points="40.6,38.6 40.6,38.6 38.7,42.5 42.5,42.5 		"/>
		<polygon class="st10" points="40.6,46.4 40.6,46.4 42.5,42.5 38.7,42.5 		"/>
		<polygon class="st19" points="44.5,38.6 44.5,38.6 42.5,42.5 46.4,42.5 		"/>
		<polygon class="st1" points="44.5,46.4 44.5,46.4 46.4,42.5 42.5,42.5 		"/>
		<polygon class="st13" points="48.3,38.6 48.3,38.6 46.4,42.5 50.3,42.5 		"/>
		<polygon class="st11" points="48.3,46.4 48.3,46.4 50.3,42.5 46.4,42.5 		"/>
		<polygon class="st2" points="32.9,30.9 32.9,30.9 30.9,27.1 34.8,27.1 		"/>
		<polygon class="st8" points="32.9,23.2 32.9,23.2 34.8,27.1 30.9,27.1 		"/>
		<polygon class="st18" points="36.7,30.9 36.7,30.9 34.8,27.1 38.7,27.1 		"/>
		<polygon class="st9" points="36.7,23.2 36.7,23.2 38.7,27.1 34.8,27.1 		"/>
		<polygon class="st1" points="40.6,30.9 40.6,30.9 38.7,27.1 42.5,27.1 		"/>
		<polygon class="st22" points="40.6,23.2 40.6,23.2 42.5,27.1 38.7,27.1 		"/>
		<polygon class="st19" points="44.5,30.9 44.5,30.9 42.5,27.1 46.4,27.1 		"/>
		<polygon class="st1" points="30.9,27.1 30.9,27.1 32.9,23.2 29,23.2 		"/>
		<polygon class="st10" points="34.8,19.3 34.8,19.3 32.9,23.2 36.7,23.2 		"/>
		<polygon class="st7" points="34.8,27.1 34.8,27.1 36.7,23.2 32.9,23.2 		"/>
		<polygon class="st18" points="38.7,19.3 38.7,19.3 36.7,23.2 40.6,23.2 		"/>
		<polygon class="st19" points="38.7,27.1 38.7,27.1 40.6,23.2 36.7,23.2 		"/>
		<polygon class="st10" points="42.5,27.1 42.5,27.1 44.5,23.2 40.6,23.2 		"/>
		<polygon class="st16" points="50.3,42.5 50.3,42.5 52.2,38.6 48.3,38.6 		"/>
		<polygon class="st6" points="46.4,42.5 46.4,42.5 48.3,38.6 44.5,38.6 		"/>
		<polygon class="st17" points="46.4,34.8 46.4,34.8 44.5,38.6 48.3,38.6 		"/>
		<polygon class="st3" points="42.5,42.5 42.5,42.5 44.5,38.6 40.6,38.6 		"/>
		<polygon class="st7" points="42.5,34.8 42.5,34.8 40.6,38.6 44.5,38.6 		"/>
		<polygon class="st2" points="38.7,42.5 38.7,42.5 40.6,38.6 36.7,38.6 		"/>
		<polygon class="st8" points="38.7,34.8 38.7,34.8 36.7,38.6 40.6,38.6 		"/>
		<polygon class="st7" points="34.8,42.5 34.8,42.5 36.7,38.6 32.9,38.6 		"/>
		<polygon class="st9" points="34.8,34.8 34.8,34.8 32.9,38.6 36.7,38.6 		"/>
		<polygon class="st1" points="30.9,42.5 30.9,42.5 32.9,38.6 29,38.6 		"/>
		<polygon class="st10" points="30.9,34.8 30.9,34.8 29,38.6 32.9,38.6 		"/>
		<polygon class="st19" points="27.1,42.5 27.1,42.5 29,38.6 25.1,38.6 		"/>
		<polygon class="st1" points="27.1,34.8 27.1,34.8 25.1,38.6 29,38.6 		"/>
		<polygon class="st13" points="23.2,42.5 23.2,42.5 25.1,38.6 21.3,38.6 		"/>
		<polygon class="st17" points="25.1,38.6 25.1,38.6 27.1,34.8 23.2,34.8 		"/>
		<polygon class="st7" points="29,38.6 29,38.6 30.9,34.8 27.1,34.8 		"/>
		<polygon class="st2" points="32.9,30.9 32.9,30.9 30.9,34.8 34.8,34.8 		"/>
		<polygon class="st8" points="32.9,38.6 32.9,38.6 34.8,34.8 30.9,34.8 		"/>
		<polygon class="st18" points="36.7,30.9 36.7,30.9 34.8,34.8 38.7,34.8 		"/>
		<polygon class="st2" points="36.7,38.6 36.7,38.6 38.7,34.8 34.8,34.8 		"/>
		<polygon class="st1" points="40.6,30.9 40.6,30.9 38.7,34.8 42.5,34.8 		"/>
		<polygon class="st10" points="40.6,38.6 40.6,38.6 42.5,34.8 38.7,34.8 		"/>
		<polygon class="st19" points="44.5,30.9 44.5,30.9 42.5,34.8 46.4,34.8 		"/>
		<polygon class="st1" points="44.5,38.6 44.5,38.6 46.4,34.8 42.5,34.8 		"/>
		<polygon class="st11" points="48.3,38.6 48.3,38.6 50.3,34.8 46.4,34.8 		"/>
		<polygon class="st17" points="27.1,27.1 27.1,27.1 29,30.9 25.1,30.9 		"/>
		<polygon class="st17" points="50.3,27.1 50.3,27.1 52.2,30.9 48.3,30.9 		"/>
		<polygon class="st3" points="30.9,34.8 30.9,34.8 29,30.9 32.9,30.9 		"/>
		<polygon class="st7" points="30.9,27.1 30.9,27.1 32.9,30.9 29,30.9 		"/>
		<polygon class="st7" points="34.8,34.8 34.8,34.8 32.9,30.9 36.7,30.9 		"/>
		<polygon class="st8" points="34.8,27.1 34.8,27.1 36.7,30.9 32.9,30.9 		"/>
		<polygon class="st10" points="38.7,34.8 38.7,34.8 36.7,30.9 40.6,30.9 		"/>
		<polygon class="st9" points="38.7,27.1 38.7,27.1 40.6,30.9 36.7,30.9 		"/>
		<polygon class="st22" points="42.5,34.8 42.5,34.8 40.6,30.9 44.5,30.9 		"/>
		<polygon class="st10" points="42.5,27.1 42.5,27.1 44.5,30.9 40.6,30.9 		"/>
		<polygon class="st2" points="32.9,23.2 32.9,23.2 30.9,19.3 34.8,19.3 		"/>
		<polygon class="st8" points="30.9,19.3 30.9,19.3 32.9,23.2 29,23.2 		"/>
		<polygon class="st23" points="36.7,23.2 36.7,23.2 34.8,19.3 38.7,19.3 		"/>
		<polygon class="st9" points="36.7,15.5 36.7,15.5 38.7,19.3 34.8,19.3 		"/>
		<polygon class="st1" points="40.6,23.2 40.6,23.2 38.7,19.3 42.5,19.3 		"/>
		<polygon class="st10" points="40.6,15.5 40.6,15.5 42.5,19.3 38.7,19.3 		"/>
		<polygon class="st2" points="38.7,19.3 38.7,19.3 40.6,15.5 36.7,15.5 		"/>
		<polygon class="st8" points="38.7,11.6 38.7,11.6 36.7,15.5 40.6,15.5 		"/>
		<polygon class="st18" points="34.8,19.3 34.8,19.3 36.7,15.5 32.9,15.5 		"/>
		<polygon class="st9" points="34.8,11.6 34.8,11.6 32.9,15.5 36.7,15.5 		"/>
		<polygon class="st24" points="36.7,7.7 36.7,7.7 38.7,11.6 34.8,11.6 		"/>
		<polygon class="st7" points="36.7,15.5 36.7,15.5 34.8,11.6 38.7,11.6 		"/>
		<polygon class="st2" points="34.8,11.6 34.8,11.6 32.9,7.7 36.7,7.7 		"/>
		<polygon class="st18" points="38.7,11.6 38.7,11.6 36.7,7.7 40.6,7.7 		"/>
		<polygon class="st18" points="36.7,0 36.7,0 34.8,3.9 38.7,3.9 		"/>
		<polygon class="st1" points="36.7,7.7 36.7,7.7 38.7,3.9 34.8,3.9 		"/>
	</g>
	<g>
		<path class="st25" d="M67.5,41.7c-0.1,0.3-0.3,0.6-0.6,0.8c-0.2,0.2-0.5,0.4-0.9,0.5c-0.3,0.1-0.7,0.2-1.1,0.2h-3.6v-8.9h3.5
			c0.8,0,1.5,0.2,2,0.7c0.5,0.4,0.7,1,0.7,1.8c0,0.2,0,0.5-0.1,0.7c-0.1,0.2-0.2,0.4-0.3,0.6c-0.1,0.2-0.2,0.3-0.4,0.4
			c-0.1,0.1-0.3,0.2-0.4,0.3c0.2,0.1,0.3,0.2,0.5,0.3c0.2,0.1,0.3,0.3,0.4,0.4c0.1,0.2,0.2,0.4,0.3,0.6c0.1,0.2,0.1,0.5,0.1,0.8
			C67.7,41,67.7,41.4,67.5,41.7z M65.8,35.8c-0.3-0.2-0.6-0.3-1.1-0.3h-2V38h2c0.4,0,0.8-0.1,1.1-0.3c0.3-0.2,0.4-0.5,0.4-1
			C66.2,36.3,66.1,36,65.8,35.8z M66,39.6c-0.2-0.3-0.6-0.4-1.1-0.4h-2.1v2.7h2.1c0.5,0,0.8-0.1,1.1-0.4c0.3-0.3,0.4-0.6,0.4-1
			C66.4,40.2,66.3,39.8,66,39.6z"/>
		<path class="st25" d="M74.7,43.1l-0.6-1.8h-3.5l-0.6,1.8h-1.4l3.3-8.9h1.1l3.3,8.9H74.7z M72.3,36.2l-1.4,4h2.7L72.3,36.2z"/>
		<path class="st25" d="M82.7,43.1l-4.1-6.3v6.3h-1.4v-8.9h1.2l4.1,6.3v-6.3h1.4v8.9H82.7z"/>
		<path class="st25" d="M92,41.1c-0.1,0.4-0.3,0.7-0.6,1.1c-0.3,0.4-0.7,0.6-1.1,0.8c-0.4,0.2-0.8,0.2-1.3,0.2
			c-0.5,0-0.9-0.1-1.3-0.2c-0.4-0.2-0.7-0.4-1.1-0.7c-0.2-0.2-0.4-0.4-0.5-0.7c-0.1-0.2-0.2-0.5-0.3-0.8c-0.1-0.3-0.1-0.6-0.1-0.9
			c0-0.3,0-0.7,0-1.2c0-0.4,0-0.8,0-1.2c0-0.3,0-0.7,0.1-0.9c0.1-0.3,0.1-0.5,0.3-0.8c0.1-0.2,0.3-0.5,0.5-0.7
			c0.3-0.3,0.7-0.5,1-0.7c0.4-0.2,0.8-0.2,1.3-0.2c0.5,0,0.9,0.1,1.3,0.2c0.4,0.1,0.7,0.3,1,0.6c0.3,0.3,0.5,0.5,0.7,0.9
			c0.2,0.3,0.3,0.7,0.4,1.1h-1.4c-0.1-0.5-0.3-0.9-0.7-1.1c-0.3-0.3-0.7-0.4-1.2-0.4c-0.3,0-0.5,0.1-0.7,0.2
			c-0.2,0.1-0.4,0.2-0.6,0.4c-0.1,0.1-0.2,0.2-0.3,0.4c-0.1,0.1-0.1,0.3-0.2,0.5c0,0.2-0.1,0.5-0.1,0.8c0,0.3,0,0.7,0,1.1
			c0,0.4,0,0.8,0,1.1c0,0.3,0,0.6,0.1,0.8c0,0.2,0.1,0.4,0.2,0.5c0.1,0.1,0.2,0.3,0.3,0.4c0.2,0.2,0.4,0.3,0.6,0.4
			c0.2,0.1,0.5,0.1,0.7,0.1c0.3,0,0.6-0.1,0.8-0.2c0.3-0.1,0.5-0.3,0.6-0.5c0.2-0.2,0.3-0.4,0.3-0.6c0.1-0.2,0.1-0.5,0.1-0.8v-0.5
			H89v-1.1h3.3v1.4C92.2,40.3,92.1,40.7,92,41.1z"/>
		<path class="st25" d="M94,43.1v-8.9h1.4v7.7h4.3v1.2H94z"/>
		<path class="st25" d="M106.2,43.1l-0.6-1.8H102l-0.6,1.8H100l3.3-8.9h1.1l3.3,8.9H106.2z M103.8,36.2l-1.4,4h2.7L103.8,36.2z"/>
		<path class="st25" d="M115,39.6c0,0.3,0,0.7-0.1,1c0,0.3-0.1,0.6-0.3,0.9c-0.1,0.3-0.3,0.6-0.6,0.8c-0.3,0.3-0.6,0.5-1,0.6
			c-0.4,0.1-0.8,0.2-1.3,0.2h-3.1v-8.9h3.1c0.5,0,0.9,0.1,1.3,0.2c0.4,0.1,0.7,0.3,1,0.6c0.2,0.2,0.4,0.5,0.6,0.8
			c0.1,0.3,0.2,0.6,0.3,0.9c0.1,0.3,0.1,0.6,0.1,0.9c0,0.3,0,0.6,0,1C115,38.9,115,39.3,115,39.6z M113.6,37.1c0-0.4-0.2-0.8-0.4-1
			c-0.4-0.4-0.9-0.6-1.5-0.6H110v6.5h1.6c0.6,0,1.1-0.2,1.5-0.6c0.2-0.3,0.4-0.6,0.4-1.1c0-0.5,0.1-1,0.1-1.6
			C113.7,38,113.6,37.5,113.6,37.1z"/>
		<path class="st25" d="M116.8,43.1v-8.9h5.7v1.2h-4.4V38h3.7v1.2h-3.7v2.7h4.4v1.2H116.8z"/>
		<path class="st25" d="M129.5,41.7c-0.2,0.3-0.4,0.6-0.7,0.8c-0.3,0.2-0.6,0.4-1,0.5c-0.4,0.1-0.8,0.2-1.3,0.2
			c-0.7,0-1.3-0.1-1.8-0.3c-0.5-0.2-1-0.5-1.4-0.9l0.9-0.9c0.3,0.3,0.7,0.6,1,0.7c0.4,0.1,0.8,0.2,1.2,0.2c0.6,0,1-0.1,1.4-0.4
			c0.3-0.2,0.5-0.6,0.5-1c0-0.4-0.1-0.7-0.4-0.9c-0.1-0.1-0.2-0.2-0.4-0.2c-0.1-0.1-0.3-0.1-0.6-0.1l-1.1-0.2
			c-0.7-0.1-1.3-0.3-1.7-0.7c-0.4-0.4-0.6-1-0.6-1.7c0-0.4,0.1-0.7,0.2-1.1c0.1-0.3,0.3-0.6,0.6-0.8c0.3-0.2,0.6-0.4,0.9-0.5
			c0.4-0.1,0.8-0.2,1.3-0.2c0.6,0,1.1,0.1,1.5,0.2c0.4,0.2,0.8,0.4,1.2,0.8l-0.9,0.9c-0.3-0.3-0.6-0.5-0.9-0.5
			c-0.3-0.1-0.7-0.1-1-0.1c-0.5,0-0.9,0.1-1.2,0.4c-0.3,0.3-0.4,0.6-0.4,1c0,0.2,0,0.3,0.1,0.5c0.1,0.1,0.1,0.3,0.3,0.4
			c0.2,0.2,0.6,0.3,1,0.4l1,0.1c0.4,0.1,0.8,0.2,1,0.3c0.3,0.1,0.5,0.2,0.7,0.4c0.2,0.2,0.4,0.5,0.5,0.8c0.1,0.3,0.2,0.7,0.2,1
			C129.8,41,129.7,41.4,129.5,41.7z"/>
		<path class="st25" d="M136.4,43.1v-3.9h-3.6v3.9h-1.4v-8.9h1.4V38h3.6v-3.8h1.4v8.9H136.4z"/>
	</g>
	<g>
		<path class="st26" d="M9.8,71.5c-0.1,0.3-0.3,0.5-0.5,0.7c-0.2,0.2-0.5,0.3-0.8,0.4c-0.3,0.1-0.7,0.1-1,0.1c-0.5,0-1-0.1-1.4-0.2
			c-0.4-0.1-0.8-0.4-1.1-0.7L5.7,71c0.3,0.3,0.5,0.4,0.8,0.5c0.3,0.1,0.6,0.1,1,0.1c0.5,0,0.8-0.1,1.1-0.3C8.8,71.2,9,71,9,70.6
			c0-0.3-0.1-0.6-0.3-0.7c-0.1-0.1-0.2-0.1-0.3-0.2c-0.1,0-0.3-0.1-0.5-0.1l-0.8-0.1c-0.6-0.1-1-0.3-1.3-0.6
			c-0.4-0.3-0.5-0.8-0.5-1.4c0-0.3,0.1-0.6,0.2-0.8c0.1-0.3,0.3-0.5,0.5-0.7c0.2-0.2,0.4-0.3,0.7-0.4c0.3-0.1,0.6-0.1,1-0.1
			c0.5,0,0.9,0.1,1.2,0.2c0.3,0.1,0.7,0.3,1,0.6l-0.7,0.7c-0.2-0.2-0.5-0.4-0.7-0.4c-0.3-0.1-0.5-0.1-0.8-0.1c-0.4,0-0.7,0.1-1,0.3
			c-0.2,0.2-0.3,0.5-0.3,0.8c0,0.1,0,0.3,0.1,0.4c0,0.1,0.1,0.2,0.2,0.3c0.2,0.2,0.5,0.3,0.8,0.3l0.8,0.1c0.3,0.1,0.6,0.1,0.8,0.2
			c0.2,0.1,0.4,0.2,0.5,0.3c0.2,0.2,0.3,0.4,0.4,0.6C10,70,10,70.3,10,70.6C10,70.9,10,71.2,9.8,71.5z"/>
		<path class="st26" d="M14.3,72.6l-1.4-2.3l-0.8,0.9v1.5h-1v-7.1h1v4.4l2-2.3h1.2l-1.8,2l2,3.1H14.3z"/>
		<path class="st26" d="M16.3,66.5v-1.1h1.1v1.1H16.3z M16.4,72.6v-5.1h1v5.1H16.4z"/>
		<path class="st26" d="M20.1,72.6c-0.2,0-0.4,0-0.6-0.1c-0.2-0.1-0.3-0.2-0.4-0.3c-0.1-0.1-0.2-0.3-0.3-0.4
			c-0.1-0.2-0.1-0.4-0.1-0.5v-5.7h1v5.7c0,0.2,0,0.3,0.1,0.4c0.1,0.1,0.2,0.1,0.4,0.1h0.5v0.9H20.1z"/>
		<path class="st26" d="M23,72.6c-0.2,0-0.4,0-0.6-0.1c-0.2-0.1-0.3-0.2-0.4-0.3c-0.1-0.1-0.2-0.3-0.3-0.4c-0.1-0.2-0.1-0.4-0.1-0.5
			v-5.7h1v5.7c0,0.2,0,0.3,0.1,0.4c0.1,0.1,0.2,0.1,0.4,0.1h0.5v0.9H23z"/>
		<path class="st26" d="M25,70.4c0,0.4,0.1,0.8,0.3,1c0.2,0.3,0.5,0.4,1,0.4c0.3,0,0.5,0,0.7-0.1c0.2-0.1,0.4-0.2,0.5-0.4l0.7,0.6
			c-0.1,0.1-0.3,0.2-0.4,0.3c-0.1,0.1-0.3,0.2-0.4,0.2c-0.1,0.1-0.3,0.1-0.5,0.2c-0.2,0-0.4,0.1-0.6,0.1c-0.3,0-0.6,0-0.9-0.1
			c-0.3-0.1-0.5-0.2-0.7-0.4c-0.2-0.2-0.4-0.5-0.5-0.8C24.1,71,24,70.6,24,70.1c0-0.8,0.2-1.5,0.6-1.9c0.4-0.4,0.9-0.7,1.6-0.7
			c0.3,0,0.6,0.1,0.9,0.2c0.3,0.1,0.5,0.3,0.7,0.5c0.2,0.2,0.3,0.5,0.4,0.8c0.1,0.3,0.1,0.6,0.1,1v0.5H25z M27.3,69.3
			c0-0.1-0.1-0.2-0.1-0.3c-0.1-0.2-0.2-0.3-0.4-0.5c-0.2-0.1-0.4-0.2-0.6-0.2c-0.2,0-0.4,0.1-0.6,0.2c-0.2,0.1-0.3,0.3-0.4,0.5
			c0,0.1-0.1,0.2-0.1,0.3c0,0.1,0,0.2,0,0.4h2.3C27.3,69.5,27.3,69.4,27.3,69.3z"/>
		<path class="st26" d="M32.3,72.6v-0.5c-0.2,0.2-0.4,0.4-0.6,0.5c-0.2,0.1-0.5,0.1-0.7,0.1c-0.3,0-0.5,0-0.7-0.1
			c-0.2-0.1-0.4-0.2-0.5-0.3c-0.1-0.1-0.2-0.3-0.3-0.4c-0.1-0.2-0.1-0.3-0.2-0.5c0-0.2-0.1-0.4-0.1-0.6c0-0.2,0-0.4,0-0.6
			c0-0.2,0-0.4,0-0.6c0-0.2,0-0.4,0.1-0.6c0-0.2,0.1-0.4,0.2-0.5c0.1-0.2,0.2-0.3,0.3-0.4c0.1-0.1,0.3-0.2,0.5-0.3
			c0.2-0.1,0.4-0.1,0.7-0.1c0.3,0,0.5,0,0.7,0.1c0.2,0.1,0.4,0.2,0.6,0.4v-2.6h1v7.1H32.3z M32.3,69.4c0-0.2-0.1-0.4-0.1-0.5
			c-0.1-0.2-0.2-0.3-0.3-0.4c-0.1-0.1-0.3-0.1-0.5-0.1c-0.2,0-0.4,0-0.6,0.1c-0.1,0.1-0.2,0.2-0.3,0.4c-0.1,0.2-0.1,0.3-0.2,0.5
			c0,0.2,0,0.4,0,0.6c0,0.2,0,0.4,0,0.6c0,0.2,0.1,0.4,0.2,0.5c0.1,0.2,0.2,0.3,0.3,0.4c0.1,0.1,0.3,0.1,0.6,0.1
			c0.2,0,0.4,0,0.5-0.1c0.1-0.1,0.2-0.2,0.3-0.4c0.1-0.2,0.1-0.3,0.1-0.5c0-0.2,0-0.4,0-0.6C32.3,69.8,32.3,69.6,32.3,69.4z"/>
		<path class="st26" d="M34.7,72.6v-1.2h1.2v1.2H34.7z"/>
		<path class="st26" d="M39.6,72.6v-7.1h4.6v1h-3.5v2.1h3v1h-3v2.1h3.5v1H39.6z"/>
		<path class="st26" d="M48.1,74.7v-2.6c-0.2,0.2-0.4,0.4-0.6,0.5c-0.2,0.1-0.5,0.1-0.7,0.1c-0.3,0-0.5,0-0.7-0.1
			c-0.2-0.1-0.4-0.2-0.5-0.3c-0.1-0.1-0.2-0.3-0.3-0.4c-0.1-0.2-0.1-0.3-0.2-0.5c0-0.2-0.1-0.4-0.1-0.6c0-0.2,0-0.4,0-0.6
			c0-0.2,0-0.4,0-0.6c0-0.2,0-0.4,0.1-0.6c0-0.2,0.1-0.4,0.2-0.5c0.1-0.2,0.2-0.3,0.3-0.4c0.1-0.1,0.3-0.2,0.5-0.3
			c0.2-0.1,0.5-0.1,0.7-0.1c0.3,0,0.5,0,0.7,0.1c0.2,0.1,0.4,0.2,0.6,0.5v-0.5h1v7.1H48.1z M48.1,69.4c0-0.2-0.1-0.4-0.1-0.5
			c-0.1-0.2-0.2-0.3-0.3-0.4c-0.1-0.1-0.3-0.1-0.6-0.1c-0.2,0-0.4,0-0.6,0.1c-0.1,0.1-0.2,0.2-0.3,0.4c-0.1,0.2-0.1,0.3-0.1,0.5
			c0,0.2,0,0.4,0,0.6c0,0.2,0,0.4,0,0.6c0,0.2,0.1,0.4,0.1,0.5c0.1,0.2,0.2,0.3,0.3,0.4c0.1,0.1,0.3,0.1,0.6,0.1
			c0.2,0,0.4,0,0.6-0.1c0.1-0.1,0.2-0.2,0.3-0.4c0.1-0.2,0.1-0.3,0.1-0.5c0-0.2,0-0.4,0-0.6C48.1,69.8,48.1,69.6,48.1,69.4z"/>
		<path class="st26" d="M53.6,72.6v-0.5c-0.2,0.2-0.4,0.3-0.6,0.4c-0.2,0.1-0.5,0.1-0.7,0.1c-0.3,0-0.5,0-0.7-0.1
			c-0.2-0.1-0.4-0.2-0.5-0.3c-0.2-0.2-0.3-0.4-0.4-0.6c-0.1-0.2-0.1-0.5-0.1-0.8v-3.2h1v3.1c0,0.4,0.1,0.7,0.3,0.9
			c0.2,0.2,0.4,0.3,0.7,0.3c0.1,0,0.3,0,0.4-0.1c0.1,0,0.2-0.1,0.3-0.2c0.1-0.1,0.2-0.2,0.2-0.4c0.1-0.1,0.1-0.3,0.1-0.5v-3.1h1v5.1
			H53.6z"/>
		<path class="st26" d="M56,66.5v-1.1H57v1.1H56z M56,72.6v-5.1h1v5.1H56z"/>
		<path class="st26" d="M62.5,70.7c0,0.2,0,0.4-0.1,0.6c0,0.2-0.1,0.4-0.2,0.5c-0.1,0.2-0.2,0.3-0.3,0.4c-0.1,0.1-0.3,0.2-0.5,0.3
			c-0.2,0.1-0.4,0.1-0.7,0.1c-0.3,0-0.5,0-0.7-0.1c-0.2-0.1-0.4-0.2-0.6-0.5v2.6h-1v-7.1h1v0.5c0.2-0.2,0.4-0.4,0.6-0.5
			c0.2-0.1,0.5-0.1,0.7-0.1c0.3,0,0.5,0,0.7,0.1c0.2,0.1,0.4,0.2,0.5,0.3c0.1,0.1,0.2,0.3,0.3,0.4c0.1,0.2,0.1,0.3,0.2,0.5
			c0,0.2,0.1,0.4,0.1,0.6c0,0.2,0,0.4,0,0.6C62.6,70.3,62.6,70.5,62.5,70.7z M61.5,69.4c0-0.2-0.1-0.4-0.1-0.5
			c-0.1-0.2-0.2-0.3-0.3-0.4c-0.1-0.1-0.3-0.1-0.6-0.1c-0.2,0-0.4,0-0.6,0.1c-0.1,0.1-0.2,0.2-0.3,0.4c-0.1,0.2-0.1,0.3-0.1,0.5
			c0,0.2,0,0.4,0,0.6c0,0.2,0,0.4,0,0.6c0,0.2,0.1,0.4,0.1,0.5c0.1,0.2,0.2,0.3,0.3,0.4c0.1,0.1,0.3,0.1,0.6,0.1
			c0.2,0,0.4,0,0.6-0.1c0.1-0.1,0.2-0.2,0.3-0.4c0.1-0.2,0.1-0.3,0.1-0.5c0-0.2,0-0.4,0-0.6C61.5,69.8,61.5,69.6,61.5,69.4z"/>
		<path class="st26" d="M67.8,70.7c0,0.2,0,0.4-0.1,0.6c0,0.2-0.1,0.4-0.2,0.5c-0.1,0.2-0.2,0.3-0.3,0.4c-0.1,0.1-0.3,0.2-0.5,0.3
			c-0.2,0.1-0.4,0.1-0.7,0.1c-0.3,0-0.5,0-0.7-0.1c-0.2-0.1-0.4-0.2-0.6-0.5v2.6h-1v-7.1h1v0.5c0.2-0.2,0.4-0.4,0.6-0.5
			c0.2-0.1,0.5-0.1,0.7-0.1c0.3,0,0.5,0,0.7,0.1c0.2,0.1,0.4,0.2,0.5,0.3c0.1,0.1,0.2,0.3,0.3,0.4c0.1,0.2,0.1,0.3,0.2,0.5
			c0,0.2,0.1,0.4,0.1,0.6c0,0.2,0,0.4,0,0.6C67.9,70.3,67.9,70.5,67.8,70.7z M66.8,69.4c0-0.2-0.1-0.4-0.1-0.5
			c-0.1-0.2-0.2-0.3-0.3-0.4c-0.1-0.1-0.3-0.1-0.6-0.1c-0.2,0-0.4,0-0.6,0.1c-0.1,0.1-0.2,0.2-0.3,0.4c-0.1,0.2-0.1,0.3-0.1,0.5
			c0,0.2,0,0.4,0,0.6c0,0.2,0,0.4,0,0.6c0,0.2,0.1,0.4,0.1,0.5c0.1,0.2,0.2,0.3,0.3,0.4c0.1,0.1,0.3,0.1,0.6,0.1
			c0.2,0,0.4,0,0.6-0.1c0.1-0.1,0.2-0.2,0.3-0.4c0.1-0.2,0.1-0.3,0.1-0.5c0-0.2,0-0.4,0-0.6C66.8,69.8,66.8,69.6,66.8,69.4z"/>
		<path class="st26" d="M69.8,70.4c0,0.4,0.1,0.8,0.3,1c0.2,0.3,0.5,0.4,1,0.4c0.3,0,0.5,0,0.7-0.1c0.2-0.1,0.4-0.2,0.5-0.4l0.6,0.6
			c-0.1,0.1-0.3,0.2-0.4,0.3c-0.1,0.1-0.3,0.2-0.4,0.2c-0.1,0.1-0.3,0.1-0.5,0.2c-0.2,0-0.4,0.1-0.6,0.1c-0.3,0-0.6,0-0.9-0.1
			c-0.3-0.1-0.5-0.2-0.7-0.4c-0.2-0.2-0.4-0.5-0.5-0.8c-0.1-0.3-0.2-0.7-0.2-1.2c0-0.8,0.2-1.5,0.6-1.9c0.4-0.4,0.9-0.7,1.6-0.7
			c0.3,0,0.6,0.1,0.9,0.2c0.3,0.1,0.5,0.3,0.7,0.5c0.2,0.2,0.3,0.5,0.4,0.8c0.1,0.3,0.1,0.6,0.1,1v0.5H69.8z M72,69.3
			c0-0.1-0.1-0.2-0.1-0.3c-0.1-0.2-0.2-0.3-0.4-0.5c-0.2-0.1-0.4-0.2-0.6-0.2c-0.2,0-0.4,0.1-0.6,0.2c-0.2,0.1-0.3,0.3-0.4,0.5
			c-0.1,0.1-0.1,0.2-0.1,0.3c0,0.1,0,0.2,0,0.4H72C72,69.5,72,69.4,72,69.3z"/>
		<path class="st26" d="M77.1,72.6v-0.5c-0.2,0.2-0.4,0.4-0.6,0.5c-0.2,0.1-0.5,0.1-0.7,0.1c-0.2,0-0.5,0-0.7-0.1
			c-0.2-0.1-0.4-0.2-0.5-0.3c-0.1-0.1-0.2-0.3-0.3-0.4c-0.1-0.2-0.1-0.3-0.2-0.5c0-0.2-0.1-0.4-0.1-0.6c0-0.2,0-0.4,0-0.6
			c0-0.2,0-0.4,0-0.6c0-0.2,0-0.4,0.1-0.6c0-0.2,0.1-0.4,0.2-0.5c0.1-0.2,0.2-0.3,0.3-0.4c0.1-0.1,0.3-0.2,0.5-0.3
			c0.2-0.1,0.4-0.1,0.7-0.1c0.3,0,0.5,0,0.7,0.1c0.2,0.1,0.4,0.2,0.6,0.4v-2.6h1v7.1H77.1z M77,69.4c0-0.2-0.1-0.4-0.1-0.5
			c-0.1-0.2-0.2-0.3-0.3-0.4c-0.1-0.1-0.3-0.1-0.6-0.1c-0.2,0-0.4,0-0.5,0.1c-0.1,0.1-0.2,0.2-0.3,0.4C75,69,75,69.2,75,69.4
			c0,0.2,0,0.4,0,0.6c0,0.2,0,0.4,0,0.6c0,0.2,0.1,0.4,0.2,0.5c0.1,0.2,0.2,0.3,0.3,0.4c0.1,0.1,0.3,0.1,0.5,0.1
			c0.2,0,0.4,0,0.6-0.1c0.1-0.1,0.2-0.2,0.3-0.4c0.1-0.2,0.1-0.3,0.1-0.5c0-0.2,0-0.4,0-0.6C77.1,69.8,77,69.6,77,69.4z"/>
		<path class="st26" d="M79.4,72.6v-1.2h1.2v1.2H79.4z"/>
		<path class="st26" d="M89.4,69.8c0,0.3,0,0.5-0.1,0.8c0,0.3-0.1,0.5-0.2,0.7c-0.1,0.2-0.2,0.5-0.4,0.6c-0.2,0.2-0.5,0.4-0.8,0.5
			c-0.3,0.1-0.7,0.2-1,0.2h-2.5v-7.1h2.5c0.4,0,0.7,0.1,1,0.2c0.3,0.1,0.6,0.3,0.8,0.5c0.2,0.2,0.3,0.4,0.4,0.6
			c0.1,0.2,0.2,0.5,0.2,0.7c0,0.2,0.1,0.5,0.1,0.7c0,0.3,0,0.5,0,0.8C89.4,69.3,89.4,69.5,89.4,69.8z M88.2,67.8
			c0-0.3-0.1-0.6-0.3-0.8c-0.3-0.3-0.7-0.5-1.2-0.5h-1.3v5.2h1.3c0.5,0,0.9-0.2,1.2-0.5c0.2-0.2,0.3-0.5,0.3-0.9
			c0-0.4,0.1-0.8,0.1-1.3C88.3,68.5,88.3,68.1,88.2,67.8z"/>
		<path class="st26" d="M90.6,66.5v-1.1h1.1v1.1H90.6z M90.6,72.6v-5.1h1v5.1H90.6z"/>
		<path class="st26" d="M96.7,73.4c-0.1,0.3-0.2,0.5-0.4,0.7c-0.2,0.2-0.4,0.3-0.7,0.4c-0.3,0.1-0.6,0.2-0.9,0.2
			c-0.4,0-0.7-0.1-1-0.1c-0.3-0.1-0.5-0.3-0.8-0.5l0.7-0.6c0.2,0.2,0.3,0.3,0.5,0.3c0.2,0.1,0.4,0.1,0.6,0.1c0.2,0,0.4,0,0.5-0.1
			c0.2-0.1,0.3-0.2,0.4-0.3c0.1-0.1,0.2-0.3,0.2-0.4c0-0.2,0.1-0.3,0.1-0.5v-0.7c-0.2,0.2-0.4,0.4-0.6,0.5c-0.2,0.1-0.4,0.1-0.7,0.1
			c-0.3,0-0.5,0-0.7-0.1c-0.2-0.1-0.4-0.2-0.5-0.3c-0.3-0.3-0.4-0.5-0.5-0.9c-0.1-0.3-0.1-0.7-0.1-1.2c0-0.4,0-0.8,0.1-1.2
			c0.1-0.3,0.2-0.6,0.5-0.9c0.3-0.3,0.7-0.4,1.2-0.4c0.3,0,0.5,0,0.7,0.1c0.2,0.1,0.4,0.2,0.6,0.5v-0.5h1v5
			C96.9,72.9,96.8,73.2,96.7,73.4z M95.8,69.4c0-0.2-0.1-0.4-0.1-0.5c-0.1-0.2-0.2-0.3-0.3-0.4c-0.1-0.1-0.3-0.1-0.6-0.1
			c-0.2,0-0.4,0-0.6,0.1c-0.1,0.1-0.2,0.2-0.3,0.4c-0.1,0.2-0.1,0.3-0.1,0.5c0,0.2,0,0.4,0,0.6c0,0.2,0,0.4,0,0.6
			c0,0.2,0.1,0.4,0.1,0.5c0.1,0.2,0.2,0.3,0.3,0.4c0.1,0.1,0.3,0.1,0.6,0.1c0.2,0,0.4,0,0.6-0.1c0.1-0.1,0.2-0.2,0.3-0.4
			c0.1-0.1,0.1-0.3,0.1-0.5c0-0.2,0-0.4,0-0.6C95.9,69.8,95.8,69.6,95.8,69.4z"/>
		<path class="st26" d="M98.2,66.5v-1.1h1.1v1.1H98.2z M98.3,72.6v-5.1h1v5.1H98.3z"/>
		<path class="st26" d="M102.2,72.6c-0.2,0-0.4,0-0.6-0.1c-0.2-0.1-0.3-0.2-0.4-0.3c-0.1-0.1-0.2-0.3-0.3-0.5c0-0.2-0.1-0.3-0.1-0.5
			v-2.8h-0.6v-0.8h0.6v-1.5h1v1.5h1v0.8h-1v2.7c0,0.2,0,0.3,0.1,0.4c0.1,0.1,0.2,0.1,0.4,0.1h0.4v0.9H102.2z"/>
		<path class="st26" d="M106.5,72.6v-0.5c-0.2,0.2-0.4,0.3-0.6,0.4c-0.2,0.1-0.5,0.1-0.8,0.1c-0.3,0-0.6,0-0.8-0.1
			c-0.2-0.1-0.4-0.2-0.6-0.3c-0.3-0.3-0.4-0.6-0.4-1.1c0-0.4,0.1-0.8,0.4-1.1c0.3-0.3,0.7-0.4,1.3-0.4h1.3v-0.4
			c0-0.3-0.1-0.6-0.3-0.7c-0.2-0.2-0.5-0.2-0.9-0.2c-0.3,0-0.5,0-0.7,0.1c-0.2,0.1-0.3,0.2-0.5,0.4l-0.7-0.6
			c0.2-0.3,0.5-0.5,0.8-0.6c0.3-0.1,0.6-0.2,1-0.2c1.4,0,2.1,0.6,2.1,1.7v3.4H106.5z M106.5,70.4h-1.2c-0.3,0-0.5,0.1-0.7,0.2
			c-0.2,0.1-0.2,0.3-0.2,0.5c0,0.2,0.1,0.4,0.2,0.5c0.1,0.1,0.4,0.2,0.7,0.2c0.2,0,0.4,0,0.5,0c0.2,0,0.3-0.1,0.4-0.2
			c0.1-0.2,0.2-0.4,0.2-0.8V70.4z"/>
		<path class="st26" d="M110.2,72.6c-0.2,0-0.5,0-0.6-0.1c-0.2-0.1-0.3-0.2-0.4-0.3c-0.1-0.1-0.2-0.3-0.2-0.4
			c-0.1-0.2-0.1-0.4-0.1-0.5v-5.7h1v5.7c0,0.2,0,0.3,0.1,0.4c0.1,0.1,0.2,0.1,0.4,0.1h0.4v0.9H110.2z"/>
		<path class="st26" d="M115.8,72.6l-1.5-3H113v3h-1.1v-7.1h2.8c0.3,0,0.6,0.1,0.9,0.2c0.3,0.1,0.5,0.2,0.7,0.4
			c0.2,0.2,0.3,0.4,0.4,0.7c0.1,0.3,0.2,0.5,0.2,0.8c0,0.5-0.1,0.9-0.4,1.2c-0.3,0.3-0.6,0.5-1,0.6l1.6,3.2H115.8z M115.4,66.7
			c-0.2-0.2-0.5-0.3-0.9-0.3H113v2.2h1.6c0.4,0,0.7-0.1,0.9-0.3c0.2-0.2,0.3-0.5,0.3-0.8C115.8,67.2,115.7,66.9,115.4,66.7z"/>
		<path class="st26" d="M118.8,70.4c0,0.4,0.1,0.8,0.3,1c0.2,0.3,0.5,0.4,1,0.4c0.3,0,0.5,0,0.7-0.1c0.2-0.1,0.4-0.2,0.5-0.4
			l0.7,0.6c-0.1,0.1-0.3,0.2-0.4,0.3c-0.1,0.1-0.3,0.2-0.4,0.2c-0.2,0.1-0.3,0.1-0.5,0.2c-0.2,0-0.4,0.1-0.6,0.1
			c-0.3,0-0.6,0-0.9-0.1c-0.3-0.1-0.5-0.2-0.7-0.4c-0.2-0.2-0.4-0.5-0.5-0.8c-0.1-0.3-0.2-0.7-0.2-1.2c0-0.8,0.2-1.5,0.6-1.9
			c0.4-0.4,0.9-0.7,1.6-0.7c0.3,0,0.6,0.1,0.9,0.2c0.3,0.1,0.5,0.3,0.7,0.5c0.2,0.2,0.3,0.5,0.4,0.8c0.1,0.3,0.1,0.6,0.1,1v0.5
			H118.8z M121.1,69.3c0-0.1,0-0.2-0.1-0.3c-0.1-0.2-0.2-0.3-0.4-0.5c-0.2-0.1-0.4-0.2-0.6-0.2c-0.2,0-0.4,0.1-0.6,0.2
			c-0.2,0.1-0.3,0.3-0.4,0.5c-0.1,0.1-0.1,0.2-0.1,0.3c0,0.1,0,0.2,0,0.4h2.3C121.1,69.5,121.1,69.4,121.1,69.3z"/>
		<path class="st26" d="M126,72.6v-0.5c-0.2,0.2-0.4,0.3-0.6,0.4c-0.2,0.1-0.5,0.1-0.8,0.1c-0.3,0-0.6,0-0.8-0.1
			c-0.2-0.1-0.4-0.2-0.6-0.3c-0.3-0.3-0.4-0.6-0.4-1.1c0-0.4,0.1-0.8,0.4-1.1c0.3-0.3,0.7-0.4,1.3-0.4h1.3v-0.4
			c0-0.3-0.1-0.6-0.3-0.7c-0.2-0.2-0.5-0.2-0.9-0.2c-0.3,0-0.5,0-0.7,0.1c-0.2,0.1-0.3,0.2-0.4,0.4l-0.7-0.6
			c0.2-0.3,0.5-0.5,0.8-0.6c0.3-0.1,0.6-0.2,1-0.2c1.4,0,2.1,0.6,2.1,1.7v3.4H126z M125.9,70.4h-1.2c-0.3,0-0.5,0.1-0.7,0.2
			c-0.2,0.1-0.2,0.3-0.2,0.5c0,0.2,0.1,0.4,0.2,0.5c0.2,0.1,0.4,0.2,0.7,0.2c0.2,0,0.4,0,0.5,0c0.1,0,0.3-0.1,0.4-0.2
			c0.2-0.2,0.2-0.4,0.2-0.8V70.4z"/>
		<path class="st26" d="M131.2,72.6v-0.5c-0.2,0.2-0.4,0.4-0.6,0.5c-0.2,0.1-0.5,0.1-0.7,0.1c-0.3,0-0.5,0-0.7-0.1
			c-0.2-0.1-0.4-0.2-0.5-0.3c-0.1-0.1-0.2-0.3-0.3-0.4c-0.1-0.2-0.1-0.3-0.2-0.5c0-0.2-0.1-0.4-0.1-0.6c0-0.2,0-0.4,0-0.6
			c0-0.2,0-0.4,0-0.6c0-0.2,0-0.4,0.1-0.6c0-0.2,0.1-0.4,0.2-0.5c0.1-0.2,0.2-0.3,0.3-0.4c0.1-0.1,0.3-0.2,0.5-0.3
			c0.2-0.1,0.4-0.1,0.7-0.1c0.3,0,0.5,0,0.7,0.1c0.2,0.1,0.4,0.2,0.6,0.4v-2.6h1v7.1H131.2z M131.2,69.4c0-0.2-0.1-0.4-0.1-0.5
			c-0.1-0.2-0.2-0.3-0.3-0.4c-0.1-0.1-0.3-0.1-0.6-0.1c-0.2,0-0.4,0-0.6,0.1c-0.1,0.1-0.2,0.2-0.3,0.4c-0.1,0.2-0.1,0.3-0.1,0.5
			c0,0.2,0,0.4,0,0.6c0,0.2,0,0.4,0,0.6c0,0.2,0.1,0.4,0.1,0.5c0.1,0.2,0.2,0.3,0.3,0.4c0.1,0.1,0.3,0.1,0.6,0.1
			c0.2,0,0.4,0,0.6-0.1c0.1-0.1,0.2-0.2,0.3-0.4c0.1-0.2,0.1-0.3,0.1-0.5c0-0.2,0-0.4,0-0.6C131.2,69.8,131.2,69.6,131.2,69.4z"/>
		<path class="st26" d="M135.2,73.6c-0.1,0.3-0.2,0.5-0.4,0.6c-0.1,0.1-0.3,0.2-0.5,0.3c-0.2,0.1-0.4,0.1-0.6,0.1h-0.4v-0.9h0.3
			c0.2,0,0.4,0,0.5-0.1c0.1-0.1,0.2-0.2,0.3-0.4l0.3-0.8l-1.8-4.8h1.1l1.2,3.6l1.2-3.6h1.1L135.2,73.6z"/>
		<path class="st26" d="M137.4,72.6v-1.2h1.2v1.2H137.4z"/>
	</g>
	<g>
		<path class="st25" d="M62.2,27.4c0,0.3,0,0.7-0.1,1c0,0.3-0.1,0.6-0.3,0.9c-0.1,0.3-0.3,0.6-0.6,0.8c-0.3,0.3-0.6,0.5-1,0.6
			c-0.4,0.1-0.8,0.2-1.3,0.2h-3.1V22H59c0.5,0,0.9,0.1,1.3,0.2c0.4,0.1,0.7,0.4,1,0.6c0.2,0.2,0.4,0.5,0.6,0.8
			c0.1,0.3,0.2,0.6,0.3,0.9c0.1,0.3,0.1,0.6,0.1,0.9c0,0.3,0,0.6,0,1C62.2,26.7,62.2,27,62.2,27.4z M60.8,24.8c0-0.4-0.2-0.8-0.4-1
			c-0.4-0.4-0.9-0.6-1.5-0.6h-1.6v6.5h1.6c0.6,0,1.1-0.2,1.5-0.6c0.2-0.3,0.4-0.6,0.4-1.1c0-0.5,0.1-1,0.1-1.6
			C60.9,25.8,60.8,25.3,60.8,24.8z"/>
		<path class="st25" d="M64,30.9V22h1.4v8.9H64z"/>
		<path class="st25" d="M73.5,28.9c-0.1,0.4-0.3,0.7-0.6,1.1c-0.3,0.4-0.7,0.6-1.1,0.8c-0.4,0.2-0.9,0.2-1.3,0.2
			c-0.5,0-0.9-0.1-1.3-0.2c-0.4-0.2-0.7-0.4-1.1-0.7c-0.2-0.2-0.4-0.4-0.5-0.7c-0.1-0.2-0.2-0.5-0.3-0.8c-0.1-0.3-0.1-0.6-0.1-0.9
			c0-0.3,0-0.7,0-1.2c0-0.4,0-0.8,0-1.2c0-0.3,0-0.7,0.1-0.9c0.1-0.3,0.1-0.5,0.3-0.8c0.1-0.2,0.3-0.5,0.5-0.7
			c0.3-0.3,0.7-0.5,1-0.7c0.4-0.2,0.8-0.2,1.3-0.2c0.5,0,0.9,0.1,1.3,0.2c0.4,0.1,0.7,0.3,1,0.6c0.3,0.2,0.5,0.5,0.7,0.9
			c0.2,0.3,0.3,0.7,0.4,1.1h-1.4c-0.1-0.5-0.3-0.9-0.6-1.1c-0.3-0.3-0.7-0.4-1.2-0.4c-0.3,0-0.5,0-0.7,0.2c-0.2,0.1-0.4,0.2-0.6,0.4
			c-0.1,0.1-0.2,0.2-0.3,0.4c-0.1,0.1-0.1,0.3-0.2,0.5c0,0.2-0.1,0.5-0.1,0.8c0,0.3,0,0.7,0,1.1c0,0.5,0,0.8,0,1.1
			c0,0.3,0,0.6,0.1,0.8c0,0.2,0.1,0.4,0.2,0.5c0.1,0.1,0.2,0.3,0.3,0.4c0.2,0.2,0.4,0.3,0.6,0.4c0.2,0.1,0.5,0.1,0.7,0.1
			c0.3,0,0.6-0.1,0.8-0.2c0.2-0.1,0.5-0.3,0.6-0.5c0.2-0.2,0.3-0.4,0.4-0.6c0.1-0.2,0.1-0.5,0.1-0.8v-0.5h-1.9v-1.1h3.3v1.4
			C73.7,28,73.6,28.5,73.5,28.9z"/>
		<path class="st25" d="M75.5,30.9V22h1.4v8.9H75.5z"/>
		<path class="st25" d="M82,23.2v7.7h-1.4v-7.7h-2.5V22h6.3v1.2H82z"/>
		<path class="st25" d="M90.2,30.9l-0.6-1.8h-3.5l-0.6,1.8H84l3.3-8.9h1.1l3.3,8.9H90.2z M87.8,24l-1.4,4h2.7L87.8,24z"/>
		<path class="st25" d="M92.7,30.9V22h1.4v7.7h4.3v1.2H92.7z"/>
	</g>
</g>
<g>
	<path class="st27" d="M318.1,10.4c-0.2-1.2-0.5-2.4-1.1-3.5c-1-2.2-2.6-3.7-4.9-4.5c-0.9-0.3-1.7-0.5-2.7-0.6
		c-2.2-0.2-4.3,0.1-6.5,0.6c-3.2,0.8-6.2,2.2-9,3.9c-5.2,3-9.8,6.7-14.1,10.8c-0.1,0.1-0.2,0.2-0.3,0.3c0.1,0.4,0.3,0.6,0.7,0.7
		c0.2-0.2,0.5-0.4,0.7-0.6c1.2-1.1,2.5-2.2,3.7-3.3c1.3-1.1,2.6-2.1,3.9-3.1c0.7-0.5,1.4-1,2.1-1.5c0.7-0.5,1.4-1,2.1-1.4
		c0.3-0.2,0.6-0.3,0.9-0.5c0.2-0.1,0.3-0.2,0.5-0.2c0.1-0.1,0.3-0.1,0.5-0.2c-1.3,1-2.7,2-4,3.1c-1.3,1.1-2.6,2.2-3.9,3.4
		c-0.3,0.3-0.6,0.6-1,0.8c-0.2,0.1-0.3,0.3-0.5,0.4c-0.1,0.1-0.2,0.1-0.2,0.2c0,0-0.2,0.2-0.2,0.2c-0.2,0.2-0.5,0.3-0.5,0.7
		c0.3,0.3,0.5,0.8,1,0.9c1-0.8,1.9-1.7,2.9-2.5c1.3-1.1,2.6-2.2,3.9-3.2c1.3-1,2.6-2,3.9-3c1.3-1,2.7-1.9,4.1-2.7c0,0,0,0,0,0
		c0.4-0.2,0.8-0.5,1.2-0.6c0,0,0,0,0,0c0,0,0,0,0,0c0,0,0.1-0.1,0.1-0.1c0,0,0.1,0,0.1,0c0.1,0.1,0.1,0.1-0.1,0.1
		c-0.1,0-0.1,0-0.2,0c0,0,0,0,0,0c0,0,0,0,0,0c0,0.2-0.2,0.3-0.4,0.4c-1.4,0.9-2.7,1.8-4,2.8c-1.3,1-2.6,2-3.8,3
		c-0.7,0.6-1.3,1.1-2,1.7c-0.3,0.3-0.7,0.6-1,0.9c-0.3,0.2-0.6,0.5-0.8,0.8c-0.1,0.2-0.4,0.3-0.4,0.7c0.3,0.3,0.5,0.7,1,0.9
		c0.5-0.4,0.9-0.8,1.3-1.2c1.7-1.5,3.4-3,5.2-4.4c2.3-1.8,4.7-3.6,7.4-5c1.3-0.7,2.7-1.3,4.2-1.6c0.7-0.2,1.4-0.2,2.1-0.1
		c0.2,0,0.5,0,0.5,0.3c-2.3,0.2-3,0.3-4.8,1.2c-0.8,0.4-1.7,0.9-2.5,1.4c-2,1.2-3.9,2.7-5.8,4.1c-4.5,3.6-8.7,7.5-12.8,11.5
		c-0.1,0.1-0.2,0.2-0.2,0.5c0.4,0.4,0.7,1,1.3,1.3c0.3-0.2,0.5-0.5,0.7-0.7c3.2-3.1,6.4-6.1,9.8-9c2.5-2.1,5.1-4.2,7.9-5.9
		c0.9-0.6,1.9-1.1,2.9-1.6c2.1-1,4.4-1,6.6-0.6c0.2,0,0.4,0.2,0.6,0.3c0.1,0,0.1,0.2,0.2,0.3c-0.1,0.1-0.3,0.2-0.4,0.1
		c-2.1-0.3-4,0.1-5.9,0.8c-2.9,1.2-5.6,2.6-8,4.6c-2,1.6-3.9,3.3-5.7,5c-4.6,4.2-9,8.7-13.4,13.2c-0.2,0.2-0.5,0.4-0.6,0.7
		c0.1,0.3,0.3,0.5,0.5,0.8c0.2,0.2,0.4,0.5,0.8,0.6c0.3-0.3,0.6-0.6,0.9-0.9c3.8-3.9,7.5-7.7,11.5-11.4c2.4-2.2,4.7-4.4,7.3-6.5
		c2.3-1.8,4.9-3.2,7.6-4.3c1-0.4,2-0.7,3.1-0.8c1.5-0.1,2.8,0.3,3.8,1.5c0.2,0.2,0.3,0.4,0.4,0.5c-0.2,0-0.4-0.1-0.6-0.2
		c-1.2-0.7-2.5-0.8-3.8-0.6c-1.1,0.2-2.2,0.5-3.2,0.9c-2.2,0.9-4.2,2.2-6.2,3.5c-3.1,2.2-6,4.7-8.7,7.3c-0.1,0.1-0.3,0.3-0.3,0.5
		c0.4,0.6,1,1.2,1.5,1.7c0.5-0.3,0.8-0.7,1.2-1c2.8-2.6,5.7-5.1,8.9-7.3c1.5-1,3.1-2,4.9-2.6c0.8-0.3,1.6-0.5,2.4-0.6
		c1.6-0.2,2.5,0.4,3.1,1.9c0.3,0.7,0.4,1.5,0.4,2.2c0.1,1.7,0.1,3.3-0.1,5c-0.1,0.6-0.1,1.3-0.2,1.9c0.1-0.1,0.1-0.1,0.2-0.1
		c0.1-0.1,0.2-0.3,0.2-0.4C318.1,19.2,318.8,14.9,318.1,10.4z M314.7,7.2c0,0-0.1-0.1-0.1-0.1c0,0,0,0,0.1-0.1
		C314.7,7,314.7,7.1,314.7,7.2C314.7,7.2,314.7,7.2,314.7,7.2z M316.2,11C316.2,11,316.2,11,316.2,11L316.2,11L316.2,11z"/>
	<path class="st27" d="M346.1,24.1c-0.9,0.8-1.8,1.6-2.7,2.4c-3.2,2.8-6.5,5.4-10.1,7.6l-1.6,0.8l1.3-1c3-2.3,5.8-4.7,8.6-7.2
		c0.2-0.2,0.5-0.3,0.5-0.6c-0.5-0.7-0.5-0.7-1-1c-0.7,0.6-1.3,1.2-2,1.8c-2,1.6-3.8,3.3-5.8,4.8c-1.6,1.2-3.2,2.4-4.8,3.5
		c-1.2,0.8-2.4,1.6-3.7,2.1c0.3-0.1,0.5-0.3,0.7-0.5c0.3-0.2,0.5-0.3,0.8-0.5c0.5-0.3,1-0.7,1.5-1c1-0.7,2-1.4,2.9-2.2
		c2-1.5,3.9-3.1,5.7-4.9c0.1-0.1,1.1-1.2,1.1-1.2c-0.3-0.3-0.5-0.7-0.9-0.9c-1.8,1.5-3.5,3-5.3,4.5c-2.6,2.2-5.4,4.2-8.4,5.8
		c-1.2,0.6-2.4,1.2-3.7,1.6c-0.8,0.2-1.6,0.4-2.5,0.3c-0.3,0-0.6,0-0.7-0.4c2.1,0,3.9-0.8,5.7-1.8c1.7-0.9,3.3-2,4.9-3.2
		c5.4-4,10.3-8.6,15.1-13.2c0.1-0.1,0.2-0.2,0.3-0.4c-0.4-0.5-0.8-1-1.3-1.3c-0.4,0.1-0.6,0.4-0.9,0.7c-2.2,2-4.3,4.1-6.5,6.1
		c-2.6,2.4-5.4,4.7-8.2,6.8c-1.6,1.2-3.2,2.3-5,3.2c-1.8,1-3.6,1.3-5.6,1.1c-0.7,0-1.3-0.1-2-0.3c-0.4-0.1-0.8-0.3-1.1-0.7
		c0.2-0.2,0.5-0.1,0.7,0c1.1,0.3,2.2,0.2,3.3,0c0.9-0.1,1.7-0.4,2.5-0.7c3-1.2,5.7-2.7,8.2-4.7c1.8-1.4,3.5-2.9,5.2-4.5
		c4.9-4.5,9.6-9.3,14.3-14.1c0.1-0.1,0.2-0.2,0.2-0.5c-0.3-0.4-0.7-0.9-1.2-1.4c-0.3,0.3-0.7,0.6-1,0.9c-4.7,4.8-9.5,9.7-14.5,14.2
		c-1.7,1.5-3.4,3-5.2,4.3c-2.1,1.5-4.4,2.8-6.9,3.7c-1,0.4-2,0.6-3,0.7c-1.5,0.1-2.7-0.4-3.7-1.5c-0.1-0.1-0.2-0.3-0.2-0.5
		c1.7,1,3.4,1,5.3,0.5c0.7-0.2,1.4-0.4,2-0.7c1.5-0.6,3-1.4,4.4-2.3c3.8-2.5,7.3-5.4,10.6-8.6c0.1-0.1,0.2-0.2,0.3-0.4
		c-0.1-0.1-0.2-0.3-0.3-0.4c-0.4-0.5-0.8-0.9-1.2-1.4c-0.4,0.1-0.5,0.3-0.7,0.5c-1.6,1.5-3.1,2.9-4.8,4.3c-2.2,1.8-4.5,3.5-7,4.9
		c-1.1,0.6-2.2,1.2-3.5,1.5c-0.6,0.2-1.3,0.3-2,0.4c-1.1,0-2-0.4-2.5-1.5c-0.2-0.5-0.4-1-0.5-1.6c-0.3-1.7-0.3-3.5-0.1-5.2
		c0.1-0.9,0.2-1.8,0.3-3c-0.2,0.4-0.4,0.5-0.4,0.7c-2,4-2.8,8.2-2.1,12.7c0.2,1.5,0.6,2.9,1.3,4.2c1.1,2,2.7,3.4,4.8,4.1
		c1,0.3,2,0.5,3,0.6c2,0.1,3.9-0.1,5.9-0.6c3.1-0.8,6-2.1,8.8-3.7c5.3-3,10-6.8,14.4-11c0.1-0.1,0.2-0.2,0.3-0.3
		C346.7,24.5,346.5,24.2,346.1,24.1z"/>
	<path class="st28" d="M274.7,53.1c-1.5,0-3,0-4.5,0c-1.5,0-2.9,0-4.4,0c-1.5,0-3,0-4.6,0c-0.2,0.9-0.1,1.8-0.1,2.7
		c1.1,0.1,2.1,0,3.2,0c1.1,0,2.1,0,3.2,0s2.1,0,3.2,0c1.1,0,2.1,0,3.3,0c0.1,0.8,0.1,1.5,0,2.1c-0.4,0.3-0.7,0.2-1.1,0.2
		c-3.5,0-7,0-10.6,0c-0.4,0-0.8-0.1-1.2,0.1c-0.1,0.8-0.1,1.6,0,2.5c0.4,0.2,0.8,0.1,1.2,0.1c3.7,0,7.4,0,11.2,0c0.4,0,0.8,0,1.2,0
		c0.1,0.8,0,1.5,0.1,2.1c-0.1,0.1-0.1,0.1-0.2,0.2c0,0-0.1,0-0.1,0c-0.2,0-0.4,0-0.6,0c-5,0-10.1,0-15,0c-0.3-0.2-0.3-0.4-0.3-0.6
		c0-3.8,0-7.5,0-11.3c0-0.1,0-0.2,0.1-0.4c1.3-0.1,2.7,0,4-0.1c1.3,0,2.7,0,4,0c1.3,0,2.6,0,3.9,0c1.3,0,2.7,0,4.1,0
		C274.8,51.7,274.8,52.3,274.7,53.1z"/>
	<path class="st28" d="M321,59c0,0.8,0,1.5,0,2.1c0,0.7,0.1,1.3-0.1,2.1c-0.8,0-1.5,0.1-2.3,0c0-0.2-0.1-0.3-0.1-0.5
		c-0.1-2.5,0-10.8,0.1-11.7c0.2-0.2,0.5-0.1,0.8-0.1c4.9,0,9.7,0,14.6,0c0.3,0,0.6,0,0.9,0c0.8,0.1,1.4,0.7,1.5,1.5
		c0,0.2,0,0.4,0,0.6c0,1.3,0,2.6,0,3.9c0,0.4,0,0.7-0.2,1c-0.3,0.6-0.9,1-1.6,1c-0.3,0-0.6,0-0.8,0c-3.8,0-7.7,0-11.5,0
		C321.9,59,321.6,59,321,59z M321,56.6c1.5,0,3,0,4.4,0c1.5,0,2.9,0,4.4,0c1.4,0,2.8,0.1,4.3-0.1c0-0.6,0-1.2,0-1.7
		c0-0.5,0.1-1.1-0.1-1.6c-0.2,0-0.3-0.1-0.4-0.1c-4.1,0-8.2,0-12.3,0c0,0-0.1,0-0.1,0c0,0-0.1,0-0.1,0.1c0,0.2,0,0.4,0,0.5
		C321,54.7,321,55.6,321,56.6z"/>
	<path class="st28" d="M293.7,50.9c0,0.8,0,1.4,0,2.1c-0.3,0.3-0.6,0.2-0.9,0.2c-4.1,0-8.1,0-12.2,0c-0.4,0-0.9,0-1.3,0
		c-0.2,0.9-0.2,6.1-0.1,7.7c0.8,0.1,1.5,0,2.3,0c0.8,0,1.7,0,2.5,0c0.8,0,1.6,0,2.4,0s1.6,0,2.4,0c0.8,0,1.7,0,2.5,0
		c0.8,0,1.6,0,2.4,0c0.2,0.4,0.1,0.8,0.1,1.1c0,0.4,0,0.7,0,1c-0.2,0.3-0.5,0.3-0.7,0.3c-4.7,0-9.3,0-14,0c-0.2,0-0.5,0-0.7,0
		c-0.9-0.1-1.5-0.7-1.6-1.6c0-0.3,0-0.6,0-0.8c0-2.5,0-4.9,0-7.4c0-0.4,0-0.7,0.1-1.1c0.2-0.8,0.8-1.3,1.6-1.4c0.2,0,0.5,0,0.7,0
		c4.7,0,9.4,0,14.1,0C293.3,50.9,293.4,50.9,293.7,50.9z"/>
	<path class="st28" d="M356.1,63.2c-1,0-1.9,0-2.9,0c-0.7-1-1.4-2-2.1-2.9c-3.1,0-6.2,0-9.3,0c-0.7,1-1.4,2-2.1,3
		c-0.5,0-0.9,0-1.4,0c-0.5,0-0.9,0.1-1.4-0.1c0-0.1,0-0.2,0-0.3c2.8-4,5.6-8,8.4-11.9c0.8,0,1.5,0,2.2,0
		C348.4,51.9,355.5,62.2,356.1,63.2z M346.5,53.7c-0.2,0.2-0.3,0.2-0.3,0.3c-0.8,1.1-1.6,2.3-2.4,3.4c-0.1,0.1-0.2,0.3-0.1,0.4
		c3,0.1,4.7,0.1,5.6-0.2C348.4,56.3,347.5,55,346.5,53.7z"/>
	<path class="st28" d="M308.2,63.1c-0.1-1.6,0-3.2,0-4.7c-0.1-0.3-0.3-0.3-0.5-0.3c-3,0-6.1,0-9.1,0c-0.1,0-0.2,0-0.4,0.1
		c-0.2,0.8-0.1,1.6-0.1,2.5c0,0.8,0,1.6,0,2.4c-0.8,0.2-1.6,0.1-2.4,0c-0.1-0.2-0.1-0.3-0.1-0.4c0-3.9,0-7.8,0-11.8
		c0.8-0.2,1.6-0.1,2.4-0.1c0.2,0.6,0.1,1.1,0.1,1.7c0,0.5,0,1,0,1.5c0,0.5,0,1.1,0,1.5c0.1,0.1,0.1,0.2,0.1,0.2c0,0,0.1,0,0.1,0
		c3.1,0,6.2,0,9.2,0c0.2,0,0.3,0,0.5-0.1c0.2-0.8,0.1-1.7,0.1-2.5c0-0.8,0-1.6,0-2.4c0.9-0.2,1.6-0.1,2.4-0.1
		c0.1,0.1,0.1,0.1,0.1,0.1c0,0,0,0.1,0,0.1c0,3.6,0,7.3,0,10.9c0,0.3,0,0.6,0,1C309.9,63.3,309.1,63.2,308.2,63.1z"/>
	<path class="st28" d="M385.8,63.1c-0.7,0.1-1.5,0.1-2.3-0.1c0-1.6,0-3.2,0-4.6c-0.1-0.1-0.1-0.2-0.1-0.2c0,0-0.1,0-0.1,0
		c-3.1,0-6.2,0-9.3,0c-0.2,0-0.3,0-0.5,0.1c-0.2,1.6,0,3.2-0.1,4.8c-0.4,0.2-0.8,0.1-1.2,0.1c-0.4,0-0.7,0-0.9,0
		c-0.3-0.2-0.3-0.5-0.3-0.7c0-3.6,0-7.3,0-10.9c0-0.2,0-0.4,0-0.6c0.8-0.2,1.5,0,2.2-0.1c0.3,0.2,0.2,0.5,0.2,0.7c0,1.1,0,2.3,0,3.4
		c0,0.3-0.1,0.6,0.1,0.8c0.9,0.1,8.2,0.2,9.8,0.1c0,0,0.1,0,0.1-0.1c0,0,0-0.1,0-0.1c0-1.5,0-3.1,0-4.7c0.8-0.2,1.6-0.1,2.3-0.1
		c0.1,0.1,0.1,0.1,0.1,0.1c0,0,0,0.1,0,0.1c0,3.9,0,7.8,0,11.7C385.9,62.9,385.8,63,385.8,63.1z"/>
	<path class="st28" d="M362,63.2c-0.6,0-1.1,0-1.6,0c-0.3,0-0.5,0-0.8,0c-0.3-0.3-0.2-0.6-0.2-0.8c0-2.7,0-5.3,0-8
		c0-0.4,0.1-0.8-0.2-1.2c-2.2,0-4.4,0-6.6,0c-0.2-0.4-0.1-0.7-0.1-1.1c0-0.4,0-0.7,0-1c0.2-0.3,0.5-0.2,0.7-0.2c4.9,0,9.9,0,14.8,0
		c0.2,0,0.5,0,0.7,0.1c0.1,0.7,0.1,1.4,0,2.2c-0.8,0.2-1.5,0.1-2.3,0.1c-0.8,0-1.5,0-2.3,0c-0.7,0-1.5,0-2.3,0
		c-0.2,0.9-0.1,1.7-0.1,2.5c0,0.8,0,1.7,0,2.5c0,0.8,0,1.6,0,2.4C362,61.4,362,62.2,362,63.2z"/>
	<path class="st28" d="M247.3,63.1c-0.1-0.8,0-1.6,0-2.4c0-0.8,0-1.7,0-2.5c0-0.8,0-1.6,0-2.4c0-0.8,0-1.7,0-2.6
		c-0.8-0.1-1.5-0.1-2.3-0.1c-0.8,0-1.5,0-2.3,0c-0.7,0-1.5,0-2.3,0c-0.2-0.8,0-1.5-0.1-2.1c0.1-0.1,0.1-0.1,0.2-0.1c0,0,0.1,0,0.1,0
		c4.9,0,9.9,0,14.8,0c0.3,0,0.6,0,0.9,0c0.1,0,0.1,0.1,0.3,0.1c0.1,0.7,0.1,1.4,0,2.1c-1.2,0.1-2.3,0-3.5,0.1c-1.1,0-2.2,0-3.2,0
		c-0.3,0.4-0.2,0.8-0.2,1.1c0,2.5,0,5.1,0,7.6c0,0.4,0,0.8,0,1.1C249,63.2,248.5,63.3,247.3,63.1z"/>
	<path class="st27" d="M346.3,70.4c0.4,0,0.8,0,1.2,0c12.4,0,24.8,0,37.2,0c0.3,0,0.6,0,0.9,0c0.2,0,0.3,0.1,0.3,0.3
		c0,0.2-0.1,0.3-0.4,0.4c-0.2,0-0.5,0-0.7,0c-12.5,0-25.1,0-37.6,0c-0.3,0-0.6,0-0.8,0C346.1,71,346.1,70.8,346.3,70.4z"/>
	<path class="st27" d="M240.5,70.4c0.4,0,0.8,0,1.2,0c12.4,0,24.8,0,37.1,0c0.3,0,0.6,0,0.8,0c0.2,0,0.4,0,0.4,0.3
		c0,0.2-0.2,0.3-0.5,0.4c-0.2,0-0.3,0-0.5,0c-12.6,0-25.2,0-37.7,0c-0.3,0-0.6,0-0.8,0C240.4,71,240.4,70.8,240.5,70.4z"/>
	<path class="st27" d="M305.2,73.4c-0.4,0.1-0.5,0.2-0.8,0c-0.1-1,0-2.2-0.1-3.4c-0.4,0.2-0.5,0.5-0.7,0.8c-0.2,0.2-0.3,0.5-0.4,0.7
		c-0.2,0.3-0.3,0.5-0.5,0.8c-0.1,0.2-0.2,0.5-0.6,0.6c-0.9-0.7-1.1-1.9-1.9-2.8c-0.3,0.4-0.2,0.7-0.2,1.1c0,0.4,0,0.8,0,1.2
		c0,0.3,0,0.7,0,1c-0.3,0.2-0.5,0.3-0.7,0.1c-0.2-0.2-0.2-2.6-0.1-5.3c0.5-0.3,0.6-0.3,0.9,0.1c0.5,0.8,0.9,1.6,1.4,2.3
		c0.2,0.3,0.4,0.7,0.6,0.9c0.4,0,0.4-0.3,0.5-0.4c0.5-0.8,1-1.7,1.5-2.6c0.1-0.2,0.2-0.4,0.3-0.5c0.1-0.1,0.3-0.1,0.4-0.1
		c0.2,0,0.3,0.2,0.3,0.4C305.2,70,305.2,71.7,305.2,73.4z"/>
	<path class="st27" d="M338.6,73.5c0-1.9,0-3.7,0-5.5c0.9-0.2,2.6-0.2,3.3,0c1.2,0.3,2,1.3,2.1,2.6c0.1,1.2-0.7,2.3-1.9,2.7
		c-0.3,0.1-0.7,0.2-1,0.2C340.2,73.6,339.5,73.5,338.6,73.5z M339.4,72.8c0.7,0,1.3,0.1,1.9,0c1-0.1,1.6-0.9,1.7-1.8
		c0.1-1.1-0.5-1.9-1.4-2.1c-0.7-0.2-1.5-0.2-2.2,0C339.3,69.7,339.3,71.6,339.4,72.8z"/>
	<path class="st27" d="M331.9,70.4c0.1,0.6,0.1,0.7-0.3,0.7c-0.5,0-0.9,0-1.4,0c-0.3,0-0.6-0.1-0.9,0.2c-0.1,0.4-0.1,0.9,0,1.5
		c1,0.2,2,0,3,0.1c0,0.1,0.1,0.2,0.1,0.3c0,0.1,0,0.2-0.1,0.4c-1.3,0-2.6,0-3.9,0c-0.2-1-0.2-4.5,0-5.6c1.2-0.1,2.5,0,3.7,0
		c0.1,0.1,0.1,0.2,0.1,0.3c0,0.1,0,0.2-0.1,0.4c-0.9,0.2-1.9,0-2.9,0.1c-0.3,0.5-0.2,1-0.1,1.5C330.2,70.5,331,70.2,331.9,70.4z"/>
	<path class="st29" d="M288.3,27.7c0.4,0.5,0.8,0.9,1.1,1.3c0.2,0.2,0.4,0.3,0.4,0.6c-0.5,0.7-2.6,3-3.3,3.6c-0.6-0.5-1.2-1-1.7-1.5
		C285.3,30.7,287,28.8,288.3,27.7z"/>
	<path class="st29" d="M339.8,9.1c0.6,0.5,1.2,1,1.7,1.5c-0.5,0.9-2.5,3.1-3.5,3.9c-0.5-0.5-1.1-1.1-1.5-1.7
		C336.9,12.1,339,9.8,339.8,9.1z"/>
	<path class="st27" d="M292.4,23.4c0.7,0.6,1.2,1.2,1.6,1.8c-0.6,0.8-2.6,2.8-3.3,3.3c-0.4-0.2-0.6-0.5-0.8-0.8
		c-0.3-0.3-0.5-0.6-0.8-0.9C290.1,25.5,291.3,24.5,292.4,23.4z"/>
	<path class="st27" d="M333.8,18.8c-0.5-0.6-1-1.1-1.6-1.8c1.1-1.2,2.2-2.2,3.2-3.3c0.4,0.2,0.6,0.6,0.9,0.8
		c0.3,0.3,0.5,0.6,0.8,0.9C336.7,16.2,334.8,18.1,333.8,18.8z"/>
	<path class="st29" d="M355.1,1.3c-1.3,1.3-2.4,2.6-3.7,3.9c-0.5-0.5-0.9-1-1.3-1.5c1.2-1.3,2.3-2.5,3.5-3.7
		C354.2,0.3,354.6,0.8,355.1,1.3z"/>
	<path class="st29" d="M274.7,37.1c0.3,0,0.4,0.1,0.5,0.3c0.3,0.4,0.7,0.7,0.9,1.1c-0.6,0.8-2.7,3.1-3.5,3.7c-0.5-0.4-1-0.8-1.4-1.4
		C272.4,39.5,273.6,38.3,274.7,37.1z"/>
	<path class="st27" d="M346.9,9.9c-0.4-0.5-0.8-0.9-1.2-1.4c0.5-0.7,2.5-2.9,3.5-3.8c0.5,0.4,0.9,0.9,1.2,1.3
		C350,6.8,348.1,8.9,346.9,9.9z"/>
	<path class="st27" d="M277.1,37.5c-0.6-0.5-0.9-0.9-1.3-1.4c0.5-0.8,2.7-3.1,3.5-3.7c0.3,0.1,0.5,0.5,0.8,0.7
		c0.2,0.2,0.3,0.4,0.5,0.7C279.5,35.1,278.3,36.3,277.1,37.5z"/>
	<path class="st29" d="M349.4,9.2c0.5,0.5,0.9,0.9,1.3,1.2c-0.5,0.8-2.3,2.8-3.4,3.7c-0.3,0-0.5-0.4-0.7-0.6
		c-0.2-0.2-0.4-0.5-0.6-0.7C346.5,12.2,348.3,10.2,349.4,9.2z"/>
	<path class="st29" d="M276.8,33c-0.4-0.4-0.8-0.8-1.3-1.2c0.2-0.6,0.7-0.9,1-1.3c0.4-0.4,0.8-0.9,1.2-1.3c0.4-0.4,0.7-0.8,1.1-1.2
		c0.6,0.5,0.9,0.9,1.3,1.4C279.8,30.1,277.6,32.4,276.8,33z"/>
	<path class="st27" d="M343,18.6c-0.5-0.5-1-0.9-1.3-1.4c0.7-0.9,2.7-2.9,3.4-3.3c0.3,0.1,0.5,0.5,0.8,0.7c0.2,0.2,0.3,0.4,0.5,0.7
		C345.3,16.4,344.2,17.5,343,18.6z"/>
	<path class="st27" d="M283.3,23.6c0.5,0.5,0.9,0.9,1.3,1.5c-1.1,1.2-2.2,2.2-3.3,3.4c-0.6-0.4-0.9-0.9-1.3-1.4
		C280.5,26.3,281.8,25,283.3,23.6z"/>
	<path class="st27" d="M320,68.8c-0.6-0.2-1.1-0.1-1.6-0.1c-0.3,0-0.3-0.1-0.3-0.6c0.2-0.1,0.4-0.1,0.6-0.1c1.1,0,2.1,0,3.2,0
		c0.2,0,0.3,0,0.5,0c0.2,0,0.4,0.2,0.3,0.4c0,0.2-0.1,0.3-0.3,0.3c-0.3,0-0.6,0-0.8,0c-0.2,0-0.4,0-0.6,0.1
		c-0.2,0.8-0.1,1.6-0.1,2.3c0,0.8,0,1.6,0,2.3c-0.3,0.2-0.5,0.2-0.8,0C320,71.9,320,70.4,320,68.8z"/>
	<path class="st27" d="M280.8,20.9c-0.4-0.3-0.7-0.6-0.9-1.1c1.2-1.2,2.4-2.3,3.6-3.4c0.5,0.3,0.7,0.6,1,1
		C283.9,18.2,281.9,20.1,280.8,20.9z"/>
	<path class="st27" d="M345.5,21.3c0.1,0.1,0.2,0.2,0.3,0.3c0.2,0.2,0.4,0.4,0.5,0.6c-0.5,0.8-2.6,2.8-3.7,3.5
		c-0.4-0.2-0.6-0.6-0.9-0.9C342.3,24.1,344.5,22.1,345.5,21.3z"/>
	<path class="st29" d="M349.6,17.3c0.4,0.3,0.7,0.6,1,1c-1.1,1.1-2.2,2.2-3.3,3.3c-0.3,0-0.5-0.2-0.6-0.4c-0.2-0.2-0.3-0.4-0.4-0.5
		C346.7,20,348.6,18.2,349.6,17.3z"/>
	<path class="st29" d="M342.4,22.7c-0.4-0.3-0.7-0.6-0.9-1.1c1-1,2-2.1,2.9-3.1c0.1-0.1,0.2-0.1,0.3-0.2c0.4,0.2,0.7,0.5,1,0.8
		C345.3,19.9,343.5,21.8,342.4,22.7z"/>
	<path class="st29" d="M284,19.5c0.4,0.2,0.6,0.6,0.9,0.9c-0.4,0.7-1.6,2-3.2,3.4c-0.3,0-0.4-0.2-0.6-0.4c-0.2-0.1-0.4-0.3-0.5-0.4
		C281.2,22.1,283.1,20.2,284,19.5z"/>
	<path class="st29" d="M276.7,24.9c-0.3-0.4-0.6-0.7-1-1c1.1-1.2,2.3-2.2,3.4-3.4c0.5,0.3,0.7,0.6,1,1
		C279.6,22.2,277.7,24.1,276.7,24.9z"/>
	<path class="st27" d="M340.6,22.4c0.5,0.3,0.7,0.7,1,1c-0.5,0.8-2,2.3-3.2,3.2c-0.4-0.3-0.7-0.6-1-1.1
		C338.4,24.4,339.6,23.5,340.6,22.4z"/>
	<path class="st27" d="M288.9,16.6c-0.2,0.2-0.3,0.4-0.4,0.5c-0.9,0.9-1.9,1.8-2.8,2.7c-0.5-0.2-0.7-0.6-1-1.1c1-1.1,2.1-2,3.1-3.1
		C288.3,15.8,288.5,16.3,288.9,16.6z"/>
	<path class="st27" d="M282.5,68.1c0.2-0.1,0.4-0.1,0.6,0c0,0.1,0.1,0.1,0.1,0.2c0,1.1,0,2.1,0,3.2c0,0.4,0,0.8,0,1.1
		c0.2,0.3,0.5,0.3,0.7,0.3c0.7,0,1.3,0,2,0c0.3,0,0.3,0.3,0.3,0.5c-0.8,0.2-2.6,0.2-3.7,0.1C282.3,72.5,282.3,69.5,282.5,68.1z"/>
	<path class="st29" d="M350.7,21c-1,1.1-2.1,2.2-3.2,3.2c-0.4-0.1-0.6-0.3-0.7-0.6c0.6-0.8,2.6-2.8,3.2-3.2
		C350.3,20.5,350.5,20.6,350.7,21z"/>
	<path class="st29" d="M276.3,21.9c-0.2-0.2-0.4-0.3-0.5-0.4c-0.1-0.1-0.1-0.2-0.2-0.3c0.6-0.9,2.2-2.4,3.2-3.3
		c0.3,0.1,0.5,0.3,0.6,0.7c-0.1,0.1-0.1,0.2-0.2,0.3C278.3,19.9,277.3,20.9,276.3,21.9z"/>
	<path class="st27" d="M292.6,73.4c-0.2,0.1-0.3,0.1-0.5,0c-0.2-0.9-0.2-4.4,0-5.3c0.1,0,0.1-0.1,0.2-0.1c0.1,0,0.2,0,0.3,0
		C292.8,69,292.8,72.4,292.6,73.4z"/>
	<path class="st27" d="M312.4,68.1c0.1,1.4,0.1,4.5,0,5.3c-0.2,0.1-0.3,0.1-0.5,0c0-0.1-0.1-0.1-0.1-0.2c0-1.6,0-3.2,0-4.8
		C311.7,68,311.7,68,312.4,68.1z"/>
	<path class="st27" d="M291.6,8.9L291.6,8.9C291.6,8.9,291.6,8.9,291.6,8.9L291.6,8.9z"/>
</g>
<g>
	<path class="st30" d="M226,37.1c-0.1,20.5-16.4,35.8-34.9,36.7c-21.8,1.1-38.9-16.2-39-36.6C152,16.6,168.4,0.2,188.7,0
		C209.6-0.2,226.1,16.7,226,37.1z M189.1,1.4c-19.6,0-35.5,15.9-35.6,35.7c0,19.4,15.9,35.5,35.4,35.6c19.7,0.1,35.7-15.8,35.8-35.3
		C224.8,17.4,208.9,1.4,189.1,1.4z"/>
	<path class="st31" d="M189.1,1.4c19.8,0,35.7,16,35.6,35.9c-0.1,19.5-16.1,35.4-35.8,35.3c-19.5-0.1-35.5-16.1-35.4-35.6
		C153.5,17.3,169.4,1.3,189.1,1.4z M217.9,25.9c0.1,0,0.1,0,0.2,0c0.4,1,0.9,1.9,1.1,2.9c0.2,0.9,0,1.2-0.8,1.4
		c-1,0.3-2.1,0.6-3.1,0.9c-0.4,0.1-0.8,0.1-0.9,0.6c0,0.2-0.3,0.3-0.1,0.4c0.1,0.1,0.3,0,0.4,0c1.2-0.3,2.4-0.6,3.6-0.9
		c0.5-0.1,1-0.4,1.5-0.2c0.4,0.1,0.2,0.7,0.4,1.1c0.1,0.1,0.1,0.2,0.2,0.2c0.1,0,0.2-0.1,0.2-0.2c0.1-0.3,0.5-0.6,0.3-1
		c-0.3-0.5-0.2-0.8,0.4-1c0.2-0.1,0.2-0.3,0.2-0.5c0-0.1-0.1-0.2-0.2-0.1c-1.1,0.5-1-0.3-1.1-0.9c0-0.1-0.1-0.3-0.1-0.4
		c-0.6-1.8-1.4-3.5-2.2-5.2c-2-3.8-4.8-7.1-8-9.9c-0.3-0.3-0.3-0.4-0.2-0.7c0.3-0.7,0.1-1.2-0.4-1.7c-0.5-0.5-1-0.8-1.6-1.2
		c-0.3-0.2-0.7-0.4-1-0.6c-0.3-0.3-0.6-0.5-0.1-0.8c0.2-0.1,0.3-0.3,0.1-0.5c-0.2-0.2-0.3-0.1-0.5,0c-0.8,0.4-0.8,1.1-0.2,2
		c0.2,0.2,0.6,0.4,0.4,0.8c-0.2,0.4-0.4,0.8-0.8,1.2c-0.1-0.3-0.2-0.6-0.3-0.8c-0.5-1.4-2.6-2-3.8-1.1c-0.2,0.2-0.4,0.3-0.4,0.7
		c0.1,0.3,0.3,0.4,0.6,0.5c0.2,0.1,0.6,0,0.6,0.3c0,0.3-0.2,0.4-0.5,0.5c-0.5,0.2-0.4,0.4-0.1,0.7c0.3,0.3,0.5,0.3,0.9,0.2
		c0.5-0.1,1.1-0.3,1.6-0.4c0.4-0.1,0.5,0.1,0.5,0.5c0,0.3-0.2,0.6-0.3,0.8c-0.4,0.6-0.8,1.1-1.2,1.7c-0.2,0.4-0.3,0.8,0,1
		c0.4,0.3,0.5-0.3,0.7-0.5c0.8-1.1,1.5-2.2,2.3-3.3c0.4-0.6,0.7-0.3,1,0c0.4,0.2,0.6,0.5,0.2,1c-0.8,1-1.5,2-2.3,2.9
		c-0.4,0.5-0.5,1-0.2,1.7c1-1.3,2.1-2.5,3-3.7c0.5-0.7,0.7-0.8,1.3-0.2c0.7,0.6,1.3,1.3,2,1.9c0.1,0.1,0.2,0.2,0.1,0.3
		c0,0.1-0.2,0.1-0.3,0c-0.7-0.2-1.3-0.6-2.1-0.7c-1-0.2-1.6,0.3-1,1.2c0.7,1.2,0.9,2.3,0.3,3.5c0,0,0,0.1,0,0.1
		c0,0.2-0.1,0.4,0.1,0.5c0.2,0.1,0.3-0.1,0.4-0.2c1.1-1,2.2-1.9,3.3-2.9c0.3-0.3,0.7-0.5,0.8,0c0.2,0.7,0.4,1.4,0.7,2
		c0.2,0.3-0.1,0.6-0.3,0.8c-0.4,0.3-0.9,0.2-1.2,0c-0.4-0.1-0.1-0.4,0-0.6c0-0.1,0.1-0.3-0.1-0.3c-0.2-0.1-0.4-0.1-0.6,0
		c-0.3,0.4-0.5,0.9-0.4,1.5c0.1,0.5,0.4,0.7,0.9,0.7c0.5,0,0.9,0.1,1.4,0.1c0.3,0,0.5,0.2,0.5,0.5c0,0.3-0.1,0.5-0.3,0.7
		c-0.4,0.3-0.9,0.6-1.3,0.9c-0.3,0.2-0.7,0.3-0.8,0.8c0,0.2-0.2,0.4,0,0.6c0.1,0.1,0.3-0.1,0.5-0.2c1.3-0.7,2.6-1.5,3.9-2.2
		c0.3-0.2,0.5-0.3,0.7,0.1c0.4,0.8,0.9,1.5,1.1,2.3c-0.1,0.1-0.1,0.2-0.1,0.3c-0.6-0.3-1.1-0.4-1.5,0.2c-0.4,0.6-0.4,1.2,0,1.8
		c0.2,0.4,0.5,0.8,0.9,1.1c0.4,0.2,0.3,0.3-0.1,0.5c-0.6,0.2-1.5-0.2-1.8-0.9c-0.5-1.3,0.2-2.3,0.8-3.3c0.2-0.3,0.5-0.5,0.6-0.8
		c0.1-0.2,0.1-0.4-0.1-0.6c-0.1-0.1-0.2,0-0.3,0.1c-1,1-2,2.1-2.4,3.5c-0.3,1.3,0.4,2.5,1.6,2.8c1.3,0.4,2.6-0.3,3-1.5
		c0.1-0.2,0.2-0.5-0.1-0.6c-0.9-0.2-0.8-0.6-0.5-1.2C217.9,26.2,217.9,26.1,217.9,25.9z M182.6,63.4c0,0,0-0.1,0-0.1
		c0.8,0.1,1.6,0.3,2.5,0.4c0.3,0,0.7,0.2,0.8-0.1c0.1-0.3-0.4-0.5-0.6-0.7c-0.1-0.1-0.3-0.1-0.4-0.1c-2-0.2-3.9-1-5.8-1.6
		c-0.4-0.1-0.7-0.2-0.9-0.6c-0.2-0.3,0-0.9-0.5-0.9c-0.4,0-0.4,0.6-0.6,0.9c-0.2,0.4-0.4,0.5-0.6,0c-0.5-1.1-1.3-1.6-2.5-1.8
		c-0.3,0-0.5-0.1-0.5-0.4c-0.1-0.5-0.3-0.8-0.7-1c-0.2-0.1-0.3-0.3-0.2-0.5c0.1-0.2,0.3-0.2,0.4-0.2c1.2-0.2,2,0.3,2.6,1.2
		c0.4,0.6,0.7,1.2,1.1,1.9c0.2-0.1,0.2-0.3,0.2-0.4c0-1.1-1.6-3.4-2.6-3.7c-0.7-0.2-1.5-0.3-2.2,0.3c-0.2,0.1-0.1,0.6-0.5,0.4
		c-0.3-0.2-0.7-0.4-0.5-1c0.1-0.1,0.1-0.2,0.1-0.4c0-0.2-0.1-0.5-0.3-0.2c-0.6,0.7-0.9,0.4-1.1-0.2c-0.1-0.2-0.2-0.3-0.3-0.4
		c-1-1-1.8-2.2-2.6-3.4c-0.4-0.6-0.6-1.3-1.1-1.8c-0.5,0.9,0,1.4,0.4,2.1c0.1,0.2,0.4,0.3,0.2,0.6c-0.1,0.2-0.3,0.2-0.5,0.2
		c-0.3-0.1-0.4-0.2-0.4-0.5c0-0.2-0.1-0.4-0.4-0.4c-0.3,0-0.4,0.2-0.4,0.4c-0.1,0.5,0,0.9,0.3,1.3c-0.1,0-0.1,0.1-0.1,0.2
		c-0.3,0.1-0.7,0.2-0.8,0.6c-0.1-0.1-0.2-0.1-0.3,0c-0.3-0.2-0.1-0.6-0.4-0.9c-0.2,0.7-1,1.1-0.6,2c0.7,1.7,1.3,3.4,1.6,5.3
		c0,0.2,0,0.5,0.3,0.5c0.2,0,0.3-0.3,0.3-0.5c0-0.2,0-0.4,0-0.5c-0.1-0.6-0.2-1.2-0.3-1.9c-0.2-0.8-0.1-0.8,0.6-0.6
		c0.6,0.2,1.3,0.3,1.6-0.3c0.3-0.7,0.7-1.1,1.5-1.3c0.6-0.2,0.9-0.2,1.1,0.5c0.1,0.5-0.1,0.8-0.4,1.1c-0.7,0.7-1.4,1.4-2.2,2.1
		c-0.3,0.3-0.4,0.5-0.3,0.9c0,0.2,0,0.5,0.2,0.6c0.2,0.1,0.3-0.2,0.5-0.3c1-1,1.9-1.9,2.8-2.9c0.5-0.5,0.7-0.3,1.2,0
		c0.5,0.4,0.3,0.6,0,1c-0.7,0.8-1.4,1.6-2.1,2.4c-0.4,0.4-0.4,0.7-0.2,1.2c0.2,0.4,0.3,0.4,0.5,0.1c0.7-0.9,1.5-1.8,2.3-2.7
		c0.2-0.2,0.4-0.4,0.5-0.6c0.1-0.2,0.3-0.3,0.5-0.1c0.2,0.2,0.6,0.3,0.7,0.6c0.1,0.3-0.3,0.2-0.4,0.3c-0.5,0.3-0.5,0.7-0.1,1
		c0.2,0.1,0.4,0.1,0.6,0.2c0.1,0.1,0.3,0.1,0.3,0.3c0,0.2-0.1,0.3-0.3,0.3c-0.3,0.1-0.7,0.1-0.6,0.5c0.1,0.4,0.4,0.7,1,0.6
		c0.4-0.1,0.9-0.1,1.3-0.2c0.3,0,0.7-0.2,0.9,0.1c0.3,0.3,0.1,0.7-0.1,1.1c-0.3,0.6-0.6,1.1-0.9,1.7c-0.2,0.4,0,1.3,0.4,1.3
		c0.4,0,0.5-0.4,0.6-0.7c0.5-1,0.9-2,1.4-3c0.1-0.3,0.3-0.7,0.7-0.6c0.5,0.1,0.4,0.5,0.4,0.9c0,0.7,0,1.4,0.2,2
		c0.4,2.1,2.2,3.3,4.2,2.8c1.1-0.3,1.6-1.1,1.3-2.2C183.9,64.3,183.3,63.9,182.6,63.4z M158.8,30.6c0.1,0.2,0.2,0.4,0.4,0.6
		c0.5,0.6,1.2,0.8,1.9,0.5c0.7-0.2,1-0.8,1.1-1.5c0-0.3,0-0.7-0.3-0.8c-0.4,0-0.8-0.4-1.2,0c-0.3,0.3-0.3,0.6-0.2,1
		c0,0.2,0.4,0.3,0.1,0.5c-0.2,0.1-0.4-0.1-0.5-0.3c-0.3-0.5,0-1.1,0.6-1.4c0.8-0.3,0.8-0.3,0.2-0.8c-0.1-0.1-0.3-0.2-0.2-0.4
		c0.1-0.2,0.1-0.3,0.3-0.3c0.3-0.1,0.5,0,0.7,0.1c0.7,0.3,1.4,0.5,2,0.8c0.5,0.2,1,0.1,1.5-0.3c-1.5-0.7-3-1.3-4.5-1.9
		c-0.3-0.1-0.7-0.1-0.6-0.6c0.1-0.4,0.3-0.8,0.9-0.9c0.3,0,0.5,0.1,0.8,0.2c0.9,0.5,1.9,0.9,2.8,1.4c0.2,0.1,0.5,0.2,0.8,0.2
		c0.3,0,0.6,0,0.7-0.2c0.1-0.2-0.3-0.3-0.5-0.4c-1.3-0.7-2.7-1.4-4-2.1c-0.2-0.1-0.5-0.2-0.4-0.4c0.3-0.5,0.3-1.1,0.8-1.4
		c0.1,0,0.1,0,0.2,0c-0.1,0.9,0.4,1.5,1.2,1.8c1.1,0.5,2.4-0.4,2.3-1.5c-0.1-0.6-0.7-0.8-0.7-1.5c0-0.2-0.6-0.3-0.2-0.7
		c0.3-0.3,0.7-0.1,1,0.1c0.6,0.4,1.2,0.9,1.7,1.3c0.2,0.2,0.4,0.4,0.7,0.3c0.2,0,0.5,0,0.6-0.2c0.1-0.2-0.1-0.3-0.3-0.5
		c-1.2-0.9-2.3-1.9-3.5-2.8c-0.1-0.1-0.4-0.2-0.3-0.5c0.1-0.2,0.3-0.4,0.6-0.4c0.5,0,0.9-0.2,1.2-0.5c0.2-0.2,0.5-0.4,0.8-0.3
		c0.2,0,0.4,0,0.5,0.2c0.1,0.2-0.1,0.3-0.2,0.4c-0.3,0.4-0.4,0.9-0.1,1.3c0.2,0.4,0.6,0.6,1,0.5c0.5-0.1,0.9-0.4,1-1
		c0-0.4,0.3-0.5,0.6-0.5c0.5,0,0.9,0,1.3,0.4c0.2,0.2,0.5,0.6,0.8,0.3c0.3-0.3-0.2-0.5-0.3-0.8c0-0.1-0.2-0.2-0.3-0.3
		c-0.9-1-1.8-2-2.6-3c-0.1-0.1-0.2-0.3-0.2-0.3c0.3-0.3,0.6-0.6,0.9-0.8c0.3-0.2,0.5,0.2,0.6,0.4c0.8,1,1.5,1.9,2.3,2.9
		c0.1,0.2,0.3,0.4,0.5,0.4c0.2,0,0.5,0.2,0.7,0c0.2-0.2-0.1-0.4-0.2-0.6c-0.8-1.2-1.7-2.3-2.6-3.5c-0.3-0.4-0.3-0.6,0.1-0.8
		c0.7-0.4,1.3-0.9,1.9-1.3c1.5-1,1.7-0.9,2.3,0.8c0,0,0,0,0,0.1c-0.4,0-0.9-0.2-1.3-0.2c-0.8,0.1-1.4,0.6-1.6,1.3
		c-0.1,0.7,0.1,1.2,0.7,1.4c0.5,0.2,1,0.1,1.4-0.4c0.4-0.5,0.2-1-0.2-1.5c0.5-0.1,0.8,0,1.2,0.2c0.8,0.4,1.3,1,1.8,1.7
		c0.1,0.2,0.3,0.5,0.6,0.3c0.2-0.1-0.1-0.4-0.2-0.5c-0.7-1.4-1.3-2.7-2-4.1c-0.1-0.2-0.4-0.6,0-0.7c1.1-0.5,2.2-1.1,3.4-1.3
		c0.1,0.2-0.1,0.3-0.2,0.3c-0.7,0.6-1.4,1.3-1.9,2.1c-0.1,0.2-0.4,0.4-0.1,0.6c0.4,0.2,0.8,0.6,1.3,0.5c1.2-0.3,2.1,0.1,2.9,1
		c0.2,0.2,0.4,0.5,0.6,0.3c0.2-0.2,0-0.5-0.1-0.7c-0.4-1.4-0.8-2.7-1.2-4.1c-0.1-0.2-0.3-0.5,0.1-0.6c0.7-0.2,1.5-0.4,2.3-0.5
		c0,0.4-0.4,0.4-0.5,0.6c-0.3,0.4-0.5,0.9-0.1,1.4c0.4,0.4,0.9,0.2,1.2-0.2c0.2-0.2,0.4-0.4,0.5-0.6c0.1-0.3,0.3-0.4,0.6-0.3
		c0.3,0,0.5,0.2,0.6,0.4c0.1,0.3-0.1,0.5-0.3,0.6c-0.4,0.3-0.8,0.5-1.4,0.6c-0.6,0.1-1.2-0.1-1.9-0.2c0.6,0.9,0.9,1.8,2.1,1.7
		c0.4,0,0.9,0.2,1.3,0.4c0.8,0.3,1.5,0.8,2.1,1.4c0.1,0.1,0.2,0.2,0.3,0.1c0.2-0.1,0-0.2-0.1-0.3c-0.2-1.1-1.1-1.6-2-2.1
		c-0.4-0.3-0.6-0.3-0.1-0.8c0.9-0.7,0.9-1.8,0.2-2.4c-0.3-0.3-1-0.2-0.9-0.7c0.1-0.3,0.8-0.2,1.2-0.3c0.9-0.2,1.5,0.4,1.5,1.2
		c0,1.1,0.1,2.2,0.1,3.3c0,0.2,0,0.5,0.2,0.7c0.2,0.1,0.3,0.4,0.5,0.4c0.2-0.1,0.1-0.4,0.1-0.5c0-1.5,0-2.9-0.1-4.4
		c0-0.5,0.1-0.8,0.7-0.8c0.6,0,0.6,0.3,0.6,0.8c-0.1,0.9-0.1,1.8,0,2.7c0,1,0.8,1.7,1.6,1.4c0.7-0.3,1.5-0.7,1.9-1.4
		c0.4-0.6,0.6-1.2,0.2-1.9c-0.2-0.4-0.6-0.5-1.1-0.5c-0.4,0-0.6,0.2-0.7,0.6c-0.1,0.4,0,0.7,0.4,1c0.3,0.1,0.2,0.3,0.1,0.5
		c-0.2,0.3-0.5,0.5-0.9,0.7c-0.4,0.2-0.7,0.1-0.7-0.4c0-0.8,0.1-1.6,0.1-2.3c0-1,0.1-1,1.1-0.9c1,0.1,2.1,0.3,3.1,0.4
		c0.1,0,0.3,0.1,0.4,0c0.1-0.1-0.1-0.3-0.2-0.4c-0.1-0.2-0.3-0.4-0.6-0.5c-0.2,0-0.3-0.1-0.4-0.3c-0.3-1.2-1.2-1.4-2.2-1.5
		c-0.6-0.1-1.3,0-1.9,0c-0.4,0-0.8-0.1-0.7-0.7c0-0.1,0-0.3-0.2-0.4c-0.2,0-0.3,0.1-0.5,0.2c-0.4,0.5-0.2,1.1,0.4,1.5
		c0.7,0.4,1.6,0.5,2.4,0.5c0.4,0,0.8,0,1.2,0.1c0.2,0,0.4,0.1,0.4,0.3c0,0.2-0.3,0.1-0.4,0.1c-1.1-0.1-2.1-0.1-3.2-0.2
		c-0.6,0-1.2,0.1-1.5-0.7c0-0.1-0.2-0.2-0.4-0.2c-0.2,0-0.2,0.2-0.1,0.3c0.2,0.9-0.2,0.9-0.9,0.7c-0.2-0.1-0.4,0-0.7,0
		c-1.1,0-2.1,0.3-3.1,0.5c-3.3,0.6-6.4,1.7-9.2,3.4c-1.1,0.6-2.1,1.4-3.2,2.1c-0.3,0.2-0.6,0.5-0.8-0.1c-0.1-0.4-0.1-0.9,0.2-1.3
		c0.8-1.1,1.9-1.5,3.3-1.5c0.4,0,0.9,0,1.4,0.1c-0.1-0.4-0.3-0.5-0.6-0.6c-1.4-0.5-3.8,0.1-4.8,1.2c-0.8,0.9-0.9,2-0.2,3
		c0.2,0.3-0.1,0.4-0.2,0.5c-0.9,0.9-1.9,1.7-2.7,2.6c-2.1,2.2-3.8,4.6-5.2,7.2c-0.2,0.4-0.4,0.7-0.9,0.6c-0.2,0-0.5,0-0.5,0.2
		c-0.1,0.3,0.2,0.3,0.4,0.4c0.5,0.2,0.7,0.4,0.2,0.8c-0.2,0.2-0.4,0.5-0.5,0.8c-0.8,1.8-1.4,3.7-1.8,5.6c-0.1,0.3-0.3,0.7,0,0.8
		c0.3,0.1,0.7-0.3,0.9-0.6c0.1-0.2,0.1-0.3,0.2-0.5C158.6,30.9,158.7,30.7,158.8,30.6z M189,14.4c-12.3-0.1-22.6,10.2-22.5,22.8
		c0.1,12,10.1,22.1,21.9,22.3c12.9,0.3,23.1-10.2,23.2-22.3C211.7,24.8,201.5,14.3,189,14.4z M207.4,61.6c0-0.3-0.1-0.6-0.3-0.8
		c-0.7-0.8-1.5-0.8-2.4-0.7c-0.7,0.1-1.3,0.4-2,0.5c-0.3,0.1-0.7,0.2-0.9-0.3c-0.1-0.4-0.5-0.4-0.9-0.2c-0.3,0.1-0.5,0.3-0.5,0.6
		c0,0.4,0.2,0.7,0.6,0.9c0.7,0.3,1.4,0.2,2.2,0.1c0.8-0.2,1.5-0.4,2.3-0.5c0.3-0.1,0.6,0.1,0.7,0.4c0.1,0.2,0.1,0.5-0.1,0.6
		c-0.2,0.1-0.4-0.1-0.6-0.2c-1.5-0.7-3.2,0.3-3.1,1.9c0,0.8,0.4,1.3,1.1,1.4c0.5,0.1,0.9-0.1,1.2-0.4c0.2-0.2,0.3-0.5,0.1-0.7
		c-0.3-0.4-0.6-0.2-0.9-0.2c-0.1,0-0.2,0.1-0.3-0.1c-0.3-0.4,0-1.1,0.5-1.2c0.8-0.1,1.2,0.4,1.4,1.1c0.1,0.6,0.4,0.6,0.8,0.2
		C206.9,63.3,207.3,62.5,207.4,61.6z M218.9,51.6c-0.7-0.3-1.2-0.3-1.7,0.1c-0.5,0.3-1,0.6-1.5,0.9c-0.5,0.3-0.6,0.2-0.5-0.3
		c0.1-1-0.4-1.6-1.4-1.6c-1.2,0-2.1,0.8-3.1,1.2c-0.3,0.1-0.5,0.7-0.1,1.1c0.4,0.4,0.9,0.4,1.4,0c0.5-0.4,1-0.8,1.5-1.1
		c0.2-0.1,0.5-0.2,0.7,0c0.2,0.2,0.1,0.5,0,0.7c-0.1,0.3-0.2,0.5-0.4,0.7c-0.4,0.6-1.1,1-1.7,1.3c-0.1,0.1-0.4,0.1-0.4,0.2
		c0,0.2,0.2,0.2,0.4,0.3c0.8,0.3,1.6,0.6,2.2-0.3c0.1-0.1,0.2-0.1,0.2-0.2C215.9,53.4,217.4,52.6,218.9,51.6z M198.4,67.8
		c0.5,0,0.9-0.1,1.3-0.3c0.9-0.5,1.7-1.2,1.7-2.4c-0.1-1.1-1-1.5-1.9-1.9c-0.1,0-0.1-0.1-0.2-0.1c-0.6-0.2-1.2-0.4-1.6-0.9
		c-0.3-0.5-0.8-0.4-1.1,0c-0.4,0.4-0.3,0.8,0.1,1.2c0.4,0.3,0.8,0.5,1.3,0.6c0.6,0.1,1.3,0.3,1.9,0.6c0.3,0.1,0.5,0.4,0.4,0.7
		c-0.1,0.4-0.4,0.2-0.6,0.2c-0.7,0-1.2,0.2-1.7,0.7c-0.3,0.3-0.6,0.6-0.4,1.1C197.6,67.7,198.1,67.7,198.4,67.8z M206.8,57.3
		c0,1.2,0.4,1.6,1.4,1.6c0.8,0,1.4-0.5,1.8-1.1c0.5-0.6,0.8-0.6,1.3,0c0.2,0.3,0.5,0.5,0.8,0.7c0.4,0.2,0.8,0.1,1.1-0.2
		c0.2-0.3,0.5-0.5,0.3-0.9c-0.2-0.5-0.6-0.4-1-0.3c-0.3,0.1-0.4-0.1-0.6-0.2c-0.4-0.4-0.9-0.7-1.2-1.1c-0.8-0.8-1.7-0.8-2.7-0.4
		C207.2,55.7,206.9,56.5,206.8,57.3z M197.2,11.3c0,1.2,0.4,2,1.2,2.3c0.4,0.2,0.8,0.1,1.2-0.3c0.3-0.3,0.4-0.7,0.1-1.1
		c-0.3-0.4-0.7-0.4-1.1-0.2c-0.6,0.2-0.6-0.1-0.6-0.5c0-1.5,1.4-2.7,2.9-2.6c0.2,0,0.7,0.3,0.7-0.1c0-0.3-0.2-0.8-0.6-0.9
		c-0.2-0.1-0.4-0.1-0.7-0.1C198.6,7.7,197.3,9.3,197.2,11.3z M190.8,69c0.3,0,0.7,0,0.9-0.2c0.5-0.3,0.8-0.7,0.8-1.3
		c-0.1-0.6-0.5-0.9-1-1.1c-0.6-0.2-1.2-0.1-1.8,0.3c-0.9,0.7-0.8,1.7,0.2,2.1C190.2,69,190.5,69,190.8,69z M190.6,66.1
		c0.8,0,1.6-0.6,1.6-1.4c0-0.7-0.6-1.3-1.4-1.3c-0.8,0-1.7,0.7-1.7,1.4C189,65.5,189.7,66,190.6,66.1z M178.9,12.5
		c-0.1,0.5,0.2,0.7,0.6,0.7c0.4,0,0.7-0.2,0.7-0.6c0-0.4-0.2-0.7-0.7-0.7C179.1,11.8,178.9,12,178.9,12.5z M207.1,18.5
		c0,0.4,0.2,0.7,0.6,0.7c0.4,0,0.7-0.2,0.8-0.7c0-0.4-0.2-0.7-0.7-0.7C207.3,17.7,207.1,18,207.1,18.5z"/>
	<path class="st30" d="M162,22.1c-0.5,0.3-0.5,0.9-0.8,1.4c-0.2,0.3,0.2,0.3,0.4,0.4c1.3,0.7,2.7,1.4,4,2.1c0.2,0.1,0.5,0.2,0.5,0.4
		c-0.1,0.2-0.4,0.2-0.7,0.2c-0.3,0-0.5-0.1-0.8-0.2c-0.9-0.5-1.9-0.9-2.8-1.4c-0.2-0.1-0.5-0.2-0.8-0.2c-0.6,0-0.8,0.4-0.9,0.9
		c-0.2,0.5,0.3,0.5,0.6,0.6c1.5,0.6,3,1.3,4.5,1.9c-0.5,0.4-1,0.5-1.5,0.3c-0.7-0.3-1.4-0.5-2-0.8c-0.2-0.1-0.5-0.2-0.7-0.1
		c-0.2,0-0.3,0.2-0.3,0.3c-0.1,0.2,0.1,0.3,0.2,0.4c0.6,0.5,0.6,0.5-0.2,0.8c-0.6,0.2-0.9,0.9-0.6,1.4c0.1,0.2,0.3,0.5,0.5,0.3
		c0.3-0.2,0-0.3-0.1-0.5c-0.1-0.4-0.1-0.7,0.2-1c0.4-0.4,0.8,0,1.2,0c0.3,0,0.3,0.5,0.3,0.8c-0.1,0.7-0.4,1.3-1.1,1.5
		c-0.7,0.3-1.4,0-1.9-0.5c-0.2-0.2-0.3-0.4-0.4-0.5c0-0.1,0-0.1,0-0.2c0.1-0.4,0-0.8,0.3-1.1c0.6-0.4,0.6-0.9,0.4-1.5
		c0.1-0.1,0.2-0.2,0.2-0.4c0.1-0.2,0.4-0.2,0.3-0.4c0,0-0.1-0.1-0.2-0.1c-0.3,0-0.3,0.3-0.4,0.5c-0.1,0.1-0.1,0.3-0.1,0.4l0,0
		c-0.1,0-0.1,0.2-0.1,0.3c-0.4,0.5-0.4,1.1-0.6,1.6c-0.1,0.3-0.2,0.7-0.2,1c-0.1,0.2-0.1,0.3-0.2,0.5c-0.2,0.4-0.5,0.7-0.9,0.6
		c-0.3-0.1,0-0.5,0-0.8c0.5-1.9,1.1-3.8,1.8-5.6c0.1-0.3,0.3-0.6,0.5-0.8c0.5-0.4,0.3-0.6-0.2-0.8c-0.2-0.1-0.5-0.1-0.4-0.4
		c0.1-0.2,0.3-0.2,0.5-0.2c0.5,0.1,0.7-0.2,0.9-0.6c1.4-2.6,3.2-5,5.2-7.2c0.9-0.9,1.8-1.7,2.7-2.6c0.1-0.1,0.4-0.2,0.2-0.5
		c-0.7-1-0.6-2.1,0.2-3c1-1.1,3.4-1.7,4.8-1.2c0.2,0.1,0.5,0.2,0.6,0.6c-0.5,0-0.9-0.1-1.4-0.1c-1.3,0-2.4,0.4-3.3,1.5
		c-0.3,0.4-0.3,0.9-0.2,1.3c0.1,0.5,0.5,0.2,0.8,0.1c1.1-0.7,2.1-1.4,3.2-2.1c2.9-1.7,6-2.9,9.2-3.4c1-0.2,2-0.5,3.1-0.5
		c0.2,0,0.5-0.1,0.7,0c0.7,0.2,1.1,0.2,0.9-0.7c0-0.1,0-0.3,0.1-0.3c0.2,0,0.3,0.1,0.4,0.2c0.2,0.8,0.9,0.7,1.5,0.7
		c1.1,0,2.1,0.1,3.2,0.2c0.2,0,0.4,0.1,0.4-0.1c0-0.2-0.2-0.3-0.4-0.3c-0.4-0.1-0.8-0.1-1.2-0.1c-0.8,0.1-1.7,0-2.4-0.5
		c-0.7-0.4-0.8-1.1-0.4-1.5c0.1-0.1,0.3-0.3,0.5-0.2c0.2,0,0.2,0.2,0.2,0.4c-0.1,0.6,0.3,0.7,0.7,0.7c0.6,0,1.3,0,1.9,0
		c1,0.1,2,0.3,2.2,1.5c0,0.2,0.2,0.3,0.4,0.3c0.3,0.1,0.4,0.2,0.6,0.5c0.1,0.1,0.2,0.3,0.2,0.4c-0.1,0.2-0.3,0.1-0.4,0
		c-1-0.1-2.1-0.3-3.1-0.4c-1-0.1-1-0.1-1.1,0.9c0,0.8-0.1,1.6-0.1,2.3c0,0.5,0.2,0.6,0.7,0.4c0.3-0.2,0.6-0.4,0.9-0.7
		c0.2-0.2,0.2-0.3-0.1-0.5c-0.4-0.2-0.5-0.5-0.4-1c0.1-0.3,0.4-0.5,0.7-0.6c0.5,0,0.9,0.1,1.1,0.5c0.4,0.7,0.2,1.3-0.2,1.9
		c-0.5,0.7-1.2,1.1-1.9,1.4c-0.7,0.3-1.5-0.4-1.6-1.4c0-0.9,0-1.8,0-2.7c0-0.5,0-0.7-0.6-0.8c-0.6,0-0.7,0.2-0.7,0.8
		c0.1,1.5,0.1,2.9,0.1,4.4c0,0.2,0.1,0.5-0.1,0.5c-0.2,0.1-0.4-0.2-0.5-0.4c-0.2-0.2-0.2-0.5-0.2-0.7c-0.1-1.1-0.1-2.2-0.1-3.3
		c0-0.9-0.6-1.4-1.5-1.2c-0.4,0.1-1.1-0.1-1.2,0.3c-0.1,0.4,0.6,0.4,0.9,0.7c0.7,0.7,0.7,1.8-0.2,2.4c-0.5,0.4-0.4,0.5,0.1,0.8
		c0.8,0.5,1.7,1,2,2.1c0,0.1,0.2,0.2,0.1,0.3c-0.1,0.1-0.2,0-0.3-0.1c-0.6-0.6-1.3-1.1-2.1-1.4c-0.4-0.2-0.9-0.4-1.3-0.4
		c-1.2,0.1-1.6-0.8-2.1-1.7c0.7,0.1,1.3,0.2,1.9,0.2c0.5-0.1,1-0.3,1.4-0.6c0.2-0.2,0.4-0.4,0.3-0.6c-0.1-0.3-0.3-0.4-0.6-0.4
		c-0.3-0.1-0.5,0.1-0.6,0.3c-0.1,0.3-0.3,0.4-0.5,0.6c-0.4,0.4-0.8,0.6-1.2,0.2c-0.4-0.4-0.2-0.9,0.1-1.4c0.1-0.2,0.5-0.2,0.5-0.6
		c-0.8,0-1.5,0.3-2.3,0.5c-0.4,0.1-0.2,0.4-0.1,0.6c0.4,1.4,0.8,2.7,1.2,4.1c0.1,0.2,0.3,0.5,0.1,0.7c-0.2,0.1-0.5-0.1-0.6-0.3
		c-0.8-0.9-1.7-1.2-2.9-1c-0.5,0.1-0.9-0.3-1.3-0.5c-0.3-0.2,0-0.5,0.1-0.6c0.5-0.8,1.2-1.4,1.9-2.1c0.1-0.1,0.2-0.1,0.2-0.3
		c-1.2,0.3-2.3,0.9-3.4,1.3c-0.4,0.2-0.1,0.5,0,0.7c0.7,1.4,1.3,2.7,2,4.1c0.1,0.2,0.3,0.4,0.2,0.5c-0.3,0.2-0.4-0.1-0.6-0.3
		c-0.5-0.7-1-1.3-1.8-1.7c-0.3-0.2-0.7-0.3-1.2-0.2c0.3,0.5,0.6,1,0.2,1.5c-0.4,0.4-0.9,0.6-1.4,0.4c-0.6-0.3-0.9-0.8-0.7-1.4
		c0.1-0.7,0.8-1.2,1.6-1.3c0.5,0,0.9,0.2,1.3,0.2c0-0.1,0-0.1,0-0.1c-0.6-1.7-0.8-1.8-2.3-0.8c-0.7,0.4-1.3,0.9-1.9,1.3
		c-0.4,0.3-0.4,0.5-0.1,0.8c0.9,1.1,1.7,2.3,2.6,3.5c0.1,0.2,0.4,0.4,0.2,0.6c-0.1,0.2-0.4,0-0.7,0c-0.3,0-0.4-0.2-0.5-0.4
		c-0.8-1-1.5-1.9-2.3-2.9c-0.2-0.2-0.3-0.6-0.6-0.4c-0.3,0.2-0.6,0.5-0.9,0.8c0,0,0.1,0.2,0.2,0.3c0.9,1,1.8,2,2.6,3
		c0.1,0.1,0.2,0.2,0.3,0.3c0.1,0.3,0.6,0.5,0.3,0.8c-0.3,0.3-0.6-0.1-0.8-0.3c-0.4-0.3-0.8-0.4-1.3-0.4c-0.3,0-0.6,0.1-0.6,0.5
		c-0.1,0.6-0.4,0.9-1,1c-0.4,0.1-0.8-0.1-1-0.5c-0.3-0.5-0.2-0.9,0.1-1.3c0.1-0.1,0.3-0.2,0.2-0.4c-0.1-0.2-0.3-0.2-0.5-0.2
		c-0.3,0-0.6,0.2-0.8,0.3c-0.4,0.3-0.8,0.5-1.2,0.5c-0.3,0-0.5,0.2-0.6,0.4c-0.1,0.3,0.2,0.3,0.3,0.5c1.2,0.9,2.3,1.9,3.5,2.8
		c0.1,0.1,0.4,0.2,0.3,0.5c-0.1,0.2-0.4,0.1-0.6,0.2c-0.3,0-0.5-0.2-0.7-0.3c-0.6-0.4-1.2-0.9-1.7-1.3c-0.3-0.2-0.6-0.4-1-0.1
		c-0.4,0.3,0.2,0.5,0.2,0.7c-0.1,0.7,0.6,0.9,0.7,1.5c0.1,1.1-1.3,2-2.3,1.5c-0.8-0.3-1.2-1-1.2-1.8c0.2-0.3,0.4-0.6,0.6-0.8
		c0.2-0.1,0.4-0.2,0.7-0.4c0.2-0.1,0.1-0.2,0-0.4c0-0.1,0-0.2,0-0.3c0.1-0.3,0.3-0.5,0.6-0.6c0.1,0,0.4,0,0.2-0.3
		c-0.1-0.2-0.3-0.1-0.4,0c-0.3,0.2-0.5,0.4-0.5,0.8c-0.2,0.3-0.4,0.7-0.6,1C162.2,21.3,162.2,21.7,162,22.1z M163.7,23
		c0.1,0.1,0.3,0.3,0.4,0.2c0.2-0.2-0.1-0.3-0.2-0.4c0-0.5,0-0.9,0.6-1.1c0,0,0.1,0,0.1-0.1c-0.1,0-0.2,0-0.2-0.1
		c-0.4-0.2-0.6,0.1-0.7,0.3C163.4,22.3,163.2,22.7,163.7,23z M170.2,17c-0.5-0.5-0.8-0.8-1.1-1.2c-1.2-1.4-0.9-1.3-2.2-0.1
		c-0.1,0.1-0.2,0.2-0.4,0.6C167.9,15.6,168.8,17,170.2,17z M180.5,10.7c-0.1-0.5-0.3-0.9-0.4-1.4c-0.1-0.2-0.2-0.3-0.4-0.1
		c-0.3,0.3-0.6,0.5-0.9,0.8c-0.1,0.1-0.2,0.3,0,0.3c0.5,0.1,0.8,0.4,1.3,0.6C180.2,11,180.6,11.1,180.5,10.7z"/>
	<path class="st30" d="M189,14.4c12.5-0.2,22.7,10.3,22.6,22.8c-0.1,12.1-10.3,22.6-23.2,22.3c-11.8-0.2-21.8-10.3-21.9-22.3
		C166.4,24.6,176.7,14.3,189,14.4z M189,58.4c11.6,0.1,21.3-9.3,21.5-21.1c0.2-12-9.5-21.6-21-21.8c-12.5-0.3-21.8,9.9-22,21.1
		C167.4,48.7,177.3,58.5,189,58.4z"/>
	<path class="st30" d="M164.8,52.5c-0.3-0.4-0.3-0.8-0.3-1.3c0-0.2,0.1-0.4,0.4-0.4c0.2,0,0.4,0.2,0.4,0.4c0,0.3,0.1,0.4,0.4,0.5
		c0.2,0,0.4,0,0.5-0.2c0.2-0.3-0.1-0.4-0.2-0.6c-0.3-0.6-0.9-1.2-0.4-2.1c0.5,0.5,0.8,1.2,1.1,1.8c0.8,1.2,1.6,2.4,2.6,3.4
		c0.1,0.1,0.3,0.3,0.3,0.4c0.3,0.7,0.5,0.9,1.1,0.2c0.3-0.3,0.3,0,0.3,0.2c0,0.1,0,0.2-0.1,0.4c-0.2,0.5,0.2,0.8,0.5,1
		c0.4,0.3,0.3-0.2,0.5-0.4c0.7-0.6,1.5-0.5,2.2-0.3c1.1,0.3,2.6,2.5,2.6,3.7c0,0.1,0,0.3-0.2,0.4c-0.4-0.6-0.7-1.3-1.1-1.9
		c-0.6-0.9-1.4-1.4-2.6-1.2c-0.2,0-0.4,0-0.4,0.2c-0.1,0.2,0.1,0.4,0.2,0.5c0.4,0.3,0.6,0.6,0.7,1c0,0.3,0.3,0.4,0.5,0.4
		c1.1,0.2,2,0.7,2.5,1.8c0.2,0.5,0.4,0.4,0.6,0c0.2-0.3,0.2-0.9,0.6-0.9c0.4,0,0.3,0.6,0.5,0.9c0.2,0.3,0.6,0.5,0.9,0.6
		c1.9,0.6,3.8,1.3,5.8,1.6c0.1,0,0.3,0,0.4,0.1c0.3,0.2,0.7,0.4,0.6,0.7c-0.1,0.3-0.5,0.1-0.8,0.1c-0.8-0.1-1.6-0.3-2.5-0.4
		c-0.3-0.2-0.7-0.3-1-0.3c-0.7-0.3-1.4-0.5-2-0.7c-0.2-0.1-0.5-0.1-0.5,0.3c0.1,1.1,0.2,2.2,1,3c0.6,0.7,1.8,1,2.6,0.6
		c0.7-0.3,0.9-1.1,0.3-1.6c-0.2-0.1-0.4-0.3-0.5,0.1c-0.1,0.5-0.4,0.8-1,0.7c-0.8-0.1-1.3-0.5-1.4-1.1c-0.1-0.6,0.3-1,1.2-1.2
		c0.1,0,0.2-0.1,0.3-0.1c0.4,0.1,0.7,0.2,1.1,0.3c0.6,0.5,1.3,1,1.5,1.8c0.2,1.1-0.3,1.9-1.3,2.2c-2,0.5-3.8-0.7-4.2-2.8
		c-0.1-0.7-0.2-1.3-0.2-2c0-0.4,0.1-0.8-0.4-0.9c-0.5-0.1-0.6,0.3-0.7,0.6c-0.5,1-0.9,2-1.4,3c-0.1,0.3-0.2,0.7-0.6,0.7
		c-0.4,0-0.6-0.9-0.4-1.3c0.3-0.6,0.6-1.1,0.9-1.7c0.2-0.3,0.4-0.7,0.1-1.1c-0.2-0.3-0.6-0.1-0.9-0.1c-0.5,0.1-0.9,0.1-1.3,0.2
		c-0.5,0.1-0.8-0.3-1-0.6c-0.2-0.4,0.3-0.4,0.6-0.5c0.2-0.1,0.3-0.2,0.3-0.3c0-0.2-0.2-0.2-0.3-0.3c-0.2-0.1-0.4-0.1-0.6-0.2
		c-0.4-0.3-0.4-0.7,0.1-1c0.2-0.1,0.5,0,0.4-0.3c-0.1-0.2-0.4-0.4-0.7-0.6c-0.2-0.2-0.4,0-0.5,0.1c-0.2,0.2-0.4,0.4-0.5,0.6
		c-0.8,0.9-1.5,1.8-2.3,2.7c-0.3,0.3-0.4,0.3-0.5-0.1c-0.2-0.5-0.1-0.8,0.2-1.2c0.7-0.8,1.4-1.6,2.1-2.4c0.3-0.3,0.5-0.6,0-1
		c-0.4-0.4-0.7-0.5-1.2,0c-0.9,1-1.9,2-2.8,2.9c-0.1,0.1-0.2,0.4-0.5,0.3c-0.2-0.1-0.1-0.4-0.2-0.6c-0.1-0.4,0-0.6,0.3-0.9
		c0.7-0.7,1.4-1.4,2.2-2.1c0.3-0.3,0.6-0.6,0.4-1.1c-0.2-0.7-0.5-0.7-1.1-0.5c-0.7,0.2-1.1,0.6-1.5,1.3c-0.3,0.6-1,0.5-1.6,0.3
		c-0.8-0.2-0.8-0.2-0.6,0.6c0.1,0.6,0.2,1.2,0.3,1.9c0,0.2,0.1,0.4,0,0.5c0,0.2-0.1,0.5-0.3,0.5c-0.3,0-0.2-0.3-0.3-0.5
		c-0.3-1.8-0.9-3.6-1.6-5.3c-0.4-0.9,0.5-1.3,0.6-2c0.3,0.3,0.2,0.7,0.4,0.9c0.1,0.6,0.4,1.1,0.8,1.5c0.3,0.4,0.7,0.7,1.2,0.8
		c0.3,0,0.6-0.1,0.6-0.4c0-0.3-0.2-0.4-0.5-0.3c-0.4,0.1-0.8-0.2-1.1-0.3c-0.4-0.4-0.6-0.7-0.7-1.3c0.1-0.4,0.5-0.5,0.8-0.6
		c0.3,0.1,0.7,0.2,1,0.5c0.1,0.1,0.2,0.3,0.4,0.1c0.1,0,0.1-0.2,0.1-0.3c0-0.2-0.2-0.2-0.3-0.2C165.4,52.8,165.1,52.7,164.8,52.5z
		 M174.7,60.1c-0.2-0.2-0.4-0.2-0.6-0.2c-0.1,0.7,0.3,1,1,1c0.1,0,0.2,0,0.3-0.1c0.1-0.2,0-0.3-0.2-0.4
		C175,60.2,174.9,60.1,174.7,60.1z M167.1,52.8c-0.2,0.5-0.2,0.9,0.1,1.3c0.2,0.2,0.3,0.4,0.6,0.2c0.2-0.2,0.2-0.4,0-0.6
		C167.6,53.4,167.4,53.2,167.1,52.8z"/>
	<path class="st30" d="M217.7,25c-0.2-0.8-0.8-1.5-1.1-2.3c-0.2-0.4-0.5-0.2-0.7-0.1c-1.3,0.7-2.6,1.5-3.9,2.2
		c-0.2,0.1-0.3,0.3-0.5,0.2c-0.2-0.1,0-0.4,0-0.6c0.1-0.4,0.5-0.6,0.8-0.8c0.5-0.3,0.9-0.6,1.3-0.9c0.2-0.2,0.3-0.4,0.3-0.7
		c0-0.3-0.3-0.4-0.5-0.5c-0.5-0.1-0.9-0.1-1.4-0.1c-0.5,0-0.8-0.3-0.9-0.7c-0.1-0.5,0-1.1,0.4-1.5c0.1-0.2,0.4-0.1,0.6,0
		c0.1,0.1,0.1,0.2,0.1,0.3c-0.1,0.2-0.3,0.5,0,0.6c0.4,0.1,0.9,0.2,1.2,0c0.3-0.2,0.5-0.5,0.3-0.8c-0.4-0.6-0.6-1.3-0.7-2
		c-0.1-0.5-0.5-0.3-0.8,0c-1.1,1-2.2,1.9-3.3,2.9c-0.1,0.1-0.2,0.3-0.4,0.2c-0.2-0.1-0.1-0.3-0.1-0.5c0,0,0-0.1,0-0.1
		c0.6-1.2,0.4-2.3-0.3-3.5c-0.5-0.9,0-1.4,1-1.2c0.7,0.1,1.4,0.5,2.1,0.7c0.1,0,0.2,0,0.3,0c0.1-0.1,0-0.2-0.1-0.3
		c-0.7-0.6-1.3-1.3-2-1.9c-0.6-0.6-0.8-0.5-1.3,0.2c-1,1.3-2,2.5-3,3.7c-0.3-0.7-0.2-1.2,0.2-1.7c0.8-1,1.5-2,2.3-2.9
		c0.4-0.5,0.2-0.7-0.2-1c-0.3-0.2-0.7-0.6-1,0c-0.7,1.1-1.5,2.2-2.3,3.3c-0.2,0.2-0.3,0.8-0.7,0.5c-0.3-0.2-0.2-0.7,0-1
		c0.4-0.6,0.8-1.1,1.2-1.7c0.2-0.3,0.3-0.5,0.3-0.8c0-0.4-0.1-0.6-0.5-0.5c-0.5,0.1-1.1,0.3-1.6,0.4c-0.3,0.1-0.6,0.1-0.9-0.2
		c-0.3-0.3-0.4-0.5,0.1-0.7c0.2-0.1,0.5-0.2,0.5-0.5c0-0.3-0.4-0.3-0.6-0.3c-0.3-0.1-0.5-0.2-0.6-0.5c-0.1-0.3,0.2-0.5,0.4-0.7
		c1.2-0.9,3.2-0.3,3.8,1.1c0.1,0.3,0.2,0.5,0.3,0.8c0.4-0.3,0.5-0.8,0.8-1.2c0.2-0.4-0.2-0.6-0.4-0.8c-0.7-0.8-0.6-1.6,0.2-2
		c0.2-0.1,0.4-0.2,0.5,0c0.1,0.2,0.1,0.4-0.1,0.5c-0.5,0.3-0.3,0.5,0.1,0.8c0.3,0.3,0.7,0.4,1,0.6c0.6,0.3,1.1,0.7,1.6,1.2
		c0.5,0.5,0.7,1.1,0.4,1.7c-0.2,0.3-0.1,0.5,0.2,0.7c3.2,2.8,6,6.1,8,9.9c0.9,1.7,1.6,3.4,2.2,5.2c0,0.1,0.1,0.3,0.1,0.4
		c0.1,0.6,0,1.4,1.1,0.9c0.1,0,0.2,0,0.2,0.1c0,0.2-0.1,0.4-0.2,0.5c-0.5,0.2-0.6,0.5-0.4,1c0.2,0.4-0.1,0.7-0.3,1
		c0,0.1-0.1,0.2-0.2,0.2c-0.1,0-0.1-0.1-0.2-0.2c-0.2-0.3,0.1-0.9-0.4-1.1c-0.5-0.1-1,0.1-1.5,0.2c-1.2,0.3-2.4,0.6-3.6,0.9
		c-0.1,0-0.4,0.1-0.4,0c-0.2-0.2,0.1-0.3,0.1-0.4c0.1-0.4,0.6-0.5,0.9-0.6c1-0.3,2.1-0.6,3.1-0.9c0.9-0.2,1-0.6,0.8-1.4
		c-0.3-1-0.7-1.9-1.1-2.9C218.1,25.6,217.9,25.3,217.7,25z M209.4,17.1c0,0.3,0.1,0.8,0.1,1.3c0,0.3,0.2,0.2,0.3,0.1
		c0.3-0.3,0.7-0.6,1-0.9c0.2-0.2,0.2-0.3,0-0.4c-0.4-0.2-0.7-0.3-1.1-0.4C209.4,16.6,209.3,16.7,209.4,17.1z M215.8,21.4
		c-0.3-0.5-0.7-1-1-1.5c0,0-0.2-0.1-0.2,0c0,0.3-0.6,0.6-0.1,1c0.3,0.2,0.2,0.4,0.3,0.7c0,0.2-0.2,0.6,0.2,0.5
		C215.3,21.9,215.6,21.8,215.8,21.4z M203.5,11.1c0.2-0.1,0.8,0,0.8-0.4c0-0.5-0.6-0.6-1-0.6c-0.2,0-0.4,0-0.3,0.3
		C203.1,10.6,202.9,11.1,203.5,11.1z M208.5,11.7c-0.2-0.6-0.7-0.8-1.1-1c-0.1-0.1-0.2-0.3-0.4-0.1c-0.1,0.2-0.1,0.4,0,0.5
		c0.4,0.3,0.8,0.6,1.2,0.8C208.4,11.9,208.6,12,208.5,11.7z"/>
	<path class="st30" d="M207.4,61.6c-0.1,0.9-0.5,1.7-1.2,2.4c-0.4,0.3-0.6,0.3-0.8-0.2c-0.2-0.7-0.5-1.2-1.4-1.1
		c-0.5,0.1-0.8,0.7-0.5,1.2c0.1,0.2,0.2,0.1,0.3,0.1c0.3,0,0.7-0.2,0.9,0.2c0.2,0.3,0.1,0.6-0.1,0.7c-0.3,0.3-0.7,0.5-1.2,0.4
		c-0.7-0.2-1.1-0.6-1.1-1.4c0-1.6,1.7-2.7,3.1-1.9c0.2,0.1,0.4,0.4,0.6,0.2c0.2-0.1,0.2-0.4,0.1-0.6c-0.1-0.3-0.4-0.4-0.7-0.4
		c-0.8,0.1-1.5,0.4-2.3,0.5c-0.7,0.1-1.5,0.3-2.2-0.1c-0.4-0.2-0.6-0.5-0.6-0.9c0-0.3,0.2-0.5,0.5-0.6c0.3-0.1,0.7-0.1,0.9,0.2
		c0.2,0.5,0.5,0.4,0.9,0.3c0.7-0.2,1.3-0.4,2-0.5c0.9-0.2,1.8-0.1,2.4,0.7C207.4,61,207.5,61.3,207.4,61.6z"/>
	<path class="st30" d="M218.9,51.6c-1.5,1-3,1.8-4.3,2.9c-0.1,0.1-0.2,0.1-0.2,0.2c-0.6,0.9-1.4,0.7-2.2,0.3
		c-0.1-0.1-0.4-0.1-0.4-0.3c0-0.2,0.2-0.2,0.4-0.2c0.6-0.4,1.3-0.7,1.7-1.3c0.2-0.2,0.3-0.5,0.4-0.7c0.1-0.2,0.2-0.5,0-0.7
		c-0.2-0.2-0.5-0.1-0.7,0c-0.6,0.3-1.1,0.6-1.5,1.1c-0.4,0.4-0.9,0.5-1.4,0c-0.3-0.4-0.2-0.9,0.1-1.1c1.1-0.3,1.9-1.2,3.1-1.2
		c0.9,0,1.4,0.6,1.4,1.6c0,0.6,0.1,0.6,0.5,0.3c0.5-0.3,1-0.6,1.5-0.9C217.8,51.3,218.3,51.3,218.9,51.6z"/>
	<path class="st30" d="M217.9,25.9c0,0.2,0,0.3,0,0.4c-0.3,0.6-0.4,1,0.5,1.2c0.3,0,0.2,0.4,0.1,0.6c-0.4,1.3-1.7,1.9-3,1.5
		c-1.2-0.3-1.9-1.6-1.6-2.8c0.3-1.5,1.4-2.5,2.4-3.5c0.1-0.1,0.2-0.2,0.3-0.1c0.1,0.2,0.2,0.4,0.1,0.6c-0.2,0.3-0.4,0.5-0.6,0.8
		c-0.7,1-1.4,2-0.8,3.3c0.3,0.7,1.2,1.1,1.8,0.9c0.3-0.1,0.4-0.3,0.1-0.5c-0.5-0.2-0.7-0.6-0.9-1.1c-0.4-0.6-0.4-1.2,0-1.8
		c0.4-0.6,1-0.4,1.5-0.2C217.7,25.5,217.8,25.7,217.9,25.9z"/>
	<path class="st30" d="M198.4,67.8c-0.3,0-0.7-0.1-0.9-0.5c-0.2-0.4,0.1-0.8,0.4-1.1c0.5-0.5,1-0.7,1.7-0.7c0.2,0,0.6,0.1,0.6-0.2
		c0.1-0.3-0.1-0.6-0.4-0.7c-0.6-0.3-1.2-0.4-1.9-0.6c-0.5-0.1-0.9-0.3-1.3-0.6c-0.4-0.4-0.5-0.8-0.1-1.2c0.4-0.4,0.8-0.5,1.1,0
		c0.4,0.6,1,0.7,1.6,0.9c0.1,0,0.1,0.1,0.2,0.1c0.9,0.4,1.8,0.8,1.9,1.9c0.1,1.2-0.8,1.8-1.7,2.4C199.3,67.6,198.9,67.8,198.4,67.8z
		"/>
	<path class="st30" d="M206.8,57.3c0.1-0.8,0.4-1.6,1.3-2c0.9-0.4,1.9-0.4,2.7,0.4c0.4,0.4,0.8,0.7,1.2,1.1c0.2,0.1,0.3,0.3,0.6,0.2
		c0.4-0.2,0.8-0.2,1,0.3c0.2,0.4-0.1,0.7-0.3,0.9c-0.3,0.4-0.7,0.4-1.1,0.2c-0.3-0.2-0.6-0.4-0.8-0.7c-0.5-0.6-0.8-0.6-1.3,0
		c-0.5,0.6-1,1.1-1.8,1.1C207.2,59,206.8,58.5,206.8,57.3z M207.9,57.3c0,0.3,0.1,0.6,0.3,0.6c0.6,0,0.9-0.6,1.3-1
		c0.1-0.1,0.3-0.3,0.1-0.5c0,0-0.1,0-0.1-0.1c-0.3-0.3-0.7-0.4-1-0.2C208,56.4,208,56.9,207.9,57.3z"/>
	<path class="st30" d="M197.2,11.3c0-1.9,1.4-3.5,3.1-3.6c0.2,0,0.5,0,0.7,0.1c0.4,0.2,0.6,0.6,0.6,0.9c0,0.4-0.5,0.1-0.7,0.1
		c-1.5-0.1-2.8,1.1-2.9,2.6c0,0.4,0,0.8,0.6,0.5c0.4-0.2,0.8-0.2,1.1,0.2c0.2,0.4,0.2,0.8-0.1,1.1c-0.3,0.4-0.7,0.4-1.2,0.3
		C197.6,13.2,197.2,12.5,197.2,11.3z"/>
	<path class="st30" d="M190.8,69c-0.3,0-0.6,0-0.9-0.1c-1-0.5-1.1-1.4-0.2-2.1c0.5-0.4,1.1-0.5,1.8-0.3c0.5,0.1,1,0.5,1,1.1
		c0.1,0.6-0.3,1-0.8,1.3C191.4,69,191.1,69,190.8,69z M191.4,67.7c0-0.4-0.2-0.5-0.5-0.5c-0.4,0.1-0.7,0.3-0.7,0.7
		c0,0.3,0.2,0.4,0.4,0.4C191.1,68.3,191.4,68.1,191.4,67.7z"/>
	<path class="st30" d="M190.6,66.1c-0.9,0-1.6-0.6-1.6-1.3c0-0.7,0.9-1.4,1.7-1.4c0.8,0,1.4,0.6,1.4,1.3
		C192.2,65.4,191.5,66.1,190.6,66.1z M191.2,64.6c0-0.3-0.2-0.4-0.4-0.4c-0.4,0.1-0.7,0.3-0.7,0.7c0,0.2,0.1,0.3,0.3,0.3
		C190.8,65.1,191.1,65,191.2,64.6z"/>
	<path class="st30" d="M178.9,12.5c-0.1-0.5,0.2-0.7,0.6-0.7c0.5,0,0.7,0.3,0.7,0.7c0,0.4-0.2,0.7-0.7,0.6
		C179.2,13.1,178.8,12.9,178.9,12.5z"/>
	<path class="st30" d="M207.1,18.5c0-0.4,0.2-0.7,0.7-0.7c0.4,0,0.7,0.3,0.7,0.7c0,0.4-0.3,0.7-0.8,0.7
		C207.3,19.1,207.1,18.9,207.1,18.5z"/>
	<path class="st32" d="M164.8,52.5c0.3,0.2,0.7,0.3,1.1,0.3c0.1,0,0.3,0,0.3,0.2c0,0.1,0,0.2-0.1,0.3c-0.2,0.1-0.3-0.1-0.4-0.1
		c-0.3-0.3-0.7-0.3-1-0.5C164.6,52.7,164.6,52.6,164.8,52.5z"/>
	<path class="st32" d="M163.9,53.3c0,0.5,0.3,0.9,0.7,1.3c0,0.1-0.1,0.1-0.1,0.2c-0.4-0.4-0.7-0.9-0.8-1.5
		C163.7,53.2,163.8,53.2,163.9,53.3z"/>
	<path class="st32" d="M162,22.1c0.2-0.3,0.2-0.8,0.6-1c0,0.1,0.1,0.1,0.1,0.2c-0.2,0.3-0.4,0.6-0.6,0.8
		C162.1,22.1,162.1,22.1,162,22.1z"/>
	<path class="st32" d="M158.7,30.5c0,0.1,0,0.1,0,0.2c-0.1,0.1-0.2,0.3-0.4,0.2c0.1-0.3,0.2-0.7,0.2-1
		C158.8,30,158.7,30.2,158.7,30.5z"/>
	<path class="st32" d="M217.9,25.9c-0.1-0.2-0.2-0.4-0.3-0.6c0-0.1,0-0.2,0.1-0.3c0.2,0.3,0.3,0.6,0.4,0.9
		C218,25.9,218,25.9,217.9,25.9z"/>
	<path class="st32" d="M182.6,63.4c-0.4-0.1-0.7-0.2-1.1-0.3c0,0,0-0.1,0-0.1c0.4,0,0.7,0.1,1,0.3C182.6,63.3,182.6,63.3,182.6,63.4
		z"/>
	<path class="st31" d="M170.2,17c-1.4,0-2.2-1.4-3.7-0.7c0.2-0.3,0.3-0.5,0.4-0.6c1.3-1.3,1-1.3,2.2,0.1
		C169.3,16.2,169.7,16.5,170.2,17z"/>
	<path class="st31" d="M180.5,10.7c0.1,0.4-0.2,0.3-0.4,0.2c-0.4-0.1-0.8-0.5-1.3-0.6c-0.2,0-0.1-0.3,0-0.3c0.3-0.3,0.6-0.6,0.9-0.8
		c0.2-0.2,0.3,0,0.4,0.1C180.2,9.8,180.3,10.3,180.5,10.7z"/>
	<path class="st31" d="M158.7,30.5c-0.1-0.2,0.1-0.5-0.1-0.7c0.2-0.6,0.2-1.2,0.6-1.6c0.2,0,0.1-0.2,0.1-0.3c0,0,0,0,0,0
		c0,0,0.1,0,0.1,0l0.1,0c0.2,0.6,0.2,1.1-0.4,1.5C158.7,29.6,158.8,30.1,158.7,30.5z"/>
	<path class="st31" d="M163.7,23c-0.5-0.3-0.3-0.7,0-1.1c0.2-0.2,0.3-0.5,0.7-0.3c0.1,0,0.1,0,0.2,0.1c0,0-0.1,0.1-0.1,0.1
		c-0.6,0.2-0.6,0.6-0.6,1.1C163.8,22.9,163.8,23,163.7,23z"/>
	<path class="st32" d="M163.3,20.1c0-0.4,0.3-0.6,0.5-0.8c0.2-0.1,0.3-0.2,0.4,0c0.2,0.3-0.1,0.3-0.2,0.3c-0.3,0.1-0.4,0.3-0.6,0.6
		C163.4,20.1,163.3,20.1,163.3,20.1z"/>
	<path class="st31" d="M163.3,20.1c0.1,0,0.1,0.1,0.2,0.1c0,0.1,0,0.2,0,0.3c0,0.1,0,0.2,0,0.4c-0.2,0.1-0.4,0.2-0.7,0.4
		c0-0.1-0.1-0.1-0.1-0.2C162.8,20.7,163.1,20.4,163.3,20.1z"/>
	<path class="st32" d="M159.4,27.9L159.4,27.9c-0.1,0-0.1,0-0.1,0c0-0.1,0-0.3,0.1-0.4c0.1-0.2,0-0.5,0.4-0.5c0.1,0,0.2,0,0.2,0.1
		c0.1,0.3-0.2,0.3-0.3,0.4C159.6,27.7,159.5,27.8,159.4,27.9z"/>
	<path class="st32" d="M163.7,23c0.1-0.1,0.1-0.1,0.2-0.2c0.1,0.1,0.4,0.2,0.2,0.4C164,23.4,163.8,23.2,163.7,23z"/>
	<path class="st32" d="M163.4,20.9c0-0.1,0-0.2,0-0.4C163.5,20.6,163.6,20.8,163.4,20.9z"/>
	<path class="st32" d="M159.3,27.9c0,0.1,0,0.2-0.1,0.3C159.2,28.1,159.2,27.9,159.3,27.9z"/>
	<path class="st32" d="M189,58.4c-11.7,0.1-21.6-9.7-21.4-21.8c0.2-11.2,9.5-21.4,22-21.1c11.4,0.3,21.1,9.8,21,21.8
		C210.4,49.1,200.6,58.5,189,58.4z M170.6,38.1c1.3,0,1.2,0,1.3,0.8c0,0.4-0.1,0.5-0.4,0.5c-0.5,0.1-0.9,0.2-1.4,0.3
		c-0.4,0.1-0.5,0.2-0.5,0.6c0.4,1.8,0.3,1.8,2.1,1.4c0,0,0.1,0,0.1,0c0.4-0.1,0.6,0,0.7,0.4c0.2,0.6-0.2,0.6-0.5,0.8
		c-1.8,0.8-1.8,0.8-0.9,2.5c0.2,0.3,0.3,0.4,0.6,0.3c0.4-0.2,0.8-0.4,1.2-0.5c0.3-0.1,0.6-0.4,0.9,0.1c0.3,0.5-0.1,0.6-0.3,0.8
		c-0.4,0.3-0.7,0.6-1.1,0.9c-0.3,0.2-0.3,0.5,0,0.7c0.5,0.4,0.5,1.3,1.3,1.3c0.2,0,0.3-0.2,0.5-0.3c0.3-0.2,0.6-0.5,0.9-0.7
		c0.2-0.2,0.4-0.2,0.6,0.1c0.4,0.4,0.5,0.7,0.1,1.1c-0.3,0.3-0.5,0.6-0.8,0.9c-0.3,0.3-0.3,0.5,0,0.8c0.5,0.4,0.8,1,1.3,1.1
		c0.5,0.1,0.8-0.7,1.2-1.1c0.3-0.4,0.6-0.4,1-0.1c0.5,0.3,0.2,0.6,0,0.9c-0.2,0.4-0.5,0.8-0.7,1.1c-0.2,0.3-0.2,0.4,0.1,0.6
		c1.6,1.1,1.6,1.1,2.6-0.5c0,0,0.1-0.1,0.1-0.1c0.3-0.6,0.7-0.2,1.1-0.1c0.4,0.1,0.4,0.4,0.3,0.8c-0.2,0.4-0.3,0.9-0.5,1.3
		c-0.1,0.3,0,0.4,0.2,0.6c1.7,0.9,1.8,0.8,2.4-0.9c0,0,0-0.1,0.1-0.1c0.1-0.6,0.4-0.6,0.9-0.5c0.5,0.2,0.3,0.5,0.3,0.8
		c-0.4,1.7-0.4,1.7,1.3,2c0.1,0,0.2,0,0.2,0c0.4,0.1,0.7,0,0.7-0.5c0-0.5,0.2-1,0.2-1.6c0-0.2,0.1-0.3,0.4-0.4
		c1.3-0.2,1.5,0,1.5,1.3c0,0.2,0,0.3,0,0.5c0,0.5,0.2,0.8,0.7,0.7c2-0.2,1.7,0.3,1.6-1.8c0-0.4-0.1-0.8,0.5-0.9
		c0.6-0.1,0.9,0.1,1,0.6c0,0.2,0.1,0.4,0.2,0.7c0.1,0.6,0.4,0.7,1,0.5c1.5-0.5,1.6-0.5,1.1-2c-0.2-0.6,0-0.8,0.5-1.1
		c0.6-0.3,0.6,0.2,0.8,0.5c0.1,0.2,0.3,0.4,0.3,0.6c0.2,0.6,0.5,0.6,1,0.3c1.4-0.8,1.5-0.8,0.6-2.2c-0.3-0.5-0.1-0.7,0.3-1
		c0.4-0.4,0.6-0.2,0.9,0.2c0.1,0.2,0.3,0.3,0.4,0.5c0.4,0.7,0.8,0.5,1.3,0.1c1.1-1,1.1-0.9,0.2-2.1c-0.1-0.1-0.2-0.2-0.2-0.3
		c-0.3-0.2-0.2-0.4,0-0.7c0.4-0.6,0.8-0.6,1.3-0.1c0.2,0.2,0.5,0.4,0.7,0.6c0.3,0.2,0.4,0.2,0.7-0.1c1.2-1.5,1.2-1.4-0.2-2.6
		c0,0-0.1-0.1-0.1-0.1c-0.3-0.2-0.3-0.4-0.2-0.7c0.3-0.8,0.7-0.4,1.1-0.1c1.1,0.6,1.1,0.6,1.7-0.5c0.5-1,0.5-1-0.4-1.5
		c-0.2-0.1-0.5-0.3-0.7-0.4c-0.6-0.3-0.2-0.7-0.1-1c0-0.4,0.3-0.4,0.6-0.3c1.8,0.4,1.8,0.4,2.2-1.4c0.1-0.4,0-0.6-0.5-0.6
		c-0.4-0.1-0.8-0.2-1.3-0.3c-0.5-0.1-0.5-0.3-0.5-0.7c0-0.5,0.2-0.6,0.7-0.6c0.2,0,0.5,0,0.8,0c0.7,0.1,0.9-0.1,0.9-0.8
		c0-1.5,0-1.5-1.5-1.6c-0.4,0-0.7,0-0.8-0.6c0-0.6,0.2-0.6,0.6-0.7c0.3,0,0.5-0.1,0.8-0.1c0.6,0,0.7-0.3,0.6-0.9
		c-0.3-1.6-0.3-1.6-1.9-1.3c-0.4,0.1-0.7,0.1-0.9-0.4c-0.1-0.5-0.2-0.8,0.4-1c0.2-0.1,0.5-0.2,0.7-0.3c0.9-0.5,0.9-0.2,0.4-1.3
		c-0.7-1.2-0.7-1.2-1.9-0.6c-0.3,0.2-0.6,0.5-0.9-0.1c-0.3-0.5-0.3-0.8,0.2-1c0.3-0.2,0.5-0.4,0.8-0.6c0.4-0.3,0.5-0.5,0.1-1
		c-1.1-1.4-1.1-1.4-2.4-0.3c-0.3,0.2-0.5,0.4-0.8,0c-0.3-0.3-0.5-0.6,0-0.9c0.2-0.2,0.4-0.4,0.6-0.6c0.5-0.4,0.4-0.7-0.1-1.1
		c-1.2-1-1.2-1.1-2.2,0c-0.4,0.4-0.6,0.4-1,0.1c-0.5-0.4-0.4-0.6-0.1-1c0.1-0.1,0.2-0.3,0.3-0.4c0.6-0.6,0.3-0.9-0.3-1.3
		c-1.2-0.7-1.2-0.8-2,0.5c-0.3,0.5-0.5,0.6-1.1,0.3c-0.6-0.3-0.4-0.6-0.3-1c0.1-0.2,0.1-0.3,0.2-0.5c0.3-0.7,0.2-1-0.6-1.2
		c-1.4-0.4-1.5-0.4-1.8,0.9c-0.2,0.7-0.6,0.8-1.1,0.6c-0.7-0.2-0.3-0.8-0.3-1.2c0-1.2,0.1-1.2-1.1-1.3c0,0-0.1,0-0.1,0
		c-1.1-0.1-1.1-0.1-1.2,1c-0.1,1.1-0.1,1-1.1,1.1c-0.6,0-0.9-0.1-0.9-0.7c0-0.2-0.1-0.5-0.1-0.8c0-0.5-0.2-0.7-0.7-0.6
		c-1.7,0.2-1.7,0.1-1.5,1.8c0,0.5-0.1,0.7-0.6,0.8c-0.5,0.1-0.6-0.2-0.7-0.5c-0.1-0.4-0.2-0.7-0.4-1.1c-0.1-0.2-0.1-0.4-0.3-0.4
		c-0.7,0.1-1.4,0.2-1.9,0.7c-0.4,0.3,0.1,0.8,0.2,1.2c0,0.2,0.1,0.4,0.2,0.6c0.1,0.2,0,0.4-0.2,0.5c-0.7,0.5-0.8,0.4-1.2-0.3
		c-0.1-0.2-0.3-0.5-0.4-0.7c-0.2-0.4-0.3-0.5-0.7-0.3c-1.6,0.8-1.7,0.8-0.8,2.4c0,0,0,0,0,0.1c0.3,0.4,0.2,0.6-0.2,0.9
		c-0.4,0.3-0.6,0.1-0.8-0.1c-0.2-0.3-0.5-0.5-0.7-0.8c-0.3-0.4-0.5-0.4-0.9,0c-1.2,1.2-1.2,1.2-0.1,2.4c0.4,0.4,0.3,0.7,0,1
		c-0.4,0.5-0.6,0.1-0.9-0.1c-0.3-0.2-0.5-0.5-0.8-0.7c-0.2-0.2-0.4-0.2-0.6,0c-1.3,1.3-1.3,1.4,0.1,2.6c0,0,0,0,0.1,0
		c0.4,0.2,0.4,0.5,0.2,0.9c-0.3,0.5-0.5,0.3-0.9,0.2c-0.4-0.2-0.8-0.4-1.2-0.5c-1.1-0.4-0.8,0.7-1.1,1.1c-0.2,0.3-0.7,0.8,0.2,1.1
		c0.5,0.1,0.9,0.4,1.4,0.6c0.4,0.1,0.3,0.4,0.2,0.7c-0.1,0.3-0.3,0.4-0.6,0.3c-0.4-0.1-0.9-0.2-1.3-0.3c-0.4-0.1-0.6-0.1-0.7,0.4
		c-0.5,1.8-0.5,1.8,1.3,2.2c0.4,0.1,0.7,0.1,0.7,0.7c0,0.6-0.4,0.6-0.8,0.6c-0.4,0-0.8,0-1.1,0c-0.4,0-0.7,0.1-0.6,0.6
		c0,0.2,0,0.4,0,0.6C169.4,38.1,169.4,38.1,170.6,38.1z"/>
	<path class="st31" d="M181.6,63c0,0,0,0.1,0,0.1c-0.1,0-0.2,0.1-0.3,0.1c-0.8,0.2-1.2,0.6-1.2,1.2c0.1,0.6,0.6,1,1.4,1.1
		c0.5,0,0.9-0.2,1-0.7c0.1-0.4,0.3-0.3,0.5-0.1c0.6,0.4,0.5,1.2-0.3,1.6c-0.8,0.3-1.9,0-2.6-0.6c-0.8-0.8-0.9-1.9-1-3
		c0-0.4,0.3-0.4,0.5-0.3C180.2,62.5,180.9,62.7,181.6,63z"/>
	<path class="st31" d="M164.4,54.8c0-0.1,0.1-0.1,0.1-0.2c0.4,0.1,0.7,0.4,1.1,0.3c0.3-0.1,0.5,0,0.5,0.3c0,0.3-0.3,0.5-0.6,0.4
		C165.1,55.5,164.6,55.2,164.4,54.8z"/>
	<path class="st31" d="M167.1,52.8c0.3,0.3,0.5,0.6,0.7,0.8c0.2,0.2,0.2,0.4,0,0.6c-0.2,0.2-0.4,0-0.6-0.2
		C166.9,53.7,166.9,53.3,167.1,52.8z"/>
	<path class="st32" d="M175.2,60.4c0.2,0.1,0.3,0.2,0.2,0.4c-0.1,0.1-0.2,0.1-0.3,0.1c-0.7,0.1-1.1-0.2-1-1c0.2-0.1,0.4,0,0.6,0.2
		c-0.2,0-0.3,0.1-0.4,0.3c0,0.1,0.1,0.2,0.2,0.3C174.8,60.8,175,60.6,175.2,60.4z"/>
	<path class="st31" d="M175.2,60.4c-0.2,0.2-0.3,0.4-0.7,0.3c-0.1,0-0.2-0.1-0.2-0.3c0-0.2,0.2-0.3,0.4-0.3
		C174.9,60.1,175,60.2,175.2,60.4z"/>
	<path class="st31" d="M209.4,17.1c-0.1-0.4,0.1-0.5,0.3-0.4c0.4,0.1,0.8,0.3,1.1,0.4c0.2,0.1,0.2,0.3,0,0.4c-0.3,0.3-0.7,0.6-1,0.9
		c-0.1,0.1-0.3,0.2-0.3-0.1C209.4,17.9,209.4,17.4,209.4,17.1z"/>
	<path class="st31" d="M215.8,21.4c-0.2,0.4-0.5,0.6-0.8,0.6c-0.4,0.1-0.2-0.3-0.2-0.5c-0.1-0.2,0-0.5-0.3-0.7
		c-0.5-0.4,0.1-0.6,0.1-1c0-0.1,0.1-0.1,0.2,0C215.1,20.4,215.5,20.9,215.8,21.4z"/>
	<path class="st31" d="M203.5,11.1c-0.6,0-0.4-0.5-0.5-0.8c-0.1-0.2,0.1-0.3,0.3-0.3c0.4,0.1,1,0.2,1,0.6
		C204.3,11,203.8,11,203.5,11.1z"/>
	<path class="st31" d="M208.5,11.7c0,0.3-0.2,0.2-0.3,0.1c-0.4-0.3-0.8-0.5-1.2-0.8c-0.1-0.1-0.2-0.3,0-0.5c0.2-0.2,0.3,0,0.4,0.1
		C207.9,10.9,208.4,11.2,208.5,11.7z"/>
	<path class="st31" d="M207.9,57.3c0.1-0.4,0.1-0.9,0.5-1.1c0.3-0.2,0.7-0.1,1,0.2c0,0,0.1,0,0.1,0.1c0.2,0.2,0,0.4-0.1,0.5
		c-0.4,0.4-0.7,1-1.3,1C208,57.9,207.9,57.6,207.9,57.3z"/>
	<path class="st31" d="M191.4,67.7c0,0.4-0.3,0.6-0.7,0.6c-0.3,0-0.4-0.1-0.4-0.4c0-0.4,0.3-0.7,0.7-0.7
		C191.2,67.2,191.4,67.3,191.4,67.7z"/>
	<path class="st31" d="M191.2,64.6c-0.1,0.4-0.4,0.5-0.7,0.6c-0.2,0-0.4,0-0.3-0.3c0-0.4,0.3-0.6,0.7-0.7
		C191,64.2,191.2,64.4,191.2,64.6z"/>
	<path class="st30" d="M170.6,38.1c-1.2,0-1.2,0-1.2-1.2c0-0.2,0-0.4,0-0.6c-0.1-0.5,0.1-0.6,0.6-0.6c0.4,0,0.8,0,1.1,0
		c0.4,0,0.8,0,0.8-0.6c0-0.6-0.2-0.6-0.7-0.7c-1.8-0.4-1.8-0.4-1.3-2.2c0.1-0.4,0.3-0.5,0.7-0.4c0.4,0.1,0.9,0.2,1.3,0.3
		c0.3,0.1,0.5,0,0.6-0.3c0.1-0.3,0.1-0.5-0.2-0.7c-0.5-0.2-0.9-0.5-1.4-0.6c-0.9-0.3-0.4-0.8-0.2-1.1c0.3-0.4,0-1.5,1.1-1.1
		c0.4,0.1,0.8,0.3,1.2,0.5c0.3,0.2,0.6,0.3,0.9-0.2c0.2-0.4,0.3-0.7-0.2-0.9c0,0,0,0-0.1,0c-1.4-1.2-1.4-1.3-0.1-2.6
		c0.2-0.2,0.4-0.2,0.6,0c0.3,0.2,0.5,0.5,0.8,0.7c0.3,0.2,0.5,0.6,0.9,0.1c0.3-0.4,0.5-0.6,0-1c-1.1-1.2-1.1-1.2,0.1-2.4
		c0.4-0.4,0.6-0.4,0.9,0c0.2,0.3,0.5,0.5,0.7,0.8c0.2,0.3,0.5,0.4,0.8,0.1c0.3-0.3,0.4-0.5,0.2-0.9c0,0,0,0,0-0.1
		c-0.8-1.6-0.8-1.6,0.8-2.4c0.4-0.2,0.6-0.1,0.7,0.3c0.1,0.3,0.3,0.5,0.4,0.7c0.4,0.7,0.5,0.8,1.2,0.3c0.2-0.1,0.3-0.2,0.2-0.5
		c-0.1-0.2-0.2-0.4-0.2-0.6c0-0.4-0.6-0.9-0.2-1.2c0.5-0.4,1.2-0.5,1.9-0.7c0.2,0,0.3,0.2,0.3,0.4c0.1,0.4,0.2,0.7,0.4,1.1
		c0.1,0.3,0.2,0.7,0.7,0.5c0.5-0.1,0.6-0.3,0.6-0.8c-0.1-1.7-0.1-1.7,1.5-1.8c0.5-0.1,0.8,0.1,0.7,0.6c0,0.2,0.1,0.5,0.1,0.8
		c0,0.6,0.3,0.8,0.9,0.7c1-0.1,1,0,1.1-1.1c0.1-1.1,0.1-1.1,1.2-1c0,0,0.1,0,0.1,0c1.1,0.1,1.1,0.1,1.1,1.3c0,0.4-0.4,0.9,0.3,1.2
		c0.6,0.2,0.9,0.2,1.1-0.6c0.4-1.4,0.4-1.3,1.8-0.9c0.8,0.2,0.9,0.5,0.6,1.2c-0.1,0.2-0.1,0.3-0.2,0.5c-0.1,0.4-0.3,0.7,0.3,1
		c0.5,0.2,0.8,0.1,1.1-0.3c0.8-1.3,0.8-1.2,2-0.5c0.6,0.4,0.9,0.7,0.3,1.3c-0.1,0.1-0.2,0.3-0.3,0.4c-0.3,0.4-0.4,0.6,0.1,1
		c0.4,0.3,0.7,0.3,1-0.1c1.1-1.1,1.1-1.1,2.2,0c0.5,0.4,0.6,0.7,0.1,1.1c-0.2,0.2-0.4,0.4-0.6,0.6c-0.4,0.3-0.2,0.6,0,0.9
		c0.3,0.4,0.5,0.3,0.8,0c1.3-1.1,1.3-1,2.4,0.3c0.3,0.4,0.3,0.7-0.1,1c-0.3,0.2-0.5,0.4-0.8,0.6c-0.5,0.3-0.5,0.6-0.2,1
		c0.3,0.6,0.6,0.2,0.9,0.1c1.3-0.7,1.3-0.7,1.9,0.6c0.6,1.1,0.5,0.8-0.4,1.3c-0.2,0.1-0.4,0.3-0.7,0.3c-0.5,0.2-0.5,0.5-0.4,1
		c0.2,0.5,0.4,0.5,0.9,0.4c1.6-0.3,1.6-0.3,1.9,1.3c0.1,0.6,0,0.9-0.6,0.9c-0.3,0-0.5,0.1-0.8,0.1c-0.4,0.1-0.7,0.1-0.6,0.7
		c0,0.6,0.4,0.5,0.8,0.6c1.5,0,1.5,0,1.5,1.6c0,0.7-0.2,0.9-0.9,0.8c-0.2,0-0.5,0-0.8,0c-0.4,0-0.6,0.1-0.7,0.6c0,0.4,0,0.7,0.5,0.7
		c0.4,0.1,0.8,0.2,1.3,0.3c0.4,0.1,0.5,0.2,0.5,0.6c-0.4,1.8-0.4,1.8-2.2,1.4c-0.3-0.1-0.6-0.1-0.6,0.3c0,0.3-0.5,0.7,0.1,1
		c0.3,0.1,0.5,0.3,0.7,0.4c1,0.5,1,0.5,0.4,1.5c-0.6,1.1-0.6,1.1-1.7,0.5c-0.4-0.2-0.8-0.6-1.1,0.1c-0.1,0.3-0.1,0.5,0.2,0.7
		c0,0,0.1,0.1,0.1,0.1c1.4,1.1,1.4,1.1,0.2,2.6c-0.2,0.3-0.4,0.3-0.7,0.1c-0.2-0.2-0.5-0.3-0.7-0.6c-0.5-0.5-0.9-0.5-1.3,0.1
		c-0.2,0.3-0.2,0.5,0,0.7c0.1,0.1,0.2,0.2,0.2,0.3c0.9,1.1,0.9,1.1-0.2,2.1c-0.5,0.5-0.9,0.6-1.3-0.1c-0.1-0.2-0.3-0.3-0.4-0.5
		c-0.3-0.4-0.5-0.5-0.9-0.2c-0.4,0.3-0.6,0.5-0.3,1c0.8,1.4,0.8,1.4-0.6,2.2c-0.5,0.3-0.8,0.4-1-0.3c-0.1-0.2-0.2-0.4-0.3-0.6
		c-0.2-0.3-0.2-0.8-0.8-0.5c-0.5,0.2-0.7,0.4-0.5,1.1c0.5,1.5,0.5,1.5-1.1,2c-0.6,0.2-0.9,0.1-1-0.5c0-0.2-0.1-0.4-0.2-0.7
		c-0.1-0.6-0.3-0.8-1-0.6c-0.7,0.1-0.5,0.5-0.5,0.9c0.1,2.1,0.4,1.6-1.6,1.8c-0.6,0.1-0.8-0.2-0.7-0.7c0-0.2,0-0.3,0-0.5
		c-0.1-1.3-0.2-1.4-1.5-1.3c-0.3,0-0.3,0.2-0.4,0.4c-0.1,0.5-0.2,1-0.2,1.6c0,0.5-0.3,0.6-0.7,0.5c-0.1,0-0.1,0-0.2,0
		c-1.7-0.3-1.7-0.3-1.3-2c0.1-0.3,0.3-0.7-0.3-0.8c-0.5-0.2-0.8-0.1-0.9,0.5c0,0,0,0.1-0.1,0.1c-0.7,1.7-0.7,1.8-2.4,0.9
		c-0.3-0.1-0.4-0.3-0.2-0.6c0.2-0.4,0.3-0.9,0.5-1.3c0.2-0.4,0.2-0.6-0.3-0.8c-0.4-0.1-0.8-0.5-1.1,0.1c0,0-0.1,0.1-0.1,0.1
		c-1,1.6-1,1.6-2.6,0.5c-0.3-0.2-0.4-0.3-0.1-0.6c0.3-0.4,0.5-0.8,0.7-1.1c0.2-0.3,0.4-0.5,0-0.9c-0.4-0.3-0.6-0.3-1,0.1
		c-0.4,0.4-0.7,1.1-1.2,1.1c-0.5-0.1-0.9-0.7-1.3-1.1c-0.4-0.3-0.4-0.5,0-0.8c0.3-0.3,0.5-0.6,0.8-0.9c0.5-0.4,0.3-0.7-0.1-1.1
		c-0.2-0.2-0.4-0.3-0.6-0.1c-0.3,0.3-0.6,0.5-0.9,0.7c-0.2,0.1-0.3,0.3-0.5,0.3c-0.8,0-0.9-0.9-1.3-1.3c-0.3-0.2-0.3-0.4,0-0.7
		c0.4-0.3,0.8-0.6,1.1-0.9c0.2-0.2,0.6-0.3,0.3-0.8c-0.3-0.5-0.6-0.3-0.9-0.1c-0.4,0.2-0.8,0.4-1.2,0.5c-0.3,0.1-0.5,0.1-0.6-0.3
		c-0.8-1.7-0.8-1.7,0.9-2.5c0.3-0.1,0.8-0.2,0.5-0.8c-0.1-0.4-0.3-0.5-0.7-0.4c0,0-0.1,0-0.1,0c-1.8,0.4-1.8,0.4-2.1-1.4
		c-0.1-0.5,0.1-0.6,0.5-0.6c0.5-0.1,0.9-0.2,1.4-0.3c0.3-0.1,0.5-0.2,0.4-0.5C171.9,38.1,171.9,38.1,170.6,38.1z M189,53.1
		c8.6,0.1,16.1-7.1,16.3-15.7c0.2-9.1-6.9-16.5-15.8-16.7c-8.9-0.2-16.4,6.8-16.6,15.9C172.7,45.5,179.8,53.1,189,53.1z"/>
	<path class="st32" d="M189,53.1c-9.2,0-16.3-7.6-16.1-16.5c0.2-9,7.7-16,16.6-15.9c8.8,0.2,15.9,7.6,15.8,16.7
		C205.1,46.1,197.6,53.3,189,53.1z M177,34c0,0.1,0,0.1,0.1,0.2c0.5,0,0.9,0,1.4,0c0.7,0,1.4,0,2,0c0.3,0,0.5,0.1,0.6,0.5
		c0.5,3.2,1.7,6.3,3,9.3c0.3,0.8,0.3,0.8-0.5,0.8c-0.5,0-0.8,0.1-0.8,0.7c0,0.6,0.2,0.9,0.8,0.8c0.5,0,1,0,1.4,0
		c0.4,0,0.7,0.1,1,0.5c0.7,0.9,1.3,1.8,2.1,2.6c0.3,0.3,0.6,0.3,1,0c0.5-0.6,1-1.1,1.4-1.7c0.7-1.1,1.6-1.8,3-1.5
		c0.3,0.1,0.6,0,0.6-0.5c0-0.4,0.3-1-0.4-1c-0.6-0.1-0.7-0.3-0.4-0.8c1.2-3,2.2-6.1,2.9-9.2c0.1-0.5,0.3-0.7,0.8-0.7
		c0.8,0,1.5,0,2.3,0c-0.1-0.3-0.3-0.4-0.5-0.5c-2.3-1.4-4.6-2.8-6.9-4.1c-1.2-0.7-1.8-1.4-1.6-2.8c0.2-1.6,0-1.7-1.7-1.6
		c-0.7,0-1.6-0.3-2.1,0.1c-0.5,0.5-0.2,1.4-0.2,2.2c0,0.6-0.2,1-0.7,1.3c-2.2,1.4-4.4,2.8-6.6,4.2C178.3,33.1,177.7,33.6,177,34z"/>
	<path class="st33" d="M177,34c0.7-0.4,1.3-0.9,2-1.3c2.2-1.4,4.4-2.8,6.6-4.2c0.5-0.3,0.7-0.6,0.7-1.3c0-0.7-0.3-1.7,0.2-2.2
		c0.5-0.4,1.4-0.1,2.1-0.1c1.7,0,1.8,0,1.7,1.6c-0.1,1.4,0.4,2.2,1.6,2.8c2.4,1.3,4.6,2.7,6.9,4.1c0.2,0.1,0.3,0.2,0.5,0.5
		c-0.8,0-1.5,0-2.3,0c-0.5,0-0.7,0.2-0.8,0.7c-0.7,3.2-1.6,6.3-2.9,9.2c-0.2,0.5-0.1,0.7,0.4,0.8c0.7,0.1,0.4,0.6,0.4,1
		c0.1,0.5-0.3,0.5-0.6,0.5c-1.4-0.3-2.3,0.4-3,1.5c-0.4,0.6-0.9,1.1-1.4,1.7c-0.3,0.4-0.6,0.4-1,0c-0.8-0.8-1.5-1.7-2.1-2.6
		c-0.3-0.4-0.6-0.5-1-0.5c-0.5,0-1,0-1.4,0c-0.6,0.1-0.8-0.2-0.8-0.8c0-0.6,0.2-0.7,0.8-0.7c0.8,0,0.8,0,0.5-0.8c-1.3-3-2.5-6-3-9.3
		c-0.1-0.3-0.2-0.5-0.6-0.5c-0.7,0-1.4,0-2,0c-0.5,0-0.9,0-1.4,0C177.1,34.1,177.1,34.1,177,34z M187.8,39.5
		C187.8,39.5,187.8,39.5,187.8,39.5c0-1.5,0-3,0-4.5c0-0.7-0.2-0.8-0.8-0.8c-1.2,0-2.5,0-3.7,0c-1,0-1.1,0-0.9,1.1
		c0.6,2.9,1.7,5.7,2.9,8.4c0.4,0.8,0.8,1.2,1.7,1.1c0.6-0.1,0.8-0.3,0.8-0.8C187.8,42.5,187.8,41,187.8,39.5z M189.8,39.3
		C189.8,39.3,189.8,39.3,189.8,39.3c0.1,1.6,0.1,3.1,0.1,4.7c0,0.2-0.1,0.5,0.2,0.7c0.6,0.3,1.7-0.1,2-0.7c1.5-3,2.2-6.2,3.2-9.4
		c0.1-0.4,0-0.5-0.4-0.5c-1.5,0-2.9,0-4.4,0c-0.5,0-0.6,0.2-0.6,0.7C189.8,36.3,189.8,37.8,189.8,39.3z M187.7,46.5
		c0-0.3,0-0.5-0.4-0.5c-0.2,0-0.4,0-0.4,0.2c0.1,0.3,0.3,0.5,0.6,0.6C187.8,46.9,187.7,46.6,187.7,46.5z M189.8,46.4
		c0.1,0.1-0.1,0.5,0.2,0.5c0.3,0,0.4-0.3,0.5-0.6c0-0.2-0.1-0.2-0.3-0.2C189.9,46,189.7,46.1,189.8,46.4z"/>
	<path class="st32" d="M187.8,39.5c0,1.5,0,3,0,4.5c0,0.6-0.1,0.8-0.8,0.8c-0.9,0.1-1.4-0.3-1.7-1.1c-1.2-2.7-2.3-5.5-2.9-8.4
		c-0.2-1-0.2-1.1,0.9-1.1c1.2,0,2.5,0,3.7,0c0.6,0,0.8,0.1,0.8,0.8C187.8,36.5,187.9,38,187.8,39.5
		C187.8,39.5,187.8,39.5,187.8,39.5z"/>
	<path class="st32" d="M189.8,39.3c0-1.5,0-3,0-4.5c0-0.5,0.1-0.7,0.6-0.7c1.5,0,2.9,0,4.4,0c0.4,0,0.5,0.2,0.4,0.5
		c-0.9,3.2-1.7,6.4-3.2,9.4c-0.3,0.6-1.5,1-2,0.7c-0.3-0.2-0.2-0.4-0.2-0.7C189.8,42.4,189.9,40.9,189.8,39.3
		C189.8,39.3,189.8,39.3,189.8,39.3z"/>
	<path class="st32" d="M187.7,46.5c0,0.1,0.1,0.4-0.2,0.3c-0.3-0.1-0.5-0.3-0.6-0.6c-0.1-0.3,0.2-0.2,0.4-0.2
		C187.7,46,187.7,46.3,187.7,46.5z"/>
	<path class="st32" d="M189.8,46.4c0-0.3,0.1-0.4,0.4-0.4c0.2,0,0.3,0,0.3,0.2c-0.1,0.3-0.2,0.6-0.5,0.6
		C189.7,46.9,189.9,46.5,189.8,46.4z"/>
</g>
</svg>
