<?xml version="1.0" encoding="utf-8"?>
<!-- Generator: Adobe Illustrator 24.0.0, SVG Export Plug-In . SVG Version: 6.00 Build 0)  -->
<svg version="1.1" id="Layer_1" xmlns="http://www.w3.org/2000/svg" xmlns:xlink="http://www.w3.org/1999/xlink" x="0px" y="0px"
	 viewBox="0 0 691 313" style="enable-background:new 0 0 691 313;" xml:space="preserve">
<style type="text/css">
	.st0{fill:#258E9E;}
	.st1{fill:#D3255B;}
	.st2{fill:#E45D2A;}
	.st3{fill:#F2B022;}
	.st4{fill:#231F20;}
	.st5{fill:#E75148;}
	.st6{fill:#E2DD27;}
	.st7{fill:#E63531;}
	.st8{fill:#F1CD1B;}
	.st9{fill:#A42762;}
	.st10{fill:#703086;}
	.st11{fill:#503981;}
	.st12{fill:#246886;}
	.st13{fill:#E48729;}
	.st14{fill:#1F9449;}
	.st15{fill:#6DB74B;}
	.st16{fill:#1A5070;}
	.st17{fill:#CD2637;}
	.st18{fill:#EB7651;}
	.st19{fill:#30B2CD;}
	.st20{fill:#763181;}
	.st21{fill:#4A3380;}
	.st22{fill:#97C480;}
	.st23{fill:#0081C8;}
</style>
<g>
	<path class="st0" d="M0,292.5c6.45,0,12.9,0,20.66,0c-3.7,7.22-6.79,13.25-10.09,19.68C5.98,306.07,4.53,299.01,0,293.73
		C0,293.32,0,292.91,0,292.5z"/>
	<path class="st1" d="M225.2,155.48c-0.01,0.47-0.01,0.94-0.02,1.41c-3.66,6.02-6.98,12.21-9.29,18.89
		c-0.19,0.4-0.37,0.79-0.56,1.19c-3.83,5.66-6.66,11.82-9.12,18.17c-0.32,0.48-0.64,0.97-0.96,1.45c0,0-0.5,0.05-0.5,0.05
		c-0.12-0.46-0.25-0.92-0.37-1.38c-1.98-5.85-4.48-11.44-8.33-16.34c-0.15-1.28-0.25-2.58-1.42-3.44
		c-2.59-5.9-4.66-12.06-8.76-17.19c-0.05-0.42-0.1-0.83-0.15-1.25c0,0,0.34-0.11,0.34-0.1c2.94-1.37,5.88-1.05,8.95-0.34
		c3.45,0.8,6.9,0.92,9.64-2.02c2.61-0.29,2.75-2.7,3.69-4.37c2.37-4.22,4.64-8.5,6.94-12.76
		C218.59,143.46,221.89,149.47,225.2,155.48z M206.32,158.62c-0.59-0.07-1.19-0.13-1.78-0.2c-1.81,5.74-6.09,10.32-7.71,16.85
		c6.22,0.28,11.54,0.82,17.58-0.45C211.52,169.03,208.92,163.83,206.32,158.62z"/>
	<path class="st2" d="M156.21,175.51c-3.15-6.35-6.29-12.69-9.44-19.04c0.36-0.21,0.73-0.41,1.09-0.62
		c6.09-0.61,12.36,1.57,18.3-1.19c3.63-3.95,5.08-9.08,7.49-13.7c1.66-3.18,0.36-4.64-2.83-4.73c-4.41-0.12-8.83-0.01-13.25,0
		l-0.02,0.01c2.34-6.08,5.46-11.78,8.7-17.42c3.27,5.79,6.54,11.58,9.81,17.38c3.26,6.6,6.51,13.21,9.77,19.81
		c0.02,0.33,0.1,0.64,0.24,0.94c0,0-0.34,0.11-0.34,0.11c-6.12,0.77-12.46-1.6-18.43,1.31c-0.57-0.12-1.6-0.46-1.66-0.33
		c-2.66,5.51-5.24,11.06-8.24,17.47c6.53,0,12.13,0,17.74,0l0.42-0.03l0.42,0.06c0.02,0.41,0.03,0.82,0.05,1.24
		c-2.82,6.23-6.81,11.91-8.63,18.61c-0.01,0.41-0.08,0.8-0.21,1.19c-0.26-0.03-0.51-0.04-0.77-0.04c-0.15-0.41-0.3-0.83-0.45-1.24
		c-2.92-6.28-5.51-12.72-9.5-18.45C156.39,176.4,156.3,175.95,156.21,175.51z"/>
	<path class="st1" d="M332.47,292.98c-3.09,6.14-6.17,12.28-9.83,19.55c-3.66-7.07-6.92-13.38-10.18-19.68
		c-2.62-6.37-7.18-11.86-8.52-18.81c6.19-0.05,12.39-0.09,18.58-0.14l0.19,0.23c-2.95,5.83-5.91,11.67-9.64,19.04
		c7.24-1.61,12.89,1,18.25-1.96c0.31,0.08,0.59,0.21,0.85,0.4C332.27,292.07,332.37,292.53,332.47,292.98z"/>
	<path class="st1" d="M205.88,115.87c5.93,2.48,12.34-0.04,19.16,1.6c-3.32,6.59-6.42,12.75-9.52,18.91c0,0-0.19,0.15-0.19,0.15
		c-6.26,0.45-12.6-0.65-18.8,0.95c-0.32-0.36-0.64-0.71-0.95-1.07c3.99-5.8,6.96-12.11,9.39-18.7
		C205.27,117.1,205.57,116.48,205.88,115.87z"/>
	<path class="st3" d="M274.23,292.54c-4.53-5.5-6.78-12.21-9.86-18.48c2.97-6.15,5.94-12.31,8.92-18.46
		c4.62,5.71,7.4,12.29,9.08,19.39C280.65,281.3,276.8,286.63,274.23,292.54z"/>
	<g>
		<path class="st4" d="M270.53,108.65c8.27,1.62,18.25-4.41,23.77,6.7c4.89,9.84,4.62,21.98,0.16,31.87
			c-5.21,11.55-15.45,5.26-23.93,7.19C270.53,138.99,270.53,124.21,270.53,108.65z M276.38,115.75c0,10.78,0,21.12,0,31.42
			c12.97,1.32,14.64-0.64,14.59-16.9C290.93,116.59,288.81,114.41,276.38,115.75z"/>
		<path class="st4" d="M338.21,135.43c-2.56,0-4.9,0-7.13,0c-0.86-1.8-0.68-3.37-0.22-5.32c4.39-0.72,8.83-0.56,13.37-0.05
			c0.36,3.94,0.49,7.59-0.12,11.23c-1.45,8.7-6.81,13.72-14.13,13.24c-7.2-0.48-12.19-6.38-12.61-15.29
			c-0.22-4.7-0.15-9.43-0.03-14.14c0.23-9.67,4.71-15.83,11.98-16.7c7.57-0.9,12.97,4.14,14.73,13.79
			c-1.73,1.27-3.54,0.36-5.37,0.57c-1.42-4.52-3.61-7.76-7.68-8.01c-3.93-0.24-7.18,3.48-7.52,8.89c-0.28,4.49-0.23,9.02-0.12,13.52
			c0.19,7.45,2.96,11.08,7.92,10.71C336.17,147.52,338.48,143.64,338.21,135.43z"/>
		<path class="st4" d="M387.01,153.65c4.29-14.31,8.54-28.4,12.73-42.51c0.56-1.87,1.53-2.29,3.03-2.4
			c1.85-0.14,2.79,0.82,3.37,2.77c4.16,13.92,8.33,27.83,12.53,41.87c-4.08,1.66-6.78,1.05-7.54-4.43
			c-0.44-3.13-2.06-4.18-4.67-3.86c-2.49,0.3-5.04,0.23-7.55,0.02c-2.38-0.21-3.96,0.69-4.27,3.68
			C394.04,154.48,391.06,154.69,387.01,153.65z M402.94,119.9c-2.01,7.18-3.56,12.73-5.2,18.56c3.72,0,6.94,0,10.5,0
			C406.53,132.44,404.95,126.93,402.94,119.9z"/>
		<path class="st4" d="M373.13,115.34c-3.66,0-6.64,0-9.44,0c-1.19-2.07-0.82-3.86-0.55-6.09c8.48,0,16.96,0,25.46,0
			c0.7,1.79,0.57,3.57,0.12,5.48c-2.99,1.59-6.3-0.19-9.65,1.2c0,12.41,0,24.86,0,37.09c-2.04,1.72-3.83,0.87-5.95,0.89
			C373.13,141.08,373.13,128.65,373.13,115.34z"/>
		<path class="st4" d="M423.35,109.48c1.74-0.95,3.38-0.65,5.45-0.18c0,12.54,0,25.13,0,38.25c6.09,0,11.75,0,17.22,0
			c1.07,2.2,0.73,3.96,0.48,6.09c-7.67,0-15.32,0-23.16,0C423.35,138.84,423.35,124.16,423.35,109.48z"/>
		<path class="st4" d="M351.77,153.64c0-14.91,0-29.45,0-43.99c1.81-1.43,3.57-0.73,5.53-0.59c0,14.91,0,29.42,0,44.15
			C355.83,154.77,354.04,154.07,351.77,153.64z"/>
		<path class="st4" d="M309.91,153.46c-1.94,0.89-3.7,0.9-5.66,0.04c0-14.7,0-29.37,0-44.06c1.93-0.9,3.69-0.93,5.66,0.03
			C309.91,124.13,309.91,138.78,309.91,153.46z"/>
	</g>
	<path class="st5" d="M157.49,98.06c5.63,0,11.26,0,17.45,0c-0.74-6.34-4.44-10.35-6.2-15.13c-0.78-2.12-3.29-3.97-1.24-6.63
		c0.57,2.59,2.67,1.93,4.35,1.95c4.39,0.03,8.78-0.05,13.17-0.09c0.62-0.01,1.25-0.01,1.87-0.02c0.48,0.07,0.97,0.13,1.45,0.2
		c-0.43,0.77-0.86,1.54-1.29,2.31c-5.52,4.43-7.1,11.1-9.72,17.16c-0.03,0.82-0.05,1.63-0.08,2.45c-0.79,0.07-1.58,0.14-2.37,0.21
		c-0.33-2.22-1.96-2.27-3.67-2.23c-4.49,0.09-8.99,0.17-13.48,0.25L157.49,98.06z"/>
	<path class="st6" d="M136.63,292.48c-1.12,7.22-5.99,12.7-8.75,20.05c-3.74-4.75-5.69-9.55-7.74-14.19
		c-1.83-4.15-4.28-5.79-8.87-5.31c-4.22,0.43-8.53-0.05-12.8-0.13c0,0,0.08-0.03,0.08-0.03c5.96-0.15,11.93-0.31,17.89-0.46
		c0.57,0.03,1.14,0.07,1.71,0.1c6.18,0.01,12.36,0.02,18.54,0.03C136.71,292.53,136.63,292.48,136.63,292.48z"/>
	<path class="st0" d="M283.11,233.46c6.39,1.66,13.02-0.11,19.88,1.29c-3.22,6.69-6.31,13.11-9.4,19.53c0,0-0.05,0.14-0.05,0.14
		c-0.12-0.37-0.37-0.64-0.73-0.78c-3.19-5.99-5.3-12.56-9.61-17.96c-0.06-0.42-0.11-0.83-0.17-1.25
		C282.98,234.11,283.01,233.78,283.11,233.46z"/>
	<path class="st7" d="M30.22,273.69c2.13-6.75,6.03-12.61,9.32-19.97c3.53,6.83,6.52,12.63,9.52,18.43
		c-0.04,0.72-0.08,1.45-0.12,2.17c-6.18-1.37-12.44-0.31-18.65-0.61C30.29,273.72,30.22,273.69,30.22,273.69z"/>
	<path class="st3" d="M264.17,155.97c-6.85,0.76-12.8,0.58-19.73,0.2c3.31-6.67,6.31-12.72,9.88-19.92
		C257.83,143.27,260.84,149.3,264.17,155.97z"/>
	<path class="st3" d="M146.77,156.47c-6.08,0-12.15,0-18.95,0c2.33-7.09,5.85-12.88,9.11-19.19c4.99,5.35,5.33,13.05,10.78,17.57
		c0.04,0.34,0.09,0.67,0.15,1C147.49,156.06,147.13,156.26,146.77,156.47z"/>
	<path class="st3" d="M98.56,292.86c0,0-0.08,0.03-0.08,0.03c-3.18,6.29-6.36,12.59-10.09,19.95c-3.57-7.2-6.65-13.44-9.74-19.67
		c0,0,0.09-0.01,0.09-0.01c6.19-1.29,12.46-0.11,18.68-0.67l0.55,0.26l0.56-0.23L98.56,292.86z"/>
	<path class="st3" d="M352.08,293.31c6.03-1.62,12.13-0.07,19.73-1.06c-3.6,7.26-6.67,13.42-10.1,20.34
		c-3.83-6.91-7.14-12.92-9.54-19.38C352.16,293.2,352.08,293.31,352.08,293.31z"/>
	<path class="st8" d="M352.08,293.31c0,0,0.08-0.11,0.08-0.11c-6.57-0.07-13.13-0.14-19.7-0.22c-0.1-0.46-0.2-0.91-0.3-1.37
		c3.82-5.49,6.22-11.7,9.1-17.67l0.56-0.2C346.26,279.74,348.86,286.69,352.08,293.31z"/>
	<path class="st9" d="M195.35,19.27c-1.4,7.16-6.8,12.61-8.37,19.7c0,0-0.04,0.07-0.04,0.07c-0.66-0.01-1.33-0.01-1.99-0.02
		l-0.07-0.14c-0.96-5.3-4.45-9.47-6.34-14.35c-0.68-1.76-2.7-3.19-1.63-5.48C183.04,19.12,189.19,19.19,195.35,19.27z"/>
	<path class="st9" d="M341.83,273.75c0,0-0.56,0.2-0.56,0.2c-5.98,0.07-11.97,0.13-17.95,0.2l-0.61-0.01c0,0-0.19-0.23-0.19-0.23
		c-0.06-0.58-0.12-1.15-0.17-1.73c4.24-5.19,5.87-11.83,10.15-18.14C335.85,260.85,339.6,266.9,341.83,273.75z"/>
	<path class="st7" d="M322.35,272.17c0.06,0.58,0.12,1.15,0.17,1.73c-6.19,0.05-12.39,0.09-18.58,0.14c-0.38-0.07-0.75-0.07-1.13,0
		l-0.16-0.19c0.06-0.51,0.11-1.03,0.17-1.54c4.22-5.24,5.8-11.97,10.15-18.08C316.24,260.49,319.29,266.33,322.35,272.17z"/>
	<path class="st2" d="M64.57,253.46c2.51,1.08,6.81,1.13,13.55-0.01c-3.02-6.25-5.94-12.31-9.16-18.97c6.87,0,13.1,0,19.33,0
		c0,0,0.29,0.46,0.29,0.46c-0.11,0.2-0.13,0.42-0.07,0.64c-3.77,5.43-6.18,11.55-8.97,17.48c-0.86,0.4-1.72,0.79-2.58,1.19
		C72.92,252.6,68.7,253.79,64.57,253.46z"/>
	<path class="st2" d="M78.74,293.17c0,0-0.09,0.01-0.09,0.01c-3.1,6.13-6.2,12.25-10.06,19.89c-2.47-8.1-8.06-13.14-8.23-20.61
		c0,0-0.11,0.07-0.11,0.07c5.96,0.01,11.92,0.02,17.88,0.03l0.17,0.1C78.48,292.79,78.63,292.96,78.74,293.17z"/>
	<path class="st6" d="M88.3,234.49c3.11-6.36,6.21-12.72,9.68-19.83c3.62,6.62,6.87,12.59,10.13,18.55c0,0.46,0.01,0.93,0.01,1.4
		c-0.27-0.02-0.54-0.02-0.81,0c-6.24,0.11-12.48,0.23-18.72,0.34L88.3,234.49z"/>
	<path class="st2" d="M147.61,118.1c1.73-7.45,5.17-14.06,9.88-20.04c0,0,0.23,0.43,0.23,0.42c2.32,6.09,4.82,12.08,9.54,16.81
		c0.07,0.78,0.13,1.56,0.2,2.35c-0.4,0.09-0.8,0.15-1.2,0.19C160.04,117.6,153.82,117.01,147.61,118.1z"/>
	<path class="st10" d="M225.2,155.48c-3.31-6.01-6.61-12.02-9.92-18.03c0.17-0.3,0.18-0.61,0.04-0.92c0,0,0.19-0.15,0.19-0.15
		c6.19,0,12.39,0,19.7,0C231.51,143.43,228.36,149.46,225.2,155.48z"/>
	<path class="st0" d="M254.55,214.21c3.05,6.49,5.61,13.24,9.99,19.04c0.07,0.43,0.14,0.86,0.21,1.29
		c-0.08,0.26-0.22,0.48-0.42,0.66c0,0-0.51-0.05-0.51-0.05c-6.33-1.34-12.77-0.03-19.13-0.75c2.63-6.62,7.28-12.34,8.78-19.47
		c0.04-0.32,0.09-0.64,0.16-0.95C253.95,213.99,254.26,214.07,254.55,214.21z"/>
	<path class="st3" d="M126.79,194.99c-2.95-6.18-5.9-12.36-9.13-19.1c7.27,0,13.71,0,20.16,0c0.01,0.33,0.03,0.65,0.05,0.98
		c-4.88,5.32-6.62,12.39-10.26,18.4C127.31,195.26,127.03,195.17,126.79,194.99z"/>
	<path class="st11" d="M235.07,175.7c6.08,0,12.15,0,19.37,0c-3.33,6.76-6.39,12.97-9.45,19.17c0,0-0.01,0.4-0.01,0.4
		c-0.31-0.18-0.64-0.24-0.99-0.2c-3.02-6.04-6.03-12.08-9.05-18.12c0.04-0.43,0.07-0.87,0.11-1.3L235.07,175.7z"/>
	<path class="st5" d="M186.97,38.97c5.88,0,11.77,0,18.02,0c-1.88,7.72-7.67,13.37-8.68,20.95c0,0-0.52,0.05-0.52,0.05
		c-0.4-0.48-0.8-0.95-1.2-1.43c0.07-1.68-0.74-3.03-1.35-4.54c-2.03-5.02-5.49-9.44-6.32-14.96L186.97,38.97z"/>
	<path class="st12" d="M264.75,234.53c-0.07-0.43-0.14-0.86-0.21-1.29c2.97-5.96,5.93-11.91,9.29-18.66
		c3.38,6.88,6.33,12.87,9.28,18.87c-0.1,0.32-0.13,0.65-0.09,0.98C276.93,234.47,270.84,234.5,264.75,234.53z"/>
	<path class="st9" d="M48.94,274.33c0.04-0.72,0.08-1.45,0.12-2.17c4.53-4.99,5.61-11.93,9.77-17.13
		c3.97,5.86,7.07,12.16,9.44,18.82c-5.99,0.86-12.29-1.92-18.07,1.52c-0.42-0.17-0.84-0.34-1.26-0.51L48.94,274.33z"/>
	<path class="st13" d="M194.59,58.54c0.4,0.48,0.8,0.95,1.19,1.43c-3.44,5.82-6.52,11.82-8.9,18.17c-0.62,0.01-1.25,0.01-1.87,0.02
		c-2.07-6.62-5.47-12.59-8.89-18.56c-0.16-0.29-0.12-0.54,0.14-0.75c0.2-0.18,0.42-0.3,0.68-0.38
		C182.83,58.49,188.71,58.51,194.59,58.54z"/>
	<path class="st9" d="M205.88,115.87c-0.31,0.61-0.61,1.23-0.92,1.84c-1.91-0.23-3.81-0.45-5.71-0.68c1.37-1.08,3.72,0.31,4.89-2.12
		c-2.85-4.69-4.36-10.24-8.11-14.6c-0.14-0.8-0.27-1.61-0.41-2.41c0.29-0.04,0.58-0.09,0.88-0.14c6.11,0.07,12.23,0.13,18.34,0.2
		C212.38,104.19,209.48,110.21,205.88,115.87z"/>
	<path class="st13" d="M137.87,176.87c-0.02-0.33-0.04-0.65-0.05-0.98c6.13-0.13,12.26-0.25,18.39-0.38
		c0.09,0.45,0.18,0.89,0.27,1.33c-3.01,6.08-6.01,12.16-9.02,18.24c-0.26,0.02-0.53,0.01-0.79-0.03
		C143.73,188.99,140.8,182.93,137.87,176.87z"/>
	<path class="st7" d="M196.5,97.76c-0.29,0.05-0.58,0.09-0.88,0.14c-0.37-0.05-0.73-0.11-1.1-0.19c-1.37-6.18-5.99-10.93-7.48-17.06
		c0.43-0.77,0.86-1.54,1.29-2.31c5.63-0.07,11.27-0.13,16.9-0.2c0.34,0.25,0.48,0.58,0.42,1C201.97,85.03,198.79,91.17,196.5,97.76z
		"/>
	<path class="st2" d="M302.82,272.31c-0.06,0.51-0.11,1.03-0.17,1.55c-6.21,0.19-12.42,0.37-18.62,0.56c0,0-0.19-0.14-0.19-0.14
		c0.11-0.49,0.21-0.99,0.32-1.48c3.13-6.12,6.25-12.24,9.38-18.36c0,0,0.05-0.14,0.05-0.14
		C296.66,260.29,299.74,266.3,302.82,272.31z"/>
	<path class="st14" d="M108.12,234.6c0-0.47,0-0.93-0.01-1.4c3.12-5.88,6.24-11.76,9.37-17.64c3.55,6.17,7.19,12.29,9.38,19.13
		C120.61,234.66,114.37,234.63,108.12,234.6z"/>
	<path class="st3" d="M126.86,234.68c-2.19-6.83-5.83-12.96-9.38-19.13c-0.15-0.2-0.14-0.39,0.04-0.57c0,0,0.34-0.05,0.34-0.05
		c6.14-0.03,12.29-0.06,18.44-0.09c-1,7.27-6.52,12.65-8.24,19.62c-0.07,0.35-0.17,0.7-0.31,1.03l-0.46-0.08
		C127.24,235.12,127.09,234.87,126.86,234.68z"/>
	<path class="st15" d="M254.55,214.21c-0.29-0.14-0.59-0.22-0.91-0.24c-2.94-5.88-5.88-11.76-8.82-17.63
		c-0.05-0.37,0-0.73,0.16-1.07c0,0,0.01-0.4,0.01-0.4c6.04,0,12.08,0,19.46,0C260.75,202.07,257.65,208.14,254.55,214.21z"/>
	<path class="st16" d="M117.85,214.94c0,0-0.34,0.05-0.34,0.05c-3.08-6.35-6.17-12.71-9.7-20c6.91,0,12.94,0,18.98,0
		c0.24,0.18,0.51,0.27,0.82,0.28c0,0,0.29,0.42,0.29,0.42c-0.07,0.21-0.17,0.4-0.3,0.57C123.61,202.1,121.09,208.71,117.85,214.94z"
		/>
	<path class="st5" d="M195.35,19.27c-6.15-0.07-12.3-0.15-18.45-0.22c2.21-6.32,5.49-12.09,9.28-19.05
		C189.52,7.03,192.43,13.15,195.35,19.27z"/>
	<path class="st6" d="M273.28,255.59c-2.97,6.16-5.94,12.31-8.92,18.46c0,0-0.52,0.04-0.52,0.04c-0.23-0.11-0.44-0.26-0.61-0.45
		c0.19-0.27,0.17-0.53-0.05-0.78c-2.05-6.47-6.84-11.74-8.12-18.55c5.63-0.05,11.25-0.1,16.88-0.15
		C272.39,254.65,272.84,255.12,273.28,255.59z"/>
	<path class="st16" d="M68.27,273.85c-2.36-6.67-5.46-12.96-9.44-18.82c1.61-1.49,3.75-1.03,5.68-1.56
		c4.19,0.32,8.41-0.87,12.45,0.78c0.24,0.51,0.49,1.03,0.73,1.54c-2.9,6.06-5.81,12.13-8.71,18.19l-0.45,0.01L68.27,273.85z"/>
	<path class="st10" d="M215.89,175.79c2.31-6.68,5.63-12.87,9.29-18.89c3.29,6.27,6.59,12.53,9.88,18.8c0,0-0.03-0.04-0.03-0.04
		C228.66,175.7,222.28,175.74,215.89,175.79z"/>
	<path class="st1" d="M196.5,97.76c2.29-6.59,5.47-12.73,9.16-18.63c3.62,6,7.1,12.07,9.18,18.83
		C208.73,97.89,202.61,97.83,196.5,97.76z"/>
	<path class="st5" d="M177.21,292.58c-0.42,0-0.84-0.01-1.26-0.01c-3.24-5.78-5.73-11.99-9.73-17.34c-0.04-0.36-0.05-0.72-0.03-1.09
		c0.04-0.44,0.07-0.87,0.11-1.31c0.33,0,0.67-0.01,1-0.03c6.08,2.62,12.46,0.55,18.67,1.18c-0.01,0.42-0.03,0.84-0.04,1.26
		C182,280.51,179.95,286.72,177.21,292.58z"/>
	<path class="st11" d="M68.27,273.85c0,0,0.26,0.14,0.26,0.14c0.02,0.26,0.14,0.47,0.36,0.61c-3.35,5.75-6.77,11.46-8.64,17.92
		c0,0,0.11-0.07,0.11-0.07c-0.61,0.04-1.23,0.07-1.84,0.11c-2.77-5.73-5.54-11.46-8.32-17.19
		C55.98,271.93,62.28,274.71,68.27,273.85z"/>
	<path class="st10" d="M137.68,292.51l-0.52,0.01c0,0-0.52-0.04-0.52-0.04c0,0,0.07,0.05,0.07,0.05c-2.99-6.13-5.98-12.27-8.97-18.4
		c6.22,0.01,12.43,0.02,18.65,0.03c0.05,0.27,0.15,0.52,0.3,0.75C143.68,280.78,140.68,286.65,137.68,292.51z"/>
	<path class="st7" d="M185.92,275.24c0.01-0.42,0.03-0.84,0.04-1.26c0,0,0.56-0.02,0.56-0.02l0.56,0.01
		c3.75-0.11,7.49-0.22,11.24-0.33c0.77,0.02,1.53,0.05,2.3,0.07c1.26-0.02,2.53-0.05,3.79-0.07c-0.98,6.98-5.64,12.43-7.82,18.91
		c-0.66-0.02-1.33-0.03-1.99-0.05C192.36,286.41,189.55,280.62,185.92,275.24z"/>
	<path class="st17" d="M176.13,59.59c3.42,5.97,6.82,11.95,8.89,18.56c-4.39,0.04-8.78,0.12-13.17,0.09
		c-1.67-0.01-3.77,0.64-4.35-1.95C170.38,70.73,173.25,65.16,176.13,59.59z"/>
	<path class="st13" d="M147.86,155.85c-0.06-0.33-0.11-0.67-0.15-1c2.96-6.09,5.92-12.17,8.89-18.26c0.34-0.08,0.66-0.19,0.97-0.34
		c0,0,0.02-0.01,0.02-0.01c1.46,6.8,5.8,12.25,8.58,18.43C160.21,157.42,153.94,155.24,147.86,155.85z"/>
	<path class="st9" d="M30.22,273.69c0,0,0.07,0.03,0.07,0.03c2.93,6.04,5.85,12.07,9.08,18.72c-6.4,0.69-12.3,0.53-19.06,0.1
		C23.66,285.75,26.14,279.33,30.22,273.69z"/>
	<path class="st7" d="M176.94,58.46c-0.25,0.07-0.48,0.2-0.68,0.38c-2.78-5.44-5.61-10.86-8.29-16.35c-0.51-1.05-2.7-2.87,0.65-3.37
		c0.4,0.64,0.83,0.69,1.27,0.04c0.81,0,1.62-0.01,2.43-0.01c2.88,1.53,5.75,1.53,8.63-0.01c0.81,0,1.62,0,2.43,0
		c0.44,0.33,0.89,0.66,1.33,0.99C183.72,46.91,178.8,52.03,176.94,58.46z"/>
	<path class="st2" d="M205.24,78.13c-5.63,0.07-11.27,0.13-16.9,0.2c-0.48-0.07-0.97-0.13-1.45-0.2c2.38-6.35,5.45-12.35,8.9-18.17
		c0,0,0.52-0.05,0.52-0.05C199.29,65.99,202.26,72.06,205.24,78.13z"/>
	<path class="st9" d="M157.56,136.24c-0.31,0.15-0.63,0.26-0.97,0.34c-2.99-6.16-5.98-12.32-8.98-18.48
		c6.2-1.09,12.43-0.5,18.65-0.27c-0.09,0.33-0.09,0.66-0.01,0.99C163.02,124.46,159.9,130.16,157.56,136.24z"/>
	<path class="st6" d="M235.66,292.52c-0.47,0-0.95,0-1.42-0.01c-3.02-6.14-6.05-12.29-9.07-18.43c6.3-0.01,12.6-0.01,18.89-0.02
		c0.04,0.34,0.07,0.68,0.1,1.02C241.32,280.89,238.49,286.71,235.66,292.52z"/>
	<path class="st7" d="M284.03,274.41c6.21-0.19,12.42-0.37,18.62-0.56c0,0,0.16,0.18,0.16,0.18c-2.99,6.16-5.97,12.33-8.96,18.49
		l-0.45,0.14l-0.45-0.13C289.97,286.49,287,280.45,284.03,274.41z"/>
	<path class="st9" d="M166.18,274.14c-0.02,0.36-0.01,0.72,0.03,1.09c-3.56,5.46-6.27,11.33-8.64,17.37
		c-0.43-0.01-0.85-0.02-1.28-0.03c-2.9-5.83-5.81-11.65-8.71-17.48c0.03-0.38,0.06-0.76,0.08-1.14
		C153.84,274.02,160.01,274.08,166.18,274.14z"/>
	<path class="st2" d="M215.42,292.56l-0.42,0.14c0,0-0.42-0.15-0.42-0.15c-2.97-6.27-5.93-12.54-8.89-18.81
		c6.2,0.17,12.4,0.33,18.61,0.5C221.34,280.35,218.38,286.45,215.42,292.56z"/>
	<path class="st9" d="M215.42,292.56c2.96-6.11,5.92-12.21,8.88-18.32c0.29-0.04,0.57-0.09,0.85-0.16
		c3.03,6.14,6.05,12.29,9.07,18.43C227.96,293.09,221.69,293.01,215.42,292.56z"/>
	<path class="st16" d="M244.15,275.08c-0.03-0.34-0.06-0.68-0.1-1.02c0,0,0.46,0,0.46,0c3.82-0.14,7.64-0.28,11.46-0.42
		c0.86,0,1.71,0,2.57,0c1.57,0,3.13,0,4.7,0.01c0.17,0.19,0.38,0.34,0.61,0.45c-3.78,5.99-5.25,13.29-10.49,18.45
		C250.5,286.62,248.99,279.97,244.15,275.08z"/>
	<g>
		<path class="st4" d="M429.48,215.66c0-15.25,0-29.77,0-44.44c1.7-1.4,3.56-0.75,5.86-0.41c0,12.58,0,25.15,0,38.31
			c6.31,0,12.18,0,17.23,0c2.14,1.63,0.7,3.9,2.33,4.98c0.3-0.38,0.74-0.71,0.89-1.16c4.09-12.82,8.16-25.65,12.19-38.49
			c0.67-2.12,0.95-4.1,3.69-4.13c2.71-0.02,3.12,1.91,3.78,4.02c4.2,13.4,8.41,26.8,12.66,40.34c-1.8,2.04-3.94,0.38-5.61,0.97
			c-0.54-0.56-0.87-0.77-1.03-1.1c-1.22-2.56-0.59-7.07-3.45-7.61c-4.27-0.8-8.77-0.47-13.11,0.07c-1.85,0.23-1.68,3.33-2.23,5.17
			c-0.62,2.07-1.12,3.57-3.49,3.54C449.48,215.57,439.75,215.66,429.48,215.66z M466.21,200.34c3.88,0.16,7.34,1.04,10.94-0.55
			c-1.73-6.02-3.32-11.53-5.26-18.26C469.83,188.35,468.07,194.15,466.21,200.34z"/>
		<path class="st4" d="M288.5,170.47c5.03,0,9.92-0.02,14.8,0.01c4.85,0.02,9.05,1.47,11.14,7.26c2.13,5.9,0.49,10.66-3.58,14.83
			c5.09,3.98,6.1,9.57,4.15,15.67c-2.03,6.33-6.74,7.65-12.05,7.46c-4.71-0.17-9.42-0.04-14.46-0.04
			C288.5,200.6,288.5,185.99,288.5,170.47z M294.67,209.1c3.7,0,7.02,0.26,10.3-0.07c3.04-0.31,4.66-2.94,4.72-6.28
			c0.06-3.34-1.45-5.84-4.52-6.48c-3.44-0.71-6.87-0.64-10.51-0.04C294.67,200.54,294.67,204.53,294.67,209.1z M294.62,189.29
			c3.47,0,6.43,0.13,9.38-0.04c3.03-0.17,4.85-2.12,4.99-5.76c0.14-3.65-1.63-5.93-4.54-6.3c-3.2-0.42-6.47-0.09-9.83-0.09
			C294.62,181.32,294.62,184.92,294.62,189.29z"/>
		<path class="st4" d="M379.76,199.5c0-9.53,0-19.05,0-28.5c2.23-0.97,4.09-0.49,6.11-0.3c0,14.98,0,29.64,0,44.36
			c-3.88,1.59-6.22,0.21-8.3-3.8c-4.35-8.4-9.16-16.48-14.37-25.74c0,10.46,0,19.87,0,28.98c-2.29,1.63-4.17,1.19-6.37,0.8
			c0-14.69,0-29.36,0-44.29c3.41-1.61,5.74-0.44,7.86,3.64c4.44,8.57,9.37,16.8,14.1,25.18C379.1,199.72,379.43,199.61,379.76,199.5
			z"/>
		<path class="st4" d="M618.79,214.94c-1.88,1.12-3.61,0.72-5.75,0.46c0-6.04,0-12.09,0-18.75c-5.34-0.72-10.3-0.49-15.65-0.16
			c0,6.32,0,12.39,0,18.29c-2.22,1.41-4.04,0.85-6.04,0.48c0-14.83,0-29.33,0-44.01c1.62-1.57,3.53-0.46,5.84-0.9
			c0,6.47,0,12.51,0,18.88c5.3,0,10.12,0,15.44,0c0-6.14,0-12.17,0-18.11c2.32-0.95,4.15-0.96,6.16-0.07
			C618.79,185.57,618.79,200.07,618.79,214.94z"/>
		<path class="st4" d="M492.94,215.85c0-15.43,0-30.1,0-45.42c8.56,1.44,18.17-3.86,24.97,6.32c3.6,5.39,3.67,26.94,0.1,32.58
			C511.32,219.92,501.56,213.92,492.94,215.85z M499.27,209.36c4.99-0.22,10.97,2.12,13.45-4.21c3.01-7.71,3.17-16.62-0.12-24.29
			c-2.66-6.21-8.51-3.6-13.33-4.06C499.27,187.98,499.27,198.54,499.27,209.36z"/>
		<path class="st4" d="M421.33,183.95c-3.27,0.74-5.58,0.87-7.19-3.18c-1.59-4.01-5.14-4.76-8.66-3.76
			c-3.49,0.99-5.27,4.06-5.49,8.04c-0.26,4.68-0.28,9.41-0.1,14.1c0.28,7.32,3.43,11.09,8.44,10.53c4.89-0.54,7.37-4.79,6.92-12.38
			c-2.33-0.13-4.72-0.27-7.11-0.41c-1.17-1.74-0.79-3.45-0.19-5.44c4.46-0.36,8.94-0.6,13.5,0.17c0.49,3.91,0.52,7.56-0.01,11.19
			c-1.24,8.6-6.94,13.87-14.54,13.48c-7.41-0.38-12.87-6.46-13.27-15.15c-0.23-5.1-0.19-10.24-0.03-15.35
			c0.27-8.98,5.28-15.04,12.75-15.69C414.22,169.41,419.67,174.32,421.33,183.95z"/>
		<path class="st4" d="M352.03,215.13c-4.64,1.4-7.44,0.57-8.02-4.66c-0.33-2.97-1.72-4.25-4.32-3.85c-1.21,0.18-2.48,0.21-3.69,0
			c-5.81-0.99-10.05,0.54-10.17,8.33c-2.26,1.02-4.16,0.77-6.09,0.53c-1.09-1.77,0.14-3.08,0.58-4.49
			c3.84-12.29,7.75-24.55,11.52-36.87c0.72-2.36,1.4-3.8,3.93-3.78c2.5,0.03,2.74,1.88,3.34,3.79
			C343.37,187.7,347.66,201.26,352.03,215.13z M335.65,181.46c-2.14,7.2-3.82,12.88-5.62,18.92c3.96,0,7.21,0,11.02,0
			C339.33,194.33,337.72,188.71,335.65,181.46z"/>
		<path class="st4" d="M582.84,175.14c-1.06,2.11-2.07,3.46-3.75,4.31c-3.08-2.41-6.51-3.66-10.33-2.72
			c-2.95,0.72-4.76,2.82-4.74,6.32c0.02,3.22,1.69,5.33,4.45,5.97c2.58,0.6,5.22,0.9,7.79,1.54c4.63,1.15,7.4,4.61,8.1,10.01
			c0.69,5.27-0.78,9.73-4.65,12.81c-6.39,5.08-17.05,3.54-22.71-3.27c0.8-1.81,2.06-3.11,3.73-4.28c3.62,3.12,7.67,4.62,12.22,3.59
			c3.05-0.69,5.29-2.39,5.32-6.4c0.03-4.05-2.18-5.74-5.28-6.32c-2.08-0.39-4.18-0.7-6.24-1.2c-6.05-1.49-8.86-5.51-8.74-12.38
			c0.11-6.65,3.3-11.32,8.93-12.5C572.64,169.42,578.12,169.86,582.84,175.14z"/>
		<path class="st4" d="M529.71,170.73c7.39,0.01,14.77,0.01,22.16,0.02c0.33,0.42,0.65,0.84,0.98,1.26c0,1.41,0,2.82,0,4.81
			c-6.13,0-12.21,0-18.44,0c0,4.41,0,8.23,0,12.61c5.15,0,10.16,0,15.02,0c1,2.47,0.95,4.39,0.06,6.9c-4.88,0-9.89,0-15.07,0
			c0,4.41,0,8.25,0,13.04c4.97,0,10,0.16,15.01-0.06c3.05-0.13,4.3,0.99,3.42,4.57c-7.5,0-15,0-23.13,0
			C529.71,198.91,529.71,184.82,529.71,170.73z"/>
		<path class="st4" d="M529.71,170.73c0,14.09,0,28.18,0,43.17c8.13,0,15.63,0,23.13,0c0.09,1.39-0.65,1.68-1.62,1.68
			c-7.5,0-15,0-23.04,0c0-14.86-0.01-29.3,0.02-43.73C528.19,170.82,528.99,170.72,529.71,170.73z"/>
	</g>
	<path class="st16" d="M284.03,274.41c2.97,6.04,5.95,12.08,8.92,18.12c-6.24,0-12.48,0-18.72,0.01c2.58-5.92,6.42-11.25,8.13-17.57
		c0.25-0.05,0.43-0.2,0.54-0.44l0.51,0.02l0.43-0.28L284.03,274.41z"/>
	<path class="st9" d="M293.85,292.53c2.99-6.16,5.97-12.33,8.96-18.49c0.38-0.06,0.75-0.06,1.13,0c1.34,6.95,5.9,12.44,8.51,18.81
		C306.25,292.74,300.05,292.64,293.85,292.53z"/>
	<path class="st2" d="M157.57,292.6c2.37-6.05,5.08-11.92,8.64-17.37c4.01,5.35,6.49,11.56,9.73,17.34
		C169.82,292.58,163.7,292.59,157.57,292.6z"/>
	<path class="st1" d="M205.7,273.74c2.96,6.27,5.93,12.54,8.89,18.81c-6,0.51-12,0.53-18-0.01c2.18-6.48,6.84-11.94,7.82-18.91
		c-0.01-0.3,0.03-0.59,0.14-0.87c0.33,0.06,0.66,0.12,0.99,0.18C205.52,273.22,205.58,273.49,205.7,273.74z"/>
	<path class="st11" d="M244.15,275.08c4.84,4.89,6.35,11.53,9.21,17.47c-5.9,0.46-11.8,0.5-17.7-0.04
		C238.49,286.71,241.32,280.89,244.15,275.08z"/>
	<path class="st7" d="M50.2,275.37c2.77,5.73,5.54,11.46,8.32,17.19c-5.85,0-11.69,0-18.46,0c2.54-6.39,5.43-12.17,8.88-17.7
		C49.36,275.03,49.78,275.2,50.2,275.37z"/>
	<path class="st13" d="M147.58,275.1c2.9,5.83,5.81,11.65,8.71,17.48c-6.21,0.38-12.42,0.55-18.62-0.06c3-5.87,6-11.73,9-17.59
		C146.97,275.02,147.27,275.08,147.58,275.1z"/>
	<path class="st17" d="M185.92,275.24c3.64,5.38,6.44,11.17,8.67,17.26c-5.79,0.03-11.59,0.05-17.38,0.08
		C179.95,286.72,182,280.51,185.92,275.24z"/>
	<path class="st5" d="M180.96,39.13c-2.87,1.54-5.75,1.54-8.63,0.01C175.21,39.14,178.08,39.13,180.96,39.13z"/>
	<path class="st5" d="M184.73,40.12c-0.44-0.33-0.89-0.66-1.33-0.99c0.49-0.08,0.98-0.17,1.47-0.26c0,0,0.07,0.14,0.07,0.14
		C184.84,39.38,184.77,39.75,184.73,40.12z"/>
	<path class="st4" d="M619.07,174.31c-0.38-0.42-0.76-0.84-1.14-1.26C618.92,172.92,619.22,173.42,619.07,174.31z"/>
	<path class="st5" d="M169.9,39.15c-0.45,0.65-0.87,0.6-1.27-0.04C169.05,39.13,169.47,39.14,169.9,39.15z"/>
	<path class="st17" d="M195.57,136.41c0.32,0.36,0.64,0.71,0.96,1.07c2.71,5.7,5.42,11.41,8.13,17.11
		c-2.73,2.94-6.19,2.82-9.64,2.02c-3.06-0.71-6.01-1.03-8.95,0.34c-0.14-0.3-0.22-0.61-0.24-0.94c2.92-5.89,5.83-11.78,9-18.17
		c-6.61-0.62-12.13-1.14-17.66-1.66c2.33-6.11,5.11-11.98,8.79-17.41C189.16,124.65,192.37,130.53,195.57,136.41z"/>
	<path class="st2" d="M205.25,196.6c0.32-0.48,0.64-0.97,0.96-1.45c5.98,0.04,11.97,0.09,17.95,0.14c0.07,0.42,0.13,0.84,0.2,1.26
		c-2.81,6.12-5.62,12.25-8.44,18.37l-0.34-0.33c0,0-0.46,0.13-0.45,0.13c0,0-0.59,0.11-0.59,0.11
		C211.86,208.53,209.02,202.33,205.25,196.6z"/>
	<path class="st7" d="M176.03,176.77c-0.02-0.41-0.03-0.82-0.05-1.24c0,0,0.55,0,0.55,0l0.55-0.01c5.85-0.01,11.7-0.03,17.56-0.04
		c1.17,0.86,1.27,2.16,1.42,3.44c-5.15,4.26-7.18,10.22-8.96,16.33c0,0-0.07,0.07-0.07,0.07c-0.42,0.01-0.84,0.02-1.25,0.03
		l0.05-0.08C182.56,189.11,179.29,182.94,176.03,176.77z"/>
	<path class="st9" d="M215.89,175.79c6.38-0.04,12.76-0.09,19.14-0.13c-0.04,0.43-0.07,0.87-0.11,1.3
		c-3.58,5.25-6.09,11.05-8.64,16.83c-2.95,0.7-3.13-1.93-4-3.51c-2.41-4.38-4.65-8.86-6.95-13.3
		C215.52,176.58,215.71,176.19,215.89,175.79z"/>
	<path class="st7" d="M204.39,195.27c0.12,0.46,0.25,0.92,0.37,1.38c-2.32,6.25-6.68,11.57-8.17,18.19
		c-0.48,0.04-0.97,0.07-1.46,0.1l-0.49,0.07c0.07-2.56-1.33-4.62-2.27-6.86c-1.8-4.26-5.05-7.93-5.33-12.82c0,0,0.07-0.07,0.07-0.07
		C192.86,195.26,198.63,195.26,204.39,195.27z"/>
	<path class="st9" d="M204.65,154.58c-2.71-5.7-5.42-11.41-8.13-17.11c6.2-1.6,12.54-0.5,18.8-0.95c0.14,0.32,0.12,0.62-0.04,0.92
		c-2.31,4.26-4.57,8.54-6.94,12.76C207.4,151.88,207.26,154.29,204.65,154.58z"/>
	<path class="st13" d="M177.08,175.53l-0.55,0.01c0,0-0.55,0-0.55,0c0,0-0.42-0.06-0.42-0.06s-0.42,0.03-0.42,0.03
		c-1.48-6.23-5.21-11.44-7.84-17.14c5.97-2.92,12.31-0.55,18.43-1.31c0.05,0.42,0.1,0.83,0.15,1.25
		C182.05,163.58,179.49,169.52,177.08,175.53z"/>
	<path class="st13" d="M215.34,176.98c2.3,4.44,4.54,8.92,6.95,13.3c0.87,1.57,1.05,4.2,4,3.51c0.04,0.45,0.09,0.89,0.13,1.34
		c-0.75,0.05-1.5,0.11-2.26,0.16c-5.98-0.05-11.96-0.09-17.95-0.14C208.68,188.8,211.51,182.64,215.34,176.98z"/>
	<path class="st9" d="M196.58,214.84c1.49-6.62,5.86-11.94,8.18-18.19c0,0,0.5-0.05,0.5-0.05c3.77,5.73,6.61,11.94,9.29,18.23
		C208.55,214.83,202.57,214.83,196.58,214.84z"/>
	<path class="st9" d="M206.32,158.62c2.6,5.2,5.19,10.41,8.09,16.2c-6.04,1.27-11.36,0.73-17.58,0.45
		c1.63-6.53,5.9-11.11,7.71-16.85C205.13,158.49,205.73,158.56,206.32,158.62z"/>
	<path class="st2" d="M204.39,195.27c-5.76,0-11.52,0-17.29-0.01c1.78-6.11,3.81-12.07,8.96-16.33
		C199.91,183.83,202.41,189.42,204.39,195.27z"/>
	<path class="st5" d="M177.08,175.53c2.41-6.01,4.97-11.94,8.8-17.23c4.1,5.13,6.17,11.29,8.76,17.19
		C188.79,175.5,182.94,175.51,177.08,175.53z"/>
	<path class="st9" d="M146.67,195.05c0.26,0.04,0.53,0.05,0.79,0.03c6.17,0.07,12.35,0.14,18.52,0.2c0.15,0.41,0.3,0.83,0.44,1.24
		c-3.05,6.05-6.1,12.1-9.15,18.15c-0.28-0.01-0.55,0.03-0.81,0.12c-3.55-5.92-5.35-12.8-9.88-18.19c-0.12-0.36-0.24-0.72-0.35-1.08
		C146.38,195.37,146.52,195.21,146.67,195.05z"/>
	<path class="st13" d="M167.19,196.56c0.12-0.39,0.19-0.78,0.21-1.19c6.14-0.03,12.28-0.06,18.43-0.09c0,0-0.05,0.08-0.05,0.08
		c-2.55,6.53-5.1,13.07-9.66,18.56c-0.37-0.14-0.76-0.22-1.15-0.25C172.38,207.97,169.79,202.27,167.19,196.56z"/>
	<path class="st13" d="M185.96,118.77c-3.68,5.43-6.47,11.3-8.79,17.41c-0.37,0.03-0.73,0.03-1.1,0.02
		c-3.27-5.79-6.54-11.58-9.81-17.38c-0.08-0.33-0.08-0.66,0.01-0.99c0.41-0.04,0.81-0.1,1.2-0.19c5.89-0.34,11.89,1.13,17.67-1.02
		l0.4-0.06c0.2,0.43,0.39,0.87,0.59,1.3C186.02,118.15,185.97,118.46,185.96,118.77z"/>
	<path class="st7" d="M166.16,154.66c-2.78-6.18-7.13-11.63-8.58-18.43c4.42-0.01,8.84-0.12,13.25,0c3.19,0.09,4.49,1.56,2.83,4.73
		C171.24,145.58,169.79,150.71,166.16,154.66z"/>
	<path class="st5" d="M176.06,136.2c0.37,0.01,0.74,0,1.1-0.02c5.53,0.52,11.06,1.04,17.66,1.66c-3.17,6.4-6.08,12.28-9,18.17
		C182.57,149.4,179.32,142.8,176.06,136.2z"/>
	<path class="st1" d="M165.98,195.29c-6.17-0.07-12.35-0.14-18.52-0.2c3.01-6.08,6.01-12.16,9.02-18.24
		C160.47,182.57,163.06,189.01,165.98,195.29z"/>
	<path class="st7" d="M167.19,196.56c2.59,5.7,5.18,11.4,7.77,17.11c-5.78,2.42-11.77,1.05-17.69,1.01
		c3.05-6.05,6.1-12.1,9.15-18.15C166.68,196.52,166.94,196.53,167.19,196.56z"/>
	<path class="st7" d="M167.3,158.36c2.63,5.71,6.36,10.91,7.84,17.14c-5.6,0-11.21,0-17.74,0c3-6.42,5.58-11.96,8.24-17.47
		C165.71,157.91,166.73,158.24,167.3,158.36z"/>
	<path class="st17" d="M185.83,195.28c-6.14,0.03-12.28,0.06-18.43,0.09c1.82-6.69,5.8-12.38,8.63-18.61
		C179.29,182.94,182.56,189.11,185.83,195.28z"/>
	<path class="st7" d="M322.71,274.13c0,0,0.61,0.01,0.61,0.01c2.67,5.69,5.33,11.38,8,17.07c-5.36,2.96-11.01,0.35-18.25,1.96
		C316.8,285.8,319.76,279.97,322.71,274.13z"/>
	<path class="st10" d="M185.96,118.77c0.01-0.31,0.06-0.61,0.16-0.91c0.38-0.28,0.76-0.56,1.15-0.83l-0.05-0.36
		c0.73,0.1,1.46,0.21,2.2,0.31c0.51-0.01,1.02-0.01,1.53-0.02c2.76,0.02,5.53,0.04,8.29,0.07c1.9,0.23,3.81,0.45,5.71,0.68
		c-2.43,6.59-5.4,12.9-9.39,18.7C192.37,130.53,189.16,124.65,185.96,118.77z"/>
	<path class="st8" d="M282.89,274.53c-0.1,0.24-0.28,0.39-0.54,0.44c-1.67-7.09-4.45-13.67-9.07-19.38
		c-0.44-0.47-0.89-0.94-1.33-1.42c0.38-0.34,0.75-0.67,1.13-1.01c0.45,0.04,0.9,0.08,1.35,0.13c6.1,1.47,12.24,0.77,18.37,0.35
		c0.37,0.15,0.61,0.41,0.73,0.78c-3.13,6.12-6.25,12.24-9.38,18.36C283.73,273.37,283.31,273.95,282.89,274.53z"/>
	<path class="st18" d="M185.53,116.56c0,0-0.4,0.06-0.4,0.06c-2.63-5.45-5.26-10.91-7.88-16.36c0.03-0.82,0.05-1.63,0.08-2.45
		c5.73-0.03,11.47-0.07,17.2-0.11c0.36,0.08,0.73,0.15,1.1,0.19c0.13,0.8,0.27,1.6,0.4,2.41c-4.89,4.4-5.84,10.93-8.81,16.36
		c0,0,0.05,0.36,0.05,0.36C186.69,116.87,186.11,116.71,185.53,116.56z"/>
	<path class="st1" d="M177.25,100.26c2.63,5.45,5.25,10.91,7.88,16.36c-5.78,2.15-11.78,0.68-17.67,1.02
		c-0.07-0.78-0.13-1.56-0.2-2.35c2.54-4.94,5.08-9.89,7.62-14.83C175.67,100.4,176.46,100.33,177.25,100.26z"/>
	<path class="st7" d="M174.88,100.47c-2.54,4.94-5.08,9.88-7.62,14.83c-4.72-4.73-7.22-10.72-9.54-16.81
		c4.49-0.08,8.99-0.16,13.48-0.25C172.92,98.2,174.56,98.25,174.88,100.47z"/>
	<path class="st17" d="M194.53,97.7c-5.73,0.04-11.47,0.07-17.2,0.11c2.63-6.07,4.2-12.74,9.72-17.17
		C188.54,86.77,193.16,91.52,194.53,97.7z"/>
	<path class="st16" d="M118.17,292.51c-0.57-0.03-1.14-0.07-1.71-0.1c-1.83-6.21-5.48-11.58-8.1-17.42
		c0.02-0.42,0.03-0.85,0.05-1.27c6.24,0.12,12.48,0.24,18.72,0.36C124.13,280.21,121.15,286.36,118.17,292.51z"/>
	<path class="st14" d="M108.35,274.98c2.62,5.84,6.27,11.21,8.1,17.43c-5.97,0.15-11.93,0.3-17.89,0.46c0,0-0.04-0.34-0.04-0.34
		c2.89-5.81,5.77-11.61,8.66-17.42C107.57,275.07,107.96,275.03,108.35,274.98z"/>
	<path class="st19" d="M274.43,253.3c-0.45-0.04-0.9-0.08-1.35-0.13c-2.92-5.99-5.84-11.98-8.75-17.97c0.2-0.18,0.34-0.4,0.42-0.66
		c6.09-0.03,12.18-0.06,18.27-0.1c0.06,0.42,0.11,0.83,0.17,1.25C280.27,241.56,277.35,247.43,274.43,253.3z"/>
	<path class="st2" d="M274.43,253.3c2.92-5.87,5.84-11.74,8.76-17.6c4.31,5.39,6.42,11.97,9.61,17.96
		C286.67,254.06,280.53,254.77,274.43,253.3z"/>
	<path class="st19" d="M107.17,275.1c-2.89,5.81-5.77,11.61-8.66,17.42c0,0-0.56,0.23-0.56,0.23s-0.55-0.26-0.55-0.26
		c-2.7-6.26-5.51-12.46-9.26-18.18C94.51,274.16,100.91,272.86,107.17,275.1z"/>
	<path class="st1" d="M184.73,40.12c0.04-0.37,0.11-0.74,0.21-1.1c0.67,0.01,1.33,0.01,2,0.02c0.82,5.52,4.29,9.94,6.32,14.96
		c0.61,1.51,1.42,2.87,1.35,4.54c-5.88-0.03-11.76-0.05-17.65-0.08C178.8,52.03,183.72,46.91,184.73,40.12z"/>
	<path class="st19" d="M79.55,253.06c2.79-5.93,5.2-12.06,8.97-17.48c3.24,5.97,6.48,11.93,9.72,17.9c0.01,0.25,0.01,0.51-0.01,0.76
		C92.03,253.39,85.66,255.28,79.55,253.06z"/>
	<path class="st12" d="M79.55,253.06c6.11,2.22,12.48,0.32,18.68,1.18c0.23,0.02,0.44,0.08,0.64,0.19c-0.16,0.31-0.26,0.64-0.3,0.98
		c-3.49,2.22-3.81,6.44-5.98,9.48c-1.64,2.3-1.4,6.09-5.21,6.72c-1.09-2.15-1.95-4.45-3.31-6.41c-2.16-3.11-1.95-7.85-6.38-9.41
		c-0.24-0.51-0.48-1.03-0.73-1.54C77.82,253.85,78.68,253.46,79.55,253.06z"/>
	<path class="st3" d="M98.23,253.48c-3.24-5.97-6.48-11.93-9.72-17.9c-0.06-0.22-0.04-0.44,0.07-0.64
		c6.24-0.11,12.48-0.23,18.72-0.34c0.09,0.28,0.16,0.57,0.22,0.86C104.43,241.47,101.33,247.47,98.23,253.48z"/>
	<path class="st0" d="M87.69,274.42c-2.76,6.27-5.41,12.59-9.39,18.24c0,0-0.18-0.1-0.18-0.1c-2.97-6.04-5.47-12.32-9.24-17.95
		c-0.22-0.15-0.34-0.35-0.36-0.61c0,0,0.45-0.01,0.45-0.01C75.22,274.13,81.45,274.27,87.69,274.42z"/>
	<path class="st15" d="M107.53,235.46c-0.06-0.29-0.13-0.58-0.22-0.86c0.27-0.02,0.54-0.02,0.81,0c6.25,0.03,12.49,0.06,18.74,0.08
		c0.24,0.19,0.38,0.44,0.43,0.73c-2.89,5.9-5.78,11.81-8.67,17.71c0,0-0.25-0.01-0.25-0.01c-2.6-0.34-2.53-2.88-3.53-4.46
		C112.14,244.41,110.95,239.32,107.53,235.46z"/>
	<path class="st11" d="M253.47,214.93c-1.5,7.13-6.15,12.85-8.78,19.47c-0.33,0.05-0.66,0.14-0.96,0.28
		c-1.78-6.65-5.61-12.33-8.67-18.37c-0.1-0.52-0.2-1.04-0.3-1.57c0.15-0.3,0.39-0.4,0.71-0.31
		C241.46,214.6,247.46,214.76,253.47,214.93z"/>
	<path class="st16" d="M243.72,234.68c0.31-0.14,0.63-0.23,0.96-0.28c6.36,0.72,12.8-0.59,19.13,0.75
		c-3.02,6.08-6.04,12.17-9.07,18.26c-2.21-1.11-2.37-3.6-3.59-5.38c-2.69-3.91-3.18-9.14-7.3-12.2c-0.14-0.39-0.19-0.79-0.15-1.21
		L243.72,234.68z"/>
	<path class="st3" d="M254.75,253.41c3.02-6.09,6.05-12.17,9.07-18.26c0,0,0.51,0.05,0.51,0.05c2.92,5.99,5.84,11.98,8.75,17.97
		c-0.38,0.34-0.75,0.67-1.13,1.01c-5.63,0.05-11.25,0.1-16.88,0.14C254.97,254.01,254.86,253.71,254.75,253.41z"/>
	<path class="st16" d="M253.47,214.93c-6-0.17-12.01-0.33-18.01-0.5c2.96-6.11,5.57-12.4,9.35-18.09
		c2.94,5.88,5.88,11.75,8.82,17.63C253.56,214.29,253.51,214.61,253.47,214.93z"/>
	<path class="st9" d="M137.87,176.87c2.93,6.06,5.87,12.12,8.8,18.19c-0.14,0.16-0.29,0.32-0.44,0.47
		c-6.11-0.34-12.23-0.64-18.33,0.17c0,0-0.29-0.43-0.29-0.42C131.24,189.26,132.99,182.19,137.87,176.87z"/>
	<path class="st6" d="M244.81,196.34c-3.78,5.69-6.39,11.98-9.35,18.09c-0.32-0.09-0.56,0.02-0.71,0.31c0,0-0.28,0.12-0.28,0.12
		c-3.45-6.06-5.28-13.02-10.11-18.33c-0.07-0.42-0.14-0.84-0.2-1.26c0.75-0.05,1.5-0.11,2.26-0.16c5.85-0.01,11.71-0.03,17.56-0.04
		c0.35-0.05,0.68,0.02,0.99,0.2C244.81,195.61,244.76,195.97,244.81,196.34z"/>
	<path class="st3" d="M243.98,195.08c-5.85,0.01-11.71,0.03-17.56,0.04c-0.04-0.45-0.09-0.89-0.13-1.34
		c2.55-5.78,5.07-11.58,8.64-16.83C237.95,182.99,240.96,189.04,243.98,195.08z"/>
	<path class="st5" d="M187.22,116.67c2.97-5.43,3.91-11.96,8.81-16.36c3.75,4.36,5.26,9.91,8.11,14.6
		c-1.17,2.44-3.52,1.04-4.89,2.12c-2.76-0.02-5.53-0.04-8.29-0.07c-0.51,0.01-1.02,0.01-1.53,0.02
		C188.69,116.88,187.95,116.77,187.22,116.67z"/>
	<path class="st3" d="M282.89,274.53c0.42-0.58,0.84-1.17,1.27-1.75c-0.11,0.5-0.21,0.99-0.32,1.48c0,0-0.43,0.28-0.43,0.28
		L282.89,274.53z"/>
	<path class="st6" d="M117.85,214.94c3.23-6.23,5.75-12.84,9.75-18.68c3.05,6.11,6.1,12.22,9.15,18.34l-0.46,0.25
		C130.14,214.88,124,214.91,117.85,214.94z"/>
	<path class="st6" d="M127.75,235.5c0.13-0.33,0.24-0.68,0.31-1.03c6.11,0.07,12.21,0.14,18.32,0.22c0.08,0.32,0.18,0.64,0.3,0.94
		c-2.63,5.36-5.26,10.71-7.89,16.07c-0.76,0.58-1.51,1.16-2.27,1.74C133.6,247.45,130.67,241.48,127.75,235.5z"/>
	<path class="st13" d="M146.37,234.68c-6.11-0.07-12.21-0.14-18.32-0.22c1.71-6.97,7.24-12.35,8.24-19.62c0,0,0.46-0.25,0.46-0.24
		c0.29-0.01,0.58,0.05,0.85,0.16l0.28,0.25c2.38,6.6,4.06,13.57,9.8,18.38c0.07,0.35,0.12,0.71,0.16,1.07
		C147.35,234.53,146.86,234.61,146.37,234.68z"/>
	<path class="st10" d="M127.75,235.5c2.92,5.98,5.85,11.95,8.77,17.93c0,0,0.13,0.31,0.13,0.31c-4.12,0.08-8.24,0.16-12.35,0.23
		c-1.89-0.28-3.79-0.56-5.68-0.85c2.89-5.9,5.78-11.8,8.67-17.71C127.29,235.42,127.75,235.5,127.75,235.5z"/>
	<path class="st10" d="M137.6,214.76c-0.27-0.11-0.56-0.16-0.85-0.16c-3.05-6.11-6.1-12.22-9.15-18.34c0.13-0.17,0.24-0.37,0.3-0.57
		c6.1-0.8,12.21-0.5,18.33-0.16c0.11,0.36,0.23,0.72,0.35,1.08C143.59,202.66,140.6,208.71,137.6,214.76z"/>
	<path class="st15" d="M254.75,253.41c0.11,0.3,0.22,0.61,0.32,0.91c1.28,6.81,6.07,12.08,8.12,18.55
		c-1.57,0.15-3.25-0.43-4.64,0.77c-0.86,0-1.71,0-2.57,0c-3.13-1.9-6.83,0.22-10.45-1.53c2.67-5.66,5.32-11.27,8.52-18.06
		c-7.03,0-12.87,0-18.72,0c0,0-0.23-0.54-0.23-0.54c2.92-5.9,5.85-11.8,8.77-17.7c4.12,3.06,4.61,8.29,7.3,12.2
		C252.38,249.81,252.54,252.29,254.75,253.41z"/>
	<path class="st14" d="M258.54,273.65c1.39-1.21,3.08-0.63,4.64-0.77c0.23,0.25,0.24,0.5,0.05,0.78
		C261.67,273.65,260.11,273.65,258.54,273.65z"/>
	<path class="st19" d="M87.69,274.42c-6.24-0.15-12.48-0.29-18.71-0.44c2.9-6.06,5.81-12.13,8.71-18.19
		c4.43,1.55,4.22,6.29,6.38,9.41c1.36,1.96,2.22,4.26,3.31,6.41c0.05,0.9,0.1,1.8,0.15,2.7L87.69,274.42z"/>
	<path class="st2" d="M187.08,273.97l-0.56-0.01c0,0-0.56,0.02-0.56,0.02c-6.21-0.62-12.58,1.45-18.66-1.18
		c1.66-6.51,6.74-11.58,7.68-18.39c0.82-0.1,1.65-0.2,2.48-0.3c5.94-0.09,11.88-0.18,17.82-0.27c0.15,0.45,0.3,0.91,0.45,1.36
		C192.32,261.22,188.13,266.87,187.08,273.97z"/>
	<path class="st17" d="M174.98,254.42c-0.95,6.8-6.03,11.88-7.69,18.39c-0.33,0.02-0.67,0.03-1,0.03c-0.38-0.45-0.77-0.9-1.15-1.35
		c-2.68-5.47-4.49-11.41-8.66-16.08c0.05-0.37,0.11-0.75,0.18-1.12c0.25-0.01,0.5-0.02,0.76-0.03
		C163.28,254.31,169.13,254.36,174.98,254.42z"/>
	<path class="st2" d="M165.15,271.48c0.38,0.45,0.76,0.9,1.15,1.35c-0.04,0.44-0.07,0.87-0.11,1.31
		c-6.17-0.06-12.34-0.12-18.51-0.18c-0.02-0.38,0.04-0.74,0.19-1.08C153.6,272.16,159.58,274.38,165.15,271.48z"/>
	<path class="st9" d="M127.74,274.13l-0.32,0.04c0,0-0.3-0.1-0.3-0.1c-6.24-0.12-12.48-0.24-18.71-0.35c0,0-0.12-0.53-0.12-0.53
		c2.67-6.35,6.7-12.06,8.71-18.71c0.36-0.1,0.73-0.16,1.11-0.19l0.34,0.06c1.89,6.56,5.43,12.25,9.02,19.01
		c3.45-6.7,6.33-12.29,9.21-17.88c4.11,5.78,7.12,12.13,9.71,18.7C140.17,274.15,133.95,274.14,127.74,274.13z"/>
	<path class="st1" d="M146.39,274.16c-2.59-6.57-5.61-12.92-9.71-18.7c-0.01-0.58-0.01-1.15-0.02-1.73c0,0-0.13-0.31-0.13-0.31
		c0.76-0.58,1.51-1.16,2.27-1.74c1.07,2.08,2.63,2.62,5.01,2.29c3.95-0.55,7.97-0.64,11.95-0.92c0.3,0.41,0.61,0.82,0.91,1.22
		c-0.07,0.37-0.13,0.74-0.18,1.12c-2.88,5.82-5.75,11.65-8.62,17.47c-0.15,0.35-0.22,0.71-0.19,1.08c-0.02,0.38-0.05,0.76-0.09,1.14
		c-0.31-0.02-0.61-0.08-0.91-0.18C146.53,274.68,146.43,274.43,146.39,274.16z"/>
	<path class="st9" d="M187.08,273.97c1.05-7.1,5.24-12.75,8.65-18.77c3.46,5.6,6.42,11.44,8.82,17.57
		c-0.11,0.28-0.15,0.57-0.14,0.86c-1.26,0.02-2.53,0.05-3.79,0.07c-0.74-0.82-1.51-0.93-2.3-0.07
		C194.57,273.75,190.82,273.86,187.08,273.97z"/>
	<path class="st1" d="M198.31,273.64c0.8-0.86,1.56-0.75,2.3,0.07C199.85,273.68,199.08,273.66,198.31,273.64z"/>
	<path class="st3" d="M205.7,273.74c-0.12-0.25-0.17-0.52-0.16-0.8c2.59-6.31,7.07-11.73,8.74-18.48c0.27-0.04,0.54-0.05,0.81-0.04
		l0.48-0.12c2.94,6.15,5.88,12.3,9.33,19.54c3.4-6.73,6.29-12.47,9.19-18.2c0.32-0.01,0.64-0.04,0.95-0.1
		c3.16,6.17,6.31,12.35,9.47,18.52c0,0-0.46,0-0.46,0c-6.3,0.01-12.6,0.01-18.89,0.02c-0.28,0.07-0.57,0.12-0.85,0.16
		C218.1,274.07,211.9,273.91,205.7,273.74z"/>
	<path class="st14" d="M244.51,274.06c-3.16-6.17-6.31-12.35-9.47-18.52c0.1-0.49,0.19-0.99,0.29-1.48c5.85,0,11.69,0,18.72,0
		c-3.2,6.79-5.85,12.39-8.52,18.06c3.61,1.75,7.31-0.37,10.45,1.53C252.15,273.79,248.33,273.93,244.51,274.06z"/>
	<path class="st13" d="M214.27,254.47c-1.67,6.75-6.15,12.17-8.74,18.48c-0.33-0.06-0.66-0.12-0.99-0.18
		c-2.39-6.13-5.36-11.97-8.82-17.57c-0.15-0.45-0.3-0.91-0.45-1.36c0,0-0.25-0.18-0.25-0.18s0.03-0.31,0.03-0.31
		c0.58-0.12,1.15-0.23,1.73-0.35C202.42,255.77,208.49,253.46,214.27,254.47z"/>
	<path class="st9" d="M234.47,214.87c0,0,0.28-0.13,0.28-0.12c0.1,0.52,0.2,1.04,0.3,1.57c-4.2,5.66-6.67,12.25-9.77,18.49
		c0.11,0.28,0.1,0.55-0.04,0.82c-3.77,5.39-6.33,11.4-8.93,17.4c-0.38,0.06-0.72,0.21-1.03,0.44c-3.25-5.89-6.5-11.78-9.75-17.67
		c-0.01-0.4,0.08-0.76,0.29-1.1l0.44,0l0.43-0.07c5.7,0,11.4,0,18.13,0c-3.57-6.98-6.5-12.69-9.42-18.4c-0.09-0.5-0.17-1-0.26-1.5
		l0.46-0.13c0,0,0.34,0.33,0.34,0.33C222.11,214.9,228.29,214.88,234.47,214.87z"/>
	<path class="st1" d="M206.69,234.62l-0.43,0.07c0,0-0.44,0-0.44,0c-0.4-0.04-0.79-0.14-1.15-0.32c-2.32-6.9-5.66-13.29-9.54-19.42
		c0.49-0.03,0.97-0.07,1.46-0.1c5.98-0.01,11.97-0.01,17.96-0.02c0,0,0.6-0.11,0.59-0.11c0.08,0.5,0.17,1,0.26,1.5
		C211.66,221.95,208.25,227.85,206.69,234.62z"/>
	<path class="st20" d="M234.47,214.87c-6.18,0.01-12.36,0.03-18.54,0.04c2.81-6.12,5.62-12.25,8.44-18.37
		C229.19,201.84,231.02,208.8,234.47,214.87z"/>
	<path class="st5" d="M176.12,213.92c4.56-5.49,7.11-12.02,9.66-18.56c0.42-0.01,0.84-0.02,1.25-0.03
		c0.28,4.89,3.54,8.56,5.33,12.82c0.94,2.24,2.34,4.29,2.27,6.85c0,0-0.08-0.01-0.08-0.01c-6.17,0.01-12.33,0.02-18.5,0.03
		C176.06,214.66,176.09,214.29,176.12,213.92z"/>
	<path class="st2" d="M195.13,214.94c3.88,6.13,7.22,12.53,9.54,19.42c-6.23,0.13-12.46,0.26-18.69,0.39
		c-0.08-0.44-0.16-0.88-0.24-1.32c3.91-5.68,7.37-11.57,8.81-18.43c0,0,0.08,0.01,0.08,0.01
		C194.63,215.01,195.13,214.94,195.13,214.94z"/>
	<path class="st2" d="M176.12,213.92c-0.03,0.37-0.06,0.74-0.07,1.11c-0.06,0.26-0.09,0.53-0.09,0.8
		c-2.99,5.86-5.99,11.72-8.98,17.58c-0.3,0-0.59,0-0.89,0.02c-3.56-5.6-5.01-12.38-9.76-17.3c-0.02-0.38-0.03-0.76-0.04-1.14
		l0.17-0.2c0.26-0.08,0.53-0.12,0.81-0.12c5.92,0.04,11.91,1.41,17.69-1.01C175.36,213.7,175.75,213.78,176.12,213.92z"/>
	<path class="st2" d="M137.6,214.76c2.99-6.05,5.99-12.1,8.98-18.15c4.54,5.39,6.33,12.27,9.88,18.19c0,0-0.17,0.19-0.17,0.19
		c-6.14,0.01-12.28,0.01-18.41,0.02L137.6,214.76z"/>
	<path class="st9" d="M185.53,116.56c0.58,0.15,1.16,0.31,1.73,0.47c-0.38,0.28-0.76,0.56-1.15,0.83
		C185.93,117.43,185.73,116.99,185.53,116.56z"/>
	<path class="st9" d="M189.42,116.98c0.51-0.01,1.02-0.01,1.53-0.02C190.44,116.97,189.93,116.98,189.42,116.98z"/>
	<path class="st0" d="M108.28,273.18c0,0,0.12,0.53,0.12,0.53c-0.02,0.42-0.03,0.85-0.05,1.27c-0.39,0.05-0.79,0.09-1.18,0.12
		c-6.26-2.25-12.67-0.94-19.03-0.79c0,0-0.31,0.11-0.31,0.11s-0.3-0.13-0.3-0.12c-0.05-0.9-0.1-1.8-0.15-2.7
		c3.81-0.63,3.56-4.42,5.21-6.72c2.17-3.04,2.49-7.26,5.98-9.48C101.8,261.33,105.04,267.26,108.28,273.18z"/>
	<path class="st16" d="M118.1,254.28c-0.38,0.03-0.75,0.09-1.11,0.19c-6.04-0.01-12.08-0.03-18.12-0.04
		c-0.2-0.11-0.41-0.17-0.64-0.19c0.02-0.25,0.02-0.51,0.01-0.76c3.1-6,6.19-12.01,9.29-18.01c3.42,3.86,4.62,8.95,7.31,13.19
		c1,1.58,0.93,4.12,3.53,4.46C118.33,253.52,118.24,253.9,118.1,254.28z"/>
	<path class="st21" d="M98.87,254.43c6.04,0.01,12.08,0.03,18.12,0.04c-2.02,6.65-6.04,12.36-8.71,18.71
		c-3.24-5.92-6.47-11.84-9.71-17.77C98.61,255.06,98.71,254.74,98.87,254.43z"/>
	<path class="st1" d="M118.1,254.28c0.14-0.37,0.23-0.76,0.27-1.16c0,0,0.25,0.01,0.25,0.01c1.89,0.28,3.79,0.57,5.68,0.85
		c-1.95,0.12-3.91,0.24-5.86,0.37L118.1,254.28z"/>
	<path class="st2" d="M225.27,234.8c3.11-6.24,5.57-12.82,9.77-18.49c3.07,6.04,6.89,11.72,8.67,18.37c0,0,0-0.06,0-0.06
		C237.57,234.68,231.42,234.74,225.27,234.8z"/>
	<path class="st10" d="M225.27,234.8c6.15-0.06,12.3-0.12,18.45-0.18c-0.04,0.41,0.01,0.82,0.15,1.21c-2.92,5.9-5.84,11.8-8.77,17.7
		c-0.44-0.16-0.87-0.32-1.31-0.49c-2.85-5.81-5.71-11.61-8.56-17.42C225.37,235.35,225.39,235.08,225.27,234.8z"/>
	<path class="st2" d="M156.67,254.29c-0.3-0.41-0.61-0.82-0.92-1.22c-2.61-6.03-5.08-12.13-9.07-17.44
		c-0.12-0.31-0.22-0.62-0.3-0.94c0.49-0.08,0.98-0.15,1.47-0.23c5.76,0.12,11.52,0.24,17.28,0.36c-1.15,7.04-6.41,12.45-7.7,19.44
		C157.17,254.27,156.92,254.28,156.67,254.29z"/>
	<path class="st9" d="M146.68,235.63c3.99,5.31,6.47,11.41,9.07,17.44c-3.99,0.28-8,0.37-11.95,0.92c-2.37,0.33-3.94-0.21-5.01-2.29
		C141.42,246.34,144.05,240.98,146.68,235.63z"/>
	<path class="st7" d="M137.88,215.01c6.14-0.01,12.28-0.01,18.41-0.02c0.01,0.38,0.02,0.76,0.04,1.14
		c-2.88,5.75-5.77,11.5-8.65,17.26C141.94,228.58,140.26,221.61,137.88,215.01z"/>
	<path class="st3" d="M147.68,233.39c2.88-5.75,5.77-11.5,8.65-17.26c4.75,4.92,6.2,11.71,9.76,17.3c-0.32,0.46-0.65,0.92-0.97,1.38
		c-5.76-0.12-11.52-0.24-17.28-0.36C147.8,234.1,147.75,233.74,147.68,233.39z"/>
	<path class="st2" d="M118.44,254.34c1.96-0.12,3.91-0.24,5.86-0.37c4.11-0.08,8.23-0.16,12.35-0.23c0.01,0.58,0.01,1.15,0.02,1.73
		c-2.88,5.59-5.76,11.18-9.21,17.88C123.87,266.59,120.33,260.9,118.44,254.34z"/>
	<path class="st22" d="M233.79,253.04c0.44,0.16,0.88,0.32,1.31,0.49c0,0,0.23,0.54,0.23,0.54c-0.1,0.49-0.19,0.98-0.29,1.48
		c-0.31,0.06-0.63,0.09-0.95,0.1c-6-2.91-12.37-0.61-18.52-1.33c0,0-0.48,0.12-0.48,0.12c0.15-0.31,0.21-0.63,0.19-0.97
		c0.31-0.23,0.65-0.37,1.03-0.44C222.13,253.03,227.96,253.03,233.79,253.04z"/>
	<path class="st5" d="M165.12,234.82c0.32-0.46,0.65-0.92,0.97-1.38c0.29-0.02,0.59-0.03,0.89-0.02c0.22,0.35,0.36,0.72,0.43,1.12
		c2.58,6.14,4.15,12.83,9.64,17.35c0.13,0.74,0.27,1.49,0.4,2.23c-0.83,0.1-1.65,0.2-2.48,0.3c-5.85-0.05-11.7-0.11-17.56-0.16
		C158.71,247.27,163.97,241.86,165.12,234.82z"/>
	<path class="st20" d="M177.45,254.12c-0.13-0.74-0.27-1.49-0.4-2.23c3.51-4.71,4.61-10.84,8.89-15.09
		c4.41,4.76,6.1,11.03,9.11,16.56l-0.03,0.31c0,0,0.25,0.18,0.25,0.18C189.34,253.94,183.39,254.03,177.45,254.12z"/>
	<path class="st13" d="M147.86,272.88c2.87-5.82,5.75-11.65,8.62-17.47c4.17,4.67,5.98,10.6,8.66,16.08
		C159.58,274.38,153.6,272.16,147.86,272.88z"/>
	<path class="st2" d="M215.27,253.46c0.02,0.34-0.04,0.66-0.19,0.97c-0.27-0.01-0.54,0-0.81,0.04c-5.79-1.01-11.85,1.3-17.49-1.45
		c2.45-5.98,5.17-11.82,8.74-17.23C208.78,241.67,212.02,247.57,215.27,253.46z"/>
	<path class="st19" d="M215.57,254.31c6.15,0.72,12.52-1.58,18.52,1.33c-2.9,5.74-5.79,11.48-9.19,18.2
		C221.44,266.61,218.5,260.46,215.57,254.31z"/>
	<path class="st3" d="M205.53,235.78c-3.58,5.41-6.29,11.25-8.74,17.23c-0.58,0.12-1.15,0.23-1.73,0.35
		c-3.01-5.54-4.7-11.8-9.11-16.56c-0.02-0.72-0.03-1.44-0.05-2.16l0.08,0.11c6.23-0.13,12.46-0.26,18.69-0.39
		c0.37,0.18,0.75,0.28,1.15,0.32C205.61,235.02,205.51,235.39,205.53,235.78z"/>
	<path class="st13" d="M206.69,234.62c1.57-6.77,4.97-12.66,8.71-18.4c2.92,5.71,5.85,11.42,9.42,18.4
		C218.08,234.62,212.39,234.62,206.69,234.62z"/>
	<path class="st6" d="M233.79,253.04c-5.83-0.01-11.65-0.01-17.48-0.02c2.59-6,5.16-12.01,8.93-17.4
		C228.08,241.43,230.93,247.23,233.79,253.04z"/>
	<path class="st17" d="M175.96,215.83c0-0.27,0.03-0.54,0.09-0.8c6.17-0.01,12.33-0.02,18.5-0.03c-1.44,6.86-4.9,12.75-8.81,18.43
		C182.48,227.57,179.22,221.7,175.96,215.83z"/>
	<path class="st9" d="M175.96,215.83c3.26,5.87,6.52,11.73,9.78,17.6c0.08,0.44,0.16,0.88,0.24,1.32c0,0-0.08-0.11-0.08-0.11
		c-6.16-0.03-12.32-0.07-18.49-0.1c-0.07-0.4-0.21-0.78-0.43-1.12C169.97,227.55,172.96,221.69,175.96,215.83z"/>
	<path class="st7" d="M167.41,234.54c6.16,0.03,12.32,0.07,18.49,0.1c0.02,0.72,0.03,1.44,0.05,2.16
		c-4.29,4.25-5.39,10.38-8.89,15.09C171.56,247.37,169.99,240.67,167.41,234.54z"/>
	<g>
		<path class="st23" d="M336.48,251.89c1.08,0.68,2.66,1.25,4.32,1.25c2.46,0,3.9-1.34,3.9-3.27c0-1.79-1-2.82-3.51-3.81
			c-3.04-1.11-4.92-2.73-4.92-5.43c0-2.99,2.41-5.21,6.03-5.21c1.91,0,3.29,0.46,4.12,0.94l-0.66,2.02
			c-0.61-0.34-1.85-0.91-3.54-0.91c-2.54,0-3.51,1.57-3.51,2.87c0,1.79,1.13,2.67,3.71,3.7c3.15,1.25,4.76,2.82,4.76,5.63
			c0,2.96-2.13,5.52-6.53,5.52c-1.8,0-3.76-0.54-4.76-1.22L336.48,251.89z"/>
		<path class="st23" d="M352.78,247.45h0.06c0.33-0.48,0.8-1.08,1.19-1.57l3.93-4.75h2.93l-5.17,5.66l5.89,8.11h-2.96l-4.62-6.6
			l-1.24,1.42v5.18h-2.41v-20.2h2.41V247.45z"/>
		<path class="st23" d="M366.53,237.26c0.03,0.85-0.58,1.54-1.55,1.54c-0.86,0-1.47-0.68-1.47-1.54c0-0.88,0.64-1.57,1.52-1.57
			C365.95,235.7,366.53,236.38,366.53,237.26z M363.82,254.91v-13.77h2.43v13.77H363.82z"/>
		<path class="st23" d="M370.29,234.7h2.43v20.2h-2.43V234.7z"/>
		<path class="st23" d="M376.82,234.7h2.43v20.2h-2.43V234.7z"/>
		<path class="st23" d="M384.71,248.48c0.06,3.39,2.16,4.78,4.59,4.78c1.74,0,2.79-0.31,3.71-0.71l0.41,1.79
			c-0.86,0.4-2.32,0.85-4.45,0.85c-4.12,0-6.58-2.79-6.58-6.94c0-4.15,2.38-7.43,6.28-7.43c4.37,0,5.53,3.96,5.53,6.49
			c0,0.51-0.06,0.91-0.08,1.17H384.71z M391.84,246.68c0.03-1.59-0.64-4.07-3.37-4.07c-2.46,0-3.54,2.33-3.73,4.07H391.84z"/>
		<path class="st23" d="M408.77,234.7v16.65c0,1.22,0.03,2.62,0.11,3.56h-2.18l-0.11-2.39h-0.06c-0.75,1.54-2.38,2.7-4.56,2.7
			c-3.24,0-5.73-2.82-5.73-7c-0.03-4.58,2.74-7.4,6-7.4c2.05,0,3.43,1,4.04,2.11h0.06v-8.22H408.77z M406.34,246.74
			c0-0.31-0.03-0.74-0.11-1.05c-0.36-1.59-1.69-2.9-3.51-2.9c-2.52,0-4.01,2.28-4.01,5.32c0,2.79,1.33,5.09,3.96,5.09
			c1.63,0,3.13-1.11,3.57-2.99c0.08-0.34,0.11-0.68,0.11-1.08V246.74z"/>
		<path class="st23" d="M411.96,253.43c0-1.05,0.69-1.79,1.66-1.79c0.97,0,1.63,0.74,1.63,1.79c0,1.02-0.64,1.79-1.66,1.79
			C412.62,255.22,411.96,254.45,411.96,253.43z"/>
		<path class="st23" d="M433.87,245.92h-7.25v6.91h8.08v2.08h-10.48v-19.18h10.07v2.08h-7.66v6.06h7.25V245.92z"/>
		<path class="st23" d="M446.76,252.77h-0.06c-0.72,1.37-2.21,2.45-4.37,2.45c-3.13,0-5.67-2.79-5.67-6.97
			c0-5.15,3.24-7.43,6.06-7.43c2.08,0,3.46,1.05,4.12,2.39h0.05l0.08-2.08h2.3c-0.06,1.17-0.08,2.36-0.08,3.78v15.62h-2.43V252.77z
			 M446.76,246.71c0-0.34-0.03-0.74-0.11-1.05c-0.36-1.54-1.66-2.85-3.49-2.85c-2.52,0-4.04,2.19-4.04,5.29
			c0,2.73,1.27,5.12,3.96,5.12c1.58,0,2.93-1,3.49-2.73c0.11-0.34,0.19-0.83,0.19-1.19V246.71z"/>
		<path class="st23" d="M464.41,251.15c0,1.42,0.03,2.67,0.11,3.76h-2.16l-0.14-2.25h-0.06c-0.64,1.11-2.05,2.56-4.42,2.56
			c-2.1,0-4.62-1.19-4.62-6.03v-8.05h2.43v7.63c0,2.62,0.77,4.38,2.99,4.38c1.63,0,2.77-1.17,3.21-2.28
			c0.14-0.37,0.22-0.83,0.22-1.28v-8.45h2.43V251.15z"/>
		<path class="st23" d="M471.16,237.26c0.03,0.85-0.58,1.54-1.55,1.54c-0.86,0-1.47-0.68-1.47-1.54c0-0.88,0.64-1.57,1.52-1.57
			C470.58,235.7,471.16,236.38,471.16,237.26z M468.45,254.91v-13.77h2.43v13.77H468.45z"/>
		<path class="st23" d="M474.93,245.63c0-1.76-0.06-3.19-0.11-4.5H477l0.11,2.36h0.05c1-1.68,2.57-2.68,4.76-2.68
			c3.24,0,5.67,2.82,5.67,7c0,4.95-2.93,7.4-6.09,7.4c-1.77,0-3.32-0.8-4.12-2.16h-0.06v7.48h-2.41V245.63z M477.33,249.3
			c0,0.37,0.06,0.71,0.11,1.02c0.44,1.74,1.91,2.93,3.65,2.93c2.57,0,4.06-2.16,4.06-5.32c0-2.76-1.41-5.12-3.98-5.12
			c-1.66,0-3.21,1.22-3.68,3.1c-0.08,0.31-0.17,0.68-0.17,1.02V249.3z"/>
		<path class="st23" d="M490.67,245.63c0-1.76-0.06-3.19-0.11-4.5h2.18l0.11,2.36h0.05c1-1.68,2.57-2.68,4.76-2.68
			c3.24,0,5.67,2.82,5.67,7c0,4.95-2.93,7.4-6.09,7.4c-1.77,0-3.32-0.8-4.12-2.16h-0.06v7.48h-2.41V245.63z M493.08,249.3
			c0,0.37,0.06,0.71,0.11,1.02c0.44,1.74,1.91,2.93,3.65,2.93c2.57,0,4.07-2.16,4.07-5.32c0-2.76-1.41-5.12-3.98-5.12
			c-1.66,0-3.21,1.22-3.68,3.1c-0.08,0.31-0.17,0.68-0.17,1.02V249.3z"/>
		<path class="st23" d="M507.77,248.48c0.06,3.39,2.16,4.78,4.59,4.78c1.74,0,2.79-0.31,3.71-0.71l0.41,1.79
			c-0.86,0.4-2.32,0.85-4.45,0.85c-4.12,0-6.58-2.79-6.58-6.94c0-4.15,2.38-7.43,6.28-7.43c4.37,0,5.53,3.96,5.53,6.49
			c0,0.51-0.06,0.91-0.08,1.17H507.77z M514.9,246.68c0.03-1.59-0.64-4.07-3.37-4.07c-2.46,0-3.54,2.33-3.73,4.07H514.9z"/>
		<path class="st23" d="M531.83,234.7v16.65c0,1.22,0.03,2.62,0.11,3.56h-2.18l-0.11-2.39h-0.05c-0.75,1.54-2.38,2.7-4.56,2.7
			c-3.24,0-5.73-2.82-5.73-7c-0.03-4.58,2.74-7.4,6-7.4c2.05,0,3.43,1,4.04,2.11h0.05v-8.22H531.83z M529.4,246.74
			c0-0.31-0.03-0.74-0.11-1.05c-0.36-1.59-1.69-2.9-3.51-2.9c-2.52,0-4.01,2.28-4.01,5.32c0,2.79,1.33,5.09,3.96,5.09
			c1.63,0,3.13-1.11,3.57-2.99c0.08-0.34,0.11-0.68,0.11-1.08V246.74z"/>
		<path class="st23" d="M535.02,253.43c0-1.05,0.69-1.79,1.66-1.79c0.97,0,1.63,0.74,1.63,1.79c0,1.02-0.64,1.79-1.66,1.79
			C535.68,255.22,535.02,254.45,535.02,253.43z"/>
		<path class="st23" d="M547.27,235.98c1.47-0.23,3.21-0.4,5.12-0.4c3.46,0,5.92,0.82,7.55,2.39c1.66,1.57,2.63,3.79,2.63,6.89
			c0,3.13-0.94,5.69-2.68,7.46c-1.74,1.79-4.62,2.76-8.24,2.76c-1.72,0-3.15-0.09-4.37-0.23V235.98z M549.68,252.95
			c0.61,0.11,1.49,0.14,2.43,0.14c5.14,0,7.94-2.96,7.94-8.14c0.03-4.52-2.46-7.4-7.55-7.4c-1.24,0-2.18,0.11-2.82,0.26V252.95z"/>
		<path class="st23" d="M568.33,237.26c0.03,0.85-0.58,1.54-1.55,1.54c-0.86,0-1.47-0.68-1.47-1.54c0-0.88,0.64-1.57,1.52-1.57
			C567.75,235.7,568.33,236.38,568.33,237.26z M565.62,254.91v-13.77h2.43v13.77H565.62z"/>
		<path class="st23" d="M583.62,241.14c-0.05,1-0.11,2.11-0.11,3.78v8c0,3.16-0.61,5.09-1.91,6.29c-1.3,1.25-3.18,1.65-4.87,1.65
			c-1.6,0-3.37-0.4-4.45-1.14l0.61-1.91c0.88,0.57,2.27,1.08,3.93,1.08c2.49,0,4.32-1.34,4.32-4.81v-1.54h-0.06
			c-0.75,1.28-2.18,2.31-4.26,2.31c-3.32,0-5.7-2.9-5.7-6.72c0-4.67,2.96-7.31,6.03-7.31c2.32,0,3.6,1.25,4.18,2.39h0.05l0.11-2.08
			H583.62z M581.11,246.57c0-0.43-0.03-0.8-0.14-1.14c-0.44-1.45-1.63-2.65-3.4-2.65c-2.32,0-3.98,2.02-3.98,5.21
			c0,2.7,1.33,4.95,3.96,4.95c1.49,0,2.85-0.97,3.37-2.56c0.14-0.43,0.19-0.91,0.19-1.34V246.57z"/>
		<path class="st23" d="M590.1,237.26c0.03,0.85-0.58,1.54-1.55,1.54c-0.86,0-1.47-0.68-1.47-1.54c0-0.88,0.64-1.57,1.52-1.57
			C589.52,235.7,590.1,236.38,590.1,237.26z M587.39,254.91v-13.77h2.43v13.77H587.39z"/>
		<path class="st23" d="M596.8,237.18v3.96h3.49v1.91h-3.49v7.43c0,1.71,0.47,2.67,1.83,2.67c0.64,0,1.11-0.09,1.41-0.17l0.11,1.88
			c-0.47,0.2-1.22,0.34-2.16,0.34c-1.13,0-2.05-0.37-2.63-1.05c-0.69-0.74-0.94-1.96-0.94-3.59v-7.51h-2.07v-1.91h2.07v-3.3
			L596.8,237.18z"/>
		<path class="st23" d="M610.43,254.91l-0.19-1.74h-0.08c-0.75,1.08-2.18,2.05-4.09,2.05c-2.71,0-4.09-1.96-4.09-3.96
			c0-3.33,2.88-5.15,8.05-5.12v-0.28c0-1.14-0.3-3.19-3.04-3.19c-1.24,0-2.54,0.4-3.48,1.02l-0.55-1.65
			c1.11-0.74,2.71-1.22,4.4-1.22c4.09,0,5.09,2.87,5.09,5.63v5.15c0,1.19,0.05,2.36,0.22,3.3H610.43z M610.08,247.88
			c-2.66-0.06-5.67,0.43-5.67,3.1c0,1.62,1.05,2.39,2.3,2.39c1.74,0,2.85-1.14,3.24-2.31c0.08-0.26,0.14-0.54,0.14-0.8V247.88z"/>
		<path class="st23" d="M616.36,234.7h2.43v20.2h-2.43V234.7z"/>
		<path class="st23" d="M622.97,235.98c1.22-0.26,2.96-0.4,4.62-0.4c2.57,0,4.23,0.48,5.39,1.57c0.94,0.85,1.47,2.16,1.47,3.64
			c0,2.53-1.55,4.21-3.51,4.89v0.09c1.44,0.51,2.3,1.88,2.74,3.87c0.61,2.67,1.05,4.52,1.44,5.26h-2.49
			c-0.3-0.54-0.72-2.19-1.24-4.58c-0.55-2.65-1.55-3.64-3.73-3.73h-2.27v8.31h-2.41V235.98z M625.38,244.72h2.46
			c2.57,0,4.2-1.45,4.2-3.64c0-2.48-1.74-3.56-4.29-3.58c-1.16,0-1.99,0.11-2.38,0.23V244.72z"/>
		<path class="st23" d="M639.24,248.48c0.05,3.39,2.16,4.78,4.59,4.78c1.74,0,2.79-0.31,3.71-0.71l0.41,1.79
			c-0.86,0.4-2.32,0.85-4.45,0.85c-4.12,0-6.58-2.79-6.58-6.94c0-4.15,2.38-7.43,6.28-7.43c4.37,0,5.53,3.96,5.53,6.49
			c0,0.51-0.05,0.91-0.08,1.17H639.24z M646.37,246.68c0.03-1.59-0.64-4.07-3.37-4.07c-2.46,0-3.54,2.33-3.73,4.07H646.37z"/>
		<path class="st23" d="M659.16,254.91l-0.19-1.74h-0.08c-0.75,1.08-2.18,2.05-4.09,2.05c-2.71,0-4.09-1.96-4.09-3.96
			c0-3.33,2.88-5.15,8.05-5.12v-0.28c0-1.14-0.3-3.19-3.04-3.19c-1.24,0-2.54,0.4-3.49,1.02l-0.55-1.65
			c1.11-0.74,2.71-1.22,4.4-1.22c4.09,0,5.09,2.87,5.09,5.63v5.15c0,1.19,0.06,2.36,0.22,3.3H659.16z M658.8,247.88
			c-2.65-0.06-5.67,0.43-5.67,3.1c0,1.62,1.05,2.39,2.3,2.39c1.74,0,2.85-1.14,3.24-2.31c0.08-0.26,0.14-0.54,0.14-0.8V247.88z"/>
		<path class="st23" d="M676.64,234.7v16.65c0,1.22,0.03,2.62,0.11,3.56h-2.18l-0.11-2.39h-0.06c-0.75,1.54-2.38,2.7-4.56,2.7
			c-3.24,0-5.73-2.82-5.73-7c-0.03-4.58,2.74-7.4,6-7.4c2.05,0,3.43,1,4.04,2.11h0.06v-8.22H676.64z M674.21,246.74
			c0-0.31-0.03-0.74-0.11-1.05c-0.36-1.59-1.69-2.9-3.51-2.9c-2.52,0-4.01,2.28-4.01,5.32c0,2.79,1.33,5.09,3.96,5.09
			c1.63,0,3.13-1.11,3.57-2.99c0.08-0.34,0.11-0.68,0.11-1.08V246.74z"/>
		<path class="st23" d="M681.57,241.14l2.93,8.14c0.3,0.91,0.64,1.99,0.86,2.82h0.05c0.25-0.82,0.53-1.88,0.86-2.87l2.66-8.08h2.57
			l-3.65,9.82c-1.74,4.72-2.93,7.14-4.59,8.62c-1.19,1.08-2.38,1.51-2.99,1.62l-0.61-2.1c0.61-0.2,1.41-0.6,2.13-1.22
			c0.66-0.54,1.49-1.51,2.05-2.79c0.11-0.26,0.19-0.46,0.19-0.6c0-0.14-0.06-0.34-0.17-0.66l-4.95-12.69H681.57z"/>
	</g>
</g>
</svg>
