<?xml version="1.0" encoding="utf-8"?>
<!-- Generator: Adobe Illustrator 24.0.0, SVG Export Plug-In . SVG Version: 6.00 Build 0)  -->
<svg version="1.1" id="Layer_1" xmlns="http://www.w3.org/2000/svg" xmlns:xlink="http://www.w3.org/1999/xlink" x="0px" y="0px"
	 viewBox="0 0 785 785" style="enable-background:new 0 0 785 785;" xml:space="preserve">
<style type="text/css">
	.st0{fill:#F6D167;}
	.st1{fill:#FFFFFF;}
	.st2{fill:#00C1D4;}
	.st3{fill:#262626;}
	.st4{fill:#D43525;}
	.st5{fill:#DF2E2E;}
	.st6{opacity:0.56;fill:#EBAB42;}
	.st7{fill:#418E2C;}
	.st8{fill:none;stroke:#000000;stroke-width:0.75;stroke-miterlimit:10;}
	.st9{fill:#32B4D4;}
	.st10{fill:#CFBC30;}
	.st11{fill:#DDEFE8;}
	.st12{fill:#484D1D;}
	.st13{fill:#ECF1EC;}
	.st14{fill:url(#SVGID_1_);}
	.st15{fill:#A92F1D;}
	.st16{fill:url(#SVGID_2_);}
	.st17{fill:url(#SVGID_3_);}
	.st18{fill:#CC6E66;}
	.st19{fill:none;stroke:#DD2405;stroke-width:5;stroke-miterlimit:10;}
	.st20{fill:none;stroke:#15EEFF;stroke-width:2;stroke-miterlimit:10;}
	.st21{fill:none;stroke:#15D4FF;stroke-width:2;stroke-miterlimit:10;}
	.st22{fill:url(#SVGID_4_);}
	.st23{fill:url(#SVGID_5_);}
	.st24{opacity:0.8;fill:#EDE7D3;}
	.st25{fill:#6BC4EE;}
	.st26{fill:none;stroke:#000000;stroke-width:0.5;stroke-miterlimit:10;}
	.st27{fill:#EAF2F1;stroke:#000000;stroke-width:0.75;stroke-miterlimit:10;}
	.st28{fill:#EAF2F1;}
	.st29{fill:#CE4B3E;}
	.st30{fill:#E9F1F3;}
	.st31{fill:url(#SVGID_6_);}
	.st32{fill:#EAF2F1;stroke:#000000;stroke-width:0.5;stroke-miterlimit:10;}
	.st33{fill:#B36652;}
	.st34{fill:#C5D4D7;}
	.st35{fill:#CFCECA;}
	.st36{fill:#DCCEC9;}
	.st37{fill:none;}
	.st38{fill:#B7DBEA;}
	.st39{fill:#97CDDD;}
	.st40{fill:#E9DED8;}
	.st41{fill:url(#SVGID_7_);stroke:#000000;stroke-width:0.25;stroke-miterlimit:10;}
	.st42{fill:url(#SVGID_8_);stroke:#000000;stroke-width:0.25;stroke-miterlimit:10;}
	.st43{fill:#852E1D;}
	.st44{fill:#EAF2F1;stroke:#000000;stroke-width:0.25;stroke-miterlimit:10;}
	.st45{fill:none;stroke:#000000;stroke-width:0.25;stroke-miterlimit:10;}
	.st46{fill:none;stroke:#9B9B9B;stroke-width:0.25;stroke-miterlimit:10;}
</style>
<g>
	<path class="st0" d="M392.4,0C175.7,0,0,175.7,0,392.4s175.7,392.4,392.4,392.4s392.4-175.7,392.4-392.4S609.1,0,392.4,0z
		 M663.2,663.2c-35.2,35.2-76.1,62.8-121.7,82.1c-47.2,20-97.4,30.1-149.1,30.1s-101.9-10.1-149.1-30.1
		c-45.6-19.3-86.6-46.9-121.7-82.1C86.4,628,58.8,587,39.5,541.4c-20-47.2-30.1-97.4-30.1-149.1s10.1-101.9,30.1-149.1
		c19.3-45.6,46.9-86.6,82.1-121.7c35.2-35.2,76.1-62.8,121.7-82.1c47.2-20,97.4-30.1,149.1-30.1s101.9,10.1,149.1,30.1
		C587,58.8,628,86.4,663.2,121.6c35.2,35.2,62.8,76.1,82.1,121.7c20,47.2,30.1,97.4,30.1,149.1s-10.1,101.9-30.1,149.1
		C725.9,587,698.3,628,663.2,663.2z"/>
	<path class="st1" d="M745.2,243.3c-19.3-45.6-46.9-86.6-82.1-121.7C628,86.4,587,58.8,541.4,39.5c-47.2-20-97.4-30.1-149.1-30.1
		S290.5,19.5,243.3,39.5c-45.6,19.3-86.6,46.9-121.7,82.1c-35.2,35.2-62.8,76.1-82.1,121.7c-20,47.2-30.1,97.4-30.1,149.1
		s10.1,101.9,30.1,149.1C58.8,587,86.4,628,121.6,663.2c35.2,35.2,76.1,62.8,121.7,82.1c47.2,20,97.4,30.1,149.1,30.1
		s101.9-10.1,149.1-30.1c45.6-19.3,86.6-46.9,121.7-82.1c35.2-35.2,62.8-76.1,82.1-121.7c20-47.2,30.1-97.4,30.1-149.1
		S765.2,290.5,745.2,243.3z M736.6,537.8c-18.8,44.5-45.7,84.4-80.1,118.7c-34.3,34.3-74.3,61.2-118.7,80.1
		c-46,19.5-95,29.3-145.4,29.3c-50.4,0-99.4-9.9-145.4-29.3c-44.5-18.8-84.4-45.7-118.7-80.1C93.9,622.2,67,582.2,48.2,537.8
		c-19.5-46-29.3-95-29.3-145.4c0-50.4,9.9-99.4,29.3-145.4c18.8-44.5,45.7-84.4,80.1-118.7C162.6,93.9,202.5,67,247,48.2
		c46-19.5,95-29.3,145.4-29.3c50.4,0,99.4,9.9,145.4,29.3c44.5,18.8,84.4,45.7,118.7,80.1c34.3,34.3,61.2,74.3,80.1,118.7
		c19.5,46,29.3,95,29.3,145.4C765.9,442.8,756,491.7,736.6,537.8z"/>
	<path class="st2" d="M736.6,247c-18.8-44.5-45.7-84.4-80.1-118.7C622.2,93.9,582.2,67,537.8,48.2c-46-19.5-95-29.3-145.4-29.3
		c-50.4,0-99.4,9.9-145.4,29.3c-44.5,18.8-84.4,45.7-118.7,80.1C93.9,162.6,67,202.5,48.2,247c-19.5,46-29.3,95-29.3,145.4
		c0,50.4,9.9,99.4,29.3,145.4c18.8,44.5,45.7,84.4,80.1,118.7c34.3,34.3,74.3,61.2,118.7,80.1c46,19.5,95,29.3,145.4,29.3
		c50.4,0,99.4-9.9,145.4-29.3c44.5-18.8,84.4-45.7,118.7-80.1c34.3-34.3,61.2-74.3,80.1-118.7c19.5-46,29.3-95,29.3-145.4
		C765.9,341.9,756,293,736.6,247z M660.6,407.7c-1.7,30.9-8.6,60.9-20.6,89.2c-13.5,32-32.9,60.7-57.6,85.4
		c-24.7,24.7-53.5,44.1-85.4,57.6c-2.1,0.9-4.1,1.7-6.2,2.5c-1,0.4-1.9,0.8-2.9,1.1c-30.2,11.5-61.7,17.4-94.6,17.4h-0.8
		c-1,0-1.9,0-2.9,0c-1.5,0-3.1-0.1-4.6-0.1h-0.1c-0.7,0-1.5,0-2.2-0.1c-0.8,0-1.5-0.1-2.3-0.1c-0.5,0-0.9,0-1.4-0.1
		c-0.7,0-1.4-0.1-2.1-0.1c-0.9-0.1-1.8-0.1-2.7-0.2c-0.5,0-1-0.1-1.5-0.1c-0.7-0.1-1.4-0.1-2.1-0.2c-1.3-0.1-2.7-0.2-4-0.4
		c-0.7-0.1-1.4-0.1-2.1-0.2c-1-0.1-1.9-0.2-2.9-0.3c-0.9-0.1-1.8-0.2-2.7-0.3c-1-0.1-2-0.3-3-0.4c0,0-0.1,0-0.1,0
		c-1-0.1-1.9-0.3-2.9-0.4c0,0-0.1,0-0.1,0c-0.7-0.1-1.4-0.2-2.1-0.3c-0.7-0.1-1.3-0.2-2-0.3c-0.1,0-0.2,0-0.3,0
		c-0.7-0.1-1.5-0.2-2.2-0.4l-1.5-0.3c-0.6-0.1-1.2-0.2-1.8-0.3c-0.9-0.2-1.8-0.3-2.6-0.5c-0.6-0.1-1.3-0.3-1.9-0.4
		c-0.4-0.1-0.8-0.2-1.2-0.2c-0.5-0.1-1-0.2-1.6-0.3c-0.6-0.1-1.3-0.3-1.9-0.4c-0.4-0.1-0.8-0.2-1.1-0.3c-0.5-0.1-1-0.2-1.5-0.3
		c-0.6-0.1-1.3-0.3-1.9-0.5c-0.3-0.1-0.6-0.1-0.8-0.2c-0.7-0.2-1.3-0.3-2-0.5c-0.4-0.1-0.9-0.2-1.3-0.3c-0.6-0.2-1.2-0.3-1.9-0.5
		c-0.2,0-0.4-0.1-0.5-0.1c-0.9-0.2-1.7-0.5-2.6-0.7c-0.9-0.3-1.9-0.5-2.8-0.8c-0.8-0.2-1.6-0.5-2.4-0.7c-0.7-0.2-1.5-0.4-2.2-0.7
		c-2.7-0.8-5.3-1.7-8-2.6c-0.7-0.2-1.4-0.5-2.1-0.7c-0.4-0.2-0.8-0.3-1.3-0.5c-0.8-0.3-1.5-0.5-2.3-0.8c-0.2-0.1-0.4-0.1-0.6-0.2
		c-0.5-0.2-1-0.4-1.5-0.6v0c0,0-0.1,0-0.1,0c-0.9-0.4-1.9-0.7-2.8-1.1c-2.1-0.8-4.2-1.7-6.2-2.5c-32-13.5-60.7-32.9-85.4-57.6
		c-24.7-24.7-44.1-53.5-57.6-85.4c-12-28.4-18.9-58.3-20.6-89.2c-0.3-5.1-0.4-10.2-0.4-15.3c0-36.3,7.1-71.5,21.1-104.6
		c13.5-32,32.9-60.7,57.6-85.4c24.7-24.7,53.5-44.1,85.4-57.6c33-14,68.2-21.1,104.6-21.1s71.5,7.1,104.6,21.1
		c32,13.5,60.7,32.9,85.4,57.6c24.7,24.7,44.1,53.5,57.6,85.4c14,33,21.1,68.2,21.1,104.6C661.1,397.5,660.9,402.6,660.6,407.7z"/>
	<g>
		<path class="st1" d="M83.9,362.7c1.6,1.2,2.7,2.5,3.3,4.1c0.6,1.6,0.9,3.2,0.7,4.9c-0.2,1.7-0.6,3.1-1.3,4.2
			c-0.7,1.1-1.6,2.1-2.5,2.8c-1,0.7-2.1,1.2-3.3,1.5c-1.2,0.2-2.4,0.3-3.6,0.1c-1.2-0.2-2.4-0.6-3.4-1.2c-1.1-0.6-2-1.5-2.8-2.5
			c-0.8-1-1.4-2.3-1.8-3.8c-0.4-1.5-0.5-3.1-0.3-5c0-0.3,0.1-0.6,0.1-1c0-0.4,0.1-0.8,0.2-1.2c0-0.1,0-0.1,0.1-0.1
			c0,0,0.1-0.1,0.1-0.2c-2.7,0.1-4.8,0.7-6.2,1.9c-1.5,1.2-2.6,2.6-3.4,4.2c-0.5,0.9-0.9,1.9-1.3,2.8c-0.3,1-0.7,1.8-1,2.6
			c-0.7,1.9-1.5,3.2-2.3,3.9c-0.5,0.5-0.9,1-1.5,1.3c-0.5,0.3-1,0.6-1.5,0.8c-0.5,0.2-0.9,0.4-1.4,0.6c-0.4,0.2-0.9,0.4-1.3,0.7
			c-0.5,0.3-1,0.6-1.4,1c-0.4,0.4-0.9,0.7-1.3,1.1c-0.5,0.4-1.1,0.9-1.7,1.4c-0.6,0.5-1.7,1.4-3.2,2.6l5.9-54.2l8.1-6.6l-1.4,12.6
			l52,5.6c0,0.3-0.2,0.7-0.6,1.2c-0.3,0.5-0.7,0.9-1.1,1.3c-0.5,0.5-1,1.1-1.6,1.6c-1.1,0.2-2.3,0.3-3.5,0.5
			c-1.2,0.2-2.4,0.4-3.5,0.8c-1.1,0.3-2.2,0.7-3.2,1.2c-1,0.5-1.9,1.1-2.6,1.7c-1,0.9-2.1,2-3.4,3.3
			C85.5,360.5,84.5,361.6,83.9,362.7z M53.5,349.1l-2.1,19.5c0.9-0.9,1.8-1.8,2.8-2.7c0.9-0.9,1.9-1.7,2.9-2.6
			c1.5-1.2,3-2.2,4.6-3.1c1.6-0.9,3.3-1.4,5.2-1.7c1.4-0.2,3-0.4,4.7-0.6c1.7-0.2,3.4-0.1,5,0.2c1.3-1,2.7-2,4-2.9
			c1.4-0.9,2.7-1.8,4.2-2.7L53.5,349.1z"/>
		<path class="st1" d="M59,320.6l52.4,11.5c-0.1,0.3-0.5,0.8-1.3,1.5c-0.8,0.7-1.6,1.3-2.5,1.9c-1.1,0.8-2.2,1.6-3.6,2.4l-37.9-8.3
			c-2.9-0.6-5.3-0.6-7.1,0c-1.8,0.6-2.8,2.3-3.1,5.1l-8.7,4.4c0.3-1,0.5-1.8,0.7-2.4c0.2-0.6,0.3-1.1,0.4-1.5c0.1-0.4,0.2-0.7,0.2-1
			c0.1-0.3,0.1-0.5,0.2-0.8c0.5-2.1,1.2-3.7,2.3-4.8c1-1.1,2.5-2,4.3-2.6c-0.6,0-1.4-0.1-2.1-0.1c-0.8,0-1.7-0.1-2.7-0.2
			c-1-0.1-2.3-0.2-3.7-0.4c-1.4-0.1-3-0.3-4.9-0.5l4.3-3.6c1,0.1,1.7,0.1,2.1,0.1c0.4,0,0.7-0.1,1.1-0.2c0.4-0.1,0.7-0.3,1.1-0.5
			l1.2-0.8l1.6-7.5l8.7-5.6L59,320.6z"/>
		<path class="st1" d="M64.7,298.5l17.4,5.9c-0.7-2.2-1.4-4.2-2.1-5.9c-0.7-1.8-1.3-3.5-1.8-5.2c-0.7-2-1.2-4.1-1.7-6.4
			c-0.5-2.3-0.8-5-0.9-8.3l10.4-7.1c3.3,3.3,6.6,6.2,10,8.8c3.4,2.5,7,4.5,11,5.8c2.5,0.8,5.1,1.5,7.8,2c2.7,0.5,5.8,1,9.4,1.5
			l-4.5,4.6c-3.9-0.5-7.6-0.9-11.1-1.5c-3.5-0.5-7-1.4-10.5-2.5c-3.8-1.3-7.4-2.9-10.7-4.8c0.4,4.3,1.6,8.6,3.8,12.8
			c2.2,4.2,5.2,8,9.3,11.3l-10.7,5.2l-27.2-9.2l-2,6l-9.3,4.7L69.3,262l9.3-4.7L64.7,298.5z"/>
		<path class="st1" d="M83.8,249.8l48.7,22.7c-0.1,0.3-0.7,0.7-1.6,1.2c-0.9,0.5-1.9,0.9-2.9,1.3c-1.2,0.5-2.5,1.1-4,1.6l-35.2-16.4
			c-2.7-1.3-5-1.8-6.9-1.6c-1.9,0.2-3.3,1.7-4.1,4.3l-9.5,2.4c0.5-0.9,0.9-1.6,1.2-2.2c0.3-0.5,0.5-1,0.7-1.4
			c0.2-0.4,0.3-0.7,0.4-0.9c0.1-0.2,0.2-0.5,0.3-0.7c0.9-1.9,2-3.4,3.3-4.2c1.3-0.9,2.8-1.4,4.7-1.6c-0.6-0.2-1.3-0.4-2-0.6
			c-0.7-0.2-1.6-0.5-2.6-0.8c-1-0.3-2.2-0.7-3.5-1.1c-1.3-0.4-2.9-1-4.6-1.6l5-2.5c0.9,0.3,1.6,0.5,2,0.5c0.4,0.1,0.8,0.1,1.1,0
			c0.4,0,0.8-0.1,1.2-0.2l1.4-0.5l3.2-6.9l9.7-3.5L83.8,249.8z"/>
		<path class="st1" d="M106.4,209l45.2,26.8c-1.1,0.6-1.8,1-2.2,1.2c-0.4,0.2-0.7,0.3-1,0.4c-0.3,0.1-1.1,0.3-2.4,0.4
			c-1,0-2.1,0-3.2-0.1c-1.1-0.1-2.3-0.1-3.6-0.1c-1.3,0-2.6,0-3.9,0c-1.3,0-2.7,0.2-4.1,0.5c-2.7,0.5-5.5,1.6-8.3,3.2
			c-2.8,1.6-5.5,4.3-8.1,8.1l-12.8,1.2c-0.5-6.1-0.6-12.1-0.4-17.7c0.2-5.7,1-11.3,2.3-16.9l-1.3-0.8l-15.6,26.3L77,244.3l25.8-43.5
			l10-2.6L106.4,209z M112.5,221.1c-0.6,3.2-0.9,6.3-1.1,9.3c-0.2,3-0.1,6.1,0.1,9.4c3.1-2.1,6.3-3.8,9.8-5.1
			c3.4-1.2,7-1.9,10.7-2.1L112.5,221.1z M137,251c-0.4,0.7-1,1.4-1.7,1.9c-0.7,0.5-1.5,0.9-2.3,1.1c-0.8,0.2-1.7,0.3-2.6,0.2
			c-0.9-0.1-1.7-0.4-2.5-0.8c-1.4-0.9-2.4-2.1-2.8-3.7c-0.4-1.6-0.2-3.1,0.6-4.5c0.9-1.5,2.2-2.5,4-3c1.8-0.5,3.4-0.3,4.9,0.6
			c1.3,0.8,2.3,2,2.8,3.7C138,248,137.9,249.6,137,251z"/>
		<path class="st1" d="M137.4,168.8l40.7,32.7l-1.5,0.2c0.5,0.2,0.8,0.4,0.8,0.7c0,0.3-0.1,0.6-0.3,0.9c-0.2,0-0.3,0-0.4,0
			c-0.1,0-0.2,0-0.4,0c-0.4,0-0.8,0-1.2,0.1c-0.4,0-0.9,0.1-1.4,0.1c-0.5,0-1.1,0.1-1.6,0.1c-0.5,0.1-1,0.1-1.5,0.1
			c-0.5,0.1-1,0.1-1.5,0.1l-21.7-17.8c-1.3-1.1-3-1.9-5-2.6c-2-0.7-4.1-1-6.2-1.1c-2.1-0.1-4.1,0.2-6,0.7c-1.9,0.5-3.4,1.5-4.4,2.8
			c-2.6,3.3-3.4,6.8-2.2,10.4c0.6-1,1.2-1.9,1.9-2.7c0.9-1.2,2-2.2,3.2-3c1.2-0.8,2.4-1.4,3.7-1.6c1.3-0.3,2.6-0.3,4,0.1
			c1.4,0.3,2.7,1,4.1,2.1c1.2,0.9,2.2,2.2,3,3.7c0.8,1.5,1.5,3.2,2,5c0.5,1.8,1,3.7,1.3,5.5c0.3,1.9,0.6,3.5,0.8,5l-11.1,0.5
			c-0.1-0.9-0.2-2.3-0.3-4c-0.1-1.7-0.3-3.4-0.5-5.2c-0.2-1.7-0.5-3.3-0.9-4.7c-0.3-1.4-0.7-2.2-1.1-2.6c-0.6-0.5-1.2-0.3-1.9,0.6
			c-0.1,0.2-0.4,0.7-0.6,1.6c-0.1,0.5-0.2,0.9-0.3,1.5c-0.1,0.5-0.2,1-0.3,1.6c-0.2,1.2-0.4,2.4-0.7,3.4c-0.3,1.1-0.7,1.9-1.1,2.4
			c-0.7,0.8-1.5,1.4-2.4,1.7c-1,0.3-2,0.4-3,0.4c-1-0.1-2-0.3-3-0.6c-0.9-0.4-1.7-0.8-2.4-1.3c-1.7-1.4-3-3-3.8-4.8
			c-0.8-1.8-1.3-3.7-1.3-5.7c-0.1-1.9,0.2-3.9,0.9-5.8c0.7-1.9,1.6-3.7,2.8-5.2c1.9-2.4,3.8-4.3,5.5-5.6c1.8-1.3,3.5-2.2,5.3-2.8
			c1.8-0.5,3.5-0.7,5.4-0.5c1.8,0.2,3.8,0.6,5.8,1.2c-2.8-1.9-5.7-3.9-8.6-6c-2.9-2.1-6.3-4.7-10.1-7.7l7.6-1
			c0.2,0.6,0.4,0.9,0.6,1.1c0.1,0.2,0.3,0.3,0.4,0.4c1,0.8,1.7,1.2,2,1.2c0.4,0,0.7-0.1,0.9-0.2c0.2-0.2,0.6-0.6,1.2-1.4
			c0.3-0.4,0.6-0.7,0.9-1.1c0.3-0.4,0.6-0.7,1-1.1l0.8-0.8l10.2-1.2L137.4,168.8z"/>
		<path class="st1" d="M189.6,155.4c-1.2,1.2-2.7,2-4.5,2.5c-1.8,0.5-3.7,0.7-5.6,0.6c-1.9,0-3.8-0.3-5.7-0.8
			c-1.9-0.5-3.5-1.1-4.8-1.9c-0.4,0.4-0.6,1-0.6,2c0,1,0.1,2.1,0.4,3.2c0.2,1.2,0.6,2.3,1,3.4c0.4,1.1,0.9,1.9,1.4,2.5
			c1.2,1.3,2.4,1.5,3.5,0.5c0.5-0.4,0.8-1,0.9-1.6c0.1-0.7,0.2-1.4,0.2-2.3c0-0.2,0-0.4,0-0.6c0-0.2,0-0.5,0-0.7
			c0-0.7,0.1-1.3,0.2-2c0.1-0.7,0.5-1.3,1-1.8c0.1-0.1,0.4-0.2,0.8-0.3c0.1-0.1,0.1-0.1,0.2-0.1c0,0,0.1,0,0.1-0.1
			c0.6-0.4,1.6-0.5,3-0.4c1.4,0.1,2.9,0.5,4.6,1c1.6,0.5,3.2,1.2,4.6,2c1.5,0.8,2.6,1.7,3.4,2.6c1.5,1.8,2.5,3.8,2.9,5.9
			c0.4,2.1,0.4,4.3-0.1,6.4c-0.5,2.1-1.5,4.1-2.8,5.9c-1.4,1.8-3.1,3.2-5.2,4.3c-2.1,1.1-4.5,1.8-7.3,1.9c-2.7,0.1-5.7-0.4-8.9-1.6
			c-3.2-1.2-6.6-3.2-10.2-6c-3.6-2.8-7.4-6.6-11.4-11.4c1.4-0.4,2.4-0.7,3.2-0.8c0.7-0.2,1.5-0.3,2.4-0.4l1.7,2.1
			c1.1,1.3,2.4,2.6,3.9,3.8c1.5,1.2,3.1,2.3,4.8,3.2c1.7,0.9,3.4,1.7,5.2,2.3c1.8,0.6,3.6,0.9,5.3,1c1.4,0,2.9-0.1,4.3-0.3
			c1.4-0.2,2.6-0.8,3.6-1.6c0.6-0.6,1.3-1.4,2.1-2.4c0.7-1,1.4-2.1,1.9-3.2c0.5-1.1,0.8-2.3,0.9-3.4c0.1-1.1-0.2-2-0.9-2.8
			c-0.5-0.6-1.2-1-1.9-1.2c-0.7-0.2-1.2-0.2-1.5,0.1c-0.1,0.1-0.3,0.4-0.6,0.9c-0.3,0.6-0.6,1.3-1,2c-0.4,0.8-0.9,1.5-1.3,2.3
			c-0.5,0.8-1.1,1.5-1.8,2.2c-1.2,1.1-2.4,1.8-3.8,2.3c-1.4,0.5-2.8,0.8-4.2,0.8c-1.4,0-2.8-0.3-4.1-0.9c-1.3-0.6-2.6-1.5-3.7-2.7
			c-1.7-1.8-2.8-4-3.3-6.3c-0.5-2.4-0.8-4.7-0.9-7.1c0-0.9-0.1-1.8-0.1-2.6c0-0.8,0-1.5,0-2.2c0-0.6,0-1.1-0.1-1.6
			c-0.1-0.5-0.2-0.8-0.4-1.1c-0.3-0.3-0.7-0.7-1.3-1.1c-0.5-0.4-1-0.4-1.4,0c-0.6,0.5-1.1,1.2-1.4,2c-0.3,0.8-0.4,1.6-0.4,2.4
			c1.6,0.4,3,1.2,4.1,2.4c0.5,0.6,0.9,1.2,1.1,1.7c0.5,1.2,0.6,2.6,0.5,4c-0.2,1.5-0.7,2.7-1.7,3.5c-1.7,1.6-3.5,2.3-5.3,2.3
			c-1.8,0-3.6-0.9-5.2-2.7c-1.2-1.3-2-2.8-2.6-4.5c-0.6-1.7-0.8-3.5-0.7-5.3c0.1-1.8,0.5-3.5,1.2-5.2c0.7-1.7,1.7-3.1,3-4.3
			c1.4-1.3,2.9-2.1,4.4-2.5c1.5-0.4,2.9-0.5,4.3-0.5c0.7,0,1.2,0.1,1.8,0.1c0.5,0.1,1,0.1,1.5,0.2c0.2,0,0.3,0,0.3,0
			c0.1,0,0.1,0,0.2,0c0.2-2,0.6-3.9,1.2-5.8c0.6-1.9,1.6-3.7,3-5.3c1.9-2.2,3.8-3.8,5.9-4.6c2-0.8,4-1,5.7-0.5
			c1.8,0.5,3.3,1.6,4.6,3.3c1.3,1.7,2,3.9,2.3,6.6c1.3,0.1,2.6,0.4,3.8,0.9c1.2,0.5,2.2,1.1,3,1.9c0.8,0.8,1.5,1.8,1.9,2.9
			c0.4,1.2,0.6,2.5,0.4,4l6.3,0c-0.4,1.4-0.6,2.9-0.8,4.6c-0.2,1.6-0.2,3.2,0,4.8c0.2,1.5,0.4,3,0.8,4.3c0.4,1.3,1,2.4,1.7,3.1
			c0.5,0.6,1.1,1.1,1.7,1.5c0.6,0.4,1.2,0.7,1.9,1c0.7,0.3,1.4,0.6,2.2,0.9c0.8,0.3,1.8,0.6,2.9,1l-0.5,5.8
			c-3.4-1.1-6.4-2.2-8.9-3.3c-2.5-1.2-4.9-2.9-7-5.2c-0.8-0.9-1.4-1.8-2-2.7c-0.6-0.9-1-1.9-1.4-2.9c-0.3-0.7-0.5-1.4-0.8-2.2
			C190.2,156.9,189.9,156.2,189.6,155.4z M187,144.2c-0.3,0.2-0.5,0.5-0.8,0.8c-0.3,0.3-0.5,0.6-0.7,1c-0.3,0.4-0.5,0.8-0.8,1.2
			c-0.3,0.4-0.6,0.8-1,1.1c-1.6,1.5-3.3,2.1-5.1,1.9c-1.8-0.2-3.4-1-4.8-2.6c-1.2-1.3-1.8-2.9-1.7-4.7c0.1-1.8,0.8-3.3,2.1-4.5
			c0.6-0.5,1.2-0.9,1.9-1.1c0.7-0.2,1.4-0.4,2-0.5c0-0.4-0.1-0.8-0.4-1.3c-0.3-0.5-0.6-0.8-1.1-1.1c-0.5-0.3-1-0.4-1.5-0.4
			c-0.6,0-1.1,0.3-1.6,0.7c-0.7,0.7-1.4,1.7-2.1,3c-0.7,1.3-1.2,2.8-1.6,4.3c-0.4,1.5-0.7,2.9-0.7,4.2c0,1.3,0.2,2.3,0.7,2.8
			c0.2,0.1,0.4,0.2,0.4,0.2c1.3,0.8,2.6,1.6,3.8,2.1c1.2,0.6,2.5,1,3.7,1.1c1.2,0.2,2.5,0.1,3.7-0.3c1.2-0.4,2.4-1.1,3.6-2.2
			c0.4-0.4,0.7-0.8,1-1.3c0.3-0.5,0.5-1.1,0.6-1.6c0.1-0.6,0.1-1.1,0.1-1.6c-0.1-0.5-0.2-0.9-0.4-1.1c-0.1-0.1-0.1-0.1-0.2-0.1
			c-0.1,0-0.1,0-0.2,0L187,144.2z"/>
		<path class="st1" d="M245.4,138c-1.2-0.5-2-1.3-2.6-2.2c-0.8-1.4-1.2-2.5-1.3-3.6c-0.1-1,0.1-2,0.5-2.8c0.4-0.8,1-1.6,1.8-2.2
			c0.8-0.6,1.7-1.2,2.7-1.8c0.8-0.4,1.6-0.6,2.4-0.6c0.9,0.1,1.7,0.3,2.6,0.7c0.8,0.4,1.6,0.9,2.2,1.4c0.7,0.6,1.1,1.1,1.5,1.7
			c0.7,1.2,1.1,2.5,1.3,3.8c0.2,1.3,0.1,2.6-0.3,3.8c-0.4,1.2-0.9,2.3-1.7,3.4c-0.8,1-1.7,1.9-3,2.6c-2.9,1.7-5.8,2.3-8.7,2
			c-2.9-0.3-5.7-1.3-8.3-2.9c-2.6-1.6-5-3.5-7.1-5.8c-2.1-2.3-3.8-4.5-5.1-6.7c-0.4-0.8-0.8-1.5-1.2-2.3c-0.4-0.8-0.7-1.6-1.1-2.4
			c-1.1-2.3-1.9-5.1-2.4-8.4c-0.5-3.3-0.6-6.6-0.2-9.9c0.4-3.3,1.3-6.4,2.7-9.3c1.4-2.9,3.5-5.1,6.3-6.8l9.7,2.5
			c-3.1,2.2-5.5,4.8-7.1,7.8c-1.6,3-2.6,6.1-2.9,9.3c-0.3,3.2-0.1,6.4,0.6,9.6c0.7,3.2,1.9,6.1,3.5,8.8c0.8,1.4,1.8,2.8,2.9,4.1
			c1.1,1.4,2.4,2.5,3.7,3.5c1.3,1,2.7,1.7,4.2,2.2C242.4,138.2,243.9,138.3,245.4,138z"/>
		<path class="st1" d="M279.3,73.8l20.5,48.6c-1.6-0.3-2.9-0.6-3.7-0.8c-0.8-0.2-1.5-0.5-2.1-0.7c-0.6-0.2-1.2-0.5-1.9-0.8
			c-0.6-0.3-1.4-0.6-2.2-1c-1.8-4.5-3.4-8.6-4.8-12.2c-0.6-1.5-1.2-3-1.8-4.5c-0.6-1.5-1.1-2.8-1.6-3.9c-0.5-1.1-0.9-2.1-1.2-2.8
			c-0.3-0.7-0.5-1.1-0.5-1.2c-0.2-0.5-0.6-1-1.2-1.7c-0.6-0.6-1.2-1.3-2-1.9c-0.7-0.6-1.5-1.2-2.3-1.6c-0.8-0.5-1.5-0.9-2.1-1.1
			l-9,22.7l-10.3,0.4c0.4-1.1,0.7-1.8,0.9-2.3c0.2-0.5,0.4-0.9,0.5-1.3c0.2-0.4,0.3-0.7,0.5-1.1c0.2-0.4,0.3-0.7,0.5-1.1
			c0.2-0.8,0.3-1.5,0.4-2.1c0.1-0.6,0-1.2-0.2-1.7c-0.2-0.4-0.4-0.8-0.6-1.2c-0.2-0.4-0.5-0.8-0.8-1.1c-0.3-0.3-0.6-0.5-1-0.7
			c-0.4-0.1-0.8-0.1-1.3,0.1c-0.4,0.2-0.8,0.4-1.2,0.8c-0.4,0.4-0.8,0.7-1.2,1.2c-0.2,0.2-0.5,0.4-0.7,0.7c-0.2,0.2-0.5,0.5-0.7,0.7
			c-0.5,0.5-1.1,0.9-1.6,1.1c-0.6,0.2-1.2,0.3-1.9,0.3c-0.7-0.1-1.3-0.2-2-0.5c-0.6-0.3-1.2-0.7-1.7-1.2c-0.5-0.5-0.9-1-1.1-1.5
			c-0.9-2-0.9-4.2-0.2-6.6c0.7-2.4,1.8-4.6,3.3-6.8c1.5-2.1,3.2-4.1,5.2-5.7c1.9-1.7,3.7-2.8,5.2-3.5c1.8-0.7,3.6-1.2,5.5-1.3
			c1.9-0.1,3.8,0,5.6,0.4c1.8,0.4,3.6,1,5.4,1.8c1.8,0.8,3.4,1.8,5,2.9c-0.7-1.4-1.4-2.8-2.1-4.3c-0.7-1.4-1.4-2.9-2-4.5
			c-0.7-1.6-1.4-3.2-2.2-5c-0.7-1.8-1.6-3.7-2.4-5.8l5.6,1.3l0.9,0.7c0.6,1.2,1.2,1.9,1.6,2.3c0.5,0.3,1.3,0.6,2.4,0.7l2.6-1.1
			l2.2-0.9l9.4,3.9L279.3,73.8z M250.6,92.1c1.7-0.4,3.3-0.1,5,0.7c1.7,0.9,3,2,3.9,3.4l5-12.1c-2.3-0.9-4.5-0.9-6.7,0
			C253.9,85.8,251.5,88.5,250.6,92.1z"/>
		<path class="st1" d="M301.6,67.4l15.2,52.8c-0.8-0.4-1.5-0.8-2.2-1.2c-0.6-0.3-1.2-0.6-1.9-1c-0.7-0.3-1.2-0.6-1.6-0.9
			c-0.4-0.3-0.9-0.5-1.3-0.8c-0.4-0.2-0.7-0.4-1-0.6c-0.4-0.2-0.7-0.4-0.8-0.5c-0.1,0-0.2-0.2-0.4-0.3l-0.2-0.6l-12.9-44.9l-7.8,2.3
			l-9-5l14.9-4.3c0.2-0.7,0.2-1.4,0-2.2c-0.6-2.2-3.1-2.9-7.4-1.9c-1,0.2-2,0.5-3,0.8c-1,0.3-2,0.6-2.9,0.9
			c-0.9,0.3-1.8,0.6-2.6,0.9c-0.8,0.3-1.5,0.5-2,0.7c-3.2,0.9-6.3,1.4-9.4,1.4c-3.1,0-5.7-0.5-7.8-1.7c-2.1-1.2-3.5-3-4.3-5.6
			c-0.7-2.5-0.3-5.9,1.2-10.1l5,2.4c-0.8,1-1.4,1.8-1.5,2.3c-0.2,0.5-0.2,1.1,0,1.7c0.5,1.8,1.4,2.9,2.6,3.3
			c1.2,0.4,2.8,0.3,4.7-0.3c2.6-0.7,5.1-1.6,7.6-2.5c2.5-0.9,5-1.8,7.6-2.5c2.4-0.7,4.7-1.1,6.9-1.1c2.2-0.1,4.2,0.3,5.9,1.1
			c1.8,0.8,3.2,2,4.4,3.6c1.2,1.7,2,3.9,2.4,6.6l7.7-2.2l9.2,4.9L301.6,67.4z"/>
		<path class="st1" d="M348.8,57.6l9.2,51.7c-1.2-0.4-2-0.7-2.4-0.9c-0.4-0.1-0.7-0.3-1-0.5c-0.3-0.2-0.9-0.7-1.9-1.5
			c-0.7-0.8-1.3-1.6-2-2.5c-0.7-0.9-1.4-1.8-2.3-2.8c-0.8-1-1.7-2-2.6-2.9c-0.9-1-1.9-1.9-3-2.8c-2.2-1.7-4.8-3.1-7.8-4.2
			c-3-1.1-6.8-1.4-11.4-0.8l-9.3-8.9c4.3-4.4,8.7-8.3,13.2-11.9c4.5-3.6,9.2-6.6,14.3-9.2l-0.3-1.5l-30.1,5.3l-8.6-5.9l49.8-8.8
			l8.5,5.9L348.8,57.6z M343.6,70c-2.8,1.7-5.4,3.4-7.8,5.3c-2.4,1.8-4.7,3.9-7,6.2c3.6,0.9,7,2.3,10.2,4.1c3.2,1.8,6,4,8.6,6.8
			L343.6,70z M337,108.1c-0.9,0.2-1.7,0.1-2.6-0.1c-0.9-0.2-1.6-0.5-2.3-1c-0.7-0.5-1.3-1.1-1.8-1.8c-0.5-0.7-0.8-1.5-1-2.4
			c-0.3-1.7,0-3.2,1-4.5c1-1.4,2.2-2.2,3.8-2.5c1.7-0.3,3.3,0.1,4.9,1.1c1.5,1,2.5,2.4,2.8,4.1c0.3,1.5,0,3-0.9,4.5
			C339.9,106.9,338.6,107.8,337,108.1z"/>
		<path class="st1" d="M402,54.7l1.6,52.4c-0.3,0-0.8-0.3-1.7-0.9c-0.8-0.6-1.7-1.3-2.5-2.1c-1-0.9-2.1-1.9-3.3-3.1l-0.7-24
			c0-0.4-0.2-0.9-0.7-1.5c-0.5-0.6-1-1.1-1.7-1.6c-0.7-0.5-1.4-0.9-2.1-1.2c-0.7-0.3-1.3-0.5-1.8-0.5c-1.3,0-2.6,0.8-3.8,2.3
			c-0.3,0.4-0.6,0.8-0.9,1.2c-0.3,0.4-0.6,0.9-0.9,1.3c-0.3,0.5-0.6,1-0.9,1.5c-0.3,0.5-0.6,1.1-0.9,1.6c-0.7,1.1-1.3,2.2-2,3.3
			c-0.7,1.1-1.4,2-2.3,2.9c-0.8,0.9-1.7,1.6-2.5,2.1c-0.9,0.5-1.8,0.8-2.9,0.8c-1.9,0.1-3.5-0.3-4.9-1c-1.3-0.7-2.5-1.6-3.4-2.8
			c-0.5-0.6-0.9-1.2-1.4-1.8c-0.4-0.6-0.8-1.2-1.2-1.9c-0.4-0.6-0.8-1.3-1.2-2.1c-0.4-0.7-0.9-1.6-1.5-2.6l5.4-5.6
			c0.1,1,0.4,2,0.7,3c0.3,1,0.7,1.8,1.2,2.6c0.4,0.7,0.9,1.3,1.3,1.7c0.4,0.4,0.8,0.6,1.1,0.6c0.6,0,1.3-0.5,2-1.4
			c0.8-0.9,1.6-1.9,2.3-3c0.8-1.1,1.5-2.1,2.1-3.1c0.6-1,1.1-1.7,1.5-2.2c-0.3-2.1-0.7-3.7-1.2-4.9c-0.5-1.2-1-2.1-1.7-2.8
			c-0.6-0.6-1.3-1.1-2.1-1.3c-0.8-0.2-1.5-0.4-2.3-0.5c-0.5,0-1-0.1-1.5-0.1c-0.5,0-1,0-1.5-0.1c-0.5,0-1-0.1-1.6-0.1
			c-0.5,0-1.1-0.1-1.7-0.3c-1.1-0.3-2.1-0.7-3.1-1.3c-1-0.6-1.9-1.5-2.8-2.7c-0.5-0.2-1-0.5-1.6-1c-0.6-0.4-1.1-0.9-1.7-1.4
			c-0.7-0.6-1.3-1.3-2.1-1.9c-0.7-0.7-1.7-1.6-3-2.8l58.5-1.8l7.5,7.1L402,54.7z M394.8,54.9l-18.7,0.6c1.5,1.2,2.7,2.5,3.6,3.9
			c0.9,1.4,1.5,3.1,1.6,4.9c0.8-0.6,1.6-1.1,2.4-1.5c0.8-0.4,1.6-0.6,2.4-0.6c1.2,0,2.4,0.3,3.5,1.1c1.1,0.8,2.1,1.6,3,2.5
			c1,1,1.8,2,2.5,2.9L394.8,54.9z"/>
		<path class="st1" d="M411,54.5l-6.5-8.2l61.9,8.2l6.6,8.2L411,54.5z M440.4,72c0.8-0.4,1.7-0.9,2.7-1.6c1-0.7,1.9-1.4,2.8-2.3
			c0.9-0.8,1.7-1.6,2.4-2.5c0.7-0.8,1.3-1.6,1.7-2.2l1.2-0.6c2.2,1.6,4,3.3,5.4,5.1c1.4,1.9,2.5,3.7,3.3,5.5
			c0.8,1.8,1.3,3.5,1.5,5.1c0.2,1.6,0.3,3,0.1,4c-0.4,3-1.3,5.9-2.7,8.5c-1.4,2.6-3.2,4.9-5.4,6.7c-2.2,1.9-4.7,3.3-7.5,4.1
			c-2.8,0.9-5.8,1.1-9,0.7c-2.5-0.3-4.8-1-6.8-2c-2-1-3.8-2.3-5.4-3.9c-1.6-1.6-3-3.3-4.2-5.3c-1.2-2-2.3-4-3.2-6.2
			c-0.9-2.2-1.7-4.5-2.3-6.8c-0.7-2.3-1.3-4.7-1.8-6.9c-0.5-2.3-1-4.6-1.4-7c-0.4-2.4-0.8-5-1.2-7.9l5.4,2.5
			c0.5,3.6,1.3,7.2,2.5,10.9c1.1,3.7,2.6,7.1,4.5,10.2c1.9,3.1,4.1,5.8,6.8,8c2.7,2.2,5.9,3.5,9.6,4c1.6,0.2,3.1,0.1,4.7-0.4
			c1.6-0.5,3.1-1.2,4.5-2.1c1.4-1,2.6-2.1,3.5-3.4c1-1.3,1.5-2.8,1.8-4.3c0-0.3,0.1-0.7,0.1-1.3c0-0.6,0.1-1.2,0.1-1.9
			c0-0.7-0.1-1.3-0.2-1.9c-0.1-0.6-0.3-1-0.7-1.2c-0.5,0.4-1,0.8-1.4,1.2c-0.4,0.4-0.8,0.8-1.3,1.2c-0.9,0.9-2,1.6-3.2,2.1
			c-1.2,0.5-2.5,0.9-3.8,1.1c-1.3,0.2-2.6,0.4-4,0.4c-1.3,0-2.5,0-3.6-0.2c-1.7-0.2-3.2-0.7-4.6-1.4c-1.4-0.7-2.7-1.6-3.7-2.8
			c-1-1.2-1.8-2.5-2.3-4c-0.5-1.5-0.6-3.1-0.4-4.9c0.4-2.8,1.5-4.8,3.3-6.3c1.8-1.4,4.1-2,6.9-1.6c2.1,0.3,3.8,1.1,5.2,2.6
			c1.4,1.5,1.9,3.4,1.6,5.6C441.6,69.8,441.1,71,440.4,72z"/>
		<path class="st1" d="M481.8,66.7l-13.3,52c-0.3-0.1-0.8-0.5-1.5-1.3c-0.6-0.8-1.3-1.7-1.9-2.6c-0.7-1.1-1.5-2.3-2.3-3.6l9.6-37.6
			c0.7-2.9,0.8-5.3,0.2-7.1c-0.6-1.8-2.2-2.9-5-3.2l-4.1-8.8c1,0.3,1.8,0.6,2.4,0.7c0.6,0.2,1.1,0.3,1.5,0.4c0.4,0.1,0.7,0.2,1,0.2
			c0.3,0.1,0.5,0.1,0.8,0.2c2.1,0.5,3.7,1.3,4.8,2.4c1.1,1.1,1.9,2.5,2.5,4.4c0-0.6,0.1-1.3,0.2-2.1c0.1-0.8,0.2-1.7,0.3-2.7
			c0.1-1,0.3-2.3,0.5-3.6c0.2-1.4,0.4-3,0.7-4.8l3.4,4.5c-0.1,1-0.2,1.7-0.2,2.1c0,0.4,0.1,0.8,0.2,1.1c0.1,0.4,0.2,0.7,0.4,1.1
			l0.8,1.3l7.4,1.9l5.3,8.9L481.8,66.7z"/>
		<path class="st1" d="M486.5,134c1.2-0.1,2.4-0.4,3.7-0.7c1.2-0.3,2.3-0.8,3.4-1.3c1-0.5,1.9-1.1,2.7-1.8c0.8-0.7,1.3-1.4,1.6-2.3
			c0.1-0.2,0.2-0.4,0.4-0.6c0.2-0.2,0.2-0.4-0.1-0.5c-0.5-0.2-1-0.3-1.6-0.3c-0.6-0.1-1.2-0.2-1.7-0.4c-1.6-0.6-2.9-1.6-3.8-3
			c-0.9-1.4-1-3-0.4-4.8c0.8-2.2,2-3.7,3.5-4.5c1.6-0.7,3.5-0.7,5.6,0c1.7,0.6,3,1.4,3.9,2.3c0.9,1,1.5,2.1,1.8,3.3
			c0.3,1.2,0.4,2.5,0.2,3.8c-0.2,1.4-0.5,2.7-0.9,4c-0.5,1.5-1.4,2.9-2.7,4.3c-1.3,1.3-2.7,2.5-4.4,3.4c-1.7,1-3.4,1.8-5.3,2.4
			c-1.9,0.6-3.7,0.9-5.4,0.9L486.5,134z"/>
		<path class="st1" d="M579.8,110.4c-0.1-0.1-0.4-0.1-0.8-0.1c-0.4,0-0.8,0-1.2,0c-0.4,0-0.8,0.1-1.1,0.1c-0.3,0.1-0.5,0.1-0.5,0.2
			c-0.4,0.7-0.3,1.6,0.4,2.6c0.7,1.1,1.6,2.1,2.7,3.2c1.1,1.1,2.2,2,3.4,3c1.1,0.9,2,1.5,2.5,1.9c0.5,0.3,1.2,0.7,1.9,1
			c0.8,0.3,1.6,0.6,2.5,0.9c0.9,0.3,1.8,0.5,2.7,0.7c0.9,0.2,1.8,0.5,2.8,0.8c0.5,2.1,0.9,4.1,1.3,6.1c0.4,1.9,0.8,4.1,1.3,6.5
			c-3.1,0.3-6.1,1.4-9.1,3.3c-2.9,1.9-5.6,4.1-8,6.9c-2.4,2.7-4.5,5.7-6.1,8.9c-1.6,3.2-2.7,6.3-3.2,9.3l-1.7-0.5
			c-0.7-0.6-1.4-1.2-2.1-2c-0.7-0.7-1.3-1.7-1.8-2.7c2.8-6.9,6.1-13.2,9.8-19c1.3-2,2.8-3.9,4.5-5.6c1.7-1.7,3.5-3.3,5.3-4.7
			c-4.7-3.1-8.1-6.3-10.2-9.3c-2.1-3.1-3.4-6.1-3.8-9.1c-0.6-0.2-1.4-0.2-2.5,0c-1,0.2-2,0.5-3,0.8c-1,0.4-2,0.8-2.8,1.4
			c-0.9,0.5-1.5,1.1-1.9,1.6c-0.8,1.3-0.5,2.5,1,3.4c0.4,0.3,1,0.5,2,0.7c0.9,0.2,2,0.4,3.2,0.6c1.2,0.2,2.4,0.3,3.5,0.4
			c1.2,0.1,2.2,0.3,3,0.5l0.6,0.9c0.5,0.6,0.8,1.7,1,3.2c0.1,1.5,0.2,3.2,0,5c-0.1,1.8-0.4,3.5-0.7,5.2c-0.4,1.7-0.8,2.9-1.3,3.6
			c-1.1,1.7-2.5,3.1-4.1,4.2s-3.4,1.9-5.3,2.3c-1.9,0.4-3.8,0.5-5.8,0.2c-2-0.3-3.8-1-5.6-2.2c-2.5-1.6-4.4-3.6-5.8-5.9
			c-1.3-2.3-2.2-4.7-2.6-7.3c-0.4-2.6-0.5-5.2-0.3-7.9c0.3-2.7,0.7-5.3,1.3-7.7c0.4-1.4,0.9-2.9,1.6-4.6c0.7-1.6,1.5-3.3,2.5-5
			c0.9-1.7,1.9-3.3,3-5c1-1.7,2.1-3.3,3.1-4.8c0.8,1.3,1.3,2.2,1.7,2.9c0.4,0.7,0.7,1.4,1,2.2l-1.6,2.3c-1.4,2-2.5,4.2-3.5,6.5
			c-0.9,2.3-1.6,4.7-1.9,7.1c-0.3,2.4-0.4,4.8-0.1,7.2c0.3,2.4,1,4.7,2.1,7c0.7,1.3,1.8,2.5,3.3,3.5c1.5,1,3.2,1.7,4.9,2.2
			c1.7,0.4,3.3,0.6,4.8,0.4c1.5-0.2,2.6-0.8,3.3-1.8c0.4-0.7,0.7-1.4,0.7-2.2c0-0.8-0.1-1.2-0.4-1.4c-0.2-0.1-0.6-0.3-1.3-0.4
			c-0.3-0.1-0.7-0.1-1.1-0.2c-0.4-0.1-0.8-0.2-1.3-0.3c-0.8-0.2-1.8-0.5-2.7-0.8c-1-0.3-1.9-0.8-2.7-1.3c-1.6-1-2.9-2.3-3.8-3.9
			c-0.9-1.5-1.5-3.2-1.7-5c-0.2-1.8-0.1-3.5,0.3-5.3c0.4-1.8,1.1-3.4,2-4.8c0.8-1.3,1.8-2.3,2.8-3.1c1.1-0.8,2.2-1.4,3.4-2
			c1.7-0.6,3.4-1.2,5.1-1.7l-15.2-9.9l-2.2-10.1l57.8,37.3l2,10L579.8,110.4z"/>
		<path class="st1" d="M616.5,138l-34.6,41.1c-0.3-0.2-0.5-0.8-0.7-1.8c-0.2-1-0.4-2-0.5-3.1c-0.2-1.3-0.4-2.7-0.5-4.3l25-29.7
			c1.9-2.3,3-4.4,3.3-6.3c0.3-1.9-0.7-3.6-3.1-5.1l0.2-9.8c0.8,0.7,1.4,1.3,1.8,1.7c0.4,0.4,0.8,0.8,1.1,1c0.3,0.3,0.6,0.5,0.8,0.6
			c0.2,0.2,0.4,0.3,0.6,0.5c1.6,1.4,2.7,2.8,3.2,4.3c0.5,1.5,0.6,3.1,0.3,5c0.3-0.6,0.7-1.2,1.1-1.8c0.4-0.7,0.9-1.4,1.5-2.3
			c0.6-0.9,1.3-1.9,2-3.1c0.8-1.2,1.7-2.5,2.7-4.1l1.1,5.5c-0.5,0.8-0.9,1.4-1,1.8c-0.2,0.4-0.3,0.7-0.3,1c-0.1,0.4-0.1,0.8-0.1,1.2
			l0.1,1.5l5.8,4.9l0.9,10.3L616.5,138z"/>
		<path class="st1" d="M617.9,183c-1.9,0.5-3.7,0.4-5.3-0.1c-1.6-0.5-3-1.4-4.2-2.6c-1.2-1.2-2-2.5-2.4-3.7
			c-0.4-1.3-0.6-2.5-0.5-3.8c0.1-1.2,0.4-2.4,1-3.5c0.6-1.1,1.3-2,2.3-2.8c0.9-0.8,2-1.4,3.2-1.8c1.2-0.4,2.4-0.6,3.8-0.5
			c1.3,0.1,2.7,0.4,4,1.1c1.4,0.6,2.7,1.6,4,3c0.2,0.2,0.4,0.4,0.7,0.7c0.3,0.3,0.5,0.6,0.8,1c0,0,0.1,0.1,0.1,0.1
			c0,0,0,0.1,0.1,0.2c1.7-2.1,2.5-4.1,2.5-6c0-1.9-0.3-3.7-1-5.3c-0.4-1-0.8-1.9-1.4-2.8c-0.5-0.9-1-1.7-1.4-2.4
			c-1-1.8-1.5-3.2-1.5-4.3c-0.1-0.7-0.1-1.3-0.1-1.9c0.1-0.6,0.2-1.2,0.3-1.7c0.1-0.5,0.3-1,0.4-1.4c0.2-0.4,0.3-0.9,0.3-1.4
			c0.1-0.6,0.1-1.1,0.2-1.7c0-0.6,0-1.1,0-1.7c0-0.7,0-1.4,0-2.2c0-0.8,0-2.2,0-4.1l37.8,39.3l-0.1,10.4l-8.8-9.1l-37.7,36.3
			c-0.2-0.3-0.4-0.7-0.6-1.2c-0.1-0.6-0.2-1.1-0.3-1.7c-0.1-0.7-0.2-1.4-0.2-2.2c0.6-1,1.2-2,1.8-3c0.6-1.1,1.2-2.1,1.7-3.2
			c0.5-1.1,0.9-2.2,1.2-3.2c0.3-1.1,0.4-2.1,0.3-3.1c-0.1-1.3-0.2-2.9-0.3-4.7C618.6,185.6,618.3,184.1,617.9,183z M647.7,168.4
			l-13.6-14.1c0.1,1.3,0.2,2.6,0.3,3.8c0.1,1.3,0.1,2.6,0.1,3.9c0,1.9-0.2,3.7-0.6,5.5c-0.3,1.8-1,3.5-2,5.1c-0.8,1.2-1.6,2.5-2.6,4
			c-1,1.5-2.1,2.7-3.3,3.7c-0.1,1.7-0.2,3.3-0.3,5c-0.2,1.6-0.4,3.3-0.6,5L647.7,168.4z"/>
		<path class="st1" d="M666.2,190.8l-42.4,33c-0.2-0.3-0.3-0.9-0.3-1.9c0-1,0-2.1,0.1-3.2c0.1-1.3,0.2-2.7,0.4-4.3l30.7-23.8
			c2.4-1.8,3.9-3.7,4.6-5.5c0.7-1.8,0-3.7-1.9-5.6l2.2-9.5c0.6,0.9,1.1,1.5,1.4,2c0.3,0.5,0.7,0.9,0.9,1.2c0.2,0.3,0.5,0.6,0.6,0.8
			c0.2,0.2,0.3,0.4,0.5,0.7c1.3,1.7,2.1,3.3,2.3,4.8c0.2,1.5,0,3.2-0.7,5c0.4-0.5,0.9-1,1.4-1.6c0.5-0.6,1.2-1.2,1.9-1.9
			c0.8-0.7,1.6-1.6,2.6-2.6c1-1,2.2-2.1,3.5-3.4l0,5.6c-0.7,0.7-1.2,1.2-1.4,1.5c-0.2,0.3-0.4,0.6-0.5,1c-0.2,0.4-0.3,0.7-0.3,1.1
			l-0.2,1.5l4.7,6l-1.3,10.2L666.2,190.8z"/>
		<path class="st1" d="M696.5,237.1l-46,28c0.3-1.5,0.6-2.9,0.9-4.2c0.3-1.1,0.5-2.2,0.8-3.3c0.2-1.1,0.4-1.8,0.6-2.4l24.5-15
			c0.5-0.3,1-0.8,1.4-1.4c0.4-0.6,0.6-1.3,0.8-2c0.2-0.7,0.2-1.5,0.2-2.2c-0.1-0.7-0.2-1.4-0.6-1.9c-0.5-0.8-1.2-1.3-2-1.5
			c-0.8-0.1-1.7,0.1-2.7,0.7c-0.2,0.2-0.5,0.3-0.6,0.4c-0.2,0.1-0.4,0.3-0.6,0.5c-0.2,0.2-0.5,0.4-0.7,0.6c-0.3,0.2-0.7,0.6-1.3,1.1
			l-3.5-2.7c1.1-1,1.9-2.1,2.6-3.2c0.6-1.2,1-2.3,1.2-3.6c0.2-1.2,0.2-2.4,0-3.6c-0.2-1.2-0.5-2.3-1-3.4c-1-2.3-2.5-3.8-4.2-4.7
			c-1.8-0.9-3.6-0.9-5.6-0.1c-2.2,0.9-3.4,2.2-3.6,3.7c0.4-0.4,0.9-0.9,1.5-1.2c1.7-1,3.4-1.2,5.2-0.7c1.7,0.5,3.1,1.6,4.1,3.2
			c0.7,1.1,1,2.2,0.9,3.3c-0.1,1.1-0.3,2.2-0.8,3.2c-0.5,1-1.1,2-1.9,2.8c-0.8,0.9-1.6,1.5-2.4,2c-1.1,0.7-2.2,0.9-3.4,0.8
			c-1.2-0.1-2.4-0.6-3.5-1.3c-1.2-0.7-2.2-1.6-3.2-2.8c-1-1.1-1.7-2.3-2.3-3.6c-0.6-1.4-1-2.8-1.1-4.4c-0.1-1.5,0.1-3.1,0.6-4.7
			c0.5-1.6,1.5-3.1,2.8-4.5c1.3-1.4,3.1-2.8,5.5-4c1.6-0.8,3.3-1.3,5-1.5c1.8-0.2,3.5,0,5.1,0.5c1.7,0.5,3.2,1.3,4.7,2.3
			c1.5,1.1,2.7,2.5,3.8,4.2c1.2,2,1.9,4,1.9,5.9c0,1.9-0.2,3.8-0.8,5.7c1.4-0.1,2.9,0.1,4.4,0.8c1.5,0.6,2.6,1.4,3.2,2.4
			c0.9,1.5,1.3,3.1,1.1,4.8c-0.2,1.7-0.6,3.3-1.4,4.8l7-4.3l-20.3-33.3c0.1-0.4,0.3-0.9,0.3-1.3c0.1-0.4,0.2-0.8,0.3-1.3
			c0.1-0.5,0.2-0.9,0.3-1.4c0.1-0.5,0.2-0.9,0.3-1.4c0.1-0.4,0.2-0.8,0.3-1.2c0-0.2,0.1-0.5,0.1-0.8c0-0.1,0-0.1,0-0.2
			c0,0,0,0.1,0,0.1c0,0,0,0.1,0,0.1c0.3-0.2,0.6-0.3,0.9-0.2c0.3,0,0.5,0.4,0.6,1l0.4-1.5l28.8,47.2c0.2,0.1,0.4,0.4,0.4,0.9
			c0,0.1,0,0.4-0.1,0.7c0,0.1,0,0.3,0,0.4c0,0.1-0.1,0.3-0.1,0.4c-0.1,0.4-0.2,0.8-0.3,1.2c-0.1,0.4-0.2,0.8-0.3,1.3
			c-0.1,0.5-0.2,1.1-0.4,1.8c-0.1,0.7-0.3,1.4-0.5,2c-0.2,0.8-0.4,1.6-0.5,2.5L696.5,237.1z"/>
		<path class="st1" d="M718.9,289.3L670,309.1c0.3-1.6,0.6-2.9,0.9-3.7c0.2-0.8,0.5-1.5,0.7-2.1c0.3-0.6,0.5-1.2,0.8-1.8
			c0.3-0.6,0.6-1.4,1-2.2c4.6-1.7,8.6-3.2,12.3-4.6c1.5-0.6,3-1.1,4.5-1.7c1.5-0.6,2.8-1.1,4-1.6c1.2-0.5,2.1-0.8,2.8-1.1
			c0.7-0.3,1.1-0.4,1.2-0.5c0.5-0.2,1-0.6,1.7-1.2c0.6-0.6,1.3-1.2,1.9-1.9c0.6-0.7,1.2-1.5,1.7-2.2c0.5-0.8,0.9-1.4,1.1-2.1
			l-22.5-9.4l-0.2-10.3c1.1,0.4,1.8,0.8,2.3,1c0.5,0.2,0.9,0.4,1.3,0.6c0.4,0.2,0.7,0.3,1.1,0.5c0.4,0.2,0.7,0.3,1.1,0.5
			c0.8,0.2,1.4,0.3,2.1,0.4c0.6,0.1,1.2,0,1.7-0.2c0.4-0.2,0.8-0.3,1.2-0.6c0.4-0.2,0.8-0.5,1.1-0.8c0.3-0.3,0.6-0.6,0.7-1
			c0.1-0.4,0.1-0.8-0.1-1.3c-0.2-0.4-0.4-0.8-0.8-1.2c-0.3-0.4-0.7-0.8-1.1-1.2c-0.2-0.2-0.4-0.5-0.7-0.7c-0.2-0.3-0.4-0.5-0.7-0.7
			c-0.5-0.5-0.9-1.1-1.1-1.6c-0.2-0.6-0.3-1.2-0.3-1.9c0.1-0.7,0.3-1.3,0.6-2c0.3-0.6,0.7-1.2,1.2-1.7c0.5-0.5,1-0.9,1.5-1.1
			c2-0.8,4.2-0.9,6.6-0.1c2.4,0.7,4.6,1.9,6.7,3.4c2.1,1.5,4,3.3,5.6,5.3c1.6,2,2.8,3.7,3.4,5.3c0.7,1.8,1.1,3.6,1.2,5.5
			c0.1,1.9,0,3.8-0.5,5.6c-0.4,1.8-1.1,3.6-1.9,5.4c-0.9,1.8-1.8,3.4-3,4.9c1.4-0.7,2.8-1.4,4.3-2c1.5-0.7,3-1.3,4.5-2
			c1.6-0.7,3.2-1.4,5-2.1c1.8-0.7,3.7-1.5,5.8-2.3l-1.4,5.6l-0.7,0.8c-1.2,0.6-2,1.1-2.3,1.6c-0.3,0.5-0.6,1.2-0.8,2.4l1.1,2.7
			l0.9,2.3l-4.1,9.3L718.9,289.3z M701,260.4c0.4,1.7,0.1,3.3-0.8,5c-0.9,1.7-2.1,3-3.5,3.9l12,5.2c1-2.3,1-4.5,0.1-6.7
			C707.2,263.7,704.6,261.3,701,260.4z"/>
		<path class="st1" d="M671.6,299.8c0.5-0.1,1-0.2,1.5-0.4c0.5-0.2,1-0.4,1.5-0.6c0.5-0.2,1.1-0.5,1.7-0.7c0.6-0.2,1.3-0.5,2.2-0.8
			l0.8,0.8c0.2,0.7,0.1,1.4-0.3,2.2c-0.4,0.8-1,1.7-1.7,2.4c-0.7,0.8-1.5,1.5-2.3,2.1c-0.8,0.6-1.5,1-1.9,1.2
			c-0.6,0.3-1.2,0.6-1.8,0.7c-0.6,0.2-1.2,0.4-1.8,0.6c-0.4,1.1-1.1,2.5-1.9,4.3c-0.9,1.7-1.8,3.5-3,5.1c-1.1,1.7-2.3,3.2-3.7,4.5
			c-1.3,1.3-2.7,2.2-4.1,2.5l-1.7-1.1l0.5-1.7c0.6-0.9,1.3-2,2.1-3.3c0.7-1.3,1.5-2.7,2.2-4.2c0.7-1.5,1.4-3,1.9-4.5
			c0.6-1.5,1-2.7,1.3-3.8c-0.7-0.3-1.4-0.7-2.1-1c-0.7-0.4-1.3-0.8-1.9-1.3c-0.8-0.6-1.5-1.3-2.1-2.1c-0.6-0.8-1.1-1.8-1.5-3
			c-0.4-1.2-0.6-2.4-0.7-3.7c-0.1-1.3,0-2.5,0.4-3.7c0.3-1.2,0.9-2.3,1.7-3.2c0.8-1,2-1.7,3.5-2.1c1.4-0.4,2.7-0.5,3.9-0.3
			c1.2,0.3,2.3,0.7,3.3,1.4c1,0.7,1.9,1.6,2.6,2.6c0.7,1,1.3,2.2,1.6,3.3c0.3,0.9,0.4,1.9,0.4,2.9c0,1-0.1,1.9-0.2,2.7L671.6,299.8z
			 M665.2,295c-0.1-0.3-0.2-0.7-0.4-1.2c-0.1-0.5-0.3-0.9-0.5-1.3c-0.2-0.4-0.5-0.7-0.8-0.9c-0.3-0.2-0.7-0.3-1.2-0.1
			c-0.4,0.1-0.7,0.4-0.8,0.7c-0.1,0.3-0.1,0.9,0,1.7c0.1,0.4,0.2,0.9,0.5,1.5c0.3,0.6,0.6,1.1,0.9,1.6c0.4,0.5,0.7,0.8,1.1,1.2
			c0.4,0.3,0.8,0.4,1.1,0.3c0.3-0.1,0.4-0.3,0.5-0.6c0.1-0.3,0.1-0.6,0-1c0-0.3-0.1-0.7-0.2-1C665.3,295.4,665.2,295.2,665.2,295z"
			/>
		<path class="st1" d="M679.1,325.4c-0.2-0.8-0.2-1.7-0.1-2.6c0.2-0.9,0.5-1.7,0.9-2.4s1-1.4,1.7-1.9c0.7-0.6,1.5-0.9,2.3-1.1
			c1.6-0.4,3.2-0.1,4.6,0.7c1.4,0.9,2.3,2.1,2.7,3.7c0.4,1.7,0.1,3.3-0.8,4.9c-0.9,1.6-2.2,2.6-3.9,3c-1.5,0.4-3,0.1-4.6-0.7
			C680.5,328.3,679.5,327.1,679.1,325.4z M730.3,334.4l-51.1,12.1c0.4-1.2,0.6-2,0.7-2.4c0.1-0.4,0.3-0.7,0.4-1
			c0.2-0.3,0.6-1,1.4-1.9c0.7-0.7,1.5-1.4,2.4-2.2c0.9-0.7,1.8-1.5,2.7-2.4c0.9-0.9,1.9-1.8,2.8-2.8c0.9-1,1.8-2,2.6-3.2
			c1.6-2.3,2.9-5,3.8-8.1c0.9-3.1,1-6.9,0.2-11.4l8.4-9.8c4.6,4.1,8.8,8.3,12.6,12.5c3.8,4.2,7.2,8.8,10,13.7l1.4-0.3l-7.1-29.8
			l5.4-9l11.7,49.2l-5.4,8.9L730.3,334.4z M717.5,329.9c-1.8-2.7-3.7-5.2-5.7-7.5c-2-2.3-4.2-4.5-6.6-6.7c-0.7,3.7-1.9,7.2-3.5,10.4
			c-1.6,3.3-3.7,6.2-6.3,8.9L717.5,329.9z"/>
		<path class="st1" d="M682.5,387.1c0-0.1,0-0.2,0.1-0.3c0.1-0.1,0.1-0.2,0.1-0.2c0.1-0.1,0.2-0.3,0.3-0.4c0.1-0.1,0.2-0.2,0.3-0.4
			c0.2-0.2,0.4-0.5,0.6-0.9c0.3-0.3,0.5-0.7,0.9-1.1c0.3-0.3,0.5-0.7,0.8-1c0.3-0.4,0.5-0.7,0.8-1c0.3-0.4,0.5-0.7,0.9-1l52.3-4.7
			c-1.1,1.5-2.1,2.8-3,3.9c-0.8,1-1.5,1.9-2.2,2.7c-0.7,0.8-1.1,1.2-1.2,1.2l-49.1,4.4c-0.5,0-0.9-0.1-1-0.5
			C682.5,387.5,682.5,387.3,682.5,387.1z"/>
	</g>
	<g>
		<path class="st1" d="M158.4,585.7l-17.6,12.7c-0.2-0.2-0.5-0.7-1-1.3c-0.5-0.7-1-1.3-1.6-1.9c-0.6-0.8-1.3-1.6-2.1-2.6l6.7-4.8
			c0.5-0.3,0.8-0.8,1.1-1.4c0.3-0.6,0.5-1.2,0.7-1.8c0.2-0.6,0.2-1.2,0.2-1.8c0-0.6-0.2-1-0.4-1.2c-0.9-1-1.7-1.7-2.4-2.1
			c-0.7-0.3-1.4-0.5-1.9-0.5c-0.5,0-1,0-1.5,0.1c-0.5,0.1-1,0.2-1.5,0.2c-0.5,0.1-0.9,0.1-1.1,0.1c-0.3,0-0.9,0-1.7-0.1
			c-0.8-0.1-1.7-0.2-2.7-0.5c-1-0.3-1.9-0.6-2.9-1.1c-1-0.5-1.8-1.1-2.3-1.9c-0.8-1.1-1.2-2.4-1.1-3.8c0.1-1.4,0.5-2.8,1.1-4.1
			c0.6-1.4,1.3-2.6,2.1-3.7c0.8-1.1,1.5-1.9,2.1-2.5l6.9,1.3l0.5,0.1c-0.1,0.1-0.2,0.2-0.2,0.3c-0.8,0.7-1.4,1.5-2,2.3
			c-0.6,0.8-1,1.6-1.3,2.3c-0.3,0.7-0.6,1.4-0.7,2c-0.1,0.6-0.1,1,0.1,1.3c0.6,0.8,1.3,1.2,2,1.3c0.7,0,1.3-0.1,1.7-0.3
			c1-0.6,1.7-1.2,2.1-1.8c0.4-0.6,0.6-1.2,0.6-1.8c0-0.6-0.2-1.3-0.6-2c-0.4-0.7-0.8-1.4-1.4-2.2c-0.3-0.5-0.6-0.9-0.9-1.3
			c-0.3-0.4-0.6-0.9-0.9-1.3c-0.3-0.4-0.6-0.9-0.9-1.4c-0.3-0.5-0.5-1-0.7-1.5c-0.4-1-0.6-2.1-0.8-3.1c-0.1-1.1,0.1-2.2,0.6-3.4
			c0-0.6-0.1-1.9-0.3-4.1c-0.2-2.2-0.4-5.3-0.6-9.3l33.6,46.7l-1.5,10.3L158.4,585.7z M146.2,568.8c0.1,1.9-0.2,3.5-0.9,4.9
			c1.3,0.1,2.4,0.5,3.2,1c0.9,0.5,1.5,1.2,1.9,1.9c0.4,0.7,0.7,1.6,0.8,2.5c0.1,0.9,0,1.8-0.2,2.7l3-2.2L146.2,568.8z"/>
		<path class="st1" d="M132.5,591.2c-1,0.8-2.2,1.4-3.6,1.7c-1.4,0.3-2.8,0.3-4.2,0.1c-1.4-0.2-2.8-0.7-4.1-1.4
			c-1.3-0.7-2.4-1.5-3.2-2.4c-0.5-0.6-1-1.4-1.4-2.2c-0.4-0.8-0.7-1.7-0.8-2.7c-0.1-0.9,0-1.8,0.3-2.7c0.3-0.9,0.8-1.7,1.7-2.4
			c1.7-1.4,3.5-2.1,5.5-2.1c2,0,4,0.4,5.9,1.1c1.9,0.8,3.7,1.8,5.4,3.1c1.7,1.3,3,2.5,4,3.7c1.4,1.7,2.5,3.4,3.4,5.1
			c0.9,1.7,1.3,3.5,1.4,5.2c0.1,1.7-0.2,3.4-1,5c-0.7,1.6-2,3.2-3.8,4.6c-1.5,1.3-3.1,2.1-4.9,2.4c-1.8,0.4-3.6,0.5-5.4,0.3
			c-1.8-0.2-3.6-0.6-5.4-1.2c-1.8-0.6-3.4-1.3-5-1.9c0.1,0.3,0.2,0.5,0.3,0.6c0.7,3.8,1.2,6.8,1.5,9.3c0.2,2.4,0.3,4.6,0.2,6.5
			c-0.1,1.8-0.2,3.6-0.5,5.3c-0.3,1.7-0.5,3.9-0.6,6.5l-5.5,6.3c0.2-3,0.3-5.6,0.3-8c0-2.4-0.1-4.6-0.4-6.6c-0.2-2-0.6-3.9-1-5.7
			c-0.4-1.8-0.9-3.5-1.5-5.2c-1.1-3.4-2.5-6.9-4.1-10.4c-1.6-3.5-3.3-7.3-5.1-11.4l7.1-15.2c0.3,3.2,0.7,5.6,1.1,7
			c0.5,1.5,1,2.7,1.6,3.7c0.7,1.1,1.4,2.1,2.2,3.1c0.8,1,1.6,2,2.5,3c1,1.2,2.3,2.3,4,3.1c1.6,0.9,3.4,1.5,5.2,1.8
			c1.9,0.3,3.7,0.4,5.5,0.1c1.8-0.3,3.4-1,4.8-2.1c0.7-0.6,0.9-1.2,0.7-1.9c-0.2-0.7-0.6-1.3-1.1-1.7c-0.2-0.2-0.4-0.4-0.6-0.6
			c-0.2-0.2-0.4-0.4-0.7-0.5c-0.1-0.1-0.2-0.1-0.4-0.3C132.9,591.3,132.7,591.2,132.5,591.2z"/>
		<path class="st1" d="M169.7,598l-39.9,35.5c-0.2-0.3-0.4-0.9-0.5-1.9c-0.1-1-0.1-2.1-0.1-3.2c0-1.3,0-2.8,0.1-4.3l28.8-25.7
			c2.2-2,3.6-3.9,4.1-5.7c0.5-1.8-0.3-3.7-2.4-5.5l1.4-9.7c0.7,0.8,1.2,1.5,1.6,2c0.4,0.5,0.7,0.9,1,1.2c0.3,0.3,0.5,0.6,0.7,0.8
			c0.2,0.2,0.4,0.4,0.6,0.6c1.5,1.6,2.3,3.2,2.7,4.7c0.3,1.5,0.2,3.2-0.3,5c0.4-0.5,0.8-1.1,1.3-1.6c0.5-0.6,1.1-1.3,1.8-2
			c0.7-0.8,1.5-1.7,2.4-2.7c0.9-1.1,2-2.3,3.3-3.6l0.4,5.7c-0.7,0.7-1.1,1.3-1.3,1.6c-0.2,0.3-0.4,0.7-0.4,1
			c-0.1,0.4-0.2,0.7-0.2,1.2l-0.1,1.5l5.2,5.8l-0.5,10.4L169.7,598z"/>
		<path class="st1" d="M187.7,601c-0.1,0.1-0.2,0.3-0.3,0.6c-0.1,0.4-0.2,0.8-0.4,1.2c-0.1,0.3-0.2,0.6-0.3,1
			c-0.1,0.3-0.2,0.6-0.3,0.8l6.7,6.7l0.2,10.4l-10.4-10.3l-37.2,37.6c0-0.8,0-1.6-0.1-2.4c0-0.7,0-1.3-0.1-2
			c-0.1-0.7-0.1-1.3-0.1-1.7c0-0.5-0.1-0.9-0.1-1.3c0-0.4,0-0.8-0.1-1.2c0-0.2,0-0.3,0-0.4c0-0.1,0-0.2,0.1-0.4c0-0.3,0-0.6,0-0.7
			c0.2-0.4,0.4-0.7,0.7-0.8l31.6-31.9l-5-4.9l-0.2-10.4l9.5,9.4c-0.1-1.2,0-2.4,0.1-3.7c0.1-1.3,0.6-2.3,1.5-3.2
			c1.6-1.6,3.7-2.7,6.2-3.2c2.5-0.5,5.1-0.6,7.7-0.3c2.6,0.3,5.1,1,7.5,2.1c2.4,1,4.3,2.3,5.8,3.8c2.2,2.2,4.1,4.6,5.6,7.2
			c1.5,2.6,2.7,5.4,3.6,8.2c0.9,2.8,1.6,5.8,1.9,8.8c0.4,3,0.6,6,0.6,9l-3.2,6.8c-0.7-5.9-1.6-10.9-2.9-15
			c-1.2-4.1-2.7-7.6-4.2-10.3c-1.6-2.7-3.3-4.9-5.1-6.5c-1.8-1.6-3.6-2.7-5.4-3.4c-1.8-0.7-3.5-1.1-5.1-1.2c-1.6-0.1-3.1,0-4.4,0.2
			c-1.3,0.2-2.3,0.5-3.1,0.8C188.2,600.7,187.7,600.9,187.7,601z"/>
		<path class="st1" d="M222.6,644.7l-32.5,41.1c-0.5-1.6-0.9-2.8-1.1-3.6c-0.2-0.8-0.4-1.6-0.4-2.2c-0.1-0.7-0.2-1.3-0.2-2
			c-0.1-0.7-0.1-1.5-0.2-2.4c3.1-3.7,5.9-7.1,8.4-10c1-1.2,2.1-2.5,3.1-3.7c1-1.2,1.9-2.3,2.7-3.3c0.8-1,1.4-1.8,1.9-2.4
			c0.5-0.6,0.7-0.9,0.8-1c0.3-0.4,0.6-1,0.9-1.8c0.3-0.8,0.5-1.7,0.7-2.6c0.2-0.9,0.3-1.9,0.3-2.8c0-0.9,0-1.7-0.1-2.4l-24.4,2.8
			l-5.5-8.9c1.1-0.1,2-0.2,2.5-0.3c0.5-0.1,1-0.1,1.4-0.1c0.4,0,0.8-0.1,1.2-0.1c0.4,0,0.8-0.1,1.2-0.1c0.8-0.2,1.4-0.4,2-0.6
			c0.6-0.2,1-0.5,1.4-1c0.2-0.3,0.5-0.7,0.8-1.1c0.3-0.4,0.5-0.8,0.6-1.2c0.1-0.4,0.2-0.8,0.1-1.3c-0.1-0.4-0.3-0.8-0.7-1.1
			c-0.4-0.3-0.8-0.5-1.3-0.7c-0.5-0.2-1-0.3-1.6-0.5c-0.3-0.1-0.6-0.2-0.9-0.3c-0.3-0.1-0.6-0.2-0.9-0.3c-0.7-0.2-1.3-0.5-1.8-0.9
			c-0.5-0.4-0.9-0.9-1.2-1.6c-0.3-0.6-0.5-1.3-0.5-2c-0.1-0.7,0-1.4,0.2-2.1c0.2-0.7,0.4-1.2,0.8-1.7c1.4-1.7,3.2-2.8,5.7-3.3
			c2.4-0.5,5-0.6,7.6-0.3c2.6,0.3,5.2,0.9,7.6,1.9c2.4,0.9,4.3,1.9,5.7,3c1.5,1.2,2.8,2.6,3.9,4.2c1.1,1.6,1.9,3.3,2.4,5.1
			c0.6,1.8,0.9,3.7,1.1,5.6c0.2,2,0.1,3.9-0.1,5.8c0.9-1.3,1.8-2.6,2.7-3.9c0.9-1.3,1.9-2.6,2.9-3.9c1-1.4,2.1-2.8,3.3-4.3
			c1.2-1.5,2.5-3.1,3.9-4.9l1.7,5.6l-0.2,1.1c-0.7,1.1-1.1,2-1.2,2.5c-0.1,0.6,0.1,1.4,0.5,2.5l2.3,1.8l1.9,1.5l1.2,10.2
			L222.6,644.7z M192.2,628c1.2,1.3,1.8,2.9,1.9,4.8c0.1,1.9-0.3,3.6-1.1,5.1l13.1-1.3c-0.3-2.5-1.4-4.4-3.3-5.9
			C199.4,627.9,195.8,627,192.2,628z"/>
		<path class="st1" d="M222.6,645.5l-3.1-9.9l59.8,32.3l3.5,10.1L222.6,645.5z M233.5,703.1c-3-1.6-5.3-3.7-7.1-6.4
			c-1.8-2.7-3.1-5.6-4-8.9c-0.9-3.3-1.4-6.7-1.6-10.4c-0.2-3.7-0.1-7.4,0.1-11.1c0.3-3.7,0.7-7.2,1.3-10.7c0.6-3.4,1.2-6.6,1.8-9.4
			l3.8,4.6c-0.2,2.4-0.4,5-0.6,7.7c-0.2,2.7-0.3,5.4-0.3,8.2s0.2,5.5,0.6,8.2c0.4,2.7,1,5.2,1.9,7.7c0.9,2.4,2.1,4.6,3.6,6.5
			c1.5,1.9,3.5,3.5,5.8,4.8c1.3,0.7,2.8,1.1,4.5,1.3c1.7,0.2,3.4,0.1,5-0.2c1.6-0.3,3.2-0.9,4.6-1.7c1.4-0.8,2.6-1.9,3.5-3.2
			c0.8-1.2,1.3-2.6,1.5-4.1c0.2-1.5,0.1-3-0.2-4.4c-0.3-1.4-0.9-2.7-1.7-3.9c-0.8-1.2-1.7-2.1-2.7-2.6c-0.3-0.1-0.5-0.3-0.7-0.3
			c-0.2-0.1-0.5-0.2-0.8-0.3c0,0.9-0.1,1.8-0.3,2.6c-0.2,0.8-0.6,1.6-1,2.4c-1.4,2.6-3.2,4.1-5.3,4.4c-2.1,0.4-4.4-0.1-6.8-1.4
			c-1.5-0.8-2.6-1.7-3.4-2.8c-0.8-1.1-1.4-2.3-1.7-3.5c-0.3-1.3-0.3-2.6-0.1-3.9c0.3-1.3,0.7-2.7,1.4-4c0.8-1.6,2-2.8,3.3-3.7
			c1.4-0.9,2.9-1.5,4.5-1.8c1.6-0.3,3.2-0.3,4.9-0.1c1.7,0.3,3.2,0.8,4.7,1.6c2.7,1.5,5,3.4,7,5.8c2,2.4,3.4,5.1,4.2,8
			c0.8,2.9,1.1,6,0.6,9.2c-0.4,3.2-1.6,6.3-3.6,9.4c-1.5,2.3-3.3,4.1-5.4,5.6c-2.1,1.5-4.4,2.5-6.8,3.1c-2.4,0.6-4.9,0.7-7.5,0.4
			C238.3,705.2,235.9,704.4,233.5,703.1z"/>
		<path class="st1" d="M264.9,702.9l2.9-8l26.1,9.6l-2.9,8L264.9,702.9z"/>
		<path class="st1" d="M303.2,736.7c-1-0.3-2.1-0.7-3.3-1.4c-1.1-0.7-2.2-1.5-3.1-2.5c-0.9-1-1.6-2.1-2.1-3.3
			c-0.5-1.2-0.6-2.4-0.2-3.7c0.4-1.5,1.1-2.8,2.1-3.9c1-1.1,2.3-1.9,3.7-2.6c1.4-0.6,2.9-1,4.4-1.2c1.6-0.2,3-0.1,4.3,0.2
			c1.7,0.4,3.4,1.1,5.1,1.9c1.7,0.9,3.1,2.1,4.3,3.7c0.8-0.7,1.6-1.4,2.2-2.3c0.6-0.8,1.1-1.7,1.3-2.7c0.2-1,0.2-2.1-0.2-3.3
			c-0.4-1.3-0.9-2.7-1.7-4.2c-0.8-1.5-1.7-3.1-2.8-4.8c-1.1-1.7-2.3-3.4-3.5-5.3c-0.6-0.9-1.1-1.8-1.7-2.6c-0.6-0.9-1.1-1.7-1.7-2.5
			c-1.2-1.7-2.1-3.4-2.9-5c-0.8-1.6-1.5-3.1-2-4.5c-0.5-1.4-0.6-2.8-0.3-4c0.2-0.9,0.6-1.7,1.3-2.5c0.6-0.8,1.3-1.5,2.2-2
			c0.8-0.5,1.7-0.9,2.7-1.1c1-0.2,2-0.2,2.9,0c2,0.5,3.4,1.6,4.2,3.3c0.8,1.7,1,3.4,0.6,5.1c-0.1,0.6-0.3,1.1-0.6,1.6
			c-0.2,0.5-0.5,1-0.6,1.5c1.5,2.3,3,4.7,4.6,7.4c1.6,2.7,3,5.5,4.3,8.4c1.2,2.9,2.1,5.9,2.6,8.9c0.5,3,0.5,5.9-0.2,8.8
			c-0.6,2.5-1.8,4.8-3.7,6.9c-1.9,2.1-4,3.8-6.5,5.2c-2.5,1.4-5.1,2.3-8,2.8C308.3,737.3,305.7,737.3,303.2,736.7z"/>
		<path class="st1" d="M355.4,709.2c-1.5-0.7-3.2-1.7-5.1-2.8c-1.9-1.1-3.6-2.5-5.2-4c-1.6-1.5-2.9-3.2-4-5c-1-1.8-1.4-3.9-1.2-6.1
			c0.1-0.8,0.3-1.6,0.6-2.5c0.4-0.9,0.8-1.7,1.4-2.4s1.3-1.3,2.2-1.7c0.9-0.4,1.9-0.6,3-0.5c2,0.2,3.4,0.7,4.3,1.6
			c0.9,0.8,1.3,1.8,1.4,2.9c0.1,1.1-0.2,2.2-0.7,3.3c-0.5,1.1-1.1,2.1-1.8,2.8c0.1,0.4,0.5,0.8,1.2,1.3c0.6,0.4,1.4,0.8,2.1,1.2
			c0.8,0.4,1.5,0.7,2.2,1c0.7,0.3,1.2,0.5,1.5,0.6c5.9,2.3,10.7,4.7,14.4,7.2c3.7,2.6,6.5,5.2,8.4,7.8c1.9,2.6,3,5.2,3.2,7.8
			c0.3,2.6-0.1,5.1-1,7.5c-0.9,2.3-2.2,4.4-4,6.3c-1.8,1.9-3.7,3.5-5.9,4.8c-2.2,1.3-4.4,2.3-6.7,2.9c-2.3,0.6-4.4,0.8-6.4,0.5
			l-2.2-0.3c0.7-2.5,1.4-4.7,2.1-6.8c0.6-2.1,1.1-4.1,1.4-5.9c0.3-1.4,0.3-2.7,0-3.9c-0.3-1.2-0.7-2.2-1.2-3.1
			c-0.6-0.9-1.3-1.6-2.1-2.2c-0.8-0.6-1.7-1-2.5-1.2s-1.7-0.3-2.6-0.2c-0.9,0.1-1.7,0.5-2.4,1c-0.7,0.6-1.4,1.4-1.9,2.5
			c-0.6,1.1-0.9,2.4-1.1,4.1c-0.1,1.1,0.1,2,0.7,2.7c2.4,0.2,4.1,0.9,5.1,2.2c1,1.3,1.4,2.8,1.2,4.4c-0.1,0.7-0.3,1.5-0.7,2.2
			c-0.4,0.7-0.8,1.3-1.4,1.9c-0.6,0.6-1.2,1-2,1.3c-0.8,0.3-1.6,0.4-2.5,0.4c-1.8-0.2-3.3-0.7-4.5-1.6c-1.2-0.9-2.3-2-3-3.2
			c-0.8-1.3-1.3-2.6-1.6-4.1c-0.3-1.5-0.4-2.9-0.2-4.3c0.2-2.6,0.8-4.9,1.8-7c1-2.1,2.2-3.9,3.8-5.3c1.6-1.4,3.4-2.5,5.4-3.2
			c2.1-0.7,4.3-0.9,6.7-0.6c2.1,0.2,4,0.9,5.8,2c1.7,1.1,3.2,2.5,4.4,4.1c1.2,1.6,2.1,3.4,2.7,5.4c0.6,2,0.8,3.9,0.6,5.8l-0.1,1.4
			c1.5-1.1,2.8-2.4,3.8-3.7c1-1.4,1.6-2.8,1.7-4.2c0.2-1.4-0.1-2.8-0.8-4.1c-0.7-1.3-2.1-2.4-4.1-3.4L355.4,709.2z"/>
		<path class="st1" d="M406.6,711.4c-1.6-0.5-3.4-1.1-5.5-2c-2-0.8-3.9-1.9-5.8-3.1c-1.8-1.3-3.4-2.7-4.7-4.4
			c-1.3-1.7-2-3.6-2.1-5.8c0-0.8,0-1.7,0.3-2.6c0.2-0.9,0.6-1.8,1.1-2.6c0.5-0.8,1.1-1.5,1.9-2.1c0.8-0.6,1.8-0.9,2.9-0.9
			c2-0.1,3.5,0.2,4.5,0.9c1,0.7,1.6,1.6,1.8,2.6c0.2,1.1,0.2,2.2-0.2,3.4c-0.3,1.2-0.8,2.2-1.3,3.1c0.2,0.4,0.6,0.8,1.3,1.1
			c0.7,0.3,1.5,0.6,2.3,0.9c0.8,0.2,1.6,0.5,2.3,0.6c0.7,0.2,1.2,0.3,1.5,0.3c6.2,1.3,11.3,3,15.3,4.9c4.1,2,7.2,4.1,9.5,6.4
			c2.3,2.3,3.7,4.7,4.4,7.2c0.7,2.5,0.7,5,0.2,7.6c-0.5,2.4-1.5,4.7-2.9,6.8c-1.4,2.2-3.1,4-5.1,5.6c-1.9,1.6-4,2.9-6.2,3.9
			c-2.2,1-4.2,1.5-6.3,1.5l-2.2,0c0.3-2.6,0.7-4.9,1-7.1c0.3-2.2,0.5-4.2,0.5-6.1c0-1.4-0.2-2.7-0.6-3.9c-0.4-1.1-1-2.1-1.7-2.9
			c-0.7-0.8-1.5-1.4-2.4-1.9c-0.9-0.4-1.8-0.7-2.7-0.8s-1.8-0.1-2.6,0.2c-0.8,0.3-1.6,0.7-2.2,1.4c-0.6,0.7-1.2,1.6-1.5,2.7
			c-0.4,1.1-0.5,2.6-0.4,4.2c0.1,1.1,0.4,1.9,1.1,2.5c2.4-0.2,4.2,0.3,5.4,1.4c1.2,1.1,1.8,2.5,1.8,4.1c0,0.7-0.1,1.5-0.3,2.3
			c-0.3,0.8-0.6,1.5-1.1,2.1c-0.5,0.6-1.1,1.2-1.8,1.6c-0.7,0.4-1.5,0.7-2.4,0.7c-1.8,0.1-3.3-0.2-4.7-0.9c-1.4-0.7-2.5-1.6-3.5-2.7
			c-0.9-1.1-1.7-2.4-2.2-3.9c-0.5-1.4-0.8-2.9-0.9-4.2c-0.2-2.6,0-5,0.7-7.2c0.6-2.2,1.6-4.2,3-5.8c1.3-1.7,2.9-3,4.9-3.9
			c1.9-1,4.1-1.5,6.5-1.7c2.1-0.1,4.1,0.2,6,1.1c1.9,0.8,3.6,2,5,3.4c1.5,1.4,2.6,3.1,3.5,4.9c0.9,1.9,1.4,3.8,1.5,5.7l0.1,1.4
			c1.3-1.3,2.4-2.8,3.2-4.3c0.8-1.5,1.1-3,1.1-4.4c-0.1-1.4-0.5-2.7-1.5-3.9c-0.9-1.2-2.4-2.1-4.5-2.8L406.6,711.4z"/>
		<path class="st1" d="M457.4,705.8c-1.7-0.2-3.6-0.6-5.7-1.1c-2.1-0.5-4.2-1.2-6.2-2.2c-2-1-3.8-2.1-5.3-3.6
			c-1.5-1.4-2.6-3.2-3-5.4c-0.2-0.8-0.2-1.6-0.2-2.6c0.1-0.9,0.3-1.8,0.6-2.7c0.4-0.9,0.9-1.6,1.6-2.3c0.7-0.7,1.6-1.1,2.7-1.4
			c2-0.4,3.5-0.4,4.6,0.2c1.1,0.5,1.8,1.3,2.2,2.3c0.4,1,0.5,2.1,0.4,3.4c-0.2,1.2-0.4,2.3-0.8,3.2c0.3,0.4,0.8,0.6,1.5,0.9
			c0.7,0.2,1.5,0.4,2.4,0.5c0.9,0.1,1.7,0.2,2.4,0.3c0.7,0.1,1.3,0.1,1.6,0.1c6.3,0.3,11.6,1.2,15.9,2.5c4.3,1.3,7.8,2.9,10.4,4.8
			c2.6,1.9,4.4,4.1,5.5,6.5c1.1,2.4,1.5,4.9,1.3,7.4c-0.1,2.4-0.7,4.8-1.8,7.2c-1.1,2.4-2.5,4.5-4.1,6.4c-1.7,1.9-3.5,3.5-5.5,4.8
			c-2,1.3-4,2.1-5.9,2.4l-2.2,0.4c-0.1-2.6-0.1-4.9-0.1-7.1c0-2.2-0.2-4.2-0.5-6.1c-0.2-1.4-0.6-2.7-1.2-3.7c-0.6-1-1.3-1.9-2.1-2.6
			c-0.8-0.7-1.7-1.2-2.7-1.5c-1-0.3-1.9-0.4-2.8-0.4c-0.9,0-1.7,0.2-2.5,0.6c-0.8,0.4-1.5,0.9-2,1.7c-0.5,0.8-0.9,1.7-1.1,2.9
			c-0.2,1.2-0.1,2.6,0.2,4.2c0.2,1.1,0.7,1.8,1.5,2.3c2.4-0.6,4.2-0.4,5.6,0.6c1.4,0.9,2.2,2.2,2.5,3.8c0.2,0.7,0.2,1.5,0,2.3
			c-0.1,0.8-0.4,1.5-0.7,2.2c-0.4,0.7-0.9,1.3-1.5,1.9c-0.6,0.6-1.4,0.9-2.3,1.1c-1.7,0.4-3.3,0.3-4.8-0.2c-1.5-0.5-2.8-1.2-3.9-2.2
			c-1.1-1-2-2.1-2.8-3.5c-0.7-1.3-1.3-2.7-1.6-4c-0.6-2.5-0.8-4.9-0.5-7.2c0.3-2.3,1-4.4,2-6.2c1-1.8,2.4-3.4,4.2-4.7
			c1.7-1.3,3.8-2.2,6.2-2.7c2.1-0.5,4.1-0.4,6.1,0.1c2,0.5,3.8,1.4,5.5,2.6c1.7,1.2,3.1,2.6,4.2,4.3c1.2,1.7,1.9,3.5,2.3,5.4
			l0.3,1.4c1.1-1.5,1.9-3.1,2.5-4.7c0.5-1.6,0.6-3.1,0.4-4.5c-0.3-1.4-1-2.6-2.1-3.6c-1.1-1-2.7-1.7-4.9-2L457.4,705.8z"/>
		<path class="st1" d="M520.9,671.5c1-0.9,1.9-2.4,2.8-4.5c0.5-1.2,1-2.5,1.4-3.7c0.4-1.3,0.9-2.5,1.3-3.6c1.1,0.3,2.1,0.6,2.9,0.8
			c0.8,0.2,1.6,0.4,2.4,0.6c1.1,0.3,2.3,0.6,3.5,1c1.2,0.4,2.4,0.9,3.5,1.5c1.1,0.6,2.1,1.3,3,2.1s1.6,1.8,2.2,2.9
			c0.6,1.3,1,2.7,1.1,4.1c0.1,1.4,0,2.9-0.3,4.4c-0.3,1.5-0.8,2.9-1.4,4.2c-0.7,1.3-1.4,2.6-2.4,3.6c2.6,0.2,5.3,0.6,7.8,1.2
			c2.6,0.6,5,1.5,7.3,2.8l-21.6-44.3l6.2,0.5l0.3,0.9c0.8,2,1.5,3.2,2,3.7c0.5,0.5,1,0.8,1.4,0.8c0.4,0.1,1.2-0.2,2.4-0.7
			c0.6-0.3,1.2-0.6,2-1c0.7-0.4,1.6-0.8,2.7-1.4l10,3.2l-12.7,6.2l23.1,47.4c-1.2-0.4-2.1-0.7-2.9-1c-0.8-0.3-1.4-0.5-1.9-0.8
			c-0.5-0.3-1-0.5-1.3-0.8c-0.4-0.3-0.8-0.6-1.2-1c-4.6-4-9.5-6.5-14.5-7.4c-5-0.9-10.6-0.3-16.7,1.9l-15.8-7.1
			c2.3-0.5,3.9-1,4.8-1.2c0.9-0.3,1.7-0.6,2.3-0.9c1.1-0.5,2.4-1.3,4-2.5c1.6-1.1,3.1-2.4,4.5-3.9c1.4-1.4,2.5-2.9,3.2-4.5
			c0.8-1.6,0.8-3,0.1-4.3c-0.6-1.2-1.6-2.1-3-2.7c-1.1,2.8-2.6,5.5-4.3,8.1c-1.8,2.5-4.2,4.5-7.2,6c-1,0.5-2,0.8-3.1,0.9
			c-1.1,0.2-2.2,0.1-3.2-0.1c-1-0.2-1.9-0.7-2.8-1.3c-0.9-0.6-1.6-1.5-2.1-2.6c-0.8-1.6-1-3.3-0.6-5c0.4-1.7,1.5-3.1,3.4-4
			c1.4-0.7,2.8-0.9,4-0.7C518.9,669.6,520,670.3,520.9,671.5z"/>
		<path class="st1" d="M555.4,686.4l0.4-1.3c0.1-0.4,0.2-0.8,0.4-1.3c0.1-0.5,0.3-0.9,0.4-1.4c0.1-0.4,0.2-0.8,0.4-1.2
			c0.1-0.4,0.3-0.8,0.4-1.1c0-0.2,0.2-0.4,0.3-0.8c0.1,0,0.1-0.1,0.1-0.2c0.1,0,0.1-0.1,0.1-0.1c0,0,0-0.1,0.1-0.1
			c0.1-0.1,0.4-0.3,0.7-0.4c0.4-0.1,0.7,0.1,1,0.6l18.9,32.3c-1.8-0.1-3.2-0.2-4-0.3c-0.9-0.2-1.6-0.4-2.2-0.6
			c-0.6-0.2-1.1-0.4-1.6-0.6c-0.5-0.2-1-0.4-1.6-0.6c-0.9-0.3-1.9-0.5-2.9-0.5c-1,0-2.3,0.4-3.8,1.1c-1.3,0.6-2.8,1.4-4.3,2.3
			c-1.5,0.9-3.1,1.9-4.7,2.8c-1.7,1-3.4,1.9-5.1,2.9c-1.7,0.9-3.5,1.8-5.3,2.5c-1.8,0.7-3.5,1.2-5.3,1.5c-1.8,0.3-3.5,0.3-5.1,0.1
			c-1.7-0.3-3.2-0.9-4.7-2c-1.4-1-2.8-2.5-3.9-4.5c-0.8-1.4-1.5-3.1-2-4.8c-0.5-1.8-1-3.9-1.5-6.2l5.6,1.4c-0.2,0.6-0.2,1.1-0.2,1.4
			c0.1,0.3,0.2,0.6,0.4,1c0.2,0.4,0.3,0.7,0.5,1.1c0.2,0.3,0.3,0.6,0.5,0.8c0.8,1.4,1.8,2.4,2.9,2.9c1.1,0.5,2.3,0.7,3.7,0.5
			c1.4-0.1,2.9-0.6,4.5-1.2c1.6-0.7,3.4-1.5,5.2-2.6c1.8-0.9,3.7-1.9,5.5-2.9c1.8-1,3.7-1.9,5.5-2.6c1.8-0.7,3.6-1.2,5.4-1.5
			c1.8-0.3,3.6-0.1,5.3,0.6L555.4,686.4z"/>
		<path class="st1" d="M561.9,648l27.7,44.1c-0.3,0.2-0.9,0.2-1.9,0.2c-1,0-2-0.1-3.1-0.3c-1.3-0.1-2.7-0.4-4.3-0.7L555.6,652
			l-4.9,3.1l-10.6-1.9l12-7.5c-2.5-2.4-5.1-4.1-7.8-5.1c-2.7-1.1-5.4-1.6-8.3-1.6c-2.8,0-5.7,0.5-8.7,1.6c-2.9,1-5.9,2.5-8.9,4.4
			c-0.5,0.3-1.4,0.9-2.6,1.7c-1.2,0.8-2.4,1.8-3.5,2.8c-1.1,1-2.1,2.1-2.8,3.1c-0.7,1.1-0.8,1.9-0.4,2.7c0.3,0.5,0.8,0.6,1.4,0.4
			c0.6-0.2,1.3-0.6,2.2-1c1.2-0.6,2.4-1.3,3.8-2.1c1.4-0.8,2.9-1.6,4.4-2.4c1.5-0.8,3.1-1.5,4.8-2.1c1.7-0.6,3.3-1,5-1
			c1.6-0.1,3.2,0.3,4.8,1c1.5,0.7,2.9,2.1,4.1,4c0.3,0.5,0.6,1,0.8,1.6c0.2,0.6,0.5,1.3,0.8,2.3l-8,5c0.7-2,1.2-3.5,1.5-4.3
			c0.2-0.8,0.2-1.5-0.1-2c-0.3-0.4-0.7-0.7-1.3-0.7c-0.6-0.1-1.5,0.1-2.7,0.6c-1.2,0.4-2.5,1-3.9,1.8c-1.4,0.8-2.8,1.6-4.3,2.3
			c-1.5,0.7-3,1.4-4.7,2.1c-1.6,0.6-3.2,1-4.8,1.2c-1.6,0.1-3.1-0.1-4.5-0.7c-1.4-0.6-2.7-1.8-3.8-3.6c-0.9-1.5-1.1-3.3-0.5-5.3
			c0.6-2,1.6-3.9,3-5.9c1.4-1.9,2.9-3.7,4.6-5.3c1.7-1.6,3.2-2.8,4.4-3.5c1.9-1.2,4-2.2,6.3-3c2.2-0.8,4.4-1.4,6.5-2
			c2.8-0.7,5.5-1,8.2-0.7s5.2,0.9,7.6,1.8c2.4,0.9,4.7,2.1,6.9,3.6c2.2,1.5,4.2,3.1,6.2,4.8l7.6-4.8l10.1,2.2L561.9,648z"/>
		<path class="st1" d="M595.9,623c1.1,0.4,2.1,0.9,3,1.5c0.9,0.6,1.8,1.4,2.6,2.4c1,1.3,1.7,2.8,2,4.5c0.3,1.7,0.5,3.5,0.4,5.4
			c-0.1,1.9-0.3,3.8-0.8,5.8c-0.4,2-0.9,3.9-1.5,5.8c-0.5,1.9-1,3.8-1.5,5.6c-0.5,1.8-0.9,3.5-1.2,5.1c-0.6,3.2-0.4,5.4,0.5,6.5
			c0.7,0.9,1.7,0.9,2.9-0.1c1.4-1.1,2.8-2.6,4-4.3c1.2-1.8,2.2-3.5,3.1-5.2c0-0.2,0.2-0.4,0.4-0.9c0.2-0.4,0.5-0.9,0.7-1.4
			c0.1-0.3,0.3-0.6,0.4-0.7c0.2-0.2,0.1-0.4-0.3-0.7c-0.3-0.1-0.6-0.2-0.9-0.2c-0.3-0.1-0.6-0.2-0.9-0.2c-0.7-0.2-1.3-0.4-1.8-0.7
			c-0.5-0.2-0.9-0.5-1.2-0.8c-0.5-0.7-0.9-1.5-1.1-2.4c-0.2-0.9-0.3-1.8-0.1-2.6c0.1-0.9,0.4-1.7,0.8-2.5c0.4-0.8,1-1.5,1.7-2
			c0.8-0.7,1.7-1.1,2.7-1.4c1-0.3,2-0.3,2.9-0.2c1,0.1,1.9,0.4,2.7,0.9c0.9,0.5,1.6,1.1,2.3,2c1.1,1.4,1.7,2.8,1.9,4.5
			c0.2,1.6,0.2,3.3-0.2,5c-0.3,1.7-0.9,3.4-1.7,5.2c-0.8,1.7-1.8,3.3-2.8,4.9c-1,1.5-2.1,2.9-3.2,4.2c-1.1,1.2-2.2,2.3-3.1,3
			c-1.2,0.9-2.5,1.8-3.9,2.5c-1.4,0.7-2.7,1.1-4.2,1.3c-1.4,0.2-2.8,0-4.2-0.5c-1.4-0.5-2.7-1.5-3.8-3c-1.6-2-2.4-3.9-2.6-5.8
			c-0.2-1.9-0.1-3.6,0.3-5.2c0.2-0.8,0.4-1.6,0.6-2.3c0.2-0.7,0.4-1.4,0.5-2c0.1-0.1,0.1-0.2,0.1-0.3c0-0.1,0.1-0.2,0.1-0.3
			c-1.2,0.7-2.2,1.2-2.9,1.4c-2.1,0.5-4,0.5-5.9-0.1c-1.9-0.6-3.4-1.7-4.8-3.4c-0.9-1.2-1.7-2.9-2.4-5c-0.7-2.2-1-4.3-0.8-6.3
			l-8.2,6.4l-10.2-1.2l28.1-22.1l3.9-0.4c0.2-0.5,0.2-1,0.1-1.3c-0.1-0.4-0.4-0.8-0.9-1.4c-0.9-1.1-1.7-1.7-2.5-1.7
			s-1.9,0.5-3.2,1.5c-2.2,1.7-4.3,3.6-6.3,5.5c-2,1.9-4.2,3.7-6.5,5.4c-2.5,1.8-5.2,3-7.9,3.4c-2.7,0.4-5.2,0.3-7.4-0.5
			c-2.2-0.8-3.9-2.1-5.2-4c-1.3-1.9-1.6-4.2-1.2-7.1l4.6-1.7c-0.1,1.4,0,2.4,0.2,3c0.2,0.6,0.4,1.2,0.7,1.6c0.8,1,1.7,1.7,2.5,1.9
			c0.9,0.2,1.8,0.1,2.7-0.2c0.9-0.3,1.9-0.9,3-1.6c0.5-0.4,1.1-0.7,1.6-1.2c0.5-0.4,1-0.8,1.5-1.2c1.6-1.2,3.1-2.6,4.5-4
			c1.5-1.4,3-2.7,4.5-4c1.6-1.3,3.3-2.2,5.1-2.7c1.8-0.6,3.5-0.8,5.3-0.6c1.7,0.1,3.4,0.6,5,1.4c1.6,0.8,3.1,1.9,4.4,3.3l6.6-5.2
			c0.2,0.3,0.8,0.6,1.7,0.9c0.9,0.3,1.9,0.6,2.9,0.8c1.2,0.3,2.5,0.6,3.9,0.9L595.9,623z M589.3,640.6c-1.1-0.2-2.1-0.5-3.1-0.7
			c-1-0.2-1.8-0.4-2.4-0.5c-0.4,1-0.6,2.2-0.5,3.5c0.1,1.3,0.4,2.3,0.9,3.1c1,1.2,2.1,1.9,3.3,2.1c1.2,0.2,2.5-0.2,3.7-1.1
			c0.3-0.2,0.7-0.5,1.1-1c0.5-0.4,0.9-0.9,1.3-1.4c0.4-0.5,0.7-1,0.9-1.5c0.2-0.5,0.2-0.9-0.1-1.3c-0.2-0.1-0.7-0.2-1.7-0.4
			C591.7,641.1,590.5,640.9,589.3,640.6z M587.4,629.9c-0.2,0.2-0.5,0.4-0.9,0.8c-0.4,0.3-0.7,0.7-1,1.1c-0.3,0.4-0.5,0.8-0.7,1.2
			c-0.1,0.4-0.1,0.8,0,1.1c1.7,0.4,3.3,0.8,5.1,1.1c1.7,0.4,3.4,0.6,5.1,0.8c0.7-1.7,0.3-3.5-1.3-5.5
			C592,628.2,589.8,628,587.4,629.9z"/>
		<path class="st1" d="M611.2,608.5l37.1,38.3c-0.3,0.2-0.9,0.4-1.9,0.6c-1,0.1-2.1,0.2-3.2,0.3c-1.3,0.1-2.8,0.1-4.3,0.1L612,620
			c-2.1-2.2-4.1-3.4-5.9-3.9c-1.9-0.4-3.7,0.4-5.4,2.6l-9.7-1c0.8-0.7,1.4-1.3,1.9-1.7c0.5-0.4,0.8-0.8,1.1-1
			c0.3-0.3,0.5-0.5,0.7-0.7c0.2-0.2,0.4-0.4,0.6-0.6c1.6-1.5,3.1-2.5,4.6-2.9c1.5-0.4,3.2-0.3,5,0.1c-0.5-0.4-1.1-0.8-1.7-1.2
			c-0.6-0.5-1.3-1-2.1-1.7c-0.8-0.7-1.8-1.4-2.8-2.3c-1.1-0.9-2.3-1.9-3.7-3.1l5.6-0.7c0.8,0.6,1.3,1,1.7,1.2c0.3,0.2,0.7,0.3,1,0.4
			c0.4,0.1,0.8,0.2,1.2,0.2l1.5,0l5.6-5.4l10.4,0L611.2,608.5z"/>
		<path class="st1" d="M614.6,607.1l-10.5,1.4l41.5-51.3l10.5-1.5l-23.4,29l14.2,11.5c-0.2-1.6-0.4-3.2-0.6-4.7
			c-0.2-1.5-0.3-3-0.5-4.6c-0.1-2-0.2-4.1-0.1-6.1c0.1-2.1,0.3-4.4,0.9-6.8l12-3.3c1.1,4.2,2.4,8.1,4.1,11.7c1.7,3.6,4,6.6,6.8,8.9
			c2.3,1.8,4.8,3.5,7.5,4.9c2.7,1.4,5.9,2.8,9.6,4.2l-4.9,3.4c-1.7-0.4-3.5-1-5.4-1.8c-1.9-0.8-3.7-1.6-5.5-2.6
			c-1.8-1-3.5-2-5.2-3.1c-1.7-1.1-3.1-2.1-4.4-3.2c-1.3-1-2.4-2.1-3.4-3.3c-1-1.2-2-2.4-2.9-3.7c0,1.7,0.1,3.5,0.5,5.4
			c0.3,1.9,0.8,3.9,1.4,5.8c0.6,1.9,1.3,3.8,2.2,5.7c0.9,1.8,1.8,3.5,2.9,5.1l-10,2.4c-1.6-0.9-3.1-1.4-4.7-1.5s-3.1,0.1-4.6,0.6
			c-1.5,0.5-2.9,1.4-4.3,2.5c-1.3,1.1-2.6,2.4-3.7,4l-10.9-1.6c0.5-4.2,1-8.2,1.6-12c0.6-3.9,1.4-7.6,2.5-11.2L614.6,607.1z
			 M635.1,596.1c-1,3.4-1.6,6.9-1.6,10.5c1.7-0.8,3.5-1.4,5.3-1.9c1.8-0.5,3.6-0.8,5.5-1.1L635.1,596.1z"/>
	</g>
	<path class="st3" d="M640,287.8c-13.5-32-32.9-60.7-57.6-85.4c-24.7-24.7-53.5-44.1-85.4-57.6c-33-14-68.2-21.1-104.6-21.1
		s-71.5,7.1-104.6,21.1c-32,13.5-60.7,32.9-85.4,57.6c-24.7,24.7-44.1,53.5-57.6,85.4c-14,33-21.1,68.2-21.1,104.6
		c0,5.1,0.1,10.2,0.4,15.3c1.7,30.9,8.6,60.9,20.6,89.2c13.5,32,32.9,60.7,57.6,85.4c24.7,24.7,53.5,44.1,85.4,57.6
		c2.1,0.9,4.1,1.7,6.2,2.5c1,0.4,2,0.8,2.9,1.1c0.5,0.2,1,0.4,1.5,0.6c0.2,0.1,0.4,0.1,0.6,0.2c0.7,0.3,1.5,0.6,2.3,0.8
		c0.4,0.2,0.8,0.3,1.3,0.5c0.7,0.2,1.4,0.5,2.1,0.7c2.6,0.9,5.3,1.8,8,2.6c0.7,0.2,1.5,0.4,2.2,0.7c0.8,0.2,1.6,0.5,2.4,0.7
		c0.9,0.3,1.9,0.5,2.8,0.8c0.9,0.2,1.7,0.5,2.6,0.7c0.2,0.1,0.4,0.1,0.5,0.1c0.6,0.2,1.2,0.3,1.9,0.5c0.4,0.1,0.9,0.2,1.3,0.3
		c0.7,0.2,1.3,0.3,2,0.5c0.3,0.1,0.6,0.1,0.8,0.2c0.6,0.2,1.3,0.3,1.9,0.5c0.5,0.1,1,0.2,1.5,0.3c0.4,0.1,0.8,0.2,1.1,0.3
		c0.6,0.1,1.3,0.3,1.9,0.4c0.5,0.1,1,0.2,1.6,0.3c0.4,0.1,0.8,0.2,1.2,0.2c0.6,0.1,1.3,0.3,1.9,0.4c0.9,0.2,1.8,0.3,2.6,0.5
		c0.6,0.1,1.2,0.2,1.8,0.3l1.5,0.3c0.7,0.1,1.5,0.3,2.2,0.4c0.1,0,0.2,0,0.3,0c0.7,0.1,1.3,0.2,2,0.3c0.7,0.1,1.4,0.2,2.1,0.3
		c0,0,0.1,0,0.1,0c1,0.1,1.9,0.3,2.9,0.4c0,0,0.1,0,0.1,0c1,0.1,2,0.3,3,0.4c0.9,0.1,1.8,0.2,2.7,0.3c1,0.1,1.9,0.2,2.9,0.3
		c0.7,0.1,1.4,0.1,2.1,0.2c1.3,0.1,2.7,0.3,4,0.4c0.7,0.1,1.4,0.1,2.1,0.2c0.5,0,1,0.1,1.5,0.1c0.9,0.1,1.8,0.1,2.7,0.2
		c0.7,0,1.4,0.1,2.1,0.1c0.5,0,0.9,0,1.4,0.1c0.8,0,1.5,0.1,2.3,0.1c0.8,0,1.5,0.1,2.3,0.1c1.5,0,3.1,0.1,4.6,0.1c1,0,1.9,0,2.9,0
		h0.4c0.1-0.2,0.1-0.4,0.2-0.6c0.1,0.2,0.1,0.4,0.2,0.6v0c32.9,0,64.4-5.9,94.6-17.4c1-0.4,1.9-0.7,2.9-1.1c2.1-0.8,4.2-1.7,6.2-2.5
		c32-13.5,60.7-32.9,85.4-57.6c24.7-24.7,44.1-53.5,57.6-85.4c12-28.4,18.9-58.3,20.6-89.2c0.3-5.1,0.4-10.2,0.4-15.3
		C661.1,356,654,320.9,640,287.8z M651.6,395.2c0,0.2,0,0.5,0,0.7v0.2c0,1,0,1.9-0.1,2.9c0,0.7,0,1.4-0.1,2.1c0,0.7,0,1.4-0.1,2
		c0,0.5,0,0.9-0.1,1.4c0,0.3,0,0.5,0,0.8c0,0.6-0.1,1.2-0.1,1.8c-1.7,29.8-8.3,58.8-19.9,86.1c-13.1,30.8-31.8,58.6-55.6,82.4
		c-23.9,23.9-51.6,42.6-82.4,55.6c-2,0.9-4,1.7-6,2.5c-0.9,0.4-1.9,0.7-2.8,1.1c-0.6,0.2-1.2,0.4-1.7,0.7c-0.3,0.1-0.7,0.3-1,0.4
		c-0.1,0-0.2,0.1-0.2,0.1c-0.8,0.3-1.7,0.6-2.5,0.9c-0.1,0-0.2,0.1-0.2,0.1c-0.6,0.2-1.2,0.4-1.9,0.7c-0.6,0.2-1.1,0.4-1.7,0.6
		c0,0-0.1,0-0.1,0c-0.1,0-0.1,0.1-0.2,0.1c-0.2,0.1-0.5,0.2-0.7,0.2c-0.6,0.2-1.2,0.4-1.7,0.6c-0.3,0.1-0.6,0.2-0.9,0.3
		c-0.3,0.1-0.6,0.2-0.9,0.3c0,0-0.1,0-0.1,0c-0.4,0.1-0.7,0.2-1.1,0.3c-0.1,0-0.1,0-0.2,0.1c-0.3,0.1-0.6,0.2-0.9,0.3
		c-0.1,0-0.1,0-0.2,0.1c-0.4,0.1-0.8,0.3-1.2,0.4c-0.1,0-0.3,0.1-0.4,0.1c-0.8,0.2-1.5,0.5-2.3,0.7c-0.1,0-0.2,0.1-0.3,0.1
		c-0.5,0.1-0.9,0.3-1.4,0.4c-0.1,0-0.2,0.1-0.4,0.1c-0.4,0.1-0.8,0.2-1.3,0.4c-1.1,0.3-2.3,0.6-3.4,0.9c-0.3,0.1-0.6,0.2-0.9,0.2
		c-0.9,0.2-1.7,0.4-2.6,0.7c-0.1,0-0.2,0-0.3,0.1c-0.8,0.2-1.5,0.4-2.3,0.5c-0.3,0.1-0.6,0.1-0.9,0.2c-0.6,0.1-1.1,0.3-1.7,0.4
		c-0.3,0.1-0.6,0.1-0.8,0.2c-0.1,0-0.2,0.1-0.4,0.1c-1,0.2-2,0.4-3,0.6c-0.4,0.1-0.8,0.2-1.2,0.2c-0.1,0-0.3,0.1-0.4,0.1
		c-0.2,0-0.4,0.1-0.5,0.1c-0.2,0-0.4,0.1-0.6,0.1c-0.4,0.1-0.9,0.2-1.3,0.2c-0.2,0-0.4,0.1-0.5,0.1c-0.1,0-0.2,0-0.3,0.1
		c-0.9,0.2-1.8,0.3-2.7,0.5c-0.1,0-0.1,0-0.2,0c-0.1,0-0.3,0.1-0.4,0.1c-0.1,0-0.2,0-0.4,0.1c-0.2,0-0.5,0.1-0.7,0.1
		c-0.6,0.1-1.1,0.2-1.7,0.3c-0.3,0-0.6,0.1-0.9,0.1c-0.4,0.1-0.7,0.1-1.1,0.2c-0.3,0.1-0.7,0.1-1,0.2c-0.9,0.1-1.7,0.3-2.6,0.4
		c-0.2,0-0.4,0.1-0.7,0.1c-0.7,0.1-1.3,0.2-2,0.3c-0.1,0-0.2,0-0.3,0c-0.9,0.1-1.8,0.2-2.6,0.3c-0.2,0-0.4,0.1-0.7,0.1
		c-0.7,0.1-1.3,0.2-2,0.2c-0.9,0.1-1.8,0.2-2.7,0.3c-0.8,0.1-1.6,0.2-2.4,0.2c-0.2,0-0.3,0-0.5,0c-0.2,0-0.3,0-0.5,0
		c-0.3,0-0.5,0-0.8,0.1c0,0-0.1,0-0.1,0c-0.6,0.1-1.2,0.1-1.8,0.1c-0.5,0-0.9,0.1-1.3,0.1c-0.2,0-0.4,0-0.6,0c-0.2,0-0.5,0-0.7,0
		c-0.1,0-0.2,0-0.3,0c-0.3,0-0.5,0-0.8,0.1c-0.1,0-0.2,0-0.2,0c-0.4,0-0.8,0-1.3,0.1c-0.4,0-0.8,0-1.3,0.1c-0.1,0-0.2,0-0.3,0
		c-0.4,0-0.9,0-1.3,0.1c-0.1,0-0.2,0-0.2,0c-0.2,0-0.3,0-0.5,0c-0.3,0-0.6,0-0.9,0c-0.7,0-1.3,0-2,0.1c-1,0-2,0-2.9,0.1
		c-1,0-2,0-2.9,0h-0.5c-1,0-2,0-3.1,0c-0.1,0-0.2,0-0.3,0c-0.5,0-1,0-1.5,0c-0.4,0-0.7,0-1.1,0c-0.3,0-0.5,0-0.8,0
		c-0.9,0-1.7,0-2.6-0.1c-1.9-0.1-3.8-0.2-5.7-0.3c-0.6,0-1.1-0.1-1.7-0.1c-0.5,0-1-0.1-1.5-0.1c-1-0.1-2-0.1-3-0.2
		c-0.8-0.1-1.6-0.1-2.4-0.2c-0.3,0-0.6-0.1-1-0.1c0,0,0,0,0,0c-0.5,0-1-0.1-1.6-0.2c-0.6-0.1-1.1-0.1-1.7-0.2
		c-0.3,0-0.5-0.1-0.8-0.1c-0.2,0-0.4,0-0.6-0.1c-0.3,0-0.6-0.1-0.9-0.1c-0.2,0-0.3,0-0.5-0.1c-0.6-0.1-1.3-0.1-1.9-0.2
		c-0.1,0-0.2,0-0.4,0c-0.2,0-0.3,0-0.5-0.1c-0.4-0.1-0.9-0.1-1.3-0.2c0,0-0.1,0-0.1,0c-0.3,0-0.6-0.1-0.9-0.1c-0.1,0-0.1,0-0.2,0
		c-2.2-0.3-4.4-0.6-6.6-1c-0.4-0.1-0.8-0.1-1.2-0.2c-0.2,0-0.3-0.1-0.5-0.1c-0.1,0-0.2,0-0.3-0.1c-3-0.5-5.9-1.1-8.8-1.7
		c-0.9-0.2-1.8-0.4-2.7-0.6c-0.1,0-0.2,0-0.3-0.1c-0.8-0.2-1.6-0.4-2.4-0.5c-0.1,0-0.1,0-0.2-0.1c-0.5-0.1-1-0.2-1.5-0.3
		c-0.2,0-0.4-0.1-0.6-0.1c-0.3-0.1-0.6-0.1-0.9-0.2c-1.3-0.3-2.5-0.6-3.8-1c-0.4-0.1-0.8-0.2-1.2-0.3c-0.2,0-0.4-0.1-0.5-0.1
		c0,0,0,0,0,0c0,0-0.1,0-0.1,0c-0.2-0.1-0.4-0.1-0.7-0.2c0,0-0.1,0-0.1,0c-0.6-0.1-1.1-0.3-1.7-0.5c-0.1,0-0.3-0.1-0.4-0.1
		c-0.2-0.1-0.4-0.1-0.6-0.2c-0.8-0.2-1.6-0.5-2.4-0.7c-0.6-0.2-1.3-0.4-1.9-0.6c-1.1-0.3-2.2-0.7-3.3-1c-0.2-0.1-0.4-0.1-0.6-0.2
		c-0.1,0-0.3-0.1-0.4-0.1c-0.2,0-0.3-0.1-0.5-0.2c-0.5-0.2-0.9-0.3-1.4-0.5c-0.2-0.1-0.5-0.1-0.7-0.2c-1.8-0.6-3.5-1.2-5.3-1.8
		c-0.8-0.3-1.5-0.5-2.3-0.8c0,0,0,0,0,0c-0.5-0.2-0.9-0.3-1.4-0.5c-1.4-0.5-2.7-1-4.1-1.6c-2-0.8-4-1.6-6-2.5
		c-0.7-0.3-1.4-0.6-2-0.9c-0.6-0.2-1.1-0.5-1.7-0.7c-0.6-0.3-1.3-0.6-1.9-0.9c-0.6-0.3-1.2-0.6-1.9-0.9c-0.8-0.4-1.6-0.7-2.4-1.1
		c-0.5-0.2-0.9-0.4-1.4-0.7c-0.7-0.3-1.3-0.6-2-1c-0.6-0.3-1.2-0.6-1.7-0.9c-1.2-0.6-2.4-1.2-3.6-1.8c-0.5-0.3-1-0.5-1.5-0.8
		c-0.5-0.3-1-0.5-1.5-0.8c-0.7-0.4-1.4-0.7-2.1-1.1c-0.4-0.2-0.8-0.4-1.1-0.6c-0.4-0.2-0.8-0.4-1.1-0.6c-0.8-0.4-1.5-0.9-2.3-1.3
		c-0.8-0.5-1.6-0.9-2.4-1.4c-1.8-1.1-3.6-2.1-5.3-3.2c-0.8-0.5-1.6-1-2.4-1.5c-0.2-0.1-0.3-0.2-0.5-0.3c-0.8-0.5-1.5-1-2.3-1.5
		c-1.9-1.3-3.8-2.6-5.8-3.9c-0.8-0.6-1.7-1.2-2.5-1.8c-0.1-0.1-0.2-0.2-0.3-0.2c-0.5-0.4-1.1-0.8-1.6-1.2c-1.5-1.1-3-2.2-4.5-3.4
		c-0.6-0.5-1.3-1-1.9-1.5c-0.5-0.4-1.1-0.8-1.6-1.3c-1.1-0.9-2.2-1.7-3.3-2.6c-0.5-0.4-1-0.8-1.5-1.2c-0.8-0.6-1.6-1.3-2.3-2
		c-0.7-0.6-1.4-1.2-2.1-1.8c-0.7-0.6-1.5-1.3-2.2-1.9c-0.1-0.1-0.2-0.1-0.2-0.2c-0.6-0.6-1.3-1.1-1.9-1.7c-0.2-0.2-0.4-0.4-0.7-0.6
		c-0.3-0.3-0.7-0.6-1-0.9c-0.4-0.3-0.7-0.7-1.1-1c-0.7-0.7-1.5-1.4-2.2-2.1c-1.5-1.5-3-2.9-4.5-4.4c-1.5-1.5-3-3-4.4-4.5
		c-0.7-0.8-1.4-1.5-2.2-2.3c-1.2-1.3-2.3-2.5-3.5-3.8c-0.3-0.3-0.6-0.7-0.9-1c-0.7-0.8-1.4-1.6-2.1-2.4c-0.6-0.7-1.2-1.3-1.7-2
		c-0.4-0.5-0.9-1-1.3-1.6c-0.4-0.4-0.7-0.8-1-1.3c-0.1-0.1-0.2-0.2-0.3-0.4c-0.5-0.6-1-1.2-1.5-1.8c0,0,0,0,0,0
		c-0.6-0.8-1.3-1.6-1.9-2.4c-0.6-0.8-1.3-1.6-1.9-2.4c-0.1-0.1-0.1-0.2-0.2-0.2c-0.6-0.8-1.2-1.5-1.7-2.3c-0.6-0.8-1.2-1.7-1.9-2.5
		c-0.6-0.8-1.2-1.7-1.8-2.5c-0.6-0.8-1.2-1.7-1.8-2.5c-0.6-0.9-1.2-1.7-1.8-2.6c-0.6-0.9-1.2-1.7-1.7-2.6c-0.6-0.9-1.1-1.7-1.7-2.6
		c-0.6-0.9-1.1-1.8-1.7-2.6c-0.8-1.3-1.6-2.6-2.4-3.9c-0.5-0.9-1.1-1.8-1.6-2.7c0-0.1-0.1-0.2-0.1-0.2c-0.3-0.5-0.6-1.1-0.9-1.6
		c-0.3-0.6-0.7-1.2-1-1.7c-0.1-0.2-0.3-0.5-0.4-0.7c-1-1.7-1.9-3.4-2.8-5.2c-0.2-0.3-0.4-0.7-0.5-1c-0.7-1.4-1.4-2.7-2.1-4.1
		c-0.3-0.6-0.6-1.1-0.8-1.7c-0.4-0.8-0.8-1.6-1.1-2.3c0-0.1-0.1-0.1-0.1-0.2c-0.3-0.6-0.6-1.2-0.9-1.8c-0.2-0.4-0.3-0.7-0.5-1.1
		c-0.2-0.3-0.3-0.7-0.5-1c-1-2.3-2.1-4.6-3-6.9c-11.6-27.3-18.2-56.3-19.9-86.1c0-0.4,0-0.8-0.1-1.1c0-0.4,0-0.8-0.1-1.1
		c0-0.1,0-0.3,0-0.4c0,0,0,0,0,0c0,0,0,0,0,0c0-0.1,0-0.2,0-0.3c0-0.3,0-0.6,0-0.9c0,0,0-0.1,0-0.1c0-0.1,0-0.1,0-0.2
		c0-0.1,0-0.2,0-0.3c0-0.7-0.1-1.5-0.1-2.2c0,0,0-0.1,0-0.1c0-0.1,0-0.3,0-0.4c0-0.6,0-1.3-0.1-1.9c0-1.8-0.1-3.7-0.1-5.6
		c0-35.1,6.8-69,20.3-100.9c13.1-30.9,31.8-58.6,55.6-82.4c23.9-23.9,51.6-42.6,82.4-55.6c31.9-13.5,65.8-20.3,100.9-20.3
		c35.1,0,69,6.8,100.9,20.3c30.9,13.1,58.6,31.8,82.4,55.6c23.9,23.9,42.6,51.6,55.6,82.4c13.5,31.9,20.3,65.8,20.3,100.9
		C651.6,393.3,651.6,394.3,651.6,395.2z"/>
	<path class="st4" d="M288.4,736.1c1,0.4,2,0.8,2.9,1.1c0,0-0.1,0-0.1,0C290.3,736.8,289.3,736.5,288.4,736.1z"/>
	<path class="st4" d="M387.3,754c0.1,0.2,0.1,0.4,0.2,0.6v0h-0.4C387.2,754.4,387.3,754.2,387.3,754z"/>
	<path class="st5" d="M651.6,392.4c0,5-0.1,10-0.4,14.8c-1.7,29.8-8.3,58.8-19.9,86.1c-13.1,30.8-31.8,58.6-55.6,82.4
		c-23.9,23.9-51.6,42.6-82.4,55.6c-2,0.9-4,1.7-6,2.5c-0.9,0.4-1.9,0.7-2.8,1.1c-29.1,11.1-59.8,16.7-91.2,16.8h-0.5c-1,0-2,0-3.1,0
		c-32-0.4-63-6.4-92.1-17.8c-2-0.8-4-1.6-6-2.5c-30.9-13.1-58.6-31.8-82.4-55.6c-23.9-23.9-42.6-51.6-55.6-82.4
		c-11.6-27.3-18.2-56.3-19.9-86.1c-0.3-4.8-0.4-9.8-0.4-14.8c0-35.1,6.8-69,20.3-100.9c13.1-30.9,31.8-58.6,55.6-82.4
		c23.9-23.9,51.6-42.6,82.4-55.6c31.9-13.5,65.8-20.3,100.9-20.3c35.1,0,69,6.8,100.9,20.3c30.9,13.1,58.6,31.8,82.4,55.6
		c23.9,23.9,42.6,51.6,55.6,82.4C644.8,323.4,651.6,357.3,651.6,392.4z"/>
	<path class="st6" d="M302.8,479.9c0,0,2-0.2,4.8-0.4c2.7-0.2,13.5,0.1,8.8-0.7c8.1,0.5,13.9,1.2,4.8-0.4c9.1,1.6,12,2.1,5.8,0
		c6.8,2.1,7.1,2.2,5.8,0c1.3,2.2,1.4,2.2,4.3,0c-2.8,2.2-2.3,2.1,4.3,0c-6.7,2.1-5.1,2,3.9,1c-9,1-5,0.7,4.3,0
		c-7.4,0.7,0.7,0.2,4.3,0c-1.8,0.1-1.1,0.1,0.4-0.1s5.2-0.1,5.2-0.4c3.9,0,11,0.9,5.6-0.5c5.5,1.4,10.3,2.1,3.9,0
		c6.7,2.4,10.3,3.5,8.2,1.6c3.4,2.1,4.1,2.2,7.8,1.3c-3.7,0.9-2,0.6,5.8-0.7c-5.8,1.1,0.5,0.1,5.8-0.7c-5.3,0.8-1,0.5,2.4,0
		c-3.4,0.5,4.9,0.5,3.9,0c1,0.5,5.5,1.5,2.4,0c3.8,0.7,9.7,2.7,4.3,0c6.5,2.2,9.1,3.3,2.9,0c6.2,3.3,9,4.2,4.8,0
		c4.2,4.2,4.8,4.5,3.2,0.2c2.2,4.4,2.5,4.4,3.6-0.2c-0.9,4.5,0.6,3.5,7.7-0.2c-4.5,3.8,2.8,1.7,7.3,0.2c-4.5,1.5,2.8,0.1,6,0
		c3,0,6,0,6,0h5.8h8.2l7.7-1.4l13,2.9l4.8-1.4l-21.3,2.9h-2.4h-15c0,0-1.6,0.4-3.1,0.7c-1.6,0.4-3.4,0.7-3.1,0.7
		c-0.2,0-5.3,0.2-3.9,0c-4.7,0.2-9.9,0.5-3.9,0c-6,0.5-12.1,0.7-5.8,0c-6.7,0.9-8.1,1.1-3.7,0.9c-4.9,0.3-5.3,0.3-3,0.5
		c-2.3-0.2-2.6-0.2-5.3-0.5c1.8,0.2-1.5-0.1-9.8-0.9c5.6,0.5-1-0.1-5.3-0.5c2.1,0.2,1.5,0.2-0.1,0.2c-1.6,0-7.1-0.4-5.5-0.2
		c-5.3-0.2-12.2-0.6-5.6,0c-6.6-0.6-9.9-0.9-3.9,0c-7.3-0.9-8.6-1.1-3.9,0c-4.8-1.1-5.4-1.1-3.9,0.2c-2-1.3-2.3-1.3-3.9,0.2
		c1.6-1.6-0.1-1-5.8,1.4c5.7-2.4,2.8-1.7-5.1,0c5.4-1.7-1.2-0.7-5.1,0c3.9-0.7-5.2,0-5.3,0c0.1,0-2.7-0.5-4.9-0.9
		c-2.1-0.4-3.7-0.5-1.4,0.2c-8.4-1.8-14.9-3.5-6.3-0.7c-8.6-2.8-9.7-3.1-3.1,0.2c-7-3.3-7.4-3.6-4.2,0.2c-3.3-3.8-3.5-3.9-4.4-0.5
		c0.8-3.4,0.7-3.4-3.3-0.5c4-2.9,3-2.6-6-1c8-1.8,1.8-1.5-6-1c7.9-0.5,6.7,0.3-0.5,1.4c7.2-1.1-0.6,0.6-3.9,1
		c1.9-0.4-2.1-0.2-3.5-0.5c-1.4-0.2-2.8-0.5-2.8-0.5l-6.8-1.4h-6.3c0,0-1.4-1-2.4-1.4c-1-0.5-5.3-1.9-5.3-1.9l-2.9-3.9L302.8,479.9z
		"/>
	<path class="st6" d="M299,493.4l13.5-1l12.1-0.5l15.5-1l18.8,2.4h2.9l-13-4.3h-1.4h-10.1l-6.8-1.4c0,0,1.4-0.5-6.8,1.4
		c-8.2,1.9-14.5,0-16.9,0c-2.4,0-7.7,0-7.7,0l-2.4,1.4v5.3L299,493.4z"/>
	<path class="st6" d="M325.5,508.4c-3.9,5.8-1.9,5.1,4.6,1.7c-4,4.4,0.3,3.5,4.6,1.7c-4.3,1.8,4,0.3,4.8,0c-0.8,0.3,3.4,1,3.4,1h3.9
		c0,0,1-2.4,2.9,0s2.4,1.4,3.9,1.4c1.4,0,5.8,0,5.8,0s5.1,0,4.8,0c0.2,0,2.3-1,1.4-1c0.9,0,5.3,2,2.9,2.4c2.4-0.4,7.4-1.2,4.1-0.7
		c6-0.9,9.4-1.4,4.1-0.7c5.3-0.7,8.6-1.2,5.3-1c3.3-0.3,3.7-1.1,1.9-1.4c2.2,1,2.8,1.1,4.5,1.3c-0.7-0.1,0.1-0.1,3.7,0.2
		c-3.7-0.3-2-0.8,2.9-1.4c-4.9,0.6-3.4,0.6,1.9,0c-5.3,0.6-2.6,0.4,3.4,0c-3.9,0.4,0,0.2,3.4,0c-3.4,0.2-0.9-1.5,1.4-1.9
		c-2.4,0.4,1.4,2,2.4,1.9c-1.1,0.1,2.2-0.4,4.3-0.7c2.2-0.4,5-0.5,4.3-0.7c0.7,0.2,1,1.7,0,1.4c1,0.2,11.8,3.3,5.3,1.9
		c6.5,1.3,10.2,1.9,2.4,0c7.8,1.9,10.2,2.1,2.4-0.5c7.8,2.6,10.6,3.6,5.3,2.4c5.2,1.2,5.4,1.1,1.9-2.1c3.7,3,3.9,2.9,3-1.8
		c1.1,4.7,1.5,4.6,4.8,0c-3.3,4.6-2.3,3.9,5.8,0c-6.6,3.9-3,2.6,4.6,0c-6.5,2.6-4.4,2,1.7,0c-6.1,2,0.4,0.5,4.3,0c0,0.5,4.3,0,4.3,0
		s-1.9,1.4,1.4,0c1.7-0.7,2.9-1.6,3.8-2.2c0.9-0.7,1.5-1.1,2-1.1c1,0-9.7,0,3.4,0s17.9,0,17.9,0h2.9l-19.8,7.2c0,0-2.5,0.3-6,0.8
		s-12.9,1-11.4,1.6c-7.1,0.2-15.1-0.4-7.2,1.4c-8.3-1.6-10.2-2-4.7,1.1c-6-3.1-6.5-3.3-4,0.4c-2.6-3.6-3-3.3-4.8,1.9
		c1.8-5.2,1.2-5.2-3.9-1c5-4.2,3.6-3.6-4.6-0.5c6.9-3.3,2.4-2.3-4.6-0.5c7-1.8,2.3-1-3.4-0.3c2.7-1-4.3-0.4-6.3-0.7
		c-1.9-0.2-3.2-0.2-4,0.1c-1,0.1-2.3,0.1-2.2,0.4c-1.5-0.3-5.5-1.1-4.2,0.5c-4-1.2-6.7-2-3.1,0.5c-3.6-2.4-5.9-3.1-3.4,0.7
		c-4.6-3.4-6.1-3.9-3.4,0.7c-2.7-4.6-4.1-5.1-2.4,0c-1.7-5.1-2.7-5.3-1.9,0c-0.8-5.3-1.7-4.8-3.9,0.5c0.1-5.1-1.8-4.1-5.7-0.5
		c2.5-4.4-0.7-3.2-5.5-1.3c1.7-2.2-2-1-3.7-0.2c1.7-0.9-3.5-2.1-3.9-1.9c0.4-0.1-2.1,0-4.1,0s-4.1,0-4.1,0s-3.7,0.6-7.5,1.2
		c-3.7,0.6-7.5,1.2-7.5,1.2c0,0,5.3-0.5-2.4,0c-4.7,0.1-13.1-1.3-7.7,0.9c-7-1.8-8.3-2.2-1.9,0.5c-6.4-2.7-9.5-3.4-7.2,2
		c-4.2-4.9-5.7-3.7-9.7,2.4c2.3-5.8-0.4-4.3-5.3,0c4.9-4.3,8.4-7.8,3.1-6.8c6.1-2.7,6.7-3.3,3.1-6.8c3.5,3.4,4,3,5.6-2.9
		C319.7,516.5,321.7,514.2,325.5,508.4z"/>
	<path class="st6" d="M336.7,527.8h13h11.1h1.4c0,0,3.7,1.9,5.1,1.9c1.4,0,7-1.9,7-1.9l3.7,1l11.1-1c0,0,0.9,0.5,4.2,0
		c3.4-0.5-1.9,1.4,4.2,0c7.9,0.6,16.3,2.7,6.2-0.5c10.6,3.3,11.5,3.7,1.7,0.5c9.9,3.1,11,3.5,4.6,1c6.5,2.5,6.6,2.5,5.1-1.4
		c1.5,4,1.5,4,2.8,0c-1.3,4-1.2,4,3.2,0c-4.4,4-4.1,3.8,3.2,0c-7.4,3.8-6.4,3.5,3.9,0c-9.7,3.5-5.7,2.5,3.9,0
		c-9.7,2.5-0.7,1.5,4.6,0.5c-3.1,0.5,1.8-1.2,2.7-2c0.9-0.8,1.7-1.4,2.4-0.9c0.7,0.5,3.6,1.7,6.5,1.6c3.1,1.1,6.2,2.1,8.3,1.3
		c1.5,1.3,4.1,0.1,5.8-0.1c1.7-0.2,3-0.4,3-0.4l13.9,0.5c0,0-1.7,0.3-4.4,0.7c-2.7,0.4-6.4,1-10.5,1.6c-4.1,0.7-10.6,8.5-12.5,1.9
		c-2.9,7.3-5.6,6.5-10.5,1.6c0.6,2.7,0.1,3.5-0.9,3.3c-1-0.2-5.9-2-3.5-2.6c-2.4,0.6-4.1,0.5-0.8,1.2c-5.3-1-14-2.7-4.5-0.4
		c-10.4-2.2-13.6-2.8-4.1,1.5c-9.9-4.2-10.5-4.5-1.3-0.8c-9.2-3.6-9.4-3.6-3.2,3.6c-6.5-7.1-6.8-7.7-4-3.6c-2.9-4-2.9-3.8-4.1,4.1
		c1.1-7.9,1.1-8.1-3.1-4.1c4.2-4,4.1-4-1.4,1c5.5-5,4.9-4.9-4.7-2.5c9.3-2.5,6.5-2.1-4.4-1c10.2-1.3,6.6-1.1-2.4-0.5
		c8.7-0.7-2-0.1-5.3,0c-2.4,0-4.7,0-4.9,0c-0.2,0-2.5,1-4.8,1.9c-2.3,1-4.6,3-4.5,1.9c-0.1,0.5-0.9,0.5-2.2,0
		c-1.2-0.2-2.9-0.9-4.6-1.3c-1.7-0.3-3.4-0.7-4.8-1c-1.3-0.3-2.3-0.4-2.4-0.7c-0.3-0.1-1.5,0.1-2.7-0.4c-1.3,0.4-2.8,1-3.4-0.1
		c-0.7,1.1-2,3.3-3.5,0.7c-0.9,3.2-2.1,3.8-3.5,0.7c0.5,3-0.9,1-2.3-0.1c-0.7,0.9-2.5-0.3-3.8-0.4c-2.6-0.2-5-0.5-5-0.5
		s0.9,0.5-2.8,0c-3.7-0.5-6.5-0.5-6.5-0.5l2.8-5.3l3.7-1.4L336.7,527.8z"/>
	<path class="st7" d="M651.6,399c-0.1,2.7-0.2,5.4-0.3,8.1c-1.7,29.8-8.3,58.8-19.9,86.1c-13.1,30.8-31.8,58.6-55.6,82.4
		c-23.9,23.9-51.6,42.6-82.4,55.6c-2,0.9-4,1.7-6,2.5c-0.9,0.4-1.9,0.7-2.8,1.1c-26.7,10.2-54.7,15.8-83.4,16.6
		C425.7,524.7,525.1,424.6,651.6,399z"/>
	<path class="st8" d="M661.1,407.8c0,0-0.1,0-0.4-0.1"/>
	<path class="st8" d="M124.1,407.7c-0.3,0.1-0.4,0.1-0.4,0.1"/>
	<path class="st7" d="M389.3,651.6c-31.9-0.4-62.8-6.4-91.9-17.8c-2-0.8-4-1.6-6-2.5c-30.9-13.1-58.6-31.8-82.4-55.6
		c-23.9-23.9-42.6-51.6-55.6-82.4c-11.6-27.3-18.2-56.3-19.9-86.1c-0.2-3-0.3-6.1-0.4-9.2C262.3,421.6,364.4,522.9,389.3,651.6z"/>
	<g>
		<path class="st3" d="M198.1,569.7v-85.4c0,0-0.6-16.3,19.5-17c0,0,10-19.5,29.5,0c0,0,13.2-1.3,13.8,14.4v20.1h-22.6v-5
			c0-2.4-2-4.4-4.4-4.4h-8.8c-2.4,0-4.4,2-4.4,4.4v89.8L198.1,569.7z"/>
		<g>
			<polygon class="st9" points="228.2,572.3 237.9,502.9 249.8,502.9 239,575.9 			"/>
			<polygon class="st10" points="258.9,580 269.6,580 261.1,502.9 251.5,502.9 			"/>
			<polygon class="st11" points="239,575.9 258.9,580 251.5,502.9 249.8,502.9 			"/>
		</g>
		<rect x="237.6" y="501.9" class="st12" width="23.9" height="1.3"/>
	</g>
	<path class="st13" d="M356.3,518.2l4.4,1.3l1.3,3.1v1.9v1.3l-1.3,1.9l-2.5,1.3l-1.3,2.5l-0.6,1.3c0,0,0,1.3,0,1.9s0,2.5,0,2.5
		l3.1,1.9h1.3l1.3,0.6c0,0,0,0.6,0,1.3c0,0.6,0,0.6,0,1.3s0,1.3,0,1.9s0,1.3,0,1.3h4.4h3.8c0,0,0,0.6,0,1.3c0,0.6,0,1.3,0,1.9
		c0,0.6,0,1.9,0,1.9h1.9h3.1l1.3,0.6h1.9l1.9,1.3l1.3,4.4h4.4c0,0,5,0,5.7,0c0.6,0,4.4-1.3,4.4-1.3l1.3-0.6l2.5,3.8v1.9h2.5l10,1.3
		l6.3-5l3.8-1.3v-2.5l3.8-0.6l1.3-4.4l2.5-1.3l1.3-3.8v-1.9l-1.9-1.9c0,0,0-1.9,0-2.5s0-1.9,0-1.9l-6.3-3.1l-26.4-11.9
		c0,0-11.3-9.4-6.9-18.2c4.4-8.8,17-13.2,16.3-19.5l-1.3-8.8l5-1.3l4.4-6.9l1.9-5.7l0.6-1.9c0,0,1.3,0,1.9,0c0.6,0,3.8-0.6,3.8-0.6
		v-6.3l1.3-3.1l3.8-2.5l1.3-6.9l2.5-2.5l3.1-5.7l-1.3-3.1l2.5-2.5v-8.2c0,0-13.8,25.7-29.5,36.4l-8.2,1.9l-1.9,5.7l-1.3,3.1h-5.7
		c0,0-1.3-1.3-1.3-1.9s0-3.1,0-3.1v-3.8V453h-4.4l-3.1,0.6l1.9-5.7l-10,1.3l1.3-6.3h-3.1l1.3-5.7c0,0-13.8,2.5-18.2,6.9
		c0,0-3.8-14.4,0.6-19.5c0,0-13.8,3.8-15.7,15.1l-3.8,13.2l-1.3,10.7v6.9l3.8,3.1l3.1,3.1l1.3,1.3v3.1l-5.6-0.3
		c-3.7-0.2-6.7,2.9-6.5,6.6l0.2,4.4l1.8-1.4c0.5-0.4,1.1-0.6,1.8-0.6c1.3,0,3.3,0.3,4.6,2c1.9,2.5,3.8,5,3.8,5v2.5h1.9l1.3,2.5
		l1.3,1.9l-1.3,1.9l2.5,1.3l5.7,1.9l-0.6,1.9l0.6,5.7l2.5,0.6L356.3,518.2z"/>
	<g>
		<linearGradient id="SVGID_1_" gradientUnits="userSpaceOnUse" x1="386.2683" y1="133.1295" x2="388.4322" y2="135.5338">
			<stop  offset="0" style="stop-color:#E9F0F0"/>
			<stop  offset="0" style="stop-color:#A92F1D"/>
			<stop  offset="1" style="stop-color:#8E261B"/>
		</linearGradient>
		<path class="st14" d="M385,140c0,0,0-0.1,0-0.1c0-0.6-0.2-1.2-0.7-1.6c-0.7-0.7-1.7-1-2.6-0.8l6.9-6.2c0,0,3.8-2.5,5,1.3L385,140z
			"/>
		<g>
			<path class="st15" d="M394.3,294.4c-3.1-5-1.9-21.3-1.9-21.3c2.5-11.9,16.3-18.2,23.9-19.5s5.7,3.8,5.7,3.8l-1.9,3.8
				c-1.9,5.7,2.5,9.4,5,11.3c2.5,1.9,7.5,0,11.3-6.3s-5-13.2-5-13.2s-5.7-5-18.8-4.4S388,268.1,388,268.1l-1.9-34.5l-5,3.1l1.3,30.8
				l-5-5.7c-8.8-11.3-23.9-13.2-23.9-13.2s-15.1-3.1-15.7,10c-0.6,13.2,13.2,10,16.3,9.4c3.1-0.6,6.3-10.7,6.3-10.7
				s17,6.9,20.1,18.8c3.1,11.9-1.9,22.6-1.9,22.6L376,312c0,0,14.4,4.4,15.1,4.4c0.6,0,11.9-3.1,11.9-3.1L394.3,294.4z"/>
			<path class="st1" d="M425.6,179.5L415,235.4l-21.3,5.8l-0.8,0.2l-5.2,1.4l-2.8,0.7l-1.4-0.3l-28.4-5.6l-8.5-1.7l-9.4-56.5
				c0,0,2.6-1.1,7-3.2v0c8.3-4,22.8-11.9,37.5-23.8c0,0,5.5,4,12.7,8.9C405.2,168.9,420,178.4,425.6,179.5z"/>
			<linearGradient id="SVGID_2_" gradientUnits="userSpaceOnUse" x1="363.3988" y1="157.8813" x2="360.3533" y2="153.6337">
				<stop  offset="0" style="stop-color:#E9F0F0"/>
				<stop  offset="1.198083e-07" style="stop-color:#C1C1C1"/>
				<stop  offset="0.1159" style="stop-color:#CCCCCC"/>
				<stop  offset="0.3571" style="stop-color:#DCDCDC"/>
				<stop  offset="0.6301" style="stop-color:#E5E5E5"/>
				<stop  offset="1" style="stop-color:#E8E8E8"/>
			</linearGradient>
			<path class="st16" d="M385,139.9c0,0,0,0.1,0,0.1c0,0.3-0.1,0.6-0.2,0.9c-0.1,0.3-0.3,0.5-0.6,0.8c-0.2,0.2-0.4,0.4-0.7,0.6
				c-5.1,4.3-16.8,13.9-26.3,19.2c-12.6,6.9-17.6,10.7-20.1,8.8c0,0-1.8-2.1,0-4.2c0.6-0.7,1.6-1.4,3.1-2c0,0,17.7-4.7,40-25.7
				c0.4-0.4,0.9-0.6,1.5-0.7h0c0.9-0.2,1.9,0.1,2.6,0.8C384.8,138.7,385,139.3,385,139.9z"/>
			<linearGradient id="SVGID_3_" gradientUnits="userSpaceOnUse" x1="383.393" y1="157.1455" x2="432.0783" y2="157.1455">
				<stop  offset="0" style="stop-color:#E9F0F0"/>
				<stop  offset="1.198083e-07" style="stop-color:#C1C1C1"/>
				<stop  offset="1" style="stop-color:#E8E8E8"/>
			</linearGradient>
			<path class="st17" d="M431.3,173.3c-2.5,1.9-7.5-1.9-20.1-8.8c-10-5.5-22.4-15.8-27-19.7c-0.5-0.5-0.8-1.1-0.8-1.7
				c0-0.3,0.1-0.6,0.2-0.8c0.1-0.3,0.3-0.6,0.5-0.8c0.2-0.2,0.5-0.4,0.7-0.5c1.1-0.6,2.4-0.4,3.3,0.5c22.3,20.9,40,25.7,40,25.7
				C434.4,169.5,431.3,173.3,431.3,173.3z"/>
			<polygon class="st18" points="437.6,178.3 425.6,227.3 415,235.4 425.6,179.5 			"/>
			<path class="st15" d="M460.6,169.6c2.3,2.7,2.1,6.7-0.3,9.4c-2,2.2-5,4.9-8.9,5.6c-6.9,1.3-13.8-6.3-13.8-6.3l-11.9,1.3
				c-5.7-1.1-20.4-10.7-31.3-18.1c-7.2-4.9-12.7-8.9-12.7-8.9c-14.8,11.9-29.3,19.8-37.5,23.8v0c-4.4,2.1-7,3.2-7,3.2
				s-3.1,2.5-7.5,2.5c-4.4,0-8.2-3.8-6.9-11.3s14.4-4.9,14.4-4.9c-1.8,2.1,0,4.2,0,4.2c2.5,1.9,7.5-1.9,20.1-8.8
				c9.5-5.2,21.3-14.8,26.3-19.2c-0.1,0.3-0.2,0.5-0.2,0.8c0,0.6,0.3,1.3,0.8,1.7c4.6,4,17,14.2,27,19.7
				c12.6,6.9,17.6,10.7,20.1,8.8c0,0,3.1-3.8-3.1-6.3c0,0-17.7-4.7-40-25.7c-0.9-0.9-2.3-1-3.3-0.5c0.1-0.3,0.2-0.6,0.2-0.9l8.6-7.5
				l32,21.3l26.4,13.8C456.5,166.6,459.1,167.8,460.6,169.6z"/>
			<line class="st19" x1="381.7" y1="152.6" x2="383.4" y2="243.3"/>
			<line class="st20" x1="393.6" y1="241.2" x2="394.4" y2="161.4"/>
			<line class="st21" x1="355" y1="237.7" x2="344.2" y2="176.4"/>
		</g>
	</g>
	<g>
		<linearGradient id="SVGID_4_" gradientUnits="userSpaceOnUse" x1="518.075" y1="519.049" x2="549.9656" y2="553.2476">
			<stop  offset="0" style="stop-color:#BA8E35"/>
			<stop  offset="0.7241" style="stop-color:#E0B539"/>
			<stop  offset="1" style="stop-color:#E0B539"/>
		</linearGradient>
		<path class="st22" d="M606.1,476.2L496.3,581.6c0,0-3.8,0.6,0.6,8.2c4.4,7.5,1.3,11.3,1.3,11.3s-28.3,29.5-41.4,31.4
			c-13.2,1.9-30.1-20.7-30.1-20.7c-1.3-5,3.1-8.2,3.1-8.2l2.2-2l27.1-25.1h0l4.6-4.3c7.5-6.9,14.4,1.3,14.4,1.3
			c6.3,2.5,10.7-1.9,10.7-1.9l103.9-105.8h0l0.3-0.3l0,0c0-15.9,4.2-18.8,8.8-23.4c0,0,0.1-0.1,0.1-0.1c1-1,2.1-2.1,3.1-3.5
			c5.7-7.5,10-3.8,10-3.8l18.8,17C638.2,466.8,606.1,476.2,606.1,476.2z"/>
		<radialGradient id="SVGID_5_" cx="452.1243" cy="599.4819" r="29.3484" gradientUnits="userSpaceOnUse">
			<stop  offset="0" style="stop-color:#F9F9F9"/>
			<stop  offset="0.5553" style="stop-color:#FDFDFD"/>
			<stop  offset="1" style="stop-color:#FFFFFF;stop-opacity:0"/>
		</radialGradient>
		<path class="st23" d="M483.4,594.4c0,0-1.9,1.9-1.9,2.5s-1.9,1.3-2.5,1.3c-0.6,0-1.9,1.3-1.9,1.3l-1.3,0.6l-1.9,3.1l-1.3,1.9
			l-1.3,0.6l-1.9,0.6l-1.9,1.3l-1.9,1.9H464l-0.6,0.6l-0.6,1.3l-0.6,0.6h-0.6v1.3h-1.3v1.3l-1.9,0.6l-1.3,0.6l-0.6,1.3v0.6l-3.8,1.3
			l-0.6,1.3l-1.9-0.6l-1.3,0.6l-0.6-1.3c0,0-1.3,0.6-1.9,0.6c-0.6,0,0-0.6,0-0.6h-1.3v-0.6l-1.3,0.6v-1.3h-2.5l0.6-0.6h-1.9
			c0,0-0.6-1.3,0-1.9c0.6-0.6-1.9,0-1.9,0l0.6-1.3h-1.3l0.6-1.3H437v-1.3h-1.3v-1.9h-0.6v-0.6l-0.6-1.3V607l-1.3-1.3v-2.5h-0.6
			l0.6-0.6v-1.3l0.6-1.7l27.1-25.1h0l1.1-0.2l1.3-0.6l3.8,1.9l1.9,1.3h2.5l0.6,3.8l-2.5,1.9l-0.6,1.3l-1.9,1.3l-0.6,1.3l-3.1,1.9
			l-1.9,1.9l-0.6,3.1v3.8h1.3l1.9-0.6l2.5-1.3l0.6-1.3l3.1-1.9l1.3-0.6l0.6-0.6v-1.3h1.9l1.3-1.9l2.5-0.6l1.3-0.6h1.3l1.3,1.9
			l0.6,1.9l0.6,2.5L483.4,594.4z"/>
		<path class="st24" d="M614.2,454.6c0,0-10.2,15-21.3,10.9l0,0c0-15.9,4.2-18.8,8.8-23.4c0,0,0.1-0.1,0.1-0.1L614.2,454.6z"/>
	</g>
	<g>
		<path class="st25" d="M417,296.8c-16.5,7.9-16.5,17.7-16.5,17.7V381c-4.2,1-7.5,2.4-9.7,4.1v-77.8
			C390.8,307.3,397.1,297.4,417,296.8z"/>
		<line class="st26" x1="500.6" y1="388.6" x2="500.6" y2="388.6"/>
		<path class="st27" d="M502.9,391.3c-0.8,4.4-5.5,5.1-10.2,6.1c-5.7,1.3-33.6-5.7-63.5-8.2c-24.6-2.1-35.4,6.1-38.4,9v-5.9
			c3.1-3.1,12.8-9.6,38.7-7.2c33.6,3.1,54.6,8.8,62.8,8.8c8,0,8.2-5.1,8.2-5.3c1.1-0.2,1.8-0.4,2.2-0.8
			C503,389.2,503,390.3,502.9,391.3z"/>
		<path class="st28" d="M502.4,395.8c-1.5,3.2-5.6,3.8-9.7,4.8c-5.7,1.3-33.6-5.7-63.5-8.2c-24.6-2.1-35.4,6.1-38.4,9v-3.1
			c3-2.9,13.8-11.1,38.4-9c29.8,2.5,57.8,9.4,63.5,8.2c4.7-1,9.3-1.8,10.2-6.1C503.1,393.2,502.9,394.6,502.4,395.8z"/>
		<path class="st26" d="M502.9,391.3c0-0.1,0-0.2,0-0.3"/>
		<path class="st29" d="M390.8,345.9v38.9l-10-1v-80.1c5.8,1.7,9.7,3.3,9.7,3.3L390.8,345.9z"/>
		<path class="st30" d="M380.8,303.7v80.1l-2.2-0.2c-11.1-2.7-22.3-4.9-33.2-8.2c-9.3-2.7-18.6-6.4-23-15.7
			c-0.8-1.6-0.8-5.4-2.4-6.2c-1.4-0.8-4.2-0.7-5.8-1c-1.8-0.3-3.6-0.7-5.4-1c0,0,0,0,0,0c-6.9-5.1-12.4-13.4-12.2-21.2
			c0.3-10.3,3.5-20.8,7.1-30.7c13.1,0.7,33.1,1.4,44.2-0.2C358.4,297.9,371.8,301,380.8,303.7z"/>
		<linearGradient id="SVGID_6_" gradientUnits="userSpaceOnUse" x1="434.872" y1="395.8052" x2="434.872" y2="408.0464">
			<stop  offset="0" style="stop-color:#F2F2F2"/>
			<stop  offset="0.3264" style="stop-color:#F1F0F0"/>
			<stop  offset="0.4697" style="stop-color:#EDE9E9"/>
			<stop  offset="0.5772" style="stop-color:#E7DEDC"/>
			<stop  offset="0.6669" style="stop-color:#DECDCA"/>
			<stop  offset="0.7454" style="stop-color:#D2B8B3"/>
			<stop  offset="0.8161" style="stop-color:#C39D96"/>
			<stop  offset="0.881" style="stop-color:#B17E74"/>
			<stop  offset="0.9405" style="stop-color:#9D5A4D"/>
			<stop  offset="0.9952" style="stop-color:#873221"/>
			<stop  offset="1" style="stop-color:#852E1D"/>
		</linearGradient>
		<path class="st31" d="M478.9,403.1l-88.1,5v-2.9c3-2.9,13.8-11.1,38.4-9C448.4,397.8,466.7,401.2,478.9,403.1z"/>
		<path class="st32" d="M500.3,401.9L500.3,401.9c-2,1.3-4.8,1.8-7.6,2.4c-2,0.5-6.9-0.1-13.8-1.2h0c-12.2-1.9-30.6-5.3-49.7-6.9
			c-24.6-2.1-35.4,6.1-38.4,9v-3.8c3-2.9,13.8-11.1,38.4-9c29.8,2.5,57.8,9.4,63.5,8.2c4.1-0.9,8.2-1.6,9.7-4.8
			C502.7,398.7,502,400.8,500.3,401.9z"/>
		<path class="st33" d="M502.4,395.8c0.5-1.1,0.7-2.6,0.4-4.5c0.2-0.9,0.2-2.1,0-3.4v0c1.4-1.1-0.3-2.7-0.3-2.7l-21.3-85.7l11.5-0.6
			l0.7,2.2l30.7,99.5l-23.9,1.3C502,400.8,502.7,398.7,502.4,395.8z"/>
		<line class="st26" x1="481.3" y1="299.4" x2="480.9" y2="299.5"/>
		<path class="st34" d="M332,381.4c-3.8,0.5-7.6,1.1-11.4,1.7c0,0-0.2,0-0.6,0.1c-0.1,0-0.2,0-0.2,0c-0.2,0-0.4,0.1-0.7,0.1
			c-7.4,1.1-40,5-47.8-7.2c-4.3-6.8-5.6-14.8-5.8-21.2c0,0,0,0,0,0l20.2-52.9l5-3.1c0,0,0.3,0,0.9,0.1c-0.7,3.1-1.3,5.9-1.8,8.5
			c0,0,0,0,0,0c-0.3,1-0.6,2.1-0.9,3c-1.2,3.8-1.7,8-1.6,12.3c0,0,0,0,0,0c0,0.3-0.1,0.6-0.1,0.9v0l-3.4,9.7c0,0-3.8,10.7-6.9,18.8
			c-3.1,8.2-2.5,18.2,1.9,23.9c4.4,5.7,20.1,2.5,39.6,3.8C322.1,380.1,326.8,380.6,332,381.4z"/>
		<path class="st35" d="M319,383.3c-17.1,2.6-33.3,5.2-46.6,1.6c-6.9-1.9-12.2-4.2-16.1-6.4l9-23.6c0.2,6.4,1.5,14.4,5.8,21.2
			C279,388.3,311.6,384.3,319,383.3z"/>
		<path class="st30" d="M380.8,404.2v3.9h-4.1l-127.4-4.3l-2.5-0.1l4.3-11.1l0.4-1.1c0.9,0.7,2,1.5,3.3,2.3c0,0,0,0,0,0
			c11.8,3.6,32.8,8.4,57.1,7h0c0,0,0,0,0,0h0.1c11.9-1.8,24.4-4,36.6-4.6c8.5-0.4,14.8,0.3,19.5,1.3c0,0,0,0,0,0
			C378.2,399.8,380.8,404.2,380.8,404.2z"/>
		<path class="st36" d="M295.8,299.2l-8.5,24.2c0-0.2,0-0.4,0-0.6c0,0,0,0,0,0c-0.1-4.2,0.4-8.4,1.6-12.3c0.3-1,0.6-2,0.9-3
			c0,0,0,0,0,0c0.5-2.6,1.1-5.4,1.8-8.5c0.5,0,1.2,0.1,2,0.1C294.2,299.1,294.9,299.1,295.8,299.2z"/>
		<path class="st28" d="M500.6,388.6c0,0.3-0.2,5.3-8.2,5.3c-8.2,0-29.2-5.7-62.8-8.8c-25.9-2.4-35.6,4.1-38.7,7.2v-7.2
			c2.3-1.8,5.6-3.1,9.7-4.1c16.7-4.1,46.9-2.4,75,4.1C490.1,388.5,497.3,389.1,500.6,388.6z"/>
		<line class="st37" x1="390.8" y1="408.4" x2="390.8" y2="408"/>
		<path class="st38" d="M380.8,383.8v3.6c-0.1,0-0.2-0.1-0.4-0.1h0c-1.5-1.9-8.5-8.3-30.2-7.6h0c-9.9-2.6-19.8-5.3-26.2-7.5
			c-17-5.7-30.1-10.7-33.9-24.5c-2.2-8.2-3.8-13.5-2.9-24.1v0l0.1-0.3c0.3,6.4,1.9,12.9,4.8,18.3c3.3,6.3,9.6,8.5,16.2,9.7
			c0.1,0,0.2,0,0.3,0.1c0,0,0,0,0,0c1.8,0.4,3.6,0.7,5.4,1c1.6,0.3,4.4,0.2,5.8,1c1.6,0.8,1.7,4.6,2.4,6.2c4.5,9.3,13.7,13,23,15.7
			c10.9,3.2,22.2,5.5,33.2,8.2L380.8,383.8z"/>
		<path class="st26" d="M323.9,352.2"/>
		<path class="st39" d="M308.6,351.5c-0.1,0-0.2,0-0.3-0.1c-6.6-1.3-12.9-3.5-16.2-9.7c-2.9-5.4-4.5-11.9-4.8-18.3v0l8.5-24.2
			c2.1,0.1,4.8,0.3,7.8,0.5c-3.6,9.9-6.8,20.4-7.1,30.7C296.2,338.1,301.7,346.4,308.6,351.5z"/>
		<path class="st40" d="M350.1,379.8c-0.6,0-1.1,0-1.7,0.1c-5.5,0.3-11,0.8-16.5,1.6c-5.2-0.8-9.9-1.3-13.7-1.6
			c-19.5-1.3-35.2,1.9-39.6-3.8c-4.4-5.7-5-15.7-1.9-23.9c3.1-8.2,6.9-18.8,6.9-18.8l3.4-9.7c-0.9,10.6,0.6,15.9,2.9,24.1
			c3.8,13.8,17,18.8,33.9,24.5C330.3,374.4,340.2,377.1,350.1,379.8z"/>
		<linearGradient id="SVGID_7_" gradientUnits="userSpaceOnUse" x1="316.0811" y1="404.1917" x2="316.0811" y2="389.5642">
			<stop  offset="0" style="stop-color:#F2F2F2"/>
			<stop  offset="0.2622" style="stop-color:#E9E9E9"/>
			<stop  offset="0.6949" style="stop-color:#D0D0D0"/>
			<stop  offset="1" style="stop-color:#BABABA"/>
		</linearGradient>
		<path class="st41" d="M380.8,397.9v6.3c0,0-2.5-4.4-12.8-6.7c0,0,0,0,0,0c-4.7-1.1-11-1.7-19.5-1.3c-12.2,0.6-24.7,2.8-36.6,4.6
			h-0.1c0,0,0,0,0,0h0c-24.3,1.4-45.3-3.4-57.1-7c0,0,0,0,0,0c-1.2-0.8-2.3-1.5-3.3-2.3l0.4-1l0.3-0.9c13,4.3,42.7,11.9,75.9,6.3
			C361,390.2,375.9,395.4,380.8,397.9z"/>
		<linearGradient id="SVGID_8_" gradientUnits="userSpaceOnUse" x1="316.4389" y1="397.8887" x2="316.4389" y2="378.402">
			<stop  offset="0" style="stop-color:#F2F2F2"/>
			<stop  offset="0.2622" style="stop-color:#E9E9E9"/>
			<stop  offset="0.6949" style="stop-color:#D0D0D0"/>
			<stop  offset="1" style="stop-color:#BABABA"/>
		</linearGradient>
		<path class="st42" d="M380.8,387.9v10c-4.8-2.5-19.7-7.6-52.7-2.1c-33.2,5.6-62.9-2-75.9-6.3l0.4-1.1l0.4-1l0.4-0.9l0.4-1.1l0.4-1
			l0.3-0.9l0-0.1l0.8-2l0.3-0.8l0.1-0.2l0.4-1l0.4-1c3.9,2.2,9.1,4.5,16.1,6.4c13.2,3.6,29.5,1.1,46.6-1.6c0.3,0,0.5-0.1,0.7-0.1
			c0.1,0,0.2,0,0.2,0c0.4-0.1,0.6-0.1,0.6-0.1c3.8-0.6,7.6-1.2,11.4-1.7c5.5-0.7,11-1.3,16.5-1.6c0.6,0,1.1-0.1,1.7-0.1h0
			c21.8-0.7,28.7,5.7,30.2,7.6h0c0,0.1,0.1,0.1,0.1,0.1l0,0C380.7,387.7,380.8,387.9,380.8,387.9z"/>
		<line class="st26" x1="417" y1="296.8" x2="417" y2="296.8"/>
		<path class="st43" d="M533.6,406.2l-142.5,6.3l-145-3.8l3.2-4.9l127.4,4.3h13.8l0.3,0l88.1-5h0c6.8,1.1,11.7,1.7,13.8,1.2
			c2.8-0.6,5.7-1.1,7.6-2.4h0l23.9-1.3l-10.4-33.6l-12.6-40.8l-7.8-25.1l3.7-2.2l9.3,27.3l13.8,40.8L533.6,406.2z"/>
		<path class="st44" d="M502.8,387.9L502.8,387.9c-0.4,0.3-1.1,0.6-2.2,0.8c-3.4,0.5-10.5-0.1-25.1-3.5c-28.2-6.5-58.3-8.2-75-4.1
			v-66.5c0,0,0-9.8,16.5-17.7h0c5.2-0.2,11.2,0.3,18.3,1.7c34.5,6.9,45.8,0.6,45.8,0.6l0.1,0.3l6.6,26.7l10.1,40.8l4.5,18.2
			C502.5,385.2,504.2,386.8,502.8,387.9z"/>
		<path class="st29" d="M390.8,384.8l1.3,23.2l-1.6,0h-9.7v-20.2c0,0-0.1-0.1-0.2-0.4l0,0c0,0-0.1-0.1-0.1-0.1
			c0.1,0,0.3,0.1,0.4,0.1l0.6-3.6L390.8,384.8z"/>
		<path class="st45" d="M255.5,380.6c13.7,4.3,42.4,11.2,74.4,5.8c29.1-4.9,44.1-1.5,50.6,1.1"/>
		<path class="st45" d="M254.4,383.6c13.5,4.3,42.5,11.4,74.9,5.9c30.5-5.2,45.6-1.1,51.5,1.5"/>
		<path class="st45" d="M253.3,386.6c13.3,4.3,42.6,11.6,75.4,6.1c31.7-5.4,46.7-0.8,52.1,1.8"/>
		<path class="st46" d="M367.9,397.5c-8.5-1.3-21.5-1.7-40.5,1.5c-5.3,0.9-10.5,1.5-15.5,1.7c0,0-0.1,0-0.1,0"/>
	</g>
	<polygon class="st1" points="69.9,448.6 87.3,425.9 94.8,453.4 121.7,462.9 97.8,478.5 97.1,507.1 74.9,489.2 47.5,497.4 
		57.7,470.7 41.4,447.2 	"/>
	<polygon class="st1" points="695.2,448.6 712.6,425.9 720,453.4 747,462.9 723.1,478.5 722.4,507.1 700.2,489.2 672.8,497.4 
		682.9,470.7 666.7,447.2 	"/>
</g>
</svg>
