<?xml version="1.0" encoding="utf-8"?>
<!-- Generator: Adobe Illustrator 24.0.0, SVG Export Plug-In . SVG Version: 6.00 Build 0)  -->
<svg version="1.1" id="Layer_1" xmlns="http://www.w3.org/2000/svg" xmlns:xlink="http://www.w3.org/1999/xlink" x="0px" y="0px"
	 viewBox="0 0 408.46 408.39" style="enable-background:new 0 0 408.46 408.39;" xml:space="preserve">
<style type="text/css">
	.st0{fill:#039458;}
	.st1{fill:#EDEA5A;}
</style>
<path class="st0" d="M408.46,204.25c-0.1,113.07-91.56,204.04-203.74,204.14C91.12,408.5-0.21,317.1,0,203.71
	C0.21,91.62,90.39,1.58,201.05,0C316.49-1.65,408.56,91.43,408.46,204.25z M34.24,209.07c0.8,0.44,1.19-0.29,1.67-0.63
	c2.78-1.98,5.67-3.84,8.27-6.04c1.81-1.54,3.02-1.26,4.72,0.09c3.09,2.47,6.38,4.7,9.73,7.13c0.25-1.12-0.19-1.79-0.41-2.47
	c-1.11-3.54-2.23-7.07-3.46-10.57c-0.38-1.09-0.24-1.69,0.74-2.36c2.93-2.02,5.78-4.17,8.65-6.28c0.73-0.53,1.6-0.93,2.19-2.01
	c-4.43,0-8.58-0.11-12.73,0.05c-1.84,0.07-2.61-0.55-3.11-2.27c-1.17-4.06-2.54-8.06-4.02-12.68c-1.54,4.71-2.93,8.77-4.17,12.88
	c-0.46,1.52-1.13,2.11-2.79,2.06c-4.26-0.13-8.52-0.04-12.78-0.04c3.34,2.96,6.76,5.53,10.28,7.97c1.24,0.86,1.54,1.65,1.05,3.11
	c-1.36,4-2.54,8.05-3.79,12.09c-0.05,0.05-0.1,0.1-0.13,0.16c-0.01,0.02,0.05,0.07,0.08,0.1C34.24,209.26,34.24,209.16,34.24,209.07
	z M124.93,341.21c-0.08-0.08-0.16-0.16-0.24-0.24c-0.05-0.81-0.07-1.62-0.16-2.43c-0.38-3.45-2.69-5.11-5.91-3.93
	c-1.64,0.6-2,0.43-2.39-1.3c-1.28-5.65-6.41-7.69-11.35-4.67c-2.53,1.55-4.13,3.85-4.9,6.66c-1.28,4.67,1.94,9.96,6.49,10.83
	c1.72,0.33,3.35,0.15,4.33-1.48c1.11-1.86,1.63-3.89,0.39-5.9c-0.75-1.22-2-1.76-3.45-1.66c-1.47,0.11-2.44,0.91-3.06,2.25
	c-0.23,0.5-0.03,1.18-0.65,1.55c-1.43-1.28-1.98-2.82-1.33-4.62c0.73-2.03,2.17-3.35,4.36-3.69c4.49-0.68,7.68,2.42,7.83,7.45
	c0.02,0.87-0.84,2.17,0.39,2.58c1.34,0.44,1.24-1.15,1.71-1.86c1.51-2.24,3.78-2.27,5.16,0.06c1.09,1.84,0.92,3.66-0.27,5.44
	c-2.67,4.02-5.15,8.18-8,12.06c-1.75,2.38-1.96,4.57-0.75,7.13c0.74-0.31,0.94-1.01,1.29-1.53c5.51-8.38,11.02-16.75,16.44-25.18
	c0.92-1.42,1.58-1.75,3.03-0.66c1.53,1.16,3.13,2.31,4.93,3.04c0.12-3.33-1.47-5.38-4.26-6.71c-1.06-0.51-2.04-1.23-2.98-1.95
	c-8.25-6.25-18.25-10.04-25.17-18.17c-1.93-2.27-2.21-2.63-0.76-5.38c0.42-0.8,1.32-1.5,0.57-2.72c-2.78,2.42-4.74,5.53-7.35,8.51
	c0.89-6.39,0.51-7.96-3.42-10.86c-1.93-1.43-1.6-2.52-0.3-3.94c0.93-1.01,1.47-2.12,0.89-3.76c-3.84,3.27-7.56,6.43-11.27,9.59
	c0.83-3.28,1.72-6.21,2.42-9.21c0.46-1.96-0.06-3.39-1.85-4.53c-2.37-1.51-4.91-1.94-7.91-1.64c1.75-3.24,2.49-6.51,0.3-9.26
	c-3.04-3.8-4.71-8.18-6.28-12.61c-3.58-10.1-9.5-19.38-10.57-30.36c-0.22-2.29,1.5-4.21,3.75-3.57c5.27,1.48,8.86,4.61,9.9,10.25
	c0.65,3.54,0.38,6.95-0.95,10.27c-0.94,2.35-1.98,4.67-2.98,7.02c0.98,0.29,1.52-0.25,1.98-0.99c2.83-4.53,4.88-9.34,5.29-14.73
	c0.56-7.47-2.45-12.79-8.77-15.48c-4.38-1.87-6.42-1.23-8.24,2.27c-0.12,0.24-0.38,0.41-0.81,0.87c-0.61-2.73-1.16-5.2-1.74-7.84
	c-2.03,2.03-3.19,4.06-2.09,6.71c0.67,1.61-0.06,1.95-1.51,2.26c-8.35,1.77-16.65,3.8-25.02,5.41c-2.89,0.55-4.43,1.97-5.32,4.53
	c0.51,0.27,1,0.04,1.5-0.07c9.79-2.15,19.58-4.28,29.36-6.47c1.6-0.36,2.46-0.11,2.67,1.7c0.49,4.25,1.31,8.41,3.25,12.3
	c1.09,2.19,1.85,4.53,2.81,6.78c3.53,8.26,5.8,17.11,11.46,24.38c0.99,1.27,0.76,2.8,0.21,4.26c-0.33,0.88-0.69,1.33-1.78,0.76
	c-1.78-0.92-3.77-0.79-5.69-0.59c-2.61,0.27-4.67,2.42-4.77,4.81c-0.09,2.12,1.51,4.06,4.3,4.25c2.41,0.16,2.56,0.94,2.15,3.02
	c-0.47,2.36,1.27,4.72,3.28,5.17c2.01,0.45,4.37-0.99,5.28-3.21c0.55-1.33,0.58-2.75,0.65-4.16c0.1-1.97,0.59-2.3,2.43-1.59
	c1.47,0.57,2.43,1.61,2.31,3.19c-0.26,3.49-1.14,6.69-4.28,8.89c-4.44,3.11-8.69,6.51-13.22,9.47c-2.47,1.62-3.18,3.64-2.96,6.52
	c0.88-0.62,1.65-1.15,2.41-1.72c7.88-5.84,15.77-11.65,23.61-17.54c1.1-0.82,1.68-0.85,2.43,0.33c0.83,1.31,1.83,2.53,2.78,3.76
	c0.18,0.23,0.45,0.9,0.73,0.46c1.03-1.65,1.13,0.08,1.3,0.4c1.26,2.35,0.69,5.27-1.45,7.56c-5.12,5.49-10.17,11.04-15.45,16.37
	c-1.91,1.93-1.83,3.89-1.31,6.3c0.39-0.17,0.5-0.56,0.75-0.83c7.12-7.58,14.3-15.1,21.34-22.76c1.43-1.55,2.14-1.33,3.62-0.1
	c2.1,1.74,3.29,4.25,5.72,5.75c6.07,3.73,11.94,7.8,17.94,11.64c1.17,0.75,1.36,1.33,0.51,2.41
	C127.09,338.04,126.29,339.83,124.93,341.21z M105.45,77.82c-3.81-0.96-7.61-1.95-11.53-2.37c-3.6-0.39-4.5,0.19-6.12,3.4
	c-1.58,3.12-1.56,6.37-0.85,9.78c-6.24-2.23-9.09-1.67-13.84,2.55c-2.01,1.79-3.65,3.64-4.86,6.26c-1.87,4.07-4.81,7.64-7.29,11.44
	c-4.87,7.45-9.73,14.91-14.79,22.66c2.2-0.37,1.81,0.56,1.28,1.71c-0.96,2.08-4.54,2.65-6.08,0.73c-3.94-4.9-5.87-10.32-3.51-16.58
	c2.29-6.06,6.56-10.33,12.16-13.39c2.03-1.11,4.02-2.31,6.26-3.6c-2.06-0.55-2.08-0.59-3.1-0.2c-6.76,2.61-12.78,6.29-17.37,12.05
	c-6.17,7.75-6.45,15.96-0.8,23.75c2.16,2.97,4.29,3.6,7.7,2.37c0.8-0.29,1.55-0.86,2.73-0.64c-1.33,3.12-2.62,6.16-3.97,9.33
	c3.77-0.63,6.54-1.97,7.28-5.8c0.33-1.7,1.26-1.66,2.72-1.01c10.24,4.55,20.6,8.83,30.74,13.58c3.39,1.59,5.85,0.66,8.79-1.12
	c-5.88-2.55-11.52-5-17.16-7.46c-6.94-3.02-13.88-6.04-20.8-9.1c-0.7-0.31-1.94-0.42-1.28-1.78c1.8-3.73,2.93-7.78,5.2-11.29
	c5.05-7.79,10.14-15.55,15.22-23.33c1.75-2.67,3.43-5.37,6.05-7.36c1.97-1.5,4.02-1.72,6.3-1.06c1.04,0.3,1.32,0.72,0.94,1.91
	c-0.91,2.84-0.66,5.74,0.3,8.53c0.93,2.69,3.93,4.57,6.64,4.29c2.3-0.24,4.03-2.12,4.55-5.09c0.17-0.94,0.26-1.96,0.07-2.87
	c-0.27-1.29,0.06-1.62,1.29-1.28c0.5,0.14,1.02,0.21,1.54,0.25c2.97,0.2,6.07-1.93,6.64-4.55c0.58-2.66-1.4-5.59-4.43-6.61
	c-1.08-0.36-2.19-0.39-3.3-0.39c-1.11,0-2.23,0.04-3.34,0.14c-1.03,0.1-1.52-0.31-1.63-1.32c-0.21-2.09,1.34-4.66,3.39-4.89
	c4.32-0.47,8.56-0.04,11.73,3.39c5.15,5.56,10.35,11.09,15.17,16.92c2.35,2.84,5.01,2.23,8.32,2.38
	c-4.81-5.22-9.23-10.02-13.65-14.82c-4.98-5.41-9.97-10.82-14.94-16.24c-0.5-0.55-1.45-1.14-0.26-1.92
	c5.4-3.57,10.47-2.56,13.62,2.44c4.78,7.61,9.86,15.03,14.43,22.76c1.95,3.29,4.39,4.94,8.04,5.14c0.12-0.55-0.31-0.91-0.57-1.32
	c-2.99-4.7-5.98-9.4-8.99-14.09c-4.45-6.94-8.91-13.88-13.34-20.83c-0.42-0.65-1.36-1.32-0.03-2.16c2.94-1.86,5.68-4.23,8.72-5.69
	c7.68-3.69,15.7-6.69,23.59-9.95c0.43-0.18,0.86-0.47,1.32,0.19c0.77,1.11,2.83,7.12,2.77,8.55c-6.96-5.26-10.91-2.54-11.66,4.13
	c-1.11-0.43-2.19-0.92-3.3-1.27c-4.24-1.3-8.57,0.09-10.69,3.38c-2.8,4.37-1.9,11.22,2.08,15.74c3.29,3.74,8.79,4.66,13.69,2.25
	c2.35-1.15,4.15-2.94,4.06-5.64c-0.09-2.76-1.98-4.57-4.39-5.72c-2.03-0.97-4.34-0.29-5.75,1.53c-1.33,1.71-1.23,3.92,0.21,5.74
	c0.34,0.43,1.06,0.61,0.96,1.36c-3.56,0.58-5.85-0.64-6.9-3.67c-1.28-3.67,0.52-7.83,4.07-9.55c4.19-2.04,7.61-0.42,10.88,2.14
	c0.5,0.39,0.89,1.32,1.83,0.51c0.87-0.75,0.23-1.28-0.11-1.89c-0.29-0.52-0.61-1.02-0.83-1.57c-1.1-2.76,0.28-4.91,3.27-5.12
	c2.69-0.19,4.95,1.37,6.14,4.23c2.5,6.03,5.24,11.98,7.42,18.12c1.22,3.42,3.75,4.09,6.87,4.99c-0.38-0.98-0.62-1.66-0.9-2.33
	c-5.01-12.07-10-24.14-15.08-36.18c-0.66-1.57-0.56-2.31,1.13-2.91c2.51-0.9,4.94-2.04,7.84-3.25c-1.86-0.76-3.17-1.27-4.46-1.84
	c-0.87-0.39-1.64-0.36-2.54,0.01c-14.04,5.86-28.09,11.68-42.14,17.52c-0.32,0.13-0.61,0.33-0.9,0.49c0.27,0.71,1.33,0.42,1.42,1.13
	c-1.34,1.83-2.81,1.53-4.29,0.41c-0.88-0.67-1.77-1.37-2.5-2.19c-0.7-0.79-1.42-0.97-2.59-0.61c2.55,3.71,5.05,7.35,7.75,11.27
	c-1.56-0.09-2.22-0.87-3.04-1.3c-3.06-1.63-6.61-1.36-9.23,0.97c-1.62,1.45-3.12,1.13-4.58-0.07c-1.48-1.22-3.09-1.52-5.33-0.99
	c4.88,4.61,9.54,9.02,14.2,13.42C105.66,77.56,105.55,77.69,105.45,77.82z M241.26,385.72l0.06,0.07l-0.03-0.06
	c-1.56-10.79-3.12-21.59-4.68-32.38c-0.09-0.6-0.59-1.6,0.41-1.62c3.25-0.07,6.51-2.43,9.78,0.14c1.12,0.88,2.64,0.81,4.08,0.68
	c1.62-0.14,3.26-0.28,4.89-0.22c2.37,0.09,4.2,1.28,5.57,3.21c0.71,1.01,1.11,1.76-0.64,2.08c-1.17,0.21-2.21,0.86-3.15,1.6
	c-2.66,2.07-3.09,5-1.19,7.88c1.66,2.52,4.55,3.1,7.41,1.49c1.49-0.84,2.42-2.16,3.13-3.66c0.25-0.52,0.36-1.2,1.2-1.02
	c3.75,0.83,7.39,1.77,9.9,5.13c0.91,1.22,1.57,3.03,3.76,3.23c-0.24-0.7-0.39-1.18-0.57-1.65c-3.67-9.31-7.28-18.65-11.08-27.91
	c-0.79-1.93-0.29-2.56,1.44-3.14c1.89-0.64,3.97-1.16,5.5-2.34c5.57-4.33,11.58-8.01,17.27-12.15c0.76-0.55,1.23-0.53,1.79,0.3
	c2.75,4.14,5.55,8.24,8.33,12.36c-0.13,0.13-0.26,0.25-0.38,0.38c-0.62-0.24-1.24-0.47-1.85-0.73c-3.11-1.33-6.27-2.46-9.71-1.65
	c-3.45,0.81-5.85,2.87-6.7,6.41c-0.79,3.27,0.57,5.83,3.04,7.84c2.52,2.04,6.79,0.99,8.74-2.05c1.36-2.12,0.28-4.66-2.63-6.35
	c-0.67-0.39-1.55-0.45-2.07-1.3c2.4-2.02,5.11-1.97,7.8-1.11c5.95,1.91,10.88,5.37,14.72,10.33c0.59,0.76,1.08,1.6,2.25,1.51
	c0.07-0.7-0.46-1.08-0.77-1.53c-5.08-7.41-10.18-14.81-15.26-22.22c-1.08-1.58-3.17-3.19-2.88-4.77c0.29-1.61,2.89-2.27,4.4-3.46
	c0.58-0.46,1.68-0.63,1.55-1.6c-0.19-1.38,0.92-1.78,1.66-2.22c0.78-0.46,1.22,0.6,1.68,1.09c5.96,6.23,11.99,12.39,17.75,18.8
	c1.89,2.1,3.84,2.26,6.28,1.94c-0.19-1.02-0.94-1.45-1.48-2.02c-6.73-7.13-13.49-14.24-20.22-21.37c-0.4-0.43-1.44-0.92-0.8-1.56
	c1.65-1.66,3-4.2,5.38-4.43c3.18-0.31,5.02-1.96,6.94-4.15c3.04-3.46,8.62-2.14,10.05,2.22c0.39,1.19,0.77,2.4,1.03,3.63
	c0.67,3.1-0.2,4.02-3.29,3.57c-0.29-0.04-0.59-0.1-0.87-0.2c-1-0.37-1.33-0.06-1.25,1.01c0.09,1.15,0.55,1.77,1.75,1.81
	c1.26,0.04,2.52,0.19,3.78,0.21c4.85,0.08,6.79-2.44,5.5-7.1c-0.75-2.72-1.97-5.3-2.35-8.13c-0.21-1.55-0.14-3.06,1.49-3.84
	c1.75-0.84,3.51-1.66,5.41-0.2c3.12,2.39,6.43,4.56,9.42,7.11c2.21,1.89,4.47,1.9,7.32,1.31c-1.02-0.81-1.81-1.47-2.63-2.08
	c-7.86-5.86-15.71-11.74-23.6-17.55c-1.06-0.78-1.08-1.32-0.29-2.28c1.29-1.58,2.45-3.25,3.76-5.02c-2.86-0.28-4.97,0.38-6.45,2.58
	c-1.05,1.57-2.07,3.17-3.27,4.63c-6.68,8.1-11.4,17.81-20.14,24.21c-1.77,1.3-4.36,0.87-4.94-1.26c-1.27-4.68-1.03-9.15,2.57-12.89
	c2.81-2.92,6.18-4.84,10.21-5.5c2.68-0.44,5.37-0.8,8.25-1.23c-0.71-0.7-1.29-0.98-1.96-1c-6.99-0.21-13.61,0.91-19.33,5.34
	c-4.36,3.37-5.97,7.81-5.22,13.17c0.68,4.9,1.57,5.67,6.57,5.97c0.18,0.01,0.34,0.15,0.74,0.34c-2.99,2.45-5.23,5.44-8.34,7.53
	c-3.33,2.24-6.54,4.65-9.93,6.79c-5.44,3.44-10.21,7.9-16.43,10.14c-6.28,2.26-12.42,4.91-18.66,7.29c-3.18,1.21-6.2,2.99-9.58,3.53
	c-7.62,1.23-15.28,2.23-22.93,3.31c-3.23,0.46-6.49,1.35-9.7,1.2c-8.08-0.37-16.14-1.24-24.21-1.88c-3.51-0.28-7.03-0.5-10.8-0.76
	c0.94,2,2.65,3.02,3.33,4.78c0.72,1.85,2.15,2.96,3.98,3.64c1.39,0.51,2.81,1,4.13,1.66c2.43,1.22,3.81,3.22,4.16,5.94
	c0.15,1.16-0.13,1.69-1.39,1.37c-1.25-0.32-2.5-0.27-3.75,0.01c-3.08,0.71-4.88,3.17-4.51,6.18c0.39,3.13,2.52,4.96,5.73,4.98
	c1.74,0.01,3.24-0.67,4.46-1.78c1.12-1.02,1.86-0.63,2.83,0.14c3.2,2.55,5.45,5.64,6.02,9.8c0.14,1.05,0.2,2.23,1.62,2.93
	c0.2-2.59,0.39-5,0.58-7.41c0.64-8.22,1.28-16.44,1.95-24.66c0.05-0.64-0.27-1.78,0.85-1.73c2.95,0.13,5.99-0.12,8.77,0.99
	c1.83,0.73,3.59,1.34,5.57,1.29c1.72-0.05,3.4,0.23,5.03,0.83c1.29,0.47,1.68,0.96,0.51,2.12c-1.53,1.51-2.93,3.16-4.32,4.81
	c-3.32,3.92-3.32,3.94,0.43,7.42c0.77,0.72,1.34,1.73,2.75,1.56c6.95-0.84,11.68,2.88,15.73,7.88
	C239.01,383.48,239.62,385.08,241.26,385.72z M245.14,88.17c4.54-13.6,9.03-26.96,13.43-40.36c0.5-1.53,0.98-1.83,2.63-1.39
	c9.23,2.49,17.24,7.55,25.64,11.81c0.66,0.33,1.93,0.34,1.32,1.78c-0.51,1.21-1.15,1.61-2.55,1.37c-8.49-1.5-17.02-1.21-25.54-0.24
	c-1.01,0.11-1.42,0.35-1.19,1.51c0.44,2.18,0.75,4.39,0.99,6.61c0.12,1.08,0.59,1.74,1.47,2.31c3.11,2.04,5.38,4.85,7.25,8.03
	c2.26,3.84,3.06,7.98,2.95,12.39c-0.06,2.44-0.25,4.94,0.79,7.65c0.56-0.96,0.95-1.57,1.29-2.22c5.95-11.39,11.88-22.78,17.85-34.16
	c0.36-0.69,0.54-2.19,1.56-1.7c1.48,0.71,3.96,0.73,4.02,2.9c0.07,2.51,1.16,4.2,2.88,5.74c0.77,0.69,1.52,1.43,2.19,2.22
	c2.62,3.13,1.68,10.26-1.69,11.44c-2.85,1-5.85,1.73-8.93,1.77c-2.17,0.02-3.03-0.87-2.77-3.01c0.17-1.38,0.61-2.73,0.97-4.25
	c-1.27,0.38-3.1-1.06-3.73,1.07c-0.76,2.56-1.16,5.24-1.01,7.93c0.21,3.76,3.27,6.24,6.96,5.64c2.12-0.35,4.2-0.96,6.3-1.42
	c1.89-0.41,3.77-0.88,5.68-1.1c2.06-0.23,4.12-0.04,5.05,2.28c0.96,2.39,1.66,4.74-0.41,7.06c-3.37,3.77-6.4,7.85-9.97,11.41
	c-2.68,2.68-2.36,5.56-2.05,9.07c8.45-9.87,16.65-19.47,24.88-29.03c1.19-1.39,2.37-3.98,3.75-3.75c1.99,0.33,3.59,2.42,4.97,4.19
	c0.27,0.35,0.53,0.72,0.78,1.09c6.72,9.62,13.59,19.15,20.1,28.91c3.7,5.55,3.2,11.51-3.8,14.67c-8.59,3.88-17.08,7.99-25.74,11.7
	c-3.16,1.36-3.76,3.87-4.75,6.79c0.81-0.34,1.29-0.54,1.75-0.75c12.35-5.67,24.71-11.29,37.01-17.05c1.8-0.84,2.39-0.39,3.04,1.25
	c0.97,2.45,2.18,4.8,3.35,7.32c2.52-4.63,2.55-4.9,0.86-8.61c-1.45-3.19-1.34-3.65,1.38-6c0.45-0.39,0.93-0.74,1.41-1.09
	c0.78-0.57,1.23-1.25,0.88-2.34c-4.56,1.76-8.54,4.58-12.98,6.51c1.6-1.27,2.05-3.45,4.07-4.38c1.09-0.5,0.76-5.45-0.09-6.68
	c-6.76-9.68-13.41-19.45-20.33-29.01c-2.79-3.84-5.19-7.79-9.3-10.91c-10.34-7.85-19.89-16.73-29.78-25.17
	c-0.43-0.37-1.17-1.22-1.36-0.92c-1.15,1.77-2.06,0.13-2.78-0.24c-9.39-4.8-18.72-9.71-28.08-14.56c-0.61-0.31-1.39-1.31-2.01-0.46
	c-0.92,1.27-1.71,0.27-2.36-0.01c-1.06-0.45-0.06-1.12,0.15-1.61c2.27-5.3,0.92-9.62-4.03-12.6c-1.66-1-3.46-1.72-5.32-2.26
	c-4.13-1.21-8.3-2.28-12.37-3.65c-4.78-1.61-5.59-5.11-2.07-8.68c0.84-0.85-0.03-1.15-0.19-1.66c-0.14-0.46-0.46-0.58-1.01-0.23
	c-5.09,3.26-5.52,9.43-0.91,13.49c2.74,2.41,6.08,3.66,9.47,4.81c3.51,1.19,7.05,2.32,10.5,3.66c1.48,0.58,2.62,1.76,2.56,3.58
	c-0.04,1.33-0.47,2.7-1.74,3.13c-1.47,0.49-3.23-0.15-4.05-1.19c-1.37-1.74-3.11-1.83-4.92-2.08c-2.67-0.36-3.72-1.22-4.05-3.84
	c-0.2-1.55-0.92-2.48-2.38-3.19c-1.09,7.39-1.47,14.62-1.78,21.9c-0.35-0.72-0.6-1.47-0.79-2.23c-0.75-2.9-1.82-5.65-3.55-8.12
	c-7.46-10.65-21.54-8.8-28.49,1.41c-0.84,1.24-0.64,2.53,0.12,3.78c0.81,1.31,1.98,1.73,3.44,1.44c1.09-0.22,2.16-0.53,3.26-0.72
	c2.16-0.36,3.4,0.68,3.55,2.88c0.15,2.18-0.68,3.88-2.41,5.21c-0.9,0.69-2,1.19-2.67,2.32c1.22,0.66,2.4,1.16,3.42,1.88
	c1.58,1.11,2.77,0.92,4.29-0.32c4.27-3.46,8.7-6.72,13.08-10.04c0.6-0.46,1.28-1.39,2-0.25c1.7,2.72,3.39,5.5,2.85,8.9
	c-0.94,5.94-1.72,11.92-3.05,17.78c-0.86,3.79,1.34,5.66,3.33,8.04c0.23-0.33,0.36-0.43,0.37-0.55c1.84-13.32,3.68-26.63,5.5-39.95
	c0.3-2.22,2.06-3.2,3.73-1.7c1.55,1.4,3.34,1.89,5.14,2.35c2.06,0.53,2.2,1.42,1.57,3.26c-3.57,10.47-6.8,21.05-10.61,31.42
	C241.92,82.05,242.7,84.96,245.14,88.17z M203.9,90.88c-61.87-0.22-112.74,50.63-112.99,112.93
	c-0.25,62.2,50.23,113.26,112.2,113.75c62.84,0.5,113.51-50.12,114.47-111.52C318.57,142.48,266.81,90.52,203.9,90.88z
	 M98.62,120.39c0,0.19,0.01,0.38,0.01,0.57c-4.92,0.92-8.05,4.08-10.46,8.08c-0.88,1.46-1.62,3-2.4,4.52
	c-0.88,1.73-1.88,3.37-3.29,4.73c-2.7,2.62-5.56,3.18-8.97,1.58c-2.95-1.39-5.52-3.34-7-6.29c-0.9-1.8-2.17-1.51-3.26-0.81
	c-1.22,0.79-0.21,2.07,0.37,2.59c2.44,2.16,4.48,4.76,7.21,6.59c7.89,5.29,14.63,4,19.69-4.04c1.97-3.13,3.39-6.59,5.16-9.85
	c2.54-4.68,4.96-5.72,10.07-4.35c1.64,0.44,3.03,0.24,4.5-0.81c-0.36-0.31-0.61-0.58-0.9-0.77c-9.32-6.1-18.62-12.23-27.97-18.28
	c-4.89-3.17-10.84-0.98-12.28,4.69c-1.61,6.31-0.63,12.47,2.74,18.02c1.85,3.05,4.92,4.84,8.63,4.56c3.1-0.23,4.72-2.57,5.86-5.19
	c0.88-2.02,0.32-3.76-1.36-5.16c-2.78-2.32-5.25-1.78-7.87,1.91c-3.02-4.37-3.51-9.06-2.54-14.03c0.05-0.28,0.26-0.53,0.4-0.79
	c0.69-1.27,1.69-1.63,2.96-0.91c1.22,0.7,2.4,1.47,3.58,2.24C87.2,112.93,92.91,116.66,98.62,120.39z M325.63,92.86
	c-0.97,1.27-1.84,2.36-2.66,3.49c-4.38,6.08-9.01,12.01-11.41,19.26c-2.9,8.73-0.5,17.3,6.34,21.56c6.11,3.81,12.5,3.51,18.58-0.05
	c5.8-3.39,7.2-9.46,8.48-15.45c0.26-1.21-0.39-1.63-1.73-1.45c-2.9,0.39-5.78-0.05-8.59-0.82c-1.18-0.32-2.39-0.7-3.16-2.04
	c0.9-0.1,1.63-0.11,2.34-0.26c2.1-0.46,3.75-1.52,4.22-3.76c0.59-2.81-0.7-4.94-2.82-6.58c-1.94-1.51-4.12-1.58-6.3-0.53
	c-4.33,2.08-6.16,6.96-4.03,11.53c2.43,5.22,6.25,8.75,12.38,9.17c2.6,0.18,2.77,0.81,1.26,2.94c-5.57,7.85-16.47,4.19-19.64-1.82
	c-2.25-4.27-2.88-8.69-2.01-13.37c1.24-6.67,4.5-12.38,8.57-17.66C326.51,95.64,326.86,94.49,325.63,92.86z M341.58,185.61
	c-0.04,0.16-0.08,0.32-0.12,0.49c3.23,2.35,6.39,4.82,9.73,7.01c1.9,1.24,2.24,2.4,1.41,4.53c-1.44,3.73-2.51,7.61-3.73,11.42
	c3.73-2.22,7.13-4.59,10.41-7.12c1.43-1.1,2.44-1.28,3.98-0.03c3.27,2.62,6.77,4.96,10.63,7.75c-1.43-4.47-2.59-8.43-3.99-12.31
	c-0.66-1.82-0.47-2.88,1.24-4.02c3.43-2.27,6.67-4.82,9.99-7.26c-4.41-0.42-8.68-0.49-12.94-0.39c-1.51,0.04-2.23-0.39-2.68-1.89
	c-1.24-4.14-2.67-8.23-4.23-12.97c-1.57,4.82-2.97,9.01-4.27,13.23c-0.36,1.16-0.84,1.64-2.16,1.61
	C350.44,185.54,346.01,185.61,341.58,185.61z M391.97,235.83c-8.08,0.55-13.6,5.84-19.42,11.06c-0.46-1.75-0.86-3.23-1.24-4.71
	c-0.9-3.58-2.85-6.28-6.62-7.05c-3.79-0.77-7.04,0.48-9.57,3.43c-0.77,0.9-1.41,1.91-2.05,2.91c-0.66,1.03-1.76,1.42-2.68,1.04
	c-0.78-0.32-0.05-1.29,0.12-1.96c1.31-5.08,2.62-10.16,3.99-15.45c-2.66,0.99-4.49,2.16-4.97,5.16c-0.58,3.58-1.77,7.05-2.7,10.57
	c-1.57,6-3.15,12.01-4.77,18.23c2.74-1,4.64-2.28,5-5.23c0.22-1.83,0.95-3.59,1.33-5.4c0.27-1.29,1.05-2.07,2.1-2.72
	c0.99-0.61,1.43-0.4,1.56,0.78c0.21,1.92,0.48,3.84,1.39,5.59c1.02,1.98,3.41,3.09,5.22,2.45c1.77-0.63,2.91-2.8,2.5-4.96
	c-0.42-2.21-1.54-4.02-3.45-5.25c-0.66-0.43-1.17-0.76-1.04-1.71c0.31-2.25,2.47-4.65,4.57-4.93c2.24-0.29,3.96,0.93,4.91,3.63
	c1.34,3.8,1.23,7.56-0.42,11.28c-0.96,2.18-2.44,4-4.37,6.22c3.34-0.43,6.1-0.78,8.87-1.14c0.7-0.09,0.91-0.69,1.2-1.21
	C376.25,247.57,383.37,241.03,391.97,235.83z M37.23,286.27c0.39-0.07,0.61-0.07,0.8-0.15c8.25-3.35,16.45-6.81,24.75-10.02
	c3.12-1.2,5.11-5.87,2.61-9.19c-3.59-4.76-8.63-7.27-14.61-6.89c-5.33,0.33-7.71,5.27-4.91,9.43c1.17,1.73,2.89,2.15,4.87,1.17
	c1.96-0.98,2.63-2.31,1.86-4.3c-0.5-1.29,0.01-1.44,1.04-1.31c3.21,0.42,5.93,1.94,8.23,4.1c1.72,1.61,1.36,2.95-0.83,3.88
	c-3.62,1.54-7.27,3.01-10.93,4.46c-1.97,0.78-3.86,1.8-6.45,2.36c1.45-3.72,1.03-7.1-0.5-10.36c-0.97-2.08-2.2-4.05-3.02-6.19
	c-1.57-4.1-0.19-7.1,3.82-8.87c1.86-0.82,3.82-1.33,5.85-1.08c1.27,0.16,1.88-0.36,1.96-1.48c0.1-1.42-1.1-0.91-1.74-0.89
	c-2.61,0.09-5.19,0.56-7.62,1.5c-5.55,2.16-8.02,5.94-7.2,10.85c0.36,2.14,1.22,4.12,2.26,6.02c1.07,1.95,2.22,3.87,3.12,5.9
	c1.56,3.48,1.16,5.24-1.69,7.66C37.9,283.74,37.27,284.69,37.23,286.27z M201.33,75.7c-5.97-0.36-8.33-4.05-9.9-8.4
	c-4.07-11.24,1.37-28.61,15.02-31.41c-3.74-4.57-6.06-4.89-10.78-1.44c-3.09,2.25-5.12,5.33-6.83,8.67
	c-5.13,10.01-3.8,23.54,3.08,31.52c2.24,2.6,5.02,4.14,8.45,4.42c4.83,0.4,8.88-3.34,8.51-7.83c-0.25-3-2.68-5.13-5.52-4.82
	c-3.6,0.39-5.19,2.26-4.79,5.58C198.76,73.51,199.71,74.51,201.33,75.7z M346.05,278.8c4.21-0.02,7.98-3.43,7.92-7.19
	c-0.06-3.93-3.97-7.64-8.08-7.68c-4.35-0.03-7.63,3-7.58,7.02C338.36,275.36,341.77,278.81,346.05,278.8z M380.33,273.05
	c-1.43-1.2-2.69-1.3-4.17-0.91c-5.52,1.43-11.04,2.87-16.4,4.82c-2.5,0.91-5.06,1.74-7.58,3.28c2.1,1,3.91,1.85,5.69,2.74
	c0.83,0.41,1.51,0.28,2.28-0.18C366.55,279.05,373.22,275.84,380.33,273.05z M139.67,373.43c-0.05-0.41-0.06-0.93-0.19-1.43
	c-0.52-2.01-3.13-3.73-5.38-3.46c-2.02,0.24-2.93,1.74-3.13,3.52c-0.27,2.39,1.33,3.45,3.43,3.85c1.61,0.3,1.45,1.22,0.86,2.25
	c-0.64,1.11-1.62,1.9-2.78,2.47c-1.14,0.55-2.34,0.93-3.59,1.1c-0.63,0.08-0.94,0.38-0.85,1.02c0.07,0.45,0.41,0.51,0.81,0.56
	C133.48,383.93,139.69,378.34,139.67,373.43z M265.54,85.15c0-2.5-1.85-4.53-4.18-4.58c-2.43-0.05-4.39,1.89-4.36,4.33
	c0.02,2.47,1.95,4.6,4.17,4.62C263.53,89.55,265.54,87.53,265.54,85.15z M227.37,385.81c1.85-0.03,3.3-1.54,3.31-3.45
	c0-2.01-1.66-3.6-3.74-3.59c-1.9,0.01-3.4,1.48-3.44,3.36C223.46,384.24,225.14,385.84,227.37,385.81z"/>
<path class="st0" d="M265.66,67.45c6.58-1.2,15.03-1.17,18.58,0.06c-3.47,6.64-6.93,13.25-10.38,19.87
	C273.3,79.92,270.61,73.38,265.66,67.45z"/>
<path class="st0" d="M304.31,83.19c3.73-3,3.18-6.96,2.96-11.06c1.81,0.89,2.97,2.22,4.29,3.33c3.01,2.53,5.99,5.11,8.99,7.65
	c0.81,0.69,1.32,1.23,0.35,2.31c-2.86,3.19-5.61,6.48-8.72,10.1c0-2.25,0.04-4.06-0.01-5.86c-0.12-4.43-1.07-5.42-5.46-5.82
	c-0.52-0.05-1.03-0.11-1.54-0.21C304.96,83.59,304.78,83.43,304.31,83.19z"/>
<path class="st0" d="M219.86,50.94c0.03-4.01-1.1-6.91-5.02-8.2c0.2-0.88,0.89-1.34,1.46-1.84c3.61-3.08,10.1-2.93,13.29,0.26
	c0.89,0.89,1.37,1.56-0.06,2.56C226.34,45.95,223.27,48.37,219.86,50.94z"/>
<path class="st0" d="M220.99,354.06c4.03-0.62,7.46-1.13,10.9-1.67c0.75-0.12,1.1,0.15,1.21,0.89c1.14,7.91,2.29,15.83,3.5,24.22
	c-2.58-2.33-4.69-4.52-7.53-5.7c-1.03-0.43-2.04-0.9-3.1-1.23c-2.69-0.82-2.74-0.82-1.07-3.2c1.15-1.64,2.3-3.31,3.69-4.73
	c1.55-1.58,1.04-2.49-0.49-3.61C225.96,357.44,223.93,355.71,220.99,354.06z"/>
<path class="st0" d="M274.1,363.12c-2.91-2.08-6.81-2.56-8.53-6.59c-1.75-4.1-5.24-6.5-9.58-7.62c-1.21-0.31-2.38-0.8-4.22-1.44
	c2.68-1.06,4.85-1.92,7-2.78c2.06-0.82,4.12-1.65,6.17-2.48c0.67-0.27,1.29-0.45,1.64,0.43c2.66,6.71,5.31,13.42,7.96,20.13
	C274.4,362.89,274.25,363,274.1,363.12z"/>
<path class="st0" d="M184.86,353.81c4.56,0.37,9.12,0.76,13.69,1.08c1.21,0.08,0.99,0.85,0.93,1.56
	c-0.54,7.08-1.09,14.16-1.88,21.34c-1.83-3.24-5.36-5.38-5.1-9.93c0.24-4.17-1.66-7.75-4.86-10.55c-1.05-0.92-2.06-1.88-3.09-2.82
	C184.65,354.26,184.75,354.04,184.86,353.81z"/>
<path class="st0" d="M321.63,298.85c2.9-3.94,5.54-7.49,8.15-11.05c0.45-0.62,0.84-0.66,1.45-0.2c2.7,2.04,5.43,4.05,8.61,6.4
	c-2.05,0.13-3.57,0.14-5.07,0.33c-3.12,0.4-3.84,1.14-3.82,4.26c0.01,1.93-0.31,2.2-1.95,0.98
	C326.94,298.06,324.44,298.84,321.63,298.85z"/>
<path class="st0" d="M304.42,337.74c0.17,0.19,0.58,0.35,0.3,0.64c-0.22,0.23-0.52,0.02-0.69-0.25
	C304.16,337.99,304.29,337.87,304.42,337.74z"/>
<path class="st0" d="M105.76,77.43c0.12,0.13,0.37,0.33,0.34,0.37c-0.19,0.3-0.43,0.15-0.66,0.02
	C105.55,77.69,105.66,77.56,105.76,77.43z"/>
<path class="st1" d="M204.63,93.51c61.08,0.07,110.24,50.18,110.33,110.57c0.08,61.26-50.61,112.27-113.45,110.85
	c-58.5-1.33-108.56-49.88-108.01-111.92C94.03,143,143.6,93.06,204.63,93.51z M204.2,306.81c0-0.01,0-0.01,0-0.02
	c4.9,0,9.81-0.05,14.71,0.03c1.71,0.03,1.86-0.44,1.2-1.91c-1.08-2.37-1.75-4.87-1.71-7.54c0.02-1.21,0.4-1.61,1.62-1.81
	c2.85-0.47,5.69-1.07,8.47-1.84c10-2.79,19.35-7.01,27.92-12.92c2.79-1.92,2.82-1.85,4.91,0.69c1.24,1.51,2.29,3.13,2.82,5.01
	c0.46,1.65,1.06,1.93,2.35,0.63c6.85-6.91,13.73-13.79,20.64-20.64c1.16-1.15,1.08-1.85-0.47-2.3c-2.34-0.67-4.23-2.11-6.09-3.59
	c-1.03-0.82-1.62-1.69-0.53-2.96c0.71-0.84,1.25-1.83,1.86-2.76c6.92-10.65,11.47-22.25,13.69-34.74c0.22-1.26,0.72-1.72,2.02-1.76
	c2.7-0.1,5.12,0.76,7.5,1.82c1.15,0.51,1.75,0.45,1.74-1.08c-0.04-9.96-0.03-19.92,0-29.87c0.01-1.56-0.57-1.47-1.74-0.99
	c-2.26,0.93-4.54,1.78-7.08,1.75c-1.52-0.02-2.27-0.35-2.54-1.99c-0.43-2.7-1.06-5.38-1.76-8.03c-2.75-10.42-7.31-20.01-13.52-28.8
	c-1.05-1.48-1.06-2.42,0.41-3.48c1.93-1.39,3.8-2.89,6.1-3.61c1.62-0.5,1.41-1.21,0.42-2.16c-0.86-0.82-1.69-1.67-2.53-2.51
	c-6.04-6.04-12.1-12.06-18.11-18.13c-1.22-1.23-1.92-1.22-2.36,0.55c-0.58,2.3-2.1,4.06-3.45,5.92c-1.01,1.4-1.94,1.56-3.46,0.45
	c-4.87-3.55-10.09-6.49-15.65-8.85c-6.71-2.85-13.54-5.29-20.78-6.34c-1.75-0.25-2.59-0.94-2.41-2.89c0.21-2.32,0.68-4.56,1.67-6.64
	c0.67-1.42,0.6-1.93-1.15-1.92c-9.81,0.05-19.62,0.03-29.43,0.01c-1.38,0-1.95,0.24-1.19,1.76c1,1.99,1.43,4.17,1.73,6.4
	c0.29,2.19-0.59,3.02-2.65,3.37c-13.3,2.29-25.41,7.48-36.43,15.23c-1.08,0.76-2.03,0.81-2.92-0.26c-1.57-1.89-3.13-3.79-3.75-6.24
	c-0.47-1.86-1.24-1.69-2.38-0.54c-6.87,6.89-13.75,13.78-20.64,20.64c-1.21,1.2-0.86,1.86,0.6,2.3c1.73,0.52,3.26,1.43,4.68,2.52
	c2.99,2.3,2.99,2.32,0.89,5.43c-7.39,10.97-12.27,22.96-14.56,35.99c-0.25,1.42-0.82,1.81-2.19,1.82c-2.59,0.02-5.01-0.58-7.29-1.71
	c-1.35-0.67-1.8-0.44-1.8,1.12c0.04,9.88,0.03,19.77,0,29.65c0,1.36,0.31,1.71,1.66,1.13c2.38-1.02,4.78-1.98,7.49-1.81
	c1.23,0.08,1.91,0.29,2.1,1.65c0.27,1.9,0.74,3.77,1.18,5.65c2.64,11.49,7.48,21.97,14.21,31.59c1.02,1.46,0.77,2.47-0.45,3.42
	c-1.75,1.37-3.55,2.68-5.74,3.34c-1.92,0.58-2.04,1.09-0.63,2.51c6.82,6.84,13.67,13.65,20.47,20.5c1.09,1.1,1.84,1.2,2.34-0.4
	c0.71-2.24,2.07-4.07,3.41-5.94c1.05-1.47,2.04-1.64,3.49-0.54c3.07,2.35,6.43,4.26,9.84,6.05c8.59,4.53,17.67,7.66,27.24,9.31
	c1.44,0.25,1.83,0.86,1.81,2.2c-0.03,2.43-0.57,4.71-1.64,6.87c-0.88,1.77-0.37,2.27,1.53,2.23
	C194.69,306.74,199.45,306.81,204.2,306.81z"/>
<path class="st0" d="M124.93,341.21c-0.11,0.08-0.23,0.16-0.34,0.24c0.03-0.16,0.07-0.32,0.1-0.48
	C124.77,341.05,124.85,341.13,124.93,341.21z"/>
<path class="st0" d="M349.48,272.59c0.01,1.69-0.09,2.8-1.11,3.35c-1.1,0.59-2.16,0.06-3.1-0.59c-1.46-1.02-2.36-2.49-2.7-4.18
	c-0.34-1.69-0.44-3.52,1.51-4.41c1.38-0.63,4.25,1.05,4.78,2.75C349.22,270.71,349.36,271.97,349.48,272.59z"/>
<path class="st1" d="M204.23,128.88c42.16,0.43,75.76,33.92,75.22,76.36c-0.52,41.06-33.59,74.96-76.83,74.16
	c-40.44-0.75-74.74-33.37-73.57-77.57C130.1,161.85,162.18,129.42,204.23,128.88z M223.73,224.97c6.86-0.88,10.97,1.62,15.11,3.95
	c1.17,0.66,2.22,1.77,1.98,3.24c-0.25,1.49-1.82,1.34-2.9,1.57c-5.08,1.06-10.22,1.7-15.38,2.19c-1.37,0.13-2.72,0.38-3.32,1.81
	c-1.06,2.53-2,5.11-3.05,7.64c-0.45,1.09-0.41,2.12,0.39,2.9c4.12,4.01,8.81,6.42,14.84,5.41c6.87-1.15,13.75-2.19,20.47-4.05
	c4.49-1.25,9.05-2.38,13.02-5c3.36-2.22,3.38-4.61,0.02-6.94c-4.16-2.89-9.02-3.64-13.85-4.43c-1.31-0.21-2.72-0.14-3.82-0.98
	c-4.49-3.4-8.98-6.78-13.4-10.27c-7.21-5.7-14.7-11.02-22.13-16.42c-1.98-1.44-2.02-1.79,0.08-3.15c4.78-3.11,9.55-6.24,14.3-9.41
	c7.46-4.98,14.89-9.99,22.34-14.98c4-2.68,8.01-5.35,12-8.05c0.89-0.61,1.55-1.43,1.27-2.63c-0.22-0.94-0.83-1.59-1.77-1.81
	c-1.13-0.26-2.01,0.43-2.87,0.99c-3.52,2.31-7.02,4.66-10.52,7c-13.23,8.87-26.48,17.7-39.65,26.66c-1.25,0.85-1.93,0.59-2.88-0.11
	c-4.83-3.56-9.65-7.14-14.5-10.67c-10.6-7.71-21.23-15.38-31.81-23.13c-0.96-0.7-1.64-0.67-2.59-0.15
	c-4.1,2.24-8.21,4.46-12.36,6.61c-1.61,0.83-1.27,1.42-0.01,2.22c9.25,5.89,18.49,11.8,27.73,17.71c7.55,4.83,15.08,9.7,22.66,14.49
	c1.55,0.98,1.32,1.53-0.07,2.44c-5.63,3.68-11.21,7.45-16.8,11.19c-8.19,5.48-16.36,10.98-24.58,16.41
	c-1.35,0.89-1.53,1.51-0.29,2.67c3.46,3.23,6.84,6.56,10.24,9.85c5.01,4.85,10.02,9.71,15.03,14.56c0.67,0.65,1.25,1.59,2.39,0.59
	c4.35-3.81,8.72-7.59,13.1-11.36c1.1-0.95,1.14-1.57-0.11-2.59c-7.36-5.98-14.6-12.11-21.96-18.09c-1.43-1.16-0.84-1.75,0.22-2.46
	c9.04-6.08,18.1-12.13,27.13-18.23c1.22-0.82,2.18-0.82,3.42,0.01c4.56,3.03,9.18,5.98,13.8,8.92
	C217.95,223.15,221.18,225.57,223.73,224.97z M201.01,180.95c0.49-0.86,0.66-1.09,0.77-1.36c1.09-2.68,2.23-5.34,3.25-8.04
	c1.8-4.77,2.06-4.95,7.24-4.16c0.15,0.02,0.29,0.09,0.43,0.1c2.75,0.16,5.5,0.31,8.28,0.46c-0.06-0.99-0.62-1.3-1.06-1.66
	c-2.68-2.22-5.32-4.5-8.09-6.6c-1.25-0.94-1.47-1.8-0.89-3.18c1.43-3.41,2.77-6.87,4.14-10.31c0.16-0.4,0.42-0.82-0.21-1.24
	c-3.28,1.45-6.03,3.89-9.18,5.67c-3.07,1.74-3.02,1.65-5.63-0.64c-2.69-2.36-5.52-4.55-8.29-6.81c0.66,4.25,1.61,8.26,2.73,12.23
	c0.43,1.53,0.15,2.44-1.24,3.26c-2.93,1.73-5.78,3.61-8.65,5.45c-0.52,0.33-1.24,0.56-1.09,1.7c3.54-0.23,7.02,0.53,10.57,0.54
	c3.2,0.01,3.54,0.42,4.25,3.53C199.13,173.38,200.02,176.87,201.01,180.95z"/>
</svg>
